<?xml version="1.0" encoding="utf-8" standalone="no"?>
<!DOCTYPE svg PUBLIC "-//W3C//DTD SVG 1.1//EN"
  "http://www.w3.org/Graphics/SVG/1.1/DTD/svg11.dtd">
<svg height="426.2pt" version="1.1" viewBox="0 0 880.1975 426.2" width="880.1975pt" xmlns="http://www.w3.org/2000/svg" xmlns:xlink="http://www.w3.org/1999/xlink">
 <metadata>
  <rdf:RDF xmlns:cc="http://creativecommons.org/ns#" xmlns:dc="http://purl.org/dc/elements/1.1/" xmlns:rdf="http://www.w3.org/1999/02/22-rdf-syntax-ns#">
   <cc:Work>
    <dc:type rdf:resource="http://purl.org/dc/dcmitype/StillImage"/>
    <dc:date>2022-05-31T19:37:09.552077</dc:date>
    <dc:format>image/svg+xml</dc:format>
    <dc:creator>
     <cc:Agent>
      <dc:title>Matplotlib v3.4.1, https://matplotlib.org/</dc:title>
     </cc:Agent>
    </dc:creator>
   </cc:Work>
  </rdf:RDF>
 </metadata>
 <defs>
  <style type="text/css">*{stroke-linecap:butt;stroke-linejoin:round;}</style>
 </defs>
 <g id="figure_1">
  <g id="axes_1">
   <g id="patch_1">
    <path d="M 91.7975 339.84 
L 872.9975 339.84 
L 872.9975 7.2 
L 91.7975 7.2 
z
" style="fill:#ffffff;"/>
   </g>
   <g id="matplotlib.axis_1">
    <g id="xtick_1">
     <g id="line2d_1">
      <path clip-path="url(#pc1f6b99f48)" d="M 91.7975 339.84 
L 91.7975 7.2 
" style="fill:none;stroke:#dedede;stroke-linecap:square;"/>
     </g>
     <g id="text_1">
      <!-- 0 -->
      <g transform="translate(89.2525 352.91875)scale(0.08 -0.08)">
       <defs>
        <path d="M 2034 4250 
Q 1547 4250 1301 3770 
Q 1056 3291 1056 2328 
Q 1056 1369 1301 889 
Q 1547 409 2034 409 
Q 2525 409 2770 889 
Q 3016 1369 3016 2328 
Q 3016 3291 2770 3770 
Q 2525 4250 2034 4250 
z
M 2034 4750 
Q 2819 4750 3233 4129 
Q 3647 3509 3647 2328 
Q 3647 1150 3233 529 
Q 2819 -91 2034 -91 
Q 1250 -91 836 529 
Q 422 1150 422 2328 
Q 422 3509 836 4129 
Q 1250 4750 2034 4750 
z
" id="DejaVuSans-30" transform="scale(0.015625)"/>
       </defs>
       <use xlink:href="#DejaVuSans-30"/>
      </g>
     </g>
    </g>
    <g id="xtick_2">
     <g id="line2d_2">
      <path clip-path="url(#pc1f6b99f48)" d="M 249.118367 339.84 
L 249.118367 7.2 
" style="fill:none;stroke:#dedede;stroke-linecap:square;"/>
     </g>
     <g id="text_2">
      <!-- 20 -->
      <g transform="translate(244.028367 352.91875)scale(0.08 -0.08)">
       <defs>
        <path d="M 1228 531 
L 3431 531 
L 3431 0 
L 469 0 
L 469 531 
Q 828 903 1448 1529 
Q 2069 2156 2228 2338 
Q 2531 2678 2651 2914 
Q 2772 3150 2772 3378 
Q 2772 3750 2511 3984 
Q 2250 4219 1831 4219 
Q 1534 4219 1204 4116 
Q 875 4013 500 3803 
L 500 4441 
Q 881 4594 1212 4672 
Q 1544 4750 1819 4750 
Q 2544 4750 2975 4387 
Q 3406 4025 3406 3419 
Q 3406 3131 3298 2873 
Q 3191 2616 2906 2266 
Q 2828 2175 2409 1742 
Q 1991 1309 1228 531 
z
" id="DejaVuSans-32" transform="scale(0.015625)"/>
       </defs>
       <use xlink:href="#DejaVuSans-32"/>
       <use x="63.623047" xlink:href="#DejaVuSans-30"/>
      </g>
     </g>
    </g>
    <g id="xtick_3">
     <g id="line2d_3">
      <path clip-path="url(#pc1f6b99f48)" d="M 406.439235 339.84 
L 406.439235 7.2 
" style="fill:none;stroke:#dedede;stroke-linecap:square;"/>
     </g>
     <g id="text_3">
      <!-- 40 -->
      <g transform="translate(401.349235 352.91875)scale(0.08 -0.08)">
       <defs>
        <path d="M 2419 4116 
L 825 1625 
L 2419 1625 
L 2419 4116 
z
M 2253 4666 
L 3047 4666 
L 3047 1625 
L 3713 1625 
L 3713 1100 
L 3047 1100 
L 3047 0 
L 2419 0 
L 2419 1100 
L 313 1100 
L 313 1709 
L 2253 4666 
z
" id="DejaVuSans-34" transform="scale(0.015625)"/>
       </defs>
       <use xlink:href="#DejaVuSans-34"/>
       <use x="63.623047" xlink:href="#DejaVuSans-30"/>
      </g>
     </g>
    </g>
    <g id="xtick_4">
     <g id="line2d_4">
      <path clip-path="url(#pc1f6b99f48)" d="M 563.760102 339.84 
L 563.760102 7.2 
" style="fill:none;stroke:#dedede;stroke-linecap:square;"/>
     </g>
     <g id="text_4">
      <!-- 60 -->
      <g transform="translate(558.670102 352.91875)scale(0.08 -0.08)">
       <defs>
        <path d="M 2113 2584 
Q 1688 2584 1439 2293 
Q 1191 2003 1191 1497 
Q 1191 994 1439 701 
Q 1688 409 2113 409 
Q 2538 409 2786 701 
Q 3034 994 3034 1497 
Q 3034 2003 2786 2293 
Q 2538 2584 2113 2584 
z
M 3366 4563 
L 3366 3988 
Q 3128 4100 2886 4159 
Q 2644 4219 2406 4219 
Q 1781 4219 1451 3797 
Q 1122 3375 1075 2522 
Q 1259 2794 1537 2939 
Q 1816 3084 2150 3084 
Q 2853 3084 3261 2657 
Q 3669 2231 3669 1497 
Q 3669 778 3244 343 
Q 2819 -91 2113 -91 
Q 1303 -91 875 529 
Q 447 1150 447 2328 
Q 447 3434 972 4092 
Q 1497 4750 2381 4750 
Q 2619 4750 2861 4703 
Q 3103 4656 3366 4563 
z
" id="DejaVuSans-36" transform="scale(0.015625)"/>
       </defs>
       <use xlink:href="#DejaVuSans-36"/>
       <use x="63.623047" xlink:href="#DejaVuSans-30"/>
      </g>
     </g>
    </g>
    <g id="xtick_5">
     <g id="line2d_5">
      <path clip-path="url(#pc1f6b99f48)" d="M 721.080969 339.84 
L 721.080969 7.2 
" style="fill:none;stroke:#dedede;stroke-linecap:square;"/>
     </g>
     <g id="text_5">
      <!-- 80 -->
      <g transform="translate(715.990969 352.91875)scale(0.08 -0.08)">
       <defs>
        <path d="M 2034 2216 
Q 1584 2216 1326 1975 
Q 1069 1734 1069 1313 
Q 1069 891 1326 650 
Q 1584 409 2034 409 
Q 2484 409 2743 651 
Q 3003 894 3003 1313 
Q 3003 1734 2745 1975 
Q 2488 2216 2034 2216 
z
M 1403 2484 
Q 997 2584 770 2862 
Q 544 3141 544 3541 
Q 544 4100 942 4425 
Q 1341 4750 2034 4750 
Q 2731 4750 3128 4425 
Q 3525 4100 3525 3541 
Q 3525 3141 3298 2862 
Q 3072 2584 2669 2484 
Q 3125 2378 3379 2068 
Q 3634 1759 3634 1313 
Q 3634 634 3220 271 
Q 2806 -91 2034 -91 
Q 1263 -91 848 271 
Q 434 634 434 1313 
Q 434 1759 690 2068 
Q 947 2378 1403 2484 
z
M 1172 3481 
Q 1172 3119 1398 2916 
Q 1625 2713 2034 2713 
Q 2441 2713 2670 2916 
Q 2900 3119 2900 3481 
Q 2900 3844 2670 4047 
Q 2441 4250 2034 4250 
Q 1625 4250 1398 4047 
Q 1172 3844 1172 3481 
z
" id="DejaVuSans-38" transform="scale(0.015625)"/>
       </defs>
       <use xlink:href="#DejaVuSans-38"/>
       <use x="63.623047" xlink:href="#DejaVuSans-30"/>
      </g>
     </g>
    </g>
    <g id="text_6">
     <!-- Percentage of Total Sequences -->
     <g transform="translate(405.742031 366.180937)scale(0.1 -0.1)">
      <defs>
       <path d="M 1259 4147 
L 1259 2394 
L 2053 2394 
Q 2494 2394 2734 2622 
Q 2975 2850 2975 3272 
Q 2975 3691 2734 3919 
Q 2494 4147 2053 4147 
L 1259 4147 
z
M 628 4666 
L 2053 4666 
Q 2838 4666 3239 4311 
Q 3641 3956 3641 3272 
Q 3641 2581 3239 2228 
Q 2838 1875 2053 1875 
L 1259 1875 
L 1259 0 
L 628 0 
L 628 4666 
z
" id="DejaVuSans-50" transform="scale(0.015625)"/>
       <path d="M 3597 1894 
L 3597 1613 
L 953 1613 
Q 991 1019 1311 708 
Q 1631 397 2203 397 
Q 2534 397 2845 478 
Q 3156 559 3463 722 
L 3463 178 
Q 3153 47 2828 -22 
Q 2503 -91 2169 -91 
Q 1331 -91 842 396 
Q 353 884 353 1716 
Q 353 2575 817 3079 
Q 1281 3584 2069 3584 
Q 2775 3584 3186 3129 
Q 3597 2675 3597 1894 
z
M 3022 2063 
Q 3016 2534 2758 2815 
Q 2500 3097 2075 3097 
Q 1594 3097 1305 2825 
Q 1016 2553 972 2059 
L 3022 2063 
z
" id="DejaVuSans-65" transform="scale(0.015625)"/>
       <path d="M 2631 2963 
Q 2534 3019 2420 3045 
Q 2306 3072 2169 3072 
Q 1681 3072 1420 2755 
Q 1159 2438 1159 1844 
L 1159 0 
L 581 0 
L 581 3500 
L 1159 3500 
L 1159 2956 
Q 1341 3275 1631 3429 
Q 1922 3584 2338 3584 
Q 2397 3584 2469 3576 
Q 2541 3569 2628 3553 
L 2631 2963 
z
" id="DejaVuSans-72" transform="scale(0.015625)"/>
       <path d="M 3122 3366 
L 3122 2828 
Q 2878 2963 2633 3030 
Q 2388 3097 2138 3097 
Q 1578 3097 1268 2742 
Q 959 2388 959 1747 
Q 959 1106 1268 751 
Q 1578 397 2138 397 
Q 2388 397 2633 464 
Q 2878 531 3122 666 
L 3122 134 
Q 2881 22 2623 -34 
Q 2366 -91 2075 -91 
Q 1284 -91 818 406 
Q 353 903 353 1747 
Q 353 2603 823 3093 
Q 1294 3584 2113 3584 
Q 2378 3584 2631 3529 
Q 2884 3475 3122 3366 
z
" id="DejaVuSans-63" transform="scale(0.015625)"/>
       <path d="M 3513 2113 
L 3513 0 
L 2938 0 
L 2938 2094 
Q 2938 2591 2744 2837 
Q 2550 3084 2163 3084 
Q 1697 3084 1428 2787 
Q 1159 2491 1159 1978 
L 1159 0 
L 581 0 
L 581 3500 
L 1159 3500 
L 1159 2956 
Q 1366 3272 1645 3428 
Q 1925 3584 2291 3584 
Q 2894 3584 3203 3211 
Q 3513 2838 3513 2113 
z
" id="DejaVuSans-6e" transform="scale(0.015625)"/>
       <path d="M 1172 4494 
L 1172 3500 
L 2356 3500 
L 2356 3053 
L 1172 3053 
L 1172 1153 
Q 1172 725 1289 603 
Q 1406 481 1766 481 
L 2356 481 
L 2356 0 
L 1766 0 
Q 1100 0 847 248 
Q 594 497 594 1153 
L 594 3053 
L 172 3053 
L 172 3500 
L 594 3500 
L 594 4494 
L 1172 4494 
z
" id="DejaVuSans-74" transform="scale(0.015625)"/>
       <path d="M 2194 1759 
Q 1497 1759 1228 1600 
Q 959 1441 959 1056 
Q 959 750 1161 570 
Q 1363 391 1709 391 
Q 2188 391 2477 730 
Q 2766 1069 2766 1631 
L 2766 1759 
L 2194 1759 
z
M 3341 1997 
L 3341 0 
L 2766 0 
L 2766 531 
Q 2569 213 2275 61 
Q 1981 -91 1556 -91 
Q 1019 -91 701 211 
Q 384 513 384 1019 
Q 384 1609 779 1909 
Q 1175 2209 1959 2209 
L 2766 2209 
L 2766 2266 
Q 2766 2663 2505 2880 
Q 2244 3097 1772 3097 
Q 1472 3097 1187 3025 
Q 903 2953 641 2809 
L 641 3341 
Q 956 3463 1253 3523 
Q 1550 3584 1831 3584 
Q 2591 3584 2966 3190 
Q 3341 2797 3341 1997 
z
" id="DejaVuSans-61" transform="scale(0.015625)"/>
       <path d="M 2906 1791 
Q 2906 2416 2648 2759 
Q 2391 3103 1925 3103 
Q 1463 3103 1205 2759 
Q 947 2416 947 1791 
Q 947 1169 1205 825 
Q 1463 481 1925 481 
Q 2391 481 2648 825 
Q 2906 1169 2906 1791 
z
M 3481 434 
Q 3481 -459 3084 -895 
Q 2688 -1331 1869 -1331 
Q 1566 -1331 1297 -1286 
Q 1028 -1241 775 -1147 
L 775 -588 
Q 1028 -725 1275 -790 
Q 1522 -856 1778 -856 
Q 2344 -856 2625 -561 
Q 2906 -266 2906 331 
L 2906 616 
Q 2728 306 2450 153 
Q 2172 0 1784 0 
Q 1141 0 747 490 
Q 353 981 353 1791 
Q 353 2603 747 3093 
Q 1141 3584 1784 3584 
Q 2172 3584 2450 3431 
Q 2728 3278 2906 2969 
L 2906 3500 
L 3481 3500 
L 3481 434 
z
" id="DejaVuSans-67" transform="scale(0.015625)"/>
       <path id="DejaVuSans-20" transform="scale(0.015625)"/>
       <path d="M 1959 3097 
Q 1497 3097 1228 2736 
Q 959 2375 959 1747 
Q 959 1119 1226 758 
Q 1494 397 1959 397 
Q 2419 397 2687 759 
Q 2956 1122 2956 1747 
Q 2956 2369 2687 2733 
Q 2419 3097 1959 3097 
z
M 1959 3584 
Q 2709 3584 3137 3096 
Q 3566 2609 3566 1747 
Q 3566 888 3137 398 
Q 2709 -91 1959 -91 
Q 1206 -91 779 398 
Q 353 888 353 1747 
Q 353 2609 779 3096 
Q 1206 3584 1959 3584 
z
" id="DejaVuSans-6f" transform="scale(0.015625)"/>
       <path d="M 2375 4863 
L 2375 4384 
L 1825 4384 
Q 1516 4384 1395 4259 
Q 1275 4134 1275 3809 
L 1275 3500 
L 2222 3500 
L 2222 3053 
L 1275 3053 
L 1275 0 
L 697 0 
L 697 3053 
L 147 3053 
L 147 3500 
L 697 3500 
L 697 3744 
Q 697 4328 969 4595 
Q 1241 4863 1831 4863 
L 2375 4863 
z
" id="DejaVuSans-66" transform="scale(0.015625)"/>
       <path d="M -19 4666 
L 3928 4666 
L 3928 4134 
L 2272 4134 
L 2272 0 
L 1638 0 
L 1638 4134 
L -19 4134 
L -19 4666 
z
" id="DejaVuSans-54" transform="scale(0.015625)"/>
       <path d="M 603 4863 
L 1178 4863 
L 1178 0 
L 603 0 
L 603 4863 
z
" id="DejaVuSans-6c" transform="scale(0.015625)"/>
       <path d="M 3425 4513 
L 3425 3897 
Q 3066 4069 2747 4153 
Q 2428 4238 2131 4238 
Q 1616 4238 1336 4038 
Q 1056 3838 1056 3469 
Q 1056 3159 1242 3001 
Q 1428 2844 1947 2747 
L 2328 2669 
Q 3034 2534 3370 2195 
Q 3706 1856 3706 1288 
Q 3706 609 3251 259 
Q 2797 -91 1919 -91 
Q 1588 -91 1214 -16 
Q 841 59 441 206 
L 441 856 
Q 825 641 1194 531 
Q 1563 422 1919 422 
Q 2459 422 2753 634 
Q 3047 847 3047 1241 
Q 3047 1584 2836 1778 
Q 2625 1972 2144 2069 
L 1759 2144 
Q 1053 2284 737 2584 
Q 422 2884 422 3419 
Q 422 4038 858 4394 
Q 1294 4750 2059 4750 
Q 2388 4750 2728 4690 
Q 3069 4631 3425 4513 
z
" id="DejaVuSans-53" transform="scale(0.015625)"/>
       <path d="M 947 1747 
Q 947 1113 1208 752 
Q 1469 391 1925 391 
Q 2381 391 2643 752 
Q 2906 1113 2906 1747 
Q 2906 2381 2643 2742 
Q 2381 3103 1925 3103 
Q 1469 3103 1208 2742 
Q 947 2381 947 1747 
z
M 2906 525 
Q 2725 213 2448 61 
Q 2172 -91 1784 -91 
Q 1150 -91 751 415 
Q 353 922 353 1747 
Q 353 2572 751 3078 
Q 1150 3584 1784 3584 
Q 2172 3584 2448 3432 
Q 2725 3281 2906 2969 
L 2906 3500 
L 3481 3500 
L 3481 -1331 
L 2906 -1331 
L 2906 525 
z
" id="DejaVuSans-71" transform="scale(0.015625)"/>
       <path d="M 544 1381 
L 544 3500 
L 1119 3500 
L 1119 1403 
Q 1119 906 1312 657 
Q 1506 409 1894 409 
Q 2359 409 2629 706 
Q 2900 1003 2900 1516 
L 2900 3500 
L 3475 3500 
L 3475 0 
L 2900 0 
L 2900 538 
Q 2691 219 2414 64 
Q 2138 -91 1772 -91 
Q 1169 -91 856 284 
Q 544 659 544 1381 
z
M 1991 3584 
L 1991 3584 
z
" id="DejaVuSans-75" transform="scale(0.015625)"/>
       <path d="M 2834 3397 
L 2834 2853 
Q 2591 2978 2328 3040 
Q 2066 3103 1784 3103 
Q 1356 3103 1142 2972 
Q 928 2841 928 2578 
Q 928 2378 1081 2264 
Q 1234 2150 1697 2047 
L 1894 2003 
Q 2506 1872 2764 1633 
Q 3022 1394 3022 966 
Q 3022 478 2636 193 
Q 2250 -91 1575 -91 
Q 1294 -91 989 -36 
Q 684 19 347 128 
L 347 722 
Q 666 556 975 473 
Q 1284 391 1588 391 
Q 1994 391 2212 530 
Q 2431 669 2431 922 
Q 2431 1156 2273 1281 
Q 2116 1406 1581 1522 
L 1381 1569 
Q 847 1681 609 1914 
Q 372 2147 372 2553 
Q 372 3047 722 3315 
Q 1072 3584 1716 3584 
Q 2034 3584 2315 3537 
Q 2597 3491 2834 3397 
z
" id="DejaVuSans-73" transform="scale(0.015625)"/>
      </defs>
      <use xlink:href="#DejaVuSans-50"/>
      <use x="56.677734" xlink:href="#DejaVuSans-65"/>
      <use x="118.201172" xlink:href="#DejaVuSans-72"/>
      <use x="157.064453" xlink:href="#DejaVuSans-63"/>
      <use x="212.044922" xlink:href="#DejaVuSans-65"/>
      <use x="273.568359" xlink:href="#DejaVuSans-6e"/>
      <use x="336.947266" xlink:href="#DejaVuSans-74"/>
      <use x="376.15625" xlink:href="#DejaVuSans-61"/>
      <use x="437.435547" xlink:href="#DejaVuSans-67"/>
      <use x="500.912109" xlink:href="#DejaVuSans-65"/>
      <use x="562.435547" xlink:href="#DejaVuSans-20"/>
      <use x="594.222656" xlink:href="#DejaVuSans-6f"/>
      <use x="655.404297" xlink:href="#DejaVuSans-66"/>
      <use x="690.609375" xlink:href="#DejaVuSans-20"/>
      <use x="722.396484" xlink:href="#DejaVuSans-54"/>
      <use x="766.480469" xlink:href="#DejaVuSans-6f"/>
      <use x="827.662109" xlink:href="#DejaVuSans-74"/>
      <use x="866.871094" xlink:href="#DejaVuSans-61"/>
      <use x="928.150391" xlink:href="#DejaVuSans-6c"/>
      <use x="955.933594" xlink:href="#DejaVuSans-20"/>
      <use x="987.720703" xlink:href="#DejaVuSans-53"/>
      <use x="1051.197266" xlink:href="#DejaVuSans-65"/>
      <use x="1112.720703" xlink:href="#DejaVuSans-71"/>
      <use x="1176.197266" xlink:href="#DejaVuSans-75"/>
      <use x="1239.576172" xlink:href="#DejaVuSans-65"/>
      <use x="1301.099609" xlink:href="#DejaVuSans-6e"/>
      <use x="1364.478516" xlink:href="#DejaVuSans-63"/>
      <use x="1419.458984" xlink:href="#DejaVuSans-65"/>
      <use x="1480.982422" xlink:href="#DejaVuSans-73"/>
     </g>
    </g>
   </g>
   <g id="matplotlib.axis_2">
    <g id="ytick_1">
     <g id="text_7">
      <!-- X2_lib_raw_1 -->
      <g transform="translate(32.88 24.099375)scale(0.08 -0.08)">
       <defs>
        <path d="M 403 4666 
L 1081 4666 
L 2241 2931 
L 3406 4666 
L 4084 4666 
L 2584 2425 
L 4184 0 
L 3506 0 
L 2194 1984 
L 872 0 
L 191 0 
L 1856 2491 
L 403 4666 
z
" id="DejaVuSans-58" transform="scale(0.015625)"/>
        <path d="M 3263 -1063 
L 3263 -1509 
L -63 -1509 
L -63 -1063 
L 3263 -1063 
z
" id="DejaVuSans-5f" transform="scale(0.015625)"/>
        <path d="M 603 3500 
L 1178 3500 
L 1178 0 
L 603 0 
L 603 3500 
z
M 603 4863 
L 1178 4863 
L 1178 4134 
L 603 4134 
L 603 4863 
z
" id="DejaVuSans-69" transform="scale(0.015625)"/>
        <path d="M 3116 1747 
Q 3116 2381 2855 2742 
Q 2594 3103 2138 3103 
Q 1681 3103 1420 2742 
Q 1159 2381 1159 1747 
Q 1159 1113 1420 752 
Q 1681 391 2138 391 
Q 2594 391 2855 752 
Q 3116 1113 3116 1747 
z
M 1159 2969 
Q 1341 3281 1617 3432 
Q 1894 3584 2278 3584 
Q 2916 3584 3314 3078 
Q 3713 2572 3713 1747 
Q 3713 922 3314 415 
Q 2916 -91 2278 -91 
Q 1894 -91 1617 61 
Q 1341 213 1159 525 
L 1159 0 
L 581 0 
L 581 4863 
L 1159 4863 
L 1159 2969 
z
" id="DejaVuSans-62" transform="scale(0.015625)"/>
        <path d="M 269 3500 
L 844 3500 
L 1563 769 
L 2278 3500 
L 2956 3500 
L 3675 769 
L 4391 3500 
L 4966 3500 
L 4050 0 
L 3372 0 
L 2619 2869 
L 1863 0 
L 1184 0 
L 269 3500 
z
" id="DejaVuSans-77" transform="scale(0.015625)"/>
        <path d="M 794 531 
L 1825 531 
L 1825 4091 
L 703 3866 
L 703 4441 
L 1819 4666 
L 2450 4666 
L 2450 531 
L 3481 531 
L 3481 0 
L 794 0 
L 794 531 
z
" id="DejaVuSans-31" transform="scale(0.015625)"/>
       </defs>
       <use xlink:href="#DejaVuSans-58"/>
       <use x="68.505859" xlink:href="#DejaVuSans-32"/>
       <use x="132.128906" xlink:href="#DejaVuSans-5f"/>
       <use x="182.128906" xlink:href="#DejaVuSans-6c"/>
       <use x="209.912109" xlink:href="#DejaVuSans-69"/>
       <use x="237.695312" xlink:href="#DejaVuSans-62"/>
       <use x="301.171875" xlink:href="#DejaVuSans-5f"/>
       <use x="351.171875" xlink:href="#DejaVuSans-72"/>
       <use x="392.285156" xlink:href="#DejaVuSans-61"/>
       <use x="453.564453" xlink:href="#DejaVuSans-77"/>
       <use x="535.351562" xlink:href="#DejaVuSans-5f"/>
       <use x="585.351562" xlink:href="#DejaVuSans-31"/>
      </g>
     </g>
    </g>
    <g id="ytick_2">
     <g id="text_8">
      <!-- X2_lib_raw_2 -->
      <g transform="translate(32.88 51.819375)scale(0.08 -0.08)">
       <use xlink:href="#DejaVuSans-58"/>
       <use x="68.505859" xlink:href="#DejaVuSans-32"/>
       <use x="132.128906" xlink:href="#DejaVuSans-5f"/>
       <use x="182.128906" xlink:href="#DejaVuSans-6c"/>
       <use x="209.912109" xlink:href="#DejaVuSans-69"/>
       <use x="237.695312" xlink:href="#DejaVuSans-62"/>
       <use x="301.171875" xlink:href="#DejaVuSans-5f"/>
       <use x="351.171875" xlink:href="#DejaVuSans-72"/>
       <use x="392.285156" xlink:href="#DejaVuSans-61"/>
       <use x="453.564453" xlink:href="#DejaVuSans-77"/>
       <use x="535.351562" xlink:href="#DejaVuSans-5f"/>
       <use x="585.351562" xlink:href="#DejaVuSans-32"/>
      </g>
     </g>
    </g>
    <g id="ytick_3">
     <g id="text_9">
      <!-- X2_neg_raw_1 -->
      <g transform="translate(27.3325 79.46875)scale(0.08 -0.08)">
       <use xlink:href="#DejaVuSans-58"/>
       <use x="68.505859" xlink:href="#DejaVuSans-32"/>
       <use x="132.128906" xlink:href="#DejaVuSans-5f"/>
       <use x="182.128906" xlink:href="#DejaVuSans-6e"/>
       <use x="245.507812" xlink:href="#DejaVuSans-65"/>
       <use x="307.03125" xlink:href="#DejaVuSans-67"/>
       <use x="370.507812" xlink:href="#DejaVuSans-5f"/>
       <use x="420.507812" xlink:href="#DejaVuSans-72"/>
       <use x="461.621094" xlink:href="#DejaVuSans-61"/>
       <use x="522.900391" xlink:href="#DejaVuSans-77"/>
       <use x="604.6875" xlink:href="#DejaVuSans-5f"/>
       <use x="654.6875" xlink:href="#DejaVuSans-31"/>
      </g>
     </g>
    </g>
    <g id="ytick_4">
     <g id="text_10">
      <!-- X2_neg_raw_2 -->
      <g transform="translate(27.3325 107.18875)scale(0.08 -0.08)">
       <use xlink:href="#DejaVuSans-58"/>
       <use x="68.505859" xlink:href="#DejaVuSans-32"/>
       <use x="132.128906" xlink:href="#DejaVuSans-5f"/>
       <use x="182.128906" xlink:href="#DejaVuSans-6e"/>
       <use x="245.507812" xlink:href="#DejaVuSans-65"/>
       <use x="307.03125" xlink:href="#DejaVuSans-67"/>
       <use x="370.507812" xlink:href="#DejaVuSans-5f"/>
       <use x="420.507812" xlink:href="#DejaVuSans-72"/>
       <use x="461.621094" xlink:href="#DejaVuSans-61"/>
       <use x="522.900391" xlink:href="#DejaVuSans-77"/>
       <use x="604.6875" xlink:href="#DejaVuSans-5f"/>
       <use x="654.6875" xlink:href="#DejaVuSans-32"/>
      </g>
     </g>
    </g>
    <g id="ytick_5">
     <g id="text_11">
      <!-- X2rL41_post_raw_1 -->
      <g transform="translate(7.2 134.90875)scale(0.08 -0.08)">
       <defs>
        <path d="M 628 4666 
L 1259 4666 
L 1259 531 
L 3531 531 
L 3531 0 
L 628 0 
L 628 4666 
z
" id="DejaVuSans-4c" transform="scale(0.015625)"/>
        <path d="M 1159 525 
L 1159 -1331 
L 581 -1331 
L 581 3500 
L 1159 3500 
L 1159 2969 
Q 1341 3281 1617 3432 
Q 1894 3584 2278 3584 
Q 2916 3584 3314 3078 
Q 3713 2572 3713 1747 
Q 3713 922 3314 415 
Q 2916 -91 2278 -91 
Q 1894 -91 1617 61 
Q 1341 213 1159 525 
z
M 3116 1747 
Q 3116 2381 2855 2742 
Q 2594 3103 2138 3103 
Q 1681 3103 1420 2742 
Q 1159 2381 1159 1747 
Q 1159 1113 1420 752 
Q 1681 391 2138 391 
Q 2594 391 2855 752 
Q 3116 1113 3116 1747 
z
" id="DejaVuSans-70" transform="scale(0.015625)"/>
       </defs>
       <use xlink:href="#DejaVuSans-58"/>
       <use x="68.505859" xlink:href="#DejaVuSans-32"/>
       <use x="132.128906" xlink:href="#DejaVuSans-72"/>
       <use x="173.242188" xlink:href="#DejaVuSans-4c"/>
       <use x="228.955078" xlink:href="#DejaVuSans-34"/>
       <use x="292.578125" xlink:href="#DejaVuSans-31"/>
       <use x="356.201172" xlink:href="#DejaVuSans-5f"/>
       <use x="406.201172" xlink:href="#DejaVuSans-70"/>
       <use x="469.677734" xlink:href="#DejaVuSans-6f"/>
       <use x="530.859375" xlink:href="#DejaVuSans-73"/>
       <use x="582.958984" xlink:href="#DejaVuSans-74"/>
       <use x="622.167969" xlink:href="#DejaVuSans-5f"/>
       <use x="672.167969" xlink:href="#DejaVuSans-72"/>
       <use x="713.28125" xlink:href="#DejaVuSans-61"/>
       <use x="774.560547" xlink:href="#DejaVuSans-77"/>
       <use x="856.347656" xlink:href="#DejaVuSans-5f"/>
       <use x="906.347656" xlink:href="#DejaVuSans-31"/>
      </g>
     </g>
    </g>
    <g id="ytick_6">
     <g id="text_12">
      <!-- X2rL41_post_raw_2 -->
      <g transform="translate(7.2 162.62875)scale(0.08 -0.08)">
       <use xlink:href="#DejaVuSans-58"/>
       <use x="68.505859" xlink:href="#DejaVuSans-32"/>
       <use x="132.128906" xlink:href="#DejaVuSans-72"/>
       <use x="173.242188" xlink:href="#DejaVuSans-4c"/>
       <use x="228.955078" xlink:href="#DejaVuSans-34"/>
       <use x="292.578125" xlink:href="#DejaVuSans-31"/>
       <use x="356.201172" xlink:href="#DejaVuSans-5f"/>
       <use x="406.201172" xlink:href="#DejaVuSans-70"/>
       <use x="469.677734" xlink:href="#DejaVuSans-6f"/>
       <use x="530.859375" xlink:href="#DejaVuSans-73"/>
       <use x="582.958984" xlink:href="#DejaVuSans-74"/>
       <use x="622.167969" xlink:href="#DejaVuSans-5f"/>
       <use x="672.167969" xlink:href="#DejaVuSans-72"/>
       <use x="713.28125" xlink:href="#DejaVuSans-61"/>
       <use x="774.560547" xlink:href="#DejaVuSans-77"/>
       <use x="856.347656" xlink:href="#DejaVuSans-5f"/>
       <use x="906.347656" xlink:href="#DejaVuSans-32"/>
      </g>
     </g>
    </g>
    <g id="ytick_7">
     <g id="text_13">
      <!-- X2rL41_pre_raw_1 -->
      <g transform="translate(11.3675 190.34875)scale(0.08 -0.08)">
       <use xlink:href="#DejaVuSans-58"/>
       <use x="68.505859" xlink:href="#DejaVuSans-32"/>
       <use x="132.128906" xlink:href="#DejaVuSans-72"/>
       <use x="173.242188" xlink:href="#DejaVuSans-4c"/>
       <use x="228.955078" xlink:href="#DejaVuSans-34"/>
       <use x="292.578125" xlink:href="#DejaVuSans-31"/>
       <use x="356.201172" xlink:href="#DejaVuSans-5f"/>
       <use x="406.201172" xlink:href="#DejaVuSans-70"/>
       <use x="469.677734" xlink:href="#DejaVuSans-72"/>
       <use x="508.541016" xlink:href="#DejaVuSans-65"/>
       <use x="570.064453" xlink:href="#DejaVuSans-5f"/>
       <use x="620.064453" xlink:href="#DejaVuSans-72"/>
       <use x="661.177734" xlink:href="#DejaVuSans-61"/>
       <use x="722.457031" xlink:href="#DejaVuSans-77"/>
       <use x="804.244141" xlink:href="#DejaVuSans-5f"/>
       <use x="854.244141" xlink:href="#DejaVuSans-31"/>
      </g>
     </g>
    </g>
    <g id="ytick_8">
     <g id="text_14">
      <!-- X2rL41_pre_raw_2 -->
      <g transform="translate(11.3675 218.06875)scale(0.08 -0.08)">
       <use xlink:href="#DejaVuSans-58"/>
       <use x="68.505859" xlink:href="#DejaVuSans-32"/>
       <use x="132.128906" xlink:href="#DejaVuSans-72"/>
       <use x="173.242188" xlink:href="#DejaVuSans-4c"/>
       <use x="228.955078" xlink:href="#DejaVuSans-34"/>
       <use x="292.578125" xlink:href="#DejaVuSans-31"/>
       <use x="356.201172" xlink:href="#DejaVuSans-5f"/>
       <use x="406.201172" xlink:href="#DejaVuSans-70"/>
       <use x="469.677734" xlink:href="#DejaVuSans-72"/>
       <use x="508.541016" xlink:href="#DejaVuSans-65"/>
       <use x="570.064453" xlink:href="#DejaVuSans-5f"/>
       <use x="620.064453" xlink:href="#DejaVuSans-72"/>
       <use x="661.177734" xlink:href="#DejaVuSans-61"/>
       <use x="722.457031" xlink:href="#DejaVuSans-77"/>
       <use x="804.244141" xlink:href="#DejaVuSans-5f"/>
       <use x="854.244141" xlink:href="#DejaVuSans-32"/>
      </g>
     </g>
    </g>
    <g id="ytick_9">
     <g id="text_15">
      <!-- X2rL42_post_raw_1 -->
      <g transform="translate(7.2 245.78875)scale(0.08 -0.08)">
       <use xlink:href="#DejaVuSans-58"/>
       <use x="68.505859" xlink:href="#DejaVuSans-32"/>
       <use x="132.128906" xlink:href="#DejaVuSans-72"/>
       <use x="173.242188" xlink:href="#DejaVuSans-4c"/>
       <use x="228.955078" xlink:href="#DejaVuSans-34"/>
       <use x="292.578125" xlink:href="#DejaVuSans-32"/>
       <use x="356.201172" xlink:href="#DejaVuSans-5f"/>
       <use x="406.201172" xlink:href="#DejaVuSans-70"/>
       <use x="469.677734" xlink:href="#DejaVuSans-6f"/>
       <use x="530.859375" xlink:href="#DejaVuSans-73"/>
       <use x="582.958984" xlink:href="#DejaVuSans-74"/>
       <use x="622.167969" xlink:href="#DejaVuSans-5f"/>
       <use x="672.167969" xlink:href="#DejaVuSans-72"/>
       <use x="713.28125" xlink:href="#DejaVuSans-61"/>
       <use x="774.560547" xlink:href="#DejaVuSans-77"/>
       <use x="856.347656" xlink:href="#DejaVuSans-5f"/>
       <use x="906.347656" xlink:href="#DejaVuSans-31"/>
      </g>
     </g>
    </g>
    <g id="ytick_10">
     <g id="text_16">
      <!-- X2rL42_post_raw_2 -->
      <g transform="translate(7.2 273.50875)scale(0.08 -0.08)">
       <use xlink:href="#DejaVuSans-58"/>
       <use x="68.505859" xlink:href="#DejaVuSans-32"/>
       <use x="132.128906" xlink:href="#DejaVuSans-72"/>
       <use x="173.242188" xlink:href="#DejaVuSans-4c"/>
       <use x="228.955078" xlink:href="#DejaVuSans-34"/>
       <use x="292.578125" xlink:href="#DejaVuSans-32"/>
       <use x="356.201172" xlink:href="#DejaVuSans-5f"/>
       <use x="406.201172" xlink:href="#DejaVuSans-70"/>
       <use x="469.677734" xlink:href="#DejaVuSans-6f"/>
       <use x="530.859375" xlink:href="#DejaVuSans-73"/>
       <use x="582.958984" xlink:href="#DejaVuSans-74"/>
       <use x="622.167969" xlink:href="#DejaVuSans-5f"/>
       <use x="672.167969" xlink:href="#DejaVuSans-72"/>
       <use x="713.28125" xlink:href="#DejaVuSans-61"/>
       <use x="774.560547" xlink:href="#DejaVuSans-77"/>
       <use x="856.347656" xlink:href="#DejaVuSans-5f"/>
       <use x="906.347656" xlink:href="#DejaVuSans-32"/>
      </g>
     </g>
    </g>
    <g id="ytick_11">
     <g id="text_17">
      <!-- X2rL42_pre_raw_1 -->
      <g transform="translate(11.3675 301.22875)scale(0.08 -0.08)">
       <use xlink:href="#DejaVuSans-58"/>
       <use x="68.505859" xlink:href="#DejaVuSans-32"/>
       <use x="132.128906" xlink:href="#DejaVuSans-72"/>
       <use x="173.242188" xlink:href="#DejaVuSans-4c"/>
       <use x="228.955078" xlink:href="#DejaVuSans-34"/>
       <use x="292.578125" xlink:href="#DejaVuSans-32"/>
       <use x="356.201172" xlink:href="#DejaVuSans-5f"/>
       <use x="406.201172" xlink:href="#DejaVuSans-70"/>
       <use x="469.677734" xlink:href="#DejaVuSans-72"/>
       <use x="508.541016" xlink:href="#DejaVuSans-65"/>
       <use x="570.064453" xlink:href="#DejaVuSans-5f"/>
       <use x="620.064453" xlink:href="#DejaVuSans-72"/>
       <use x="661.177734" xlink:href="#DejaVuSans-61"/>
       <use x="722.457031" xlink:href="#DejaVuSans-77"/>
       <use x="804.244141" xlink:href="#DejaVuSans-5f"/>
       <use x="854.244141" xlink:href="#DejaVuSans-31"/>
      </g>
     </g>
    </g>
    <g id="ytick_12">
     <g id="text_18">
      <!-- X2rL42_pre_raw_2 -->
      <g transform="translate(11.3675 328.94875)scale(0.08 -0.08)">
       <use xlink:href="#DejaVuSans-58"/>
       <use x="68.505859" xlink:href="#DejaVuSans-32"/>
       <use x="132.128906" xlink:href="#DejaVuSans-72"/>
       <use x="173.242188" xlink:href="#DejaVuSans-4c"/>
       <use x="228.955078" xlink:href="#DejaVuSans-34"/>
       <use x="292.578125" xlink:href="#DejaVuSans-32"/>
       <use x="356.201172" xlink:href="#DejaVuSans-5f"/>
       <use x="406.201172" xlink:href="#DejaVuSans-70"/>
       <use x="469.677734" xlink:href="#DejaVuSans-72"/>
       <use x="508.541016" xlink:href="#DejaVuSans-65"/>
       <use x="570.064453" xlink:href="#DejaVuSans-5f"/>
       <use x="620.064453" xlink:href="#DejaVuSans-72"/>
       <use x="661.177734" xlink:href="#DejaVuSans-61"/>
       <use x="722.457031" xlink:href="#DejaVuSans-77"/>
       <use x="804.244141" xlink:href="#DejaVuSans-5f"/>
       <use x="854.244141" xlink:href="#DejaVuSans-32"/>
      </g>
     </g>
    </g>
   </g>
   <g id="patch_2">
    <path clip-path="url(#pc1f6b99f48)" d="M 91.7975 9.972 
L 766.121922 9.972 
L 766.121922 32.148 
L 91.7975 32.148 
z
" style="fill:#7cb5ec;"/>
   </g>
   <g id="patch_3">
    <path clip-path="url(#pc1f6b99f48)" d="M 91.7975 37.692 
L 813.060603 37.692 
L 813.060603 59.868 
L 91.7975 59.868 
z
" style="fill:#7cb5ec;"/>
   </g>
   <g id="patch_4">
    <path clip-path="url(#pc1f6b99f48)" d="M 91.7975 65.412 
L 778.733174 65.412 
L 778.733174 87.588 
L 91.7975 87.588 
z
" style="fill:#7cb5ec;"/>
   </g>
   <g id="patch_5">
    <path clip-path="url(#pc1f6b99f48)" d="M 91.7975 93.132 
L 814.027491 93.132 
L 814.027491 115.308 
L 91.7975 115.308 
z
" style="fill:#7cb5ec;"/>
   </g>
   <g id="patch_6">
    <path clip-path="url(#pc1f6b99f48)" d="M 91.7975 120.852 
L 769.851066 120.852 
L 769.851066 143.028 
L 91.7975 143.028 
z
" style="fill:#7cb5ec;"/>
   </g>
   <g id="patch_7">
    <path clip-path="url(#pc1f6b99f48)" d="M 91.7975 148.572 
L 709.8465 148.572 
L 709.8465 170.748 
L 91.7975 170.748 
z
" style="fill:#7cb5ec;"/>
   </g>
   <g id="patch_8">
    <path clip-path="url(#pc1f6b99f48)" d="M 91.7975 176.292 
L 762.383987 176.292 
L 762.383987 198.468 
L 91.7975 198.468 
z
" style="fill:#7cb5ec;"/>
   </g>
   <g id="patch_9">
    <path clip-path="url(#pc1f6b99f48)" d="M 91.7975 204.012 
L 718.0412 204.012 
L 718.0412 226.188 
L 91.7975 226.188 
z
" style="fill:#7cb5ec;"/>
   </g>
   <g id="patch_10">
    <path clip-path="url(#pc1f6b99f48)" d="M 91.7975 231.732 
L 767.772773 231.732 
L 767.772773 253.908 
L 91.7975 253.908 
z
" style="fill:#7cb5ec;"/>
   </g>
   <g id="patch_11">
    <path clip-path="url(#pc1f6b99f48)" d="M 91.7975 259.452 
L 702.810413 259.452 
L 702.810413 281.628 
L 91.7975 281.628 
z
" style="fill:#7cb5ec;"/>
   </g>
   <g id="patch_12">
    <path clip-path="url(#pc1f6b99f48)" d="M 91.7975 287.172 
L 758.94626 287.172 
L 758.94626 309.348 
L 91.7975 309.348 
z
" style="fill:#7cb5ec;"/>
   </g>
   <g id="patch_13">
    <path clip-path="url(#pc1f6b99f48)" d="M 91.7975 314.892 
L 732.390759 314.892 
L 732.390759 337.068 
L 91.7975 337.068 
z
" style="fill:#7cb5ec;"/>
   </g>
   <g id="patch_14">
    <path clip-path="url(#pc1f6b99f48)" d="M 766.121922 9.972 
L 832.674051 9.972 
L 832.674051 32.148 
L 766.121922 32.148 
z
" style="fill:#434348;"/>
   </g>
   <g id="patch_15">
    <path clip-path="url(#pc1f6b99f48)" d="M 813.060603 37.692 
L 823.516648 37.692 
L 823.516648 59.868 
L 813.060603 59.868 
z
" style="fill:#434348;"/>
   </g>
   <g id="patch_16">
    <path clip-path="url(#pc1f6b99f48)" d="M 778.733174 65.412 
L 835.7975 65.412 
L 835.7975 87.588 
L 778.733174 87.588 
z
" style="fill:#434348;"/>
   </g>
   <g id="patch_17">
    <path clip-path="url(#pc1f6b99f48)" d="M 814.027491 93.132 
L 824.904801 93.132 
L 824.904801 115.308 
L 814.027491 115.308 
z
" style="fill:#434348;"/>
   </g>
   <g id="patch_18">
    <path clip-path="url(#pc1f6b99f48)" d="M 769.851066 120.852 
L 833.514945 120.852 
L 833.514945 143.028 
L 769.851066 143.028 
z
" style="fill:#434348;"/>
   </g>
   <g id="patch_19">
    <path clip-path="url(#pc1f6b99f48)" d="M 709.8465 148.572 
L 815.688224 148.572 
L 815.688224 170.748 
L 709.8465 170.748 
z
" style="fill:#434348;"/>
   </g>
   <g id="patch_20">
    <path clip-path="url(#pc1f6b99f48)" d="M 762.383987 176.292 
L 828.718501 176.292 
L 828.718501 198.468 
L 762.383987 198.468 
z
" style="fill:#434348;"/>
   </g>
   <g id="patch_21">
    <path clip-path="url(#pc1f6b99f48)" d="M 718.0412 204.012 
L 810.361987 204.012 
L 810.361987 226.188 
L 718.0412 226.188 
z
" style="fill:#434348;"/>
   </g>
   <g id="patch_22">
    <path clip-path="url(#pc1f6b99f48)" d="M 767.772773 231.732 
L 832.292393 231.732 
L 832.292393 253.908 
L 767.772773 253.908 
z
" style="fill:#434348;"/>
   </g>
   <g id="patch_23">
    <path clip-path="url(#pc1f6b99f48)" d="M 702.810413 259.452 
L 817.333266 259.452 
L 817.333266 281.628 
L 702.810413 281.628 
z
" style="fill:#434348;"/>
   </g>
   <g id="patch_24">
    <path clip-path="url(#pc1f6b99f48)" d="M 758.94626 287.172 
L 830.267901 287.172 
L 830.267901 309.348 
L 758.94626 309.348 
z
" style="fill:#434348;"/>
   </g>
   <g id="patch_25">
    <path clip-path="url(#pc1f6b99f48)" d="M 732.390759 314.892 
L 810.73307 314.892 
L 810.73307 337.068 
L 732.390759 337.068 
z
" style="fill:#434348;"/>
   </g>
   <g id="text_19">
    <!-- FastQC: Overrepresented sequences -->
    <g transform="translate(336.39375 -20.52)scale(0.16 -0.16)">
     <defs>
      <path d="M 628 4666 
L 3309 4666 
L 3309 4134 
L 1259 4134 
L 1259 2759 
L 3109 2759 
L 3109 2228 
L 1259 2228 
L 1259 0 
L 628 0 
L 628 4666 
z
" id="DejaVuSans-46" transform="scale(0.015625)"/>
      <path d="M 2522 4238 
Q 1834 4238 1429 3725 
Q 1025 3213 1025 2328 
Q 1025 1447 1429 934 
Q 1834 422 2522 422 
Q 3209 422 3611 934 
Q 4013 1447 4013 2328 
Q 4013 3213 3611 3725 
Q 3209 4238 2522 4238 
z
M 3406 84 
L 4238 -825 
L 3475 -825 
L 2784 -78 
Q 2681 -84 2626 -87 
Q 2572 -91 2522 -91 
Q 1538 -91 948 567 
Q 359 1225 359 2328 
Q 359 3434 948 4092 
Q 1538 4750 2522 4750 
Q 3503 4750 4090 4092 
Q 4678 3434 4678 2328 
Q 4678 1516 4351 937 
Q 4025 359 3406 84 
z
" id="DejaVuSans-51" transform="scale(0.015625)"/>
      <path d="M 4122 4306 
L 4122 3641 
Q 3803 3938 3442 4084 
Q 3081 4231 2675 4231 
Q 1875 4231 1450 3742 
Q 1025 3253 1025 2328 
Q 1025 1406 1450 917 
Q 1875 428 2675 428 
Q 3081 428 3442 575 
Q 3803 722 4122 1019 
L 4122 359 
Q 3791 134 3420 21 
Q 3050 -91 2638 -91 
Q 1578 -91 968 557 
Q 359 1206 359 2328 
Q 359 3453 968 4101 
Q 1578 4750 2638 4750 
Q 3056 4750 3426 4639 
Q 3797 4528 4122 4306 
z
" id="DejaVuSans-43" transform="scale(0.015625)"/>
      <path d="M 750 794 
L 1409 794 
L 1409 0 
L 750 0 
L 750 794 
z
M 750 3309 
L 1409 3309 
L 1409 2516 
L 750 2516 
L 750 3309 
z
" id="DejaVuSans-3a" transform="scale(0.015625)"/>
      <path d="M 2522 4238 
Q 1834 4238 1429 3725 
Q 1025 3213 1025 2328 
Q 1025 1447 1429 934 
Q 1834 422 2522 422 
Q 3209 422 3611 934 
Q 4013 1447 4013 2328 
Q 4013 3213 3611 3725 
Q 3209 4238 2522 4238 
z
M 2522 4750 
Q 3503 4750 4090 4092 
Q 4678 3434 4678 2328 
Q 4678 1225 4090 567 
Q 3503 -91 2522 -91 
Q 1538 -91 948 565 
Q 359 1222 359 2328 
Q 359 3434 948 4092 
Q 1538 4750 2522 4750 
z
" id="DejaVuSans-4f" transform="scale(0.015625)"/>
      <path d="M 191 3500 
L 800 3500 
L 1894 563 
L 2988 3500 
L 3597 3500 
L 2284 0 
L 1503 0 
L 191 3500 
z
" id="DejaVuSans-76" transform="scale(0.015625)"/>
      <path d="M 2906 2969 
L 2906 4863 
L 3481 4863 
L 3481 0 
L 2906 0 
L 2906 525 
Q 2725 213 2448 61 
Q 2172 -91 1784 -91 
Q 1150 -91 751 415 
Q 353 922 353 1747 
Q 353 2572 751 3078 
Q 1150 3584 1784 3584 
Q 2172 3584 2448 3432 
Q 2725 3281 2906 2969 
z
M 947 1747 
Q 947 1113 1208 752 
Q 1469 391 1925 391 
Q 2381 391 2643 752 
Q 2906 1113 2906 1747 
Q 2906 2381 2643 2742 
Q 2381 3103 1925 3103 
Q 1469 3103 1208 2742 
Q 947 2381 947 1747 
z
" id="DejaVuSans-64" transform="scale(0.015625)"/>
     </defs>
     <use xlink:href="#DejaVuSans-46"/>
     <use x="48.394531" xlink:href="#DejaVuSans-61"/>
     <use x="109.673828" xlink:href="#DejaVuSans-73"/>
     <use x="161.773438" xlink:href="#DejaVuSans-74"/>
     <use x="200.982422" xlink:href="#DejaVuSans-51"/>
     <use x="279.693359" xlink:href="#DejaVuSans-43"/>
     <use x="349.517578" xlink:href="#DejaVuSans-3a"/>
     <use x="383.208984" xlink:href="#DejaVuSans-20"/>
     <use x="414.996094" xlink:href="#DejaVuSans-4f"/>
     <use x="493.707031" xlink:href="#DejaVuSans-76"/>
     <use x="552.886719" xlink:href="#DejaVuSans-65"/>
     <use x="614.410156" xlink:href="#DejaVuSans-72"/>
     <use x="653.773438" xlink:href="#DejaVuSans-72"/>
     <use x="692.636719" xlink:href="#DejaVuSans-65"/>
     <use x="754.160156" xlink:href="#DejaVuSans-70"/>
     <use x="817.636719" xlink:href="#DejaVuSans-72"/>
     <use x="856.5" xlink:href="#DejaVuSans-65"/>
     <use x="918.023438" xlink:href="#DejaVuSans-73"/>
     <use x="970.123047" xlink:href="#DejaVuSans-65"/>
     <use x="1031.646484" xlink:href="#DejaVuSans-6e"/>
     <use x="1095.025391" xlink:href="#DejaVuSans-74"/>
     <use x="1134.234375" xlink:href="#DejaVuSans-65"/>
     <use x="1195.757812" xlink:href="#DejaVuSans-64"/>
     <use x="1259.234375" xlink:href="#DejaVuSans-20"/>
     <use x="1291.021484" xlink:href="#DejaVuSans-73"/>
     <use x="1343.121094" xlink:href="#DejaVuSans-65"/>
     <use x="1404.644531" xlink:href="#DejaVuSans-71"/>
     <use x="1468.121094" xlink:href="#DejaVuSans-75"/>
     <use x="1531.5" xlink:href="#DejaVuSans-65"/>
     <use x="1593.023438" xlink:href="#DejaVuSans-6e"/>
     <use x="1656.402344" xlink:href="#DejaVuSans-63"/>
     <use x="1711.382812" xlink:href="#DejaVuSans-65"/>
     <use x="1772.90625" xlink:href="#DejaVuSans-73"/>
    </g>
   </g>
   <g id="legend_1">
    <g id="patch_26">
     <path d="M 98.9975 414.13625 
L 114.9975 414.13625 
L 114.9975 408.53625 
L 98.9975 408.53625 
z
" style="fill:#7cb5ec;"/>
    </g>
    <g id="text_20">
     <!-- Top over-represented sequence -->
     <g transform="translate(121.3975 414.13625)scale(0.08 -0.08)">
      <defs>
       <path d="M 313 2009 
L 1997 2009 
L 1997 1497 
L 313 1497 
L 313 2009 
z
" id="DejaVuSans-2d" transform="scale(0.015625)"/>
      </defs>
      <use xlink:href="#DejaVuSans-54"/>
      <use x="44.083984" xlink:href="#DejaVuSans-6f"/>
      <use x="105.265625" xlink:href="#DejaVuSans-70"/>
      <use x="168.742188" xlink:href="#DejaVuSans-20"/>
      <use x="200.529297" xlink:href="#DejaVuSans-6f"/>
      <use x="261.710938" xlink:href="#DejaVuSans-76"/>
      <use x="320.890625" xlink:href="#DejaVuSans-65"/>
      <use x="382.414062" xlink:href="#DejaVuSans-72"/>
      <use x="417.152344" xlink:href="#DejaVuSans-2d"/>
      <use x="453.236328" xlink:href="#DejaVuSans-72"/>
      <use x="492.099609" xlink:href="#DejaVuSans-65"/>
      <use x="553.623047" xlink:href="#DejaVuSans-70"/>
      <use x="617.099609" xlink:href="#DejaVuSans-72"/>
      <use x="655.962891" xlink:href="#DejaVuSans-65"/>
      <use x="717.486328" xlink:href="#DejaVuSans-73"/>
      <use x="769.585938" xlink:href="#DejaVuSans-65"/>
      <use x="831.109375" xlink:href="#DejaVuSans-6e"/>
      <use x="894.488281" xlink:href="#DejaVuSans-74"/>
      <use x="933.697266" xlink:href="#DejaVuSans-65"/>
      <use x="995.220703" xlink:href="#DejaVuSans-64"/>
      <use x="1058.697266" xlink:href="#DejaVuSans-20"/>
      <use x="1090.484375" xlink:href="#DejaVuSans-73"/>
      <use x="1142.583984" xlink:href="#DejaVuSans-65"/>
      <use x="1204.107422" xlink:href="#DejaVuSans-71"/>
      <use x="1267.583984" xlink:href="#DejaVuSans-75"/>
      <use x="1330.962891" xlink:href="#DejaVuSans-65"/>
      <use x="1392.486328" xlink:href="#DejaVuSans-6e"/>
      <use x="1455.865234" xlink:href="#DejaVuSans-63"/>
      <use x="1510.845703" xlink:href="#DejaVuSans-65"/>
     </g>
    </g>
    <g id="patch_27">
     <path d="M 655.80875 414.13625 
L 671.80875 414.13625 
L 671.80875 408.53625 
L 655.80875 408.53625 
z
" style="fill:#434348;"/>
    </g>
    <g id="text_21">
     <!-- Sum of remaining over-represented sequences -->
     <g transform="translate(678.20875 414.13625)scale(0.08 -0.08)">
      <defs>
       <path d="M 3328 2828 
Q 3544 3216 3844 3400 
Q 4144 3584 4550 3584 
Q 5097 3584 5394 3201 
Q 5691 2819 5691 2113 
L 5691 0 
L 5113 0 
L 5113 2094 
Q 5113 2597 4934 2840 
Q 4756 3084 4391 3084 
Q 3944 3084 3684 2787 
Q 3425 2491 3425 1978 
L 3425 0 
L 2847 0 
L 2847 2094 
Q 2847 2600 2669 2842 
Q 2491 3084 2119 3084 
Q 1678 3084 1418 2786 
Q 1159 2488 1159 1978 
L 1159 0 
L 581 0 
L 581 3500 
L 1159 3500 
L 1159 2956 
Q 1356 3278 1631 3431 
Q 1906 3584 2284 3584 
Q 2666 3584 2933 3390 
Q 3200 3197 3328 2828 
z
" id="DejaVuSans-6d" transform="scale(0.015625)"/>
      </defs>
      <use xlink:href="#DejaVuSans-53"/>
      <use x="63.476562" xlink:href="#DejaVuSans-75"/>
      <use x="126.855469" xlink:href="#DejaVuSans-6d"/>
      <use x="224.267578" xlink:href="#DejaVuSans-20"/>
      <use x="256.054688" xlink:href="#DejaVuSans-6f"/>
      <use x="317.236328" xlink:href="#DejaVuSans-66"/>
      <use x="352.441406" xlink:href="#DejaVuSans-20"/>
      <use x="384.228516" xlink:href="#DejaVuSans-72"/>
      <use x="423.091797" xlink:href="#DejaVuSans-65"/>
      <use x="484.615234" xlink:href="#DejaVuSans-6d"/>
      <use x="582.027344" xlink:href="#DejaVuSans-61"/>
      <use x="643.306641" xlink:href="#DejaVuSans-69"/>
      <use x="671.089844" xlink:href="#DejaVuSans-6e"/>
      <use x="734.46875" xlink:href="#DejaVuSans-69"/>
      <use x="762.251953" xlink:href="#DejaVuSans-6e"/>
      <use x="825.630859" xlink:href="#DejaVuSans-67"/>
      <use x="889.107422" xlink:href="#DejaVuSans-20"/>
      <use x="920.894531" xlink:href="#DejaVuSans-6f"/>
      <use x="982.076172" xlink:href="#DejaVuSans-76"/>
      <use x="1041.255859" xlink:href="#DejaVuSans-65"/>
      <use x="1102.779297" xlink:href="#DejaVuSans-72"/>
      <use x="1137.517578" xlink:href="#DejaVuSans-2d"/>
      <use x="1173.601562" xlink:href="#DejaVuSans-72"/>
      <use x="1212.464844" xlink:href="#DejaVuSans-65"/>
      <use x="1273.988281" xlink:href="#DejaVuSans-70"/>
      <use x="1337.464844" xlink:href="#DejaVuSans-72"/>
      <use x="1376.328125" xlink:href="#DejaVuSans-65"/>
      <use x="1437.851562" xlink:href="#DejaVuSans-73"/>
      <use x="1489.951172" xlink:href="#DejaVuSans-65"/>
      <use x="1551.474609" xlink:href="#DejaVuSans-6e"/>
      <use x="1614.853516" xlink:href="#DejaVuSans-74"/>
      <use x="1654.0625" xlink:href="#DejaVuSans-65"/>
      <use x="1715.585938" xlink:href="#DejaVuSans-64"/>
      <use x="1779.0625" xlink:href="#DejaVuSans-20"/>
      <use x="1810.849609" xlink:href="#DejaVuSans-73"/>
      <use x="1862.949219" xlink:href="#DejaVuSans-65"/>
      <use x="1924.472656" xlink:href="#DejaVuSans-71"/>
      <use x="1987.949219" xlink:href="#DejaVuSans-75"/>
      <use x="2051.328125" xlink:href="#DejaVuSans-65"/>
      <use x="2112.851562" xlink:href="#DejaVuSans-6e"/>
      <use x="2176.230469" xlink:href="#DejaVuSans-63"/>
      <use x="2231.210938" xlink:href="#DejaVuSans-65"/>
      <use x="2292.734375" xlink:href="#DejaVuSans-73"/>
     </g>
    </g>
   </g>
  </g>
 </g>
 <defs>
  <clipPath id="pc1f6b99f48">
   <rect height="332.64" width="781.2" x="91.7975" y="7.2"/>
  </clipPath>
 </defs>
</svg>
