<?xml version="1.0" encoding="utf-8" standalone="no"?>
<!DOCTYPE svg PUBLIC "-//W3C//DTD SVG 1.1//EN"
  "http://www.w3.org/Graphics/SVG/1.1/DTD/svg11.dtd">
<svg height="330.541644pt" version="1.1" viewBox="0 0 1000.098125 330.541644" width="1000.098125pt" xmlns="http://www.w3.org/2000/svg" xmlns:xlink="http://www.w3.org/1999/xlink">
 <metadata>
  <rdf:RDF xmlns:cc="http://creativecommons.org/ns#" xmlns:dc="http://purl.org/dc/elements/1.1/" xmlns:rdf="http://www.w3.org/1999/02/22-rdf-syntax-ns#">
   <cc:Work>
    <dc:type rdf:resource="http://purl.org/dc/dcmitype/StillImage"/>
    <dc:date>2022-05-31T19:37:02.273382</dc:date>
    <dc:format>image/svg+xml</dc:format>
    <dc:creator>
     <cc:Agent>
      <dc:title>Matplotlib v3.4.1, https://matplotlib.org/</dc:title>
     </cc:Agent>
    </dc:creator>
   </cc:Work>
  </rdf:RDF>
 </metadata>
 <defs>
  <style type="text/css">*{stroke-linecap:butt;stroke-linejoin:round;}</style>
 </defs>
 <g id="figure_1">
  <g id="axes_1">
   <g id="patch_1">
    <path d="M 58.418125 273.99006 
L 985.263125 273.99006 
L 985.263125 31.48286 
L 58.418125 31.48286 
z
" style="fill:#ffffff;"/>
   </g>
   <g id="matplotlib.axis_1">
    <g id="xtick_1">
     <g id="text_1">
      <!-- 0 -->
      <g transform="translate(55.873125 287.06881)scale(0.08 -0.08)">
       <defs>
        <path d="M 2034 4250 
Q 1547 4250 1301 3770 
Q 1056 3291 1056 2328 
Q 1056 1369 1301 889 
Q 1547 409 2034 409 
Q 2525 409 2770 889 
Q 3016 1369 3016 2328 
Q 3016 3291 2770 3770 
Q 2525 4250 2034 4250 
z
M 2034 4750 
Q 2819 4750 3233 4129 
Q 3647 3509 3647 2328 
Q 3647 1150 3233 529 
Q 2819 -91 2034 -91 
Q 1250 -91 836 529 
Q 422 1150 422 2328 
Q 422 3509 836 4129 
Q 1250 4750 2034 4750 
z
" id="DejaVuSans-30" transform="scale(0.015625)"/>
       </defs>
       <use xlink:href="#DejaVuSans-30"/>
      </g>
     </g>
    </g>
    <g id="xtick_2">
     <g id="text_2">
      <!-- 20 -->
      <g transform="translate(238.697125 287.06881)scale(0.08 -0.08)">
       <defs>
        <path d="M 1228 531 
L 3431 531 
L 3431 0 
L 469 0 
L 469 531 
Q 828 903 1448 1529 
Q 2069 2156 2228 2338 
Q 2531 2678 2651 2914 
Q 2772 3150 2772 3378 
Q 2772 3750 2511 3984 
Q 2250 4219 1831 4219 
Q 1534 4219 1204 4116 
Q 875 4013 500 3803 
L 500 4441 
Q 881 4594 1212 4672 
Q 1544 4750 1819 4750 
Q 2544 4750 2975 4387 
Q 3406 4025 3406 3419 
Q 3406 3131 3298 2873 
Q 3191 2616 2906 2266 
Q 2828 2175 2409 1742 
Q 1991 1309 1228 531 
z
" id="DejaVuSans-32" transform="scale(0.015625)"/>
       </defs>
       <use xlink:href="#DejaVuSans-32"/>
       <use x="63.623047" xlink:href="#DejaVuSans-30"/>
      </g>
     </g>
    </g>
    <g id="xtick_3">
     <g id="text_3">
      <!-- 40 -->
      <g transform="translate(424.066125 287.06881)scale(0.08 -0.08)">
       <defs>
        <path d="M 2419 4116 
L 825 1625 
L 2419 1625 
L 2419 4116 
z
M 2253 4666 
L 3047 4666 
L 3047 1625 
L 3713 1625 
L 3713 1100 
L 3047 1100 
L 3047 0 
L 2419 0 
L 2419 1100 
L 313 1100 
L 313 1709 
L 2253 4666 
z
" id="DejaVuSans-34" transform="scale(0.015625)"/>
       </defs>
       <use xlink:href="#DejaVuSans-34"/>
       <use x="63.623047" xlink:href="#DejaVuSans-30"/>
      </g>
     </g>
    </g>
    <g id="xtick_4">
     <g id="text_4">
      <!-- 60 -->
      <g transform="translate(609.435125 287.06881)scale(0.08 -0.08)">
       <defs>
        <path d="M 2113 2584 
Q 1688 2584 1439 2293 
Q 1191 2003 1191 1497 
Q 1191 994 1439 701 
Q 1688 409 2113 409 
Q 2538 409 2786 701 
Q 3034 994 3034 1497 
Q 3034 2003 2786 2293 
Q 2538 2584 2113 2584 
z
M 3366 4563 
L 3366 3988 
Q 3128 4100 2886 4159 
Q 2644 4219 2406 4219 
Q 1781 4219 1451 3797 
Q 1122 3375 1075 2522 
Q 1259 2794 1537 2939 
Q 1816 3084 2150 3084 
Q 2853 3084 3261 2657 
Q 3669 2231 3669 1497 
Q 3669 778 3244 343 
Q 2819 -91 2113 -91 
Q 1303 -91 875 529 
Q 447 1150 447 2328 
Q 447 3434 972 4092 
Q 1497 4750 2381 4750 
Q 2619 4750 2861 4703 
Q 3103 4656 3366 4563 
z
" id="DejaVuSans-36" transform="scale(0.015625)"/>
       </defs>
       <use xlink:href="#DejaVuSans-36"/>
       <use x="63.623047" xlink:href="#DejaVuSans-30"/>
      </g>
     </g>
    </g>
    <g id="xtick_5">
     <g id="text_5">
      <!-- 80 -->
      <g transform="translate(794.804125 287.06881)scale(0.08 -0.08)">
       <defs>
        <path d="M 2034 2216 
Q 1584 2216 1326 1975 
Q 1069 1734 1069 1313 
Q 1069 891 1326 650 
Q 1584 409 2034 409 
Q 2484 409 2743 651 
Q 3003 894 3003 1313 
Q 3003 1734 2745 1975 
Q 2488 2216 2034 2216 
z
M 1403 2484 
Q 997 2584 770 2862 
Q 544 3141 544 3541 
Q 544 4100 942 4425 
Q 1341 4750 2034 4750 
Q 2731 4750 3128 4425 
Q 3525 4100 3525 3541 
Q 3525 3141 3298 2862 
Q 3072 2584 2669 2484 
Q 3125 2378 3379 2068 
Q 3634 1759 3634 1313 
Q 3634 634 3220 271 
Q 2806 -91 2034 -91 
Q 1263 -91 848 271 
Q 434 634 434 1313 
Q 434 1759 690 2068 
Q 947 2378 1403 2484 
z
M 1172 3481 
Q 1172 3119 1398 2916 
Q 1625 2713 2034 2713 
Q 2441 2713 2670 2916 
Q 2900 3119 2900 3481 
Q 2900 3844 2670 4047 
Q 2441 4250 2034 4250 
Q 1625 4250 1398 4047 
Q 1172 3844 1172 3481 
z
" id="DejaVuSans-38" transform="scale(0.015625)"/>
       </defs>
       <use xlink:href="#DejaVuSans-38"/>
       <use x="63.623047" xlink:href="#DejaVuSans-30"/>
      </g>
     </g>
    </g>
    <g id="xtick_6">
     <g id="text_6">
      <!-- 100 -->
      <g transform="translate(977.628125 287.06881)scale(0.08 -0.08)">
       <defs>
        <path d="M 794 531 
L 1825 531 
L 1825 4091 
L 703 3866 
L 703 4441 
L 1819 4666 
L 2450 4666 
L 2450 531 
L 3481 531 
L 3481 0 
L 794 0 
L 794 531 
z
" id="DejaVuSans-31" transform="scale(0.015625)"/>
       </defs>
       <use xlink:href="#DejaVuSans-31"/>
       <use x="63.623047" xlink:href="#DejaVuSans-30"/>
       <use x="127.246094" xlink:href="#DejaVuSans-30"/>
      </g>
     </g>
    </g>
    <g id="text_7">
     <!-- % GC -->
     <g transform="translate(508.135156 300.330997)scale(0.1 -0.1)">
      <defs>
       <path d="M 4653 2053 
Q 4381 2053 4226 1822 
Q 4072 1591 4072 1178 
Q 4072 772 4226 539 
Q 4381 306 4653 306 
Q 4919 306 5073 539 
Q 5228 772 5228 1178 
Q 5228 1588 5073 1820 
Q 4919 2053 4653 2053 
z
M 4653 2450 
Q 5147 2450 5437 2106 
Q 5728 1763 5728 1178 
Q 5728 594 5436 251 
Q 5144 -91 4653 -91 
Q 4153 -91 3862 251 
Q 3572 594 3572 1178 
Q 3572 1766 3864 2108 
Q 4156 2450 4653 2450 
z
M 1428 4353 
Q 1159 4353 1004 4120 
Q 850 3888 850 3481 
Q 850 3069 1003 2837 
Q 1156 2606 1428 2606 
Q 1700 2606 1854 2837 
Q 2009 3069 2009 3481 
Q 2009 3884 1853 4118 
Q 1697 4353 1428 4353 
z
M 4250 4750 
L 4750 4750 
L 1831 -91 
L 1331 -91 
L 4250 4750 
z
M 1428 4750 
Q 1922 4750 2215 4408 
Q 2509 4066 2509 3481 
Q 2509 2891 2217 2550 
Q 1925 2209 1428 2209 
Q 931 2209 642 2551 
Q 353 2894 353 3481 
Q 353 4063 643 4406 
Q 934 4750 1428 4750 
z
" id="DejaVuSans-25" transform="scale(0.015625)"/>
       <path id="DejaVuSans-20" transform="scale(0.015625)"/>
       <path d="M 3809 666 
L 3809 1919 
L 2778 1919 
L 2778 2438 
L 4434 2438 
L 4434 434 
Q 4069 175 3628 42 
Q 3188 -91 2688 -91 
Q 1594 -91 976 548 
Q 359 1188 359 2328 
Q 359 3472 976 4111 
Q 1594 4750 2688 4750 
Q 3144 4750 3555 4637 
Q 3966 4525 4313 4306 
L 4313 3634 
Q 3963 3931 3569 4081 
Q 3175 4231 2741 4231 
Q 1884 4231 1454 3753 
Q 1025 3275 1025 2328 
Q 1025 1384 1454 906 
Q 1884 428 2741 428 
Q 3075 428 3337 486 
Q 3600 544 3809 666 
z
" id="DejaVuSans-47" transform="scale(0.015625)"/>
       <path d="M 4122 4306 
L 4122 3641 
Q 3803 3938 3442 4084 
Q 3081 4231 2675 4231 
Q 1875 4231 1450 3742 
Q 1025 3253 1025 2328 
Q 1025 1406 1450 917 
Q 1875 428 2675 428 
Q 3081 428 3442 575 
Q 3803 722 4122 1019 
L 4122 359 
Q 3791 134 3420 21 
Q 3050 -91 2638 -91 
Q 1578 -91 968 557 
Q 359 1206 359 2328 
Q 359 3453 968 4101 
Q 1578 4750 2638 4750 
Q 3056 4750 3426 4639 
Q 3797 4528 4122 4306 
z
" id="DejaVuSans-43" transform="scale(0.015625)"/>
      </defs>
      <use xlink:href="#DejaVuSans-25"/>
      <use x="95.019531" xlink:href="#DejaVuSans-20"/>
      <use x="126.806641" xlink:href="#DejaVuSans-47"/>
      <use x="204.296875" xlink:href="#DejaVuSans-43"/>
     </g>
    </g>
   </g>
   <g id="matplotlib.axis_2">
    <g id="ytick_1">
     <g id="line2d_1">
      <path clip-path="url(#p39d3f05577)" d="M 58.418125 273.99006 
L 985.263125 273.99006 
" style="fill:none;stroke:#dedede;stroke-linecap:square;"/>
     </g>
     <g id="text_8">
      <!-- 0 -->
      <g transform="translate(46.328125 277.029435)scale(0.08 -0.08)">
       <use xlink:href="#DejaVuSans-30"/>
      </g>
     </g>
    </g>
    <g id="ytick_2">
     <g id="line2d_2">
      <path clip-path="url(#p39d3f05577)" d="M 58.418125 239.804922 
L 985.263125 239.804922 
" style="fill:none;stroke:#dedede;stroke-linecap:square;"/>
     </g>
     <g id="text_9">
      <!-- 100000 -->
      <g transform="translate(20.878125 242.844297)scale(0.08 -0.08)">
       <use xlink:href="#DejaVuSans-31"/>
       <use x="63.623047" xlink:href="#DejaVuSans-30"/>
       <use x="127.246094" xlink:href="#DejaVuSans-30"/>
       <use x="190.869141" xlink:href="#DejaVuSans-30"/>
       <use x="254.492188" xlink:href="#DejaVuSans-30"/>
       <use x="318.115234" xlink:href="#DejaVuSans-30"/>
      </g>
     </g>
    </g>
    <g id="ytick_3">
     <g id="line2d_3">
      <path clip-path="url(#p39d3f05577)" d="M 58.418125 205.619783 
L 985.263125 205.619783 
" style="fill:none;stroke:#dedede;stroke-linecap:square;"/>
     </g>
     <g id="text_10">
      <!-- 200000 -->
      <g transform="translate(20.878125 208.659158)scale(0.08 -0.08)">
       <use xlink:href="#DejaVuSans-32"/>
       <use x="63.623047" xlink:href="#DejaVuSans-30"/>
       <use x="127.246094" xlink:href="#DejaVuSans-30"/>
       <use x="190.869141" xlink:href="#DejaVuSans-30"/>
       <use x="254.492188" xlink:href="#DejaVuSans-30"/>
       <use x="318.115234" xlink:href="#DejaVuSans-30"/>
      </g>
     </g>
    </g>
    <g id="ytick_4">
     <g id="line2d_4">
      <path clip-path="url(#p39d3f05577)" d="M 58.418125 171.434645 
L 985.263125 171.434645 
" style="fill:none;stroke:#dedede;stroke-linecap:square;"/>
     </g>
     <g id="text_11">
      <!-- 300000 -->
      <g transform="translate(20.878125 174.47402)scale(0.08 -0.08)">
       <defs>
        <path d="M 2597 2516 
Q 3050 2419 3304 2112 
Q 3559 1806 3559 1356 
Q 3559 666 3084 287 
Q 2609 -91 1734 -91 
Q 1441 -91 1130 -33 
Q 819 25 488 141 
L 488 750 
Q 750 597 1062 519 
Q 1375 441 1716 441 
Q 2309 441 2620 675 
Q 2931 909 2931 1356 
Q 2931 1769 2642 2001 
Q 2353 2234 1838 2234 
L 1294 2234 
L 1294 2753 
L 1863 2753 
Q 2328 2753 2575 2939 
Q 2822 3125 2822 3475 
Q 2822 3834 2567 4026 
Q 2313 4219 1838 4219 
Q 1578 4219 1281 4162 
Q 984 4106 628 3988 
L 628 4550 
Q 988 4650 1302 4700 
Q 1616 4750 1894 4750 
Q 2613 4750 3031 4423 
Q 3450 4097 3450 3541 
Q 3450 3153 3228 2886 
Q 3006 2619 2597 2516 
z
" id="DejaVuSans-33" transform="scale(0.015625)"/>
       </defs>
       <use xlink:href="#DejaVuSans-33"/>
       <use x="63.623047" xlink:href="#DejaVuSans-30"/>
       <use x="127.246094" xlink:href="#DejaVuSans-30"/>
       <use x="190.869141" xlink:href="#DejaVuSans-30"/>
       <use x="254.492188" xlink:href="#DejaVuSans-30"/>
       <use x="318.115234" xlink:href="#DejaVuSans-30"/>
      </g>
     </g>
    </g>
    <g id="ytick_5">
     <g id="line2d_5">
      <path clip-path="url(#p39d3f05577)" d="M 58.418125 137.249507 
L 985.263125 137.249507 
" style="fill:none;stroke:#dedede;stroke-linecap:square;"/>
     </g>
     <g id="text_12">
      <!-- 400000 -->
      <g transform="translate(20.878125 140.288882)scale(0.08 -0.08)">
       <use xlink:href="#DejaVuSans-34"/>
       <use x="63.623047" xlink:href="#DejaVuSans-30"/>
       <use x="127.246094" xlink:href="#DejaVuSans-30"/>
       <use x="190.869141" xlink:href="#DejaVuSans-30"/>
       <use x="254.492188" xlink:href="#DejaVuSans-30"/>
       <use x="318.115234" xlink:href="#DejaVuSans-30"/>
      </g>
     </g>
    </g>
    <g id="ytick_6">
     <g id="line2d_6">
      <path clip-path="url(#p39d3f05577)" d="M 58.418125 103.064369 
L 985.263125 103.064369 
" style="fill:none;stroke:#dedede;stroke-linecap:square;"/>
     </g>
     <g id="text_13">
      <!-- 500000 -->
      <g transform="translate(20.878125 106.103744)scale(0.08 -0.08)">
       <defs>
        <path d="M 691 4666 
L 3169 4666 
L 3169 4134 
L 1269 4134 
L 1269 2991 
Q 1406 3038 1543 3061 
Q 1681 3084 1819 3084 
Q 2600 3084 3056 2656 
Q 3513 2228 3513 1497 
Q 3513 744 3044 326 
Q 2575 -91 1722 -91 
Q 1428 -91 1123 -41 
Q 819 9 494 109 
L 494 744 
Q 775 591 1075 516 
Q 1375 441 1709 441 
Q 2250 441 2565 725 
Q 2881 1009 2881 1497 
Q 2881 1984 2565 2268 
Q 2250 2553 1709 2553 
Q 1456 2553 1204 2497 
Q 953 2441 691 2322 
L 691 4666 
z
" id="DejaVuSans-35" transform="scale(0.015625)"/>
       </defs>
       <use xlink:href="#DejaVuSans-35"/>
       <use x="63.623047" xlink:href="#DejaVuSans-30"/>
       <use x="127.246094" xlink:href="#DejaVuSans-30"/>
       <use x="190.869141" xlink:href="#DejaVuSans-30"/>
       <use x="254.492188" xlink:href="#DejaVuSans-30"/>
       <use x="318.115234" xlink:href="#DejaVuSans-30"/>
      </g>
     </g>
    </g>
    <g id="ytick_7">
     <g id="line2d_7">
      <path clip-path="url(#p39d3f05577)" d="M 58.418125 68.87923 
L 985.263125 68.87923 
" style="fill:none;stroke:#dedede;stroke-linecap:square;"/>
     </g>
     <g id="text_14">
      <!-- 600000 -->
      <g transform="translate(20.878125 71.918605)scale(0.08 -0.08)">
       <use xlink:href="#DejaVuSans-36"/>
       <use x="63.623047" xlink:href="#DejaVuSans-30"/>
       <use x="127.246094" xlink:href="#DejaVuSans-30"/>
       <use x="190.869141" xlink:href="#DejaVuSans-30"/>
       <use x="254.492188" xlink:href="#DejaVuSans-30"/>
       <use x="318.115234" xlink:href="#DejaVuSans-30"/>
      </g>
     </g>
    </g>
    <g id="ytick_8">
     <g id="line2d_8">
      <path clip-path="url(#p39d3f05577)" d="M 58.418125 34.694092 
L 985.263125 34.694092 
" style="fill:none;stroke:#dedede;stroke-linecap:square;"/>
     </g>
     <g id="text_15">
      <!-- 700000 -->
      <g transform="translate(20.878125 37.733467)scale(0.08 -0.08)">
       <defs>
        <path d="M 525 4666 
L 3525 4666 
L 3525 4397 
L 1831 0 
L 1172 0 
L 2766 4134 
L 525 4134 
L 525 4666 
z
" id="DejaVuSans-37" transform="scale(0.015625)"/>
       </defs>
       <use xlink:href="#DejaVuSans-37"/>
       <use x="63.623047" xlink:href="#DejaVuSans-30"/>
       <use x="127.246094" xlink:href="#DejaVuSans-30"/>
       <use x="190.869141" xlink:href="#DejaVuSans-30"/>
       <use x="254.492188" xlink:href="#DejaVuSans-30"/>
       <use x="318.115234" xlink:href="#DejaVuSans-30"/>
      </g>
     </g>
    </g>
    <g id="text_16">
     <!-- Count -->
     <g transform="translate(14.798438 167.584897)rotate(-90)scale(0.1 -0.1)">
      <defs>
       <path d="M 1959 3097 
Q 1497 3097 1228 2736 
Q 959 2375 959 1747 
Q 959 1119 1226 758 
Q 1494 397 1959 397 
Q 2419 397 2687 759 
Q 2956 1122 2956 1747 
Q 2956 2369 2687 2733 
Q 2419 3097 1959 3097 
z
M 1959 3584 
Q 2709 3584 3137 3096 
Q 3566 2609 3566 1747 
Q 3566 888 3137 398 
Q 2709 -91 1959 -91 
Q 1206 -91 779 398 
Q 353 888 353 1747 
Q 353 2609 779 3096 
Q 1206 3584 1959 3584 
z
" id="DejaVuSans-6f" transform="scale(0.015625)"/>
       <path d="M 544 1381 
L 544 3500 
L 1119 3500 
L 1119 1403 
Q 1119 906 1312 657 
Q 1506 409 1894 409 
Q 2359 409 2629 706 
Q 2900 1003 2900 1516 
L 2900 3500 
L 3475 3500 
L 3475 0 
L 2900 0 
L 2900 538 
Q 2691 219 2414 64 
Q 2138 -91 1772 -91 
Q 1169 -91 856 284 
Q 544 659 544 1381 
z
M 1991 3584 
L 1991 3584 
z
" id="DejaVuSans-75" transform="scale(0.015625)"/>
       <path d="M 3513 2113 
L 3513 0 
L 2938 0 
L 2938 2094 
Q 2938 2591 2744 2837 
Q 2550 3084 2163 3084 
Q 1697 3084 1428 2787 
Q 1159 2491 1159 1978 
L 1159 0 
L 581 0 
L 581 3500 
L 1159 3500 
L 1159 2956 
Q 1366 3272 1645 3428 
Q 1925 3584 2291 3584 
Q 2894 3584 3203 3211 
Q 3513 2838 3513 2113 
z
" id="DejaVuSans-6e" transform="scale(0.015625)"/>
       <path d="M 1172 4494 
L 1172 3500 
L 2356 3500 
L 2356 3053 
L 1172 3053 
L 1172 1153 
Q 1172 725 1289 603 
Q 1406 481 1766 481 
L 2356 481 
L 2356 0 
L 1766 0 
Q 1100 0 847 248 
Q 594 497 594 1153 
L 594 3053 
L 172 3053 
L 172 3500 
L 594 3500 
L 594 4494 
L 1172 4494 
z
" id="DejaVuSans-74" transform="scale(0.015625)"/>
      </defs>
      <use xlink:href="#DejaVuSans-43"/>
      <use x="69.824219" xlink:href="#DejaVuSans-6f"/>
      <use x="131.005859" xlink:href="#DejaVuSans-75"/>
      <use x="194.384766" xlink:href="#DejaVuSans-6e"/>
      <use x="257.763672" xlink:href="#DejaVuSans-74"/>
     </g>
    </g>
   </g>
   <g id="line2d_9">
    <path clip-path="url(#p39d3f05577)" d="M 58.418125 273.99006 
L 67.686575 273.99006 
L 76.955025 273.99006 
L 86.223475 273.99006 
L 95.491925 273.99006 
L 104.760375 273.99006 
L 114.028825 273.99006 
L 123.297275 273.99006 
L 132.565725 273.99006 
L 141.834175 273.99006 
L 151.102625 273.99006 
L 160.371075 273.99006 
L 169.639525 273.99006 
L 178.907975 273.99006 
L 188.176425 273.99006 
L 197.444875 273.99006 
L 206.713325 273.99006 
L 215.981775 273.99006 
L 225.250225 273.99006 
L 234.518675 273.99006 
L 243.787125 273.99006 
L 253.055575 273.983052 
L 262.324025 273.937928 
L 271.592475 273.829333 
L 280.860925 273.663136 
L 290.129375 273.448567 
L 299.397825 273.356723 
L 308.666275 273.340941 
L 317.934725 273.413869 
L 327.203175 273.459051 
L 336.471625 269.53454 
L 345.740075 226.496135 
L 355.008525 222.627118 
L 364.276975 272.141727 
L 373.545425 273.967384 
L 382.813875 273.987667 
L 392.082325 273.989661 
L 401.350775 273.989889 
L 410.619225 273.99006 
L 419.887675 273.988693 
L 429.156125 273.988522 
L 438.424575 273.988522 
L 447.693025 273.987325 
L 456.961475 273.987097 
L 466.229925 273.988351 
L 475.498375 273.989946 
L 484.766825 273.99006 
L 494.035275 273.99006 
L 503.303725 273.99006 
L 512.572175 273.99006 
L 521.840625 273.99006 
L 531.109075 273.988864 
L 540.377525 273.986641 
L 549.645975 273.987838 
L 558.914425 273.99006 
L 568.182875 273.99006 
L 577.451325 273.99006 
L 586.719775 273.99006 
L 595.988225 273.99006 
L 605.256675 273.99006 
L 614.525125 273.99006 
L 623.793575 273.99006 
L 633.062025 273.99006 
L 642.330475 273.99006 
L 651.598925 273.99006 
L 660.867375 273.99006 
L 670.135825 273.99006 
L 679.404275 273.99006 
L 688.672725 273.99006 
L 697.941175 273.99006 
L 707.209625 273.99006 
L 716.478075 273.99006 
L 725.746525 273.99006 
L 735.014975 273.99006 
L 744.283425 273.99006 
L 753.551875 273.99006 
L 762.820325 273.99006 
L 772.088775 273.99006 
L 781.357225 273.99006 
L 790.625675 273.99006 
L 799.894125 273.99006 
L 809.162575 273.99006 
L 818.431025 273.99006 
L 827.699475 273.99006 
L 836.967925 273.99006 
L 846.236375 273.99006 
L 855.504825 273.99006 
L 864.773275 273.99006 
L 874.041725 273.99006 
L 883.310175 273.99006 
L 892.578625 273.99006 
L 901.847075 273.99006 
L 911.115525 273.99006 
L 920.383975 273.99006 
L 929.652425 273.99006 
L 938.920875 273.99006 
L 948.189325 273.99006 
L 957.457775 273.99006 
L 966.726225 273.99006 
L 975.994675 273.99006 
L 985.263125 273.99006 
" style="fill:none;stroke:#d9534f;stroke-linecap:square;"/>
   </g>
   <g id="line2d_10">
    <path clip-path="url(#p39d3f05577)" d="M 58.418125 273.99006 
L 67.686575 273.99006 
L 76.955025 273.99006 
L 86.223475 273.99006 
L 95.491925 273.99006 
L 104.760375 273.99006 
L 114.028825 273.99006 
L 123.297275 273.99006 
L 132.565725 273.99006 
L 141.834175 273.99006 
L 151.102625 273.99006 
L 160.371075 273.99006 
L 169.639525 273.99006 
L 178.907975 273.99006 
L 188.176425 273.99006 
L 197.444875 273.99006 
L 206.713325 273.99006 
L 215.981775 273.99006 
L 225.250225 273.99006 
L 234.518675 273.99006 
L 243.787125 273.99006 
L 253.055575 273.989889 
L 262.324025 273.989889 
L 271.592475 273.989091 
L 280.860925 273.988864 
L 290.129375 273.989946 
L 299.397825 273.98949 
L 308.666275 273.987154 
L 317.934725 273.972341 
L 327.203175 273.900267 
L 336.471625 272.233058 
L 345.740075 247.429803 
L 355.008525 273.239297 
L 364.276975 273.98214 
L 373.545425 273.988465 
L 382.813875 273.989718 
L 392.082325 273.989946 
L 401.350775 273.99006 
L 410.619225 273.99006 
L 419.887675 273.99006 
L 429.156125 273.99006 
L 438.424575 273.99006 
L 447.693025 273.99006 
L 456.961475 273.99006 
L 466.229925 273.989889 
L 475.498375 273.989889 
L 484.766825 273.989718 
L 494.035275 273.989718 
L 503.303725 273.99006 
L 512.572175 273.99006 
L 521.840625 273.99006 
L 531.109075 273.99006 
L 540.377525 273.99006 
L 549.645975 273.99006 
L 558.914425 273.99006 
L 568.182875 273.99006 
L 577.451325 273.99006 
L 586.719775 273.99006 
L 595.988225 273.99006 
L 605.256675 273.99006 
L 614.525125 273.99006 
L 623.793575 273.99006 
L 633.062025 273.99006 
L 642.330475 273.99006 
L 651.598925 273.99006 
L 660.867375 273.99006 
L 670.135825 273.99006 
L 679.404275 273.99006 
L 688.672725 273.99006 
L 697.941175 273.99006 
L 707.209625 273.99006 
L 716.478075 273.99006 
L 725.746525 273.99006 
L 735.014975 273.99006 
L 744.283425 273.99006 
L 753.551875 273.99006 
L 762.820325 273.99006 
L 772.088775 273.99006 
L 781.357225 273.99006 
L 790.625675 273.99006 
L 799.894125 273.99006 
L 809.162575 273.99006 
L 818.431025 273.99006 
L 827.699475 273.99006 
L 836.967925 273.99006 
L 846.236375 273.99006 
L 855.504825 273.99006 
L 864.773275 273.99006 
L 874.041725 273.99006 
L 883.310175 273.99006 
L 892.578625 273.99006 
L 901.847075 273.99006 
L 911.115525 273.99006 
L 920.383975 273.99006 
L 929.652425 273.99006 
L 938.920875 273.99006 
L 948.189325 273.99006 
L 957.457775 273.99006 
L 966.726225 273.99006 
L 975.994675 273.99006 
L 985.263125 273.99006 
" style="fill:none;stroke:#f0ad4e;stroke-linecap:square;"/>
   </g>
   <g id="line2d_11">
    <path clip-path="url(#p39d3f05577)" d="M 58.418125 273.99006 
L 67.686575 273.99006 
L 76.955025 273.99006 
L 86.223475 273.99006 
L 95.491925 273.99006 
L 104.760375 273.99006 
L 114.028825 273.99006 
L 123.297275 273.99006 
L 132.565725 273.99006 
L 141.834175 273.99006 
L 151.102625 273.99006 
L 160.371075 273.99006 
L 169.639525 273.99006 
L 178.907975 273.99006 
L 188.176425 273.99006 
L 197.444875 273.989889 
L 206.713325 273.986641 
L 215.981775 273.986812 
L 225.250225 273.989889 
L 234.518675 273.989889 
L 243.787125 273.98892 
L 253.055575 273.980203 
L 262.324025 273.941916 
L 271.592475 273.797484 
L 280.860925 273.214855 
L 290.129375 272.570693 
L 299.397825 270.396347 
L 308.666275 270.310828 
L 317.934725 271.221634 
L 327.203175 268.623848 
L 336.471625 204.016216 
L 345.740075 43.030822 
L 355.008525 178.497124 
L 364.276975 270.592 
L 373.545425 273.934395 
L 382.813875 273.96858 
L 392.082325 273.976443 
L 401.350775 273.983793 
L 410.619225 273.971714 
L 419.887675 273.975588 
L 429.156125 273.989091 
L 438.424575 273.989889 
L 447.693025 273.99006 
L 456.961475 273.988522 
L 466.229925 273.984419 
L 475.498375 273.986755 
L 484.766825 273.99006 
L 494.035275 273.99006 
L 503.303725 273.989889 
L 512.572175 273.989718 
L 521.840625 273.989604 
L 531.109075 273.988408 
L 540.377525 273.985958 
L 549.645975 273.986641 
L 558.914425 273.989376 
L 568.182875 273.99006 
L 577.451325 273.99006 
L 586.719775 273.99006 
L 595.988225 273.99006 
L 605.256675 273.99006 
L 614.525125 273.99006 
L 623.793575 273.99006 
L 633.062025 273.99006 
L 642.330475 273.99006 
L 651.598925 273.99006 
L 660.867375 273.99006 
L 670.135825 273.99006 
L 679.404275 273.99006 
L 688.672725 273.99006 
L 697.941175 273.99006 
L 707.209625 273.99006 
L 716.478075 273.99006 
L 725.746525 273.99006 
L 735.014975 273.99006 
L 744.283425 273.99006 
L 753.551875 273.99006 
L 762.820325 273.99006 
L 772.088775 273.99006 
L 781.357225 273.99006 
L 790.625675 273.99006 
L 799.894125 273.99006 
L 809.162575 273.99006 
L 818.431025 273.99006 
L 827.699475 273.99006 
L 836.967925 273.99006 
L 846.236375 273.99006 
L 855.504825 273.99006 
L 864.773275 273.99006 
L 874.041725 273.99006 
L 883.310175 273.99006 
L 892.578625 273.99006 
L 901.847075 273.99006 
L 911.115525 273.99006 
L 920.383975 273.99006 
L 929.652425 273.99006 
L 938.920875 273.99006 
L 948.189325 273.99006 
L 957.457775 273.99006 
L 966.726225 273.99006 
L 975.994675 273.99006 
L 985.263125 273.99006 
" style="fill:none;stroke:#d9534f;stroke-linecap:square;"/>
   </g>
   <g id="line2d_12">
    <path clip-path="url(#p39d3f05577)" d="M 58.418125 273.99006 
L 67.686575 273.99006 
L 76.955025 273.99006 
L 86.223475 273.99006 
L 95.491925 273.99006 
L 104.760375 273.99006 
L 114.028825 273.99006 
L 123.297275 273.99006 
L 132.565725 273.99006 
L 141.834175 273.99006 
L 151.102625 273.99006 
L 160.371075 273.99006 
L 169.639525 273.99006 
L 178.907975 273.99006 
L 188.176425 273.99006 
L 197.444875 273.99006 
L 206.713325 273.989718 
L 215.981775 273.989718 
L 225.250225 273.988693 
L 234.518675 273.987838 
L 243.787125 273.987724 
L 253.055575 273.959749 
L 262.324025 273.838107 
L 271.592475 273.537563 
L 280.860925 272.406433 
L 290.129375 271.514315 
L 299.397825 265.750359 
L 308.666275 265.45386 
L 317.934725 267.509754 
L 327.203175 262.304611 
L 336.471625 208.658899 
L 345.740075 79.77825 
L 355.008525 192.22673 
L 364.276975 270.979432 
L 373.545425 273.923969 
L 382.813875 273.960946 
L 392.082325 273.975189 
L 401.350775 273.980431 
L 410.619225 273.961003 
L 419.887675 273.977184 
L 429.156125 273.989832 
L 438.424575 273.99006 
L 447.693025 273.98892 
L 456.961475 273.98892 
L 466.229925 273.988351 
L 475.498375 273.987325 
L 484.766825 273.988693 
L 494.035275 273.989718 
L 503.303725 273.989889 
L 512.572175 273.989718 
L 521.840625 273.989889 
L 531.109075 273.989547 
L 540.377525 273.989205 
L 549.645975 273.989718 
L 558.914425 273.99006 
L 568.182875 273.99006 
L 577.451325 273.99006 
L 586.719775 273.99006 
L 595.988225 273.99006 
L 605.256675 273.99006 
L 614.525125 273.99006 
L 623.793575 273.99006 
L 633.062025 273.99006 
L 642.330475 273.99006 
L 651.598925 273.99006 
L 660.867375 273.99006 
L 670.135825 273.99006 
L 679.404275 273.99006 
L 688.672725 273.99006 
L 697.941175 273.99006 
L 707.209625 273.99006 
L 716.478075 273.99006 
L 725.746525 273.99006 
L 735.014975 273.99006 
L 744.283425 273.99006 
L 753.551875 273.99006 
L 762.820325 273.99006 
L 772.088775 273.99006 
L 781.357225 273.99006 
L 790.625675 273.99006 
L 799.894125 273.99006 
L 809.162575 273.99006 
L 818.431025 273.99006 
L 827.699475 273.99006 
L 836.967925 273.99006 
L 846.236375 273.99006 
L 855.504825 273.99006 
L 864.773275 273.99006 
L 874.041725 273.99006 
L 883.310175 273.99006 
L 892.578625 273.99006 
L 901.847075 273.99006 
L 911.115525 273.99006 
L 920.383975 273.99006 
L 929.652425 273.99006 
L 938.920875 273.99006 
L 948.189325 273.99006 
L 957.457775 273.99006 
L 966.726225 273.99006 
L 975.994675 273.99006 
L 985.263125 273.99006 
" style="fill:none;stroke:#d9534f;stroke-linecap:square;"/>
   </g>
   <g id="line2d_13">
    <path clip-path="url(#p39d3f05577)" d="M 58.418125 273.99006 
L 67.686575 273.99006 
L 76.955025 273.99006 
L 86.223475 273.99006 
L 95.491925 273.99006 
L 104.760375 273.99006 
L 114.028825 273.99006 
L 123.297275 273.99006 
L 132.565725 273.99006 
L 141.834175 273.99006 
L 151.102625 273.99006 
L 160.371075 273.99006 
L 169.639525 273.99006 
L 178.907975 273.99006 
L 188.176425 273.99006 
L 197.444875 273.99006 
L 206.713325 273.99006 
L 215.981775 273.989889 
L 225.250225 273.987667 
L 234.518675 273.98761 
L 243.787125 273.989262 
L 253.055575 273.987097 
L 262.324025 273.970802 
L 271.592475 273.829276 
L 280.860925 273.487652 
L 290.129375 273.253313 
L 299.397825 272.160357 
L 308.666275 272.091588 
L 317.934725 272.695868 
L 327.203175 271.011509 
L 336.471625 220.687453 
L 345.740075 84.74159 
L 355.008525 192.745717 
L 364.276975 271.240094 
L 373.545425 273.956445 
L 382.813875 273.975588 
L 392.082325 273.977298 
L 401.350775 273.985046 
L 410.619225 273.986072 
L 419.887675 273.989832 
L 429.156125 273.99006 
L 438.424575 273.99006 
L 447.693025 273.99006 
L 456.961475 273.98875 
L 466.229925 273.987211 
L 475.498375 273.985787 
L 484.766825 273.986471 
L 494.035275 273.988864 
L 503.303725 273.987496 
L 512.572175 273.983907 
L 521.840625 273.985616 
L 531.109075 273.984078 
L 540.377525 273.958952 
L 549.645975 273.958838 
L 558.914425 273.984761 
L 568.182875 273.989889 
L 577.451325 273.99006 
L 586.719775 273.99006 
L 595.988225 273.99006 
L 605.256675 273.99006 
L 614.525125 273.989889 
L 623.793575 273.989718 
L 633.062025 273.989889 
L 642.330475 273.99006 
L 651.598925 273.99006 
L 660.867375 273.99006 
L 670.135825 273.99006 
L 679.404275 273.99006 
L 688.672725 273.99006 
L 697.941175 273.99006 
L 707.209625 273.99006 
L 716.478075 273.99006 
L 725.746525 273.99006 
L 735.014975 273.99006 
L 744.283425 273.99006 
L 753.551875 273.99006 
L 762.820325 273.99006 
L 772.088775 273.99006 
L 781.357225 273.99006 
L 790.625675 273.99006 
L 799.894125 273.99006 
L 809.162575 273.99006 
L 818.431025 273.99006 
L 827.699475 273.99006 
L 836.967925 273.99006 
L 846.236375 273.99006 
L 855.504825 273.99006 
L 864.773275 273.99006 
L 874.041725 273.99006 
L 883.310175 273.99006 
L 892.578625 273.99006 
L 901.847075 273.99006 
L 911.115525 273.99006 
L 920.383975 273.99006 
L 929.652425 273.99006 
L 938.920875 273.99006 
L 948.189325 273.99006 
L 957.457775 273.99006 
L 966.726225 273.99006 
L 975.994675 273.99006 
L 985.263125 273.99006 
" style="fill:none;stroke:#d9534f;stroke-linecap:square;"/>
   </g>
   <g id="line2d_14">
    <path clip-path="url(#p39d3f05577)" d="M 58.418125 273.99006 
L 67.686575 273.99006 
L 76.955025 273.99006 
L 86.223475 273.99006 
L 95.491925 273.99006 
L 104.760375 273.99006 
L 114.028825 273.99006 
L 123.297275 273.99006 
L 132.565725 273.99006 
L 141.834175 273.99006 
L 151.102625 273.99006 
L 160.371075 273.99006 
L 169.639525 273.99006 
L 178.907975 273.99006 
L 188.176425 273.99006 
L 197.444875 273.99006 
L 206.713325 273.99006 
L 215.981775 273.99006 
L 225.250225 273.99006 
L 234.518675 273.989604 
L 243.787125 273.988294 
L 253.055575 273.967669 
L 262.324025 273.866139 
L 271.592475 273.624507 
L 280.860925 272.908157 
L 290.129375 272.174544 
L 299.397825 269.063355 
L 308.666275 268.91653 
L 317.934725 269.768822 
L 327.203175 265.844596 
L 336.471625 217.902732 
L 345.740075 60.553041 
L 355.008525 190.699281 
L 364.276975 270.801612 
L 373.545425 273.885852 
L 382.813875 273.558758 
L 392.082325 273.478992 
L 401.350775 273.891721 
L 410.619225 273.944651 
L 419.887675 273.531352 
L 429.156125 273.496825 
L 438.424575 273.408856 
L 447.693025 272.987866 
L 456.961475 272.992082 
L 466.229925 273.471471 
L 475.498375 273.957128 
L 484.766825 273.962256 
L 494.035275 273.975076 
L 503.303725 273.981856 
L 512.572175 273.979691 
L 521.840625 273.984419 
L 531.109075 273.978608 
L 540.377525 273.94579 
L 549.645975 273.947727 
L 558.914425 273.981343 
L 568.182875 273.989889 
L 577.451325 273.99006 
L 586.719775 273.99006 
L 595.988225 273.99006 
L 605.256675 273.99006 
L 614.525125 273.99006 
L 623.793575 273.99006 
L 633.062025 273.99006 
L 642.330475 273.99006 
L 651.598925 273.99006 
L 660.867375 273.99006 
L 670.135825 273.99006 
L 679.404275 273.99006 
L 688.672725 273.99006 
L 697.941175 273.99006 
L 707.209625 273.99006 
L 716.478075 273.99006 
L 725.746525 273.99006 
L 735.014975 273.99006 
L 744.283425 273.99006 
L 753.551875 273.99006 
L 762.820325 273.99006 
L 772.088775 273.99006 
L 781.357225 273.99006 
L 790.625675 273.99006 
L 799.894125 273.99006 
L 809.162575 273.99006 
L 818.431025 273.99006 
L 827.699475 273.99006 
L 836.967925 273.99006 
L 846.236375 273.99006 
L 855.504825 273.99006 
L 864.773275 273.99006 
L 874.041725 273.99006 
L 883.310175 273.99006 
L 892.578625 273.99006 
L 901.847075 273.99006 
L 911.115525 273.99006 
L 920.383975 273.99006 
L 929.652425 273.99006 
L 938.920875 273.99006 
L 948.189325 273.99006 
L 957.457775 273.99006 
L 966.726225 273.99006 
L 975.994675 273.99006 
L 985.263125 273.99006 
" style="fill:none;stroke:#d9534f;stroke-linecap:square;"/>
   </g>
   <g id="line2d_15">
    <path clip-path="url(#p39d3f05577)" d="M 58.418125 273.99006 
L 985.263125 273.99006 
" style="fill:none;stroke:#dedede;stroke-linecap:square;stroke-width:2;"/>
   </g>
   <g id="text_17">
    <!-- FastQC: Per Sequence GC Content -->
    <g transform="translate(385.204375 19.3575)scale(0.16 -0.16)">
     <defs>
      <path d="M 628 4666 
L 3309 4666 
L 3309 4134 
L 1259 4134 
L 1259 2759 
L 3109 2759 
L 3109 2228 
L 1259 2228 
L 1259 0 
L 628 0 
L 628 4666 
z
" id="DejaVuSans-46" transform="scale(0.015625)"/>
      <path d="M 2194 1759 
Q 1497 1759 1228 1600 
Q 959 1441 959 1056 
Q 959 750 1161 570 
Q 1363 391 1709 391 
Q 2188 391 2477 730 
Q 2766 1069 2766 1631 
L 2766 1759 
L 2194 1759 
z
M 3341 1997 
L 3341 0 
L 2766 0 
L 2766 531 
Q 2569 213 2275 61 
Q 1981 -91 1556 -91 
Q 1019 -91 701 211 
Q 384 513 384 1019 
Q 384 1609 779 1909 
Q 1175 2209 1959 2209 
L 2766 2209 
L 2766 2266 
Q 2766 2663 2505 2880 
Q 2244 3097 1772 3097 
Q 1472 3097 1187 3025 
Q 903 2953 641 2809 
L 641 3341 
Q 956 3463 1253 3523 
Q 1550 3584 1831 3584 
Q 2591 3584 2966 3190 
Q 3341 2797 3341 1997 
z
" id="DejaVuSans-61" transform="scale(0.015625)"/>
      <path d="M 2834 3397 
L 2834 2853 
Q 2591 2978 2328 3040 
Q 2066 3103 1784 3103 
Q 1356 3103 1142 2972 
Q 928 2841 928 2578 
Q 928 2378 1081 2264 
Q 1234 2150 1697 2047 
L 1894 2003 
Q 2506 1872 2764 1633 
Q 3022 1394 3022 966 
Q 3022 478 2636 193 
Q 2250 -91 1575 -91 
Q 1294 -91 989 -36 
Q 684 19 347 128 
L 347 722 
Q 666 556 975 473 
Q 1284 391 1588 391 
Q 1994 391 2212 530 
Q 2431 669 2431 922 
Q 2431 1156 2273 1281 
Q 2116 1406 1581 1522 
L 1381 1569 
Q 847 1681 609 1914 
Q 372 2147 372 2553 
Q 372 3047 722 3315 
Q 1072 3584 1716 3584 
Q 2034 3584 2315 3537 
Q 2597 3491 2834 3397 
z
" id="DejaVuSans-73" transform="scale(0.015625)"/>
      <path d="M 2522 4238 
Q 1834 4238 1429 3725 
Q 1025 3213 1025 2328 
Q 1025 1447 1429 934 
Q 1834 422 2522 422 
Q 3209 422 3611 934 
Q 4013 1447 4013 2328 
Q 4013 3213 3611 3725 
Q 3209 4238 2522 4238 
z
M 3406 84 
L 4238 -825 
L 3475 -825 
L 2784 -78 
Q 2681 -84 2626 -87 
Q 2572 -91 2522 -91 
Q 1538 -91 948 567 
Q 359 1225 359 2328 
Q 359 3434 948 4092 
Q 1538 4750 2522 4750 
Q 3503 4750 4090 4092 
Q 4678 3434 4678 2328 
Q 4678 1516 4351 937 
Q 4025 359 3406 84 
z
" id="DejaVuSans-51" transform="scale(0.015625)"/>
      <path d="M 750 794 
L 1409 794 
L 1409 0 
L 750 0 
L 750 794 
z
M 750 3309 
L 1409 3309 
L 1409 2516 
L 750 2516 
L 750 3309 
z
" id="DejaVuSans-3a" transform="scale(0.015625)"/>
      <path d="M 1259 4147 
L 1259 2394 
L 2053 2394 
Q 2494 2394 2734 2622 
Q 2975 2850 2975 3272 
Q 2975 3691 2734 3919 
Q 2494 4147 2053 4147 
L 1259 4147 
z
M 628 4666 
L 2053 4666 
Q 2838 4666 3239 4311 
Q 3641 3956 3641 3272 
Q 3641 2581 3239 2228 
Q 2838 1875 2053 1875 
L 1259 1875 
L 1259 0 
L 628 0 
L 628 4666 
z
" id="DejaVuSans-50" transform="scale(0.015625)"/>
      <path d="M 3597 1894 
L 3597 1613 
L 953 1613 
Q 991 1019 1311 708 
Q 1631 397 2203 397 
Q 2534 397 2845 478 
Q 3156 559 3463 722 
L 3463 178 
Q 3153 47 2828 -22 
Q 2503 -91 2169 -91 
Q 1331 -91 842 396 
Q 353 884 353 1716 
Q 353 2575 817 3079 
Q 1281 3584 2069 3584 
Q 2775 3584 3186 3129 
Q 3597 2675 3597 1894 
z
M 3022 2063 
Q 3016 2534 2758 2815 
Q 2500 3097 2075 3097 
Q 1594 3097 1305 2825 
Q 1016 2553 972 2059 
L 3022 2063 
z
" id="DejaVuSans-65" transform="scale(0.015625)"/>
      <path d="M 2631 2963 
Q 2534 3019 2420 3045 
Q 2306 3072 2169 3072 
Q 1681 3072 1420 2755 
Q 1159 2438 1159 1844 
L 1159 0 
L 581 0 
L 581 3500 
L 1159 3500 
L 1159 2956 
Q 1341 3275 1631 3429 
Q 1922 3584 2338 3584 
Q 2397 3584 2469 3576 
Q 2541 3569 2628 3553 
L 2631 2963 
z
" id="DejaVuSans-72" transform="scale(0.015625)"/>
      <path d="M 3425 4513 
L 3425 3897 
Q 3066 4069 2747 4153 
Q 2428 4238 2131 4238 
Q 1616 4238 1336 4038 
Q 1056 3838 1056 3469 
Q 1056 3159 1242 3001 
Q 1428 2844 1947 2747 
L 2328 2669 
Q 3034 2534 3370 2195 
Q 3706 1856 3706 1288 
Q 3706 609 3251 259 
Q 2797 -91 1919 -91 
Q 1588 -91 1214 -16 
Q 841 59 441 206 
L 441 856 
Q 825 641 1194 531 
Q 1563 422 1919 422 
Q 2459 422 2753 634 
Q 3047 847 3047 1241 
Q 3047 1584 2836 1778 
Q 2625 1972 2144 2069 
L 1759 2144 
Q 1053 2284 737 2584 
Q 422 2884 422 3419 
Q 422 4038 858 4394 
Q 1294 4750 2059 4750 
Q 2388 4750 2728 4690 
Q 3069 4631 3425 4513 
z
" id="DejaVuSans-53" transform="scale(0.015625)"/>
      <path d="M 947 1747 
Q 947 1113 1208 752 
Q 1469 391 1925 391 
Q 2381 391 2643 752 
Q 2906 1113 2906 1747 
Q 2906 2381 2643 2742 
Q 2381 3103 1925 3103 
Q 1469 3103 1208 2742 
Q 947 2381 947 1747 
z
M 2906 525 
Q 2725 213 2448 61 
Q 2172 -91 1784 -91 
Q 1150 -91 751 415 
Q 353 922 353 1747 
Q 353 2572 751 3078 
Q 1150 3584 1784 3584 
Q 2172 3584 2448 3432 
Q 2725 3281 2906 2969 
L 2906 3500 
L 3481 3500 
L 3481 -1331 
L 2906 -1331 
L 2906 525 
z
" id="DejaVuSans-71" transform="scale(0.015625)"/>
      <path d="M 3122 3366 
L 3122 2828 
Q 2878 2963 2633 3030 
Q 2388 3097 2138 3097 
Q 1578 3097 1268 2742 
Q 959 2388 959 1747 
Q 959 1106 1268 751 
Q 1578 397 2138 397 
Q 2388 397 2633 464 
Q 2878 531 3122 666 
L 3122 134 
Q 2881 22 2623 -34 
Q 2366 -91 2075 -91 
Q 1284 -91 818 406 
Q 353 903 353 1747 
Q 353 2603 823 3093 
Q 1294 3584 2113 3584 
Q 2378 3584 2631 3529 
Q 2884 3475 3122 3366 
z
" id="DejaVuSans-63" transform="scale(0.015625)"/>
     </defs>
     <use xlink:href="#DejaVuSans-46"/>
     <use x="48.394531" xlink:href="#DejaVuSans-61"/>
     <use x="109.673828" xlink:href="#DejaVuSans-73"/>
     <use x="161.773438" xlink:href="#DejaVuSans-74"/>
     <use x="200.982422" xlink:href="#DejaVuSans-51"/>
     <use x="279.693359" xlink:href="#DejaVuSans-43"/>
     <use x="349.517578" xlink:href="#DejaVuSans-3a"/>
     <use x="383.208984" xlink:href="#DejaVuSans-20"/>
     <use x="414.996094" xlink:href="#DejaVuSans-50"/>
     <use x="471.673828" xlink:href="#DejaVuSans-65"/>
     <use x="533.197266" xlink:href="#DejaVuSans-72"/>
     <use x="574.310547" xlink:href="#DejaVuSans-20"/>
     <use x="606.097656" xlink:href="#DejaVuSans-53"/>
     <use x="669.574219" xlink:href="#DejaVuSans-65"/>
     <use x="731.097656" xlink:href="#DejaVuSans-71"/>
     <use x="794.574219" xlink:href="#DejaVuSans-75"/>
     <use x="857.953125" xlink:href="#DejaVuSans-65"/>
     <use x="919.476562" xlink:href="#DejaVuSans-6e"/>
     <use x="982.855469" xlink:href="#DejaVuSans-63"/>
     <use x="1037.835938" xlink:href="#DejaVuSans-65"/>
     <use x="1099.359375" xlink:href="#DejaVuSans-20"/>
     <use x="1131.146484" xlink:href="#DejaVuSans-47"/>
     <use x="1208.636719" xlink:href="#DejaVuSans-43"/>
     <use x="1278.460938" xlink:href="#DejaVuSans-20"/>
     <use x="1310.248047" xlink:href="#DejaVuSans-43"/>
     <use x="1380.072266" xlink:href="#DejaVuSans-6f"/>
     <use x="1441.253906" xlink:href="#DejaVuSans-6e"/>
     <use x="1504.632812" xlink:href="#DejaVuSans-74"/>
     <use x="1543.841797" xlink:href="#DejaVuSans-65"/>
     <use x="1605.365234" xlink:href="#DejaVuSans-6e"/>
     <use x="1668.744141" xlink:href="#DejaVuSans-74"/>
    </g>
   </g>
   <g id="legend_1">
    <g id="line2d_16">
     <path d="M 65.618125 303.490394 
L 81.618125 303.490394 
" style="fill:none;stroke:#d9534f;stroke-linecap:square;"/>
    </g>
    <g id="line2d_17"/>
    <g id="text_18">
     <!-- X2_lib_merged -->
     <g transform="translate(88.018125 306.290394)scale(0.08 -0.08)">
      <defs>
       <path d="M 403 4666 
L 1081 4666 
L 2241 2931 
L 3406 4666 
L 4084 4666 
L 2584 2425 
L 4184 0 
L 3506 0 
L 2194 1984 
L 872 0 
L 191 0 
L 1856 2491 
L 403 4666 
z
" id="DejaVuSans-58" transform="scale(0.015625)"/>
       <path d="M 3263 -1063 
L 3263 -1509 
L -63 -1509 
L -63 -1063 
L 3263 -1063 
z
" id="DejaVuSans-5f" transform="scale(0.015625)"/>
       <path d="M 603 4863 
L 1178 4863 
L 1178 0 
L 603 0 
L 603 4863 
z
" id="DejaVuSans-6c" transform="scale(0.015625)"/>
       <path d="M 603 3500 
L 1178 3500 
L 1178 0 
L 603 0 
L 603 3500 
z
M 603 4863 
L 1178 4863 
L 1178 4134 
L 603 4134 
L 603 4863 
z
" id="DejaVuSans-69" transform="scale(0.015625)"/>
       <path d="M 3116 1747 
Q 3116 2381 2855 2742 
Q 2594 3103 2138 3103 
Q 1681 3103 1420 2742 
Q 1159 2381 1159 1747 
Q 1159 1113 1420 752 
Q 1681 391 2138 391 
Q 2594 391 2855 752 
Q 3116 1113 3116 1747 
z
M 1159 2969 
Q 1341 3281 1617 3432 
Q 1894 3584 2278 3584 
Q 2916 3584 3314 3078 
Q 3713 2572 3713 1747 
Q 3713 922 3314 415 
Q 2916 -91 2278 -91 
Q 1894 -91 1617 61 
Q 1341 213 1159 525 
L 1159 0 
L 581 0 
L 581 4863 
L 1159 4863 
L 1159 2969 
z
" id="DejaVuSans-62" transform="scale(0.015625)"/>
       <path d="M 3328 2828 
Q 3544 3216 3844 3400 
Q 4144 3584 4550 3584 
Q 5097 3584 5394 3201 
Q 5691 2819 5691 2113 
L 5691 0 
L 5113 0 
L 5113 2094 
Q 5113 2597 4934 2840 
Q 4756 3084 4391 3084 
Q 3944 3084 3684 2787 
Q 3425 2491 3425 1978 
L 3425 0 
L 2847 0 
L 2847 2094 
Q 2847 2600 2669 2842 
Q 2491 3084 2119 3084 
Q 1678 3084 1418 2786 
Q 1159 2488 1159 1978 
L 1159 0 
L 581 0 
L 581 3500 
L 1159 3500 
L 1159 2956 
Q 1356 3278 1631 3431 
Q 1906 3584 2284 3584 
Q 2666 3584 2933 3390 
Q 3200 3197 3328 2828 
z
" id="DejaVuSans-6d" transform="scale(0.015625)"/>
       <path d="M 2906 1791 
Q 2906 2416 2648 2759 
Q 2391 3103 1925 3103 
Q 1463 3103 1205 2759 
Q 947 2416 947 1791 
Q 947 1169 1205 825 
Q 1463 481 1925 481 
Q 2391 481 2648 825 
Q 2906 1169 2906 1791 
z
M 3481 434 
Q 3481 -459 3084 -895 
Q 2688 -1331 1869 -1331 
Q 1566 -1331 1297 -1286 
Q 1028 -1241 775 -1147 
L 775 -588 
Q 1028 -725 1275 -790 
Q 1522 -856 1778 -856 
Q 2344 -856 2625 -561 
Q 2906 -266 2906 331 
L 2906 616 
Q 2728 306 2450 153 
Q 2172 0 1784 0 
Q 1141 0 747 490 
Q 353 981 353 1791 
Q 353 2603 747 3093 
Q 1141 3584 1784 3584 
Q 2172 3584 2450 3431 
Q 2728 3278 2906 2969 
L 2906 3500 
L 3481 3500 
L 3481 434 
z
" id="DejaVuSans-67" transform="scale(0.015625)"/>
       <path d="M 2906 2969 
L 2906 4863 
L 3481 4863 
L 3481 0 
L 2906 0 
L 2906 525 
Q 2725 213 2448 61 
Q 2172 -91 1784 -91 
Q 1150 -91 751 415 
Q 353 922 353 1747 
Q 353 2572 751 3078 
Q 1150 3584 1784 3584 
Q 2172 3584 2448 3432 
Q 2725 3281 2906 2969 
z
M 947 1747 
Q 947 1113 1208 752 
Q 1469 391 1925 391 
Q 2381 391 2643 752 
Q 2906 1113 2906 1747 
Q 2906 2381 2643 2742 
Q 2381 3103 1925 3103 
Q 1469 3103 1208 2742 
Q 947 2381 947 1747 
z
" id="DejaVuSans-64" transform="scale(0.015625)"/>
      </defs>
      <use xlink:href="#DejaVuSans-58"/>
      <use x="68.505859" xlink:href="#DejaVuSans-32"/>
      <use x="132.128906" xlink:href="#DejaVuSans-5f"/>
      <use x="182.128906" xlink:href="#DejaVuSans-6c"/>
      <use x="209.912109" xlink:href="#DejaVuSans-69"/>
      <use x="237.695312" xlink:href="#DejaVuSans-62"/>
      <use x="301.171875" xlink:href="#DejaVuSans-5f"/>
      <use x="351.171875" xlink:href="#DejaVuSans-6d"/>
      <use x="448.583984" xlink:href="#DejaVuSans-65"/>
      <use x="510.107422" xlink:href="#DejaVuSans-72"/>
      <use x="549.470703" xlink:href="#DejaVuSans-67"/>
      <use x="612.947266" xlink:href="#DejaVuSans-65"/>
      <use x="674.470703" xlink:href="#DejaVuSans-64"/>
     </g>
    </g>
    <g id="line2d_18">
     <path d="M 65.618125 315.455394 
L 81.618125 315.455394 
" style="fill:none;stroke:#f0ad4e;stroke-linecap:square;"/>
    </g>
    <g id="line2d_19"/>
    <g id="text_19">
     <!-- X2_neg_merged -->
     <g transform="translate(88.018125 318.255394)scale(0.08 -0.08)">
      <use xlink:href="#DejaVuSans-58"/>
      <use x="68.505859" xlink:href="#DejaVuSans-32"/>
      <use x="132.128906" xlink:href="#DejaVuSans-5f"/>
      <use x="182.128906" xlink:href="#DejaVuSans-6e"/>
      <use x="245.507812" xlink:href="#DejaVuSans-65"/>
      <use x="307.03125" xlink:href="#DejaVuSans-67"/>
      <use x="370.507812" xlink:href="#DejaVuSans-5f"/>
      <use x="420.507812" xlink:href="#DejaVuSans-6d"/>
      <use x="517.919922" xlink:href="#DejaVuSans-65"/>
      <use x="579.443359" xlink:href="#DejaVuSans-72"/>
      <use x="618.806641" xlink:href="#DejaVuSans-67"/>
      <use x="682.283203" xlink:href="#DejaVuSans-65"/>
      <use x="743.806641" xlink:href="#DejaVuSans-64"/>
     </g>
    </g>
    <g id="line2d_20">
     <path d="M 253.934375 303.490394 
L 269.934375 303.490394 
" style="fill:none;stroke:#d9534f;stroke-linecap:square;"/>
    </g>
    <g id="line2d_21"/>
    <g id="text_20">
     <!-- X2rL41_post_merged -->
     <g transform="translate(276.334375 306.290394)scale(0.08 -0.08)">
      <defs>
       <path d="M 628 4666 
L 1259 4666 
L 1259 531 
L 3531 531 
L 3531 0 
L 628 0 
L 628 4666 
z
" id="DejaVuSans-4c" transform="scale(0.015625)"/>
       <path d="M 1159 525 
L 1159 -1331 
L 581 -1331 
L 581 3500 
L 1159 3500 
L 1159 2969 
Q 1341 3281 1617 3432 
Q 1894 3584 2278 3584 
Q 2916 3584 3314 3078 
Q 3713 2572 3713 1747 
Q 3713 922 3314 415 
Q 2916 -91 2278 -91 
Q 1894 -91 1617 61 
Q 1341 213 1159 525 
z
M 3116 1747 
Q 3116 2381 2855 2742 
Q 2594 3103 2138 3103 
Q 1681 3103 1420 2742 
Q 1159 2381 1159 1747 
Q 1159 1113 1420 752 
Q 1681 391 2138 391 
Q 2594 391 2855 752 
Q 3116 1113 3116 1747 
z
" id="DejaVuSans-70" transform="scale(0.015625)"/>
      </defs>
      <use xlink:href="#DejaVuSans-58"/>
      <use x="68.505859" xlink:href="#DejaVuSans-32"/>
      <use x="132.128906" xlink:href="#DejaVuSans-72"/>
      <use x="173.242188" xlink:href="#DejaVuSans-4c"/>
      <use x="228.955078" xlink:href="#DejaVuSans-34"/>
      <use x="292.578125" xlink:href="#DejaVuSans-31"/>
      <use x="356.201172" xlink:href="#DejaVuSans-5f"/>
      <use x="406.201172" xlink:href="#DejaVuSans-70"/>
      <use x="469.677734" xlink:href="#DejaVuSans-6f"/>
      <use x="530.859375" xlink:href="#DejaVuSans-73"/>
      <use x="582.958984" xlink:href="#DejaVuSans-74"/>
      <use x="622.167969" xlink:href="#DejaVuSans-5f"/>
      <use x="672.167969" xlink:href="#DejaVuSans-6d"/>
      <use x="769.580078" xlink:href="#DejaVuSans-65"/>
      <use x="831.103516" xlink:href="#DejaVuSans-72"/>
      <use x="870.466797" xlink:href="#DejaVuSans-67"/>
      <use x="933.943359" xlink:href="#DejaVuSans-65"/>
      <use x="995.466797" xlink:href="#DejaVuSans-64"/>
     </g>
    </g>
    <g id="line2d_22">
     <path d="M 462.383125 303.490394 
L 478.383125 303.490394 
" style="fill:none;stroke:#d9534f;stroke-linecap:square;"/>
    </g>
    <g id="line2d_23"/>
    <g id="text_21">
     <!-- X2rL41_pre_merged -->
     <g transform="translate(484.783125 306.290394)scale(0.08 -0.08)">
      <use xlink:href="#DejaVuSans-58"/>
      <use x="68.505859" xlink:href="#DejaVuSans-32"/>
      <use x="132.128906" xlink:href="#DejaVuSans-72"/>
      <use x="173.242188" xlink:href="#DejaVuSans-4c"/>
      <use x="228.955078" xlink:href="#DejaVuSans-34"/>
      <use x="292.578125" xlink:href="#DejaVuSans-31"/>
      <use x="356.201172" xlink:href="#DejaVuSans-5f"/>
      <use x="406.201172" xlink:href="#DejaVuSans-70"/>
      <use x="469.677734" xlink:href="#DejaVuSans-72"/>
      <use x="508.541016" xlink:href="#DejaVuSans-65"/>
      <use x="570.064453" xlink:href="#DejaVuSans-5f"/>
      <use x="620.064453" xlink:href="#DejaVuSans-6d"/>
      <use x="717.476562" xlink:href="#DejaVuSans-65"/>
      <use x="779" xlink:href="#DejaVuSans-72"/>
      <use x="818.363281" xlink:href="#DejaVuSans-67"/>
      <use x="881.839844" xlink:href="#DejaVuSans-65"/>
      <use x="943.363281" xlink:href="#DejaVuSans-64"/>
     </g>
    </g>
    <g id="line2d_24">
     <path d="M 666.664375 303.490394 
L 682.664375 303.490394 
" style="fill:none;stroke:#d9534f;stroke-linecap:square;"/>
    </g>
    <g id="line2d_25"/>
    <g id="text_22">
     <!-- X2rL42_post_merged -->
     <g transform="translate(689.064375 306.290394)scale(0.08 -0.08)">
      <use xlink:href="#DejaVuSans-58"/>
      <use x="68.505859" xlink:href="#DejaVuSans-32"/>
      <use x="132.128906" xlink:href="#DejaVuSans-72"/>
      <use x="173.242188" xlink:href="#DejaVuSans-4c"/>
      <use x="228.955078" xlink:href="#DejaVuSans-34"/>
      <use x="292.578125" xlink:href="#DejaVuSans-32"/>
      <use x="356.201172" xlink:href="#DejaVuSans-5f"/>
      <use x="406.201172" xlink:href="#DejaVuSans-70"/>
      <use x="469.677734" xlink:href="#DejaVuSans-6f"/>
      <use x="530.859375" xlink:href="#DejaVuSans-73"/>
      <use x="582.958984" xlink:href="#DejaVuSans-74"/>
      <use x="622.167969" xlink:href="#DejaVuSans-5f"/>
      <use x="672.167969" xlink:href="#DejaVuSans-6d"/>
      <use x="769.580078" xlink:href="#DejaVuSans-65"/>
      <use x="831.103516" xlink:href="#DejaVuSans-72"/>
      <use x="870.466797" xlink:href="#DejaVuSans-67"/>
      <use x="933.943359" xlink:href="#DejaVuSans-65"/>
      <use x="995.466797" xlink:href="#DejaVuSans-64"/>
     </g>
    </g>
    <g id="line2d_26">
     <path d="M 875.113125 303.490394 
L 891.113125 303.490394 
" style="fill:none;stroke:#d9534f;stroke-linecap:square;"/>
    </g>
    <g id="line2d_27"/>
    <g id="text_23">
     <!-- X2rL42_pre_merged -->
     <g transform="translate(897.513125 306.290394)scale(0.08 -0.08)">
      <use xlink:href="#DejaVuSans-58"/>
      <use x="68.505859" xlink:href="#DejaVuSans-32"/>
      <use x="132.128906" xlink:href="#DejaVuSans-72"/>
      <use x="173.242188" xlink:href="#DejaVuSans-4c"/>
      <use x="228.955078" xlink:href="#DejaVuSans-34"/>
      <use x="292.578125" xlink:href="#DejaVuSans-32"/>
      <use x="356.201172" xlink:href="#DejaVuSans-5f"/>
      <use x="406.201172" xlink:href="#DejaVuSans-70"/>
      <use x="469.677734" xlink:href="#DejaVuSans-72"/>
      <use x="508.541016" xlink:href="#DejaVuSans-65"/>
      <use x="570.064453" xlink:href="#DejaVuSans-5f"/>
      <use x="620.064453" xlink:href="#DejaVuSans-6d"/>
      <use x="717.476562" xlink:href="#DejaVuSans-65"/>
      <use x="779" xlink:href="#DejaVuSans-72"/>
      <use x="818.363281" xlink:href="#DejaVuSans-67"/>
      <use x="881.839844" xlink:href="#DejaVuSans-65"/>
      <use x="943.363281" xlink:href="#DejaVuSans-64"/>
     </g>
    </g>
   </g>
  </g>
 </g>
 <defs>
  <clipPath id="p39d3f05577">
   <rect height="242.5072" width="926.845" x="58.418125" y="31.48286"/>
  </clipPath>
 </defs>
</svg>
