<?xml version="1.0" encoding="utf-8" standalone="no"?>
<!DOCTYPE svg PUBLIC "-//W3C//DTD SVG 1.1//EN"
  "http://www.w3.org/Graphics/SVG/1.1/DTD/svg11.dtd">
<svg height="330.541644pt" version="1.1" viewBox="0 0 1000.258125 330.541644" width="1000.258125pt" xmlns="http://www.w3.org/2000/svg" xmlns:xlink="http://www.w3.org/1999/xlink">
 <metadata>
  <rdf:RDF xmlns:cc="http://creativecommons.org/ns#" xmlns:dc="http://purl.org/dc/elements/1.1/" xmlns:rdf="http://www.w3.org/1999/02/22-rdf-syntax-ns#">
   <cc:Work>
    <dc:type rdf:resource="http://purl.org/dc/dcmitype/StillImage"/>
    <dc:date>2022-05-31T19:37:07.135246</dc:date>
    <dc:format>image/svg+xml</dc:format>
    <dc:creator>
     <cc:Agent>
      <dc:title>Matplotlib v3.4.1, https://matplotlib.org/</dc:title>
     </cc:Agent>
    </dc:creator>
   </cc:Work>
  </rdf:RDF>
 </metadata>
 <defs>
  <style type="text/css">*{stroke-linecap:butt;stroke-linejoin:round;}</style>
 </defs>
 <g id="figure_1">
  <g id="axes_1">
   <g id="patch_1">
    <path d="M 38.058125 273.99006 
L 985.423125 273.99006 
L 985.423125 31.48286 
L 38.058125 31.48286 
z
" style="fill:#ffffff;"/>
   </g>
   <g id="matplotlib.axis_1">
    <g id="xtick_1">
     <g id="text_1">
      <!-- 0 -->
      <g transform="translate(35.513125 287.06881)scale(0.08 -0.08)">
       <defs>
        <path d="M 2034 4250 
Q 1547 4250 1301 3770 
Q 1056 3291 1056 2328 
Q 1056 1369 1301 889 
Q 1547 409 2034 409 
Q 2525 409 2770 889 
Q 3016 1369 3016 2328 
Q 3016 3291 2770 3770 
Q 2525 4250 2034 4250 
z
M 2034 4750 
Q 2819 4750 3233 4129 
Q 3647 3509 3647 2328 
Q 3647 1150 3233 529 
Q 2819 -91 2034 -91 
Q 1250 -91 836 529 
Q 422 1150 422 2328 
Q 422 3509 836 4129 
Q 1250 4750 2034 4750 
z
" id="DejaVuSans-30" transform="scale(0.015625)"/>
       </defs>
       <use xlink:href="#DejaVuSans-30"/>
      </g>
     </g>
    </g>
    <g id="xtick_2">
     <g id="text_2">
      <!-- 20 -->
      <g transform="translate(222.441125 287.06881)scale(0.08 -0.08)">
       <defs>
        <path d="M 1228 531 
L 3431 531 
L 3431 0 
L 469 0 
L 469 531 
Q 828 903 1448 1529 
Q 2069 2156 2228 2338 
Q 2531 2678 2651 2914 
Q 2772 3150 2772 3378 
Q 2772 3750 2511 3984 
Q 2250 4219 1831 4219 
Q 1534 4219 1204 4116 
Q 875 4013 500 3803 
L 500 4441 
Q 881 4594 1212 4672 
Q 1544 4750 1819 4750 
Q 2544 4750 2975 4387 
Q 3406 4025 3406 3419 
Q 3406 3131 3298 2873 
Q 3191 2616 2906 2266 
Q 2828 2175 2409 1742 
Q 1991 1309 1228 531 
z
" id="DejaVuSans-32" transform="scale(0.015625)"/>
       </defs>
       <use xlink:href="#DejaVuSans-32"/>
       <use x="63.623047" xlink:href="#DejaVuSans-30"/>
      </g>
     </g>
    </g>
    <g id="xtick_3">
     <g id="text_3">
      <!-- 40 -->
      <g transform="translate(411.914125 287.06881)scale(0.08 -0.08)">
       <defs>
        <path d="M 2419 4116 
L 825 1625 
L 2419 1625 
L 2419 4116 
z
M 2253 4666 
L 3047 4666 
L 3047 1625 
L 3713 1625 
L 3713 1100 
L 3047 1100 
L 3047 0 
L 2419 0 
L 2419 1100 
L 313 1100 
L 313 1709 
L 2253 4666 
z
" id="DejaVuSans-34" transform="scale(0.015625)"/>
       </defs>
       <use xlink:href="#DejaVuSans-34"/>
       <use x="63.623047" xlink:href="#DejaVuSans-30"/>
      </g>
     </g>
    </g>
    <g id="xtick_4">
     <g id="text_4">
      <!-- 60 -->
      <g transform="translate(601.387125 287.06881)scale(0.08 -0.08)">
       <defs>
        <path d="M 2113 2584 
Q 1688 2584 1439 2293 
Q 1191 2003 1191 1497 
Q 1191 994 1439 701 
Q 1688 409 2113 409 
Q 2538 409 2786 701 
Q 3034 994 3034 1497 
Q 3034 2003 2786 2293 
Q 2538 2584 2113 2584 
z
M 3366 4563 
L 3366 3988 
Q 3128 4100 2886 4159 
Q 2644 4219 2406 4219 
Q 1781 4219 1451 3797 
Q 1122 3375 1075 2522 
Q 1259 2794 1537 2939 
Q 1816 3084 2150 3084 
Q 2853 3084 3261 2657 
Q 3669 2231 3669 1497 
Q 3669 778 3244 343 
Q 2819 -91 2113 -91 
Q 1303 -91 875 529 
Q 447 1150 447 2328 
Q 447 3434 972 4092 
Q 1497 4750 2381 4750 
Q 2619 4750 2861 4703 
Q 3103 4656 3366 4563 
z
" id="DejaVuSans-36" transform="scale(0.015625)"/>
       </defs>
       <use xlink:href="#DejaVuSans-36"/>
       <use x="63.623047" xlink:href="#DejaVuSans-30"/>
      </g>
     </g>
    </g>
    <g id="xtick_5">
     <g id="text_5">
      <!-- 80 -->
      <g transform="translate(790.860125 287.06881)scale(0.08 -0.08)">
       <defs>
        <path d="M 2034 2216 
Q 1584 2216 1326 1975 
Q 1069 1734 1069 1313 
Q 1069 891 1326 650 
Q 1584 409 2034 409 
Q 2484 409 2743 651 
Q 3003 894 3003 1313 
Q 3003 1734 2745 1975 
Q 2488 2216 2034 2216 
z
M 1403 2484 
Q 997 2584 770 2862 
Q 544 3141 544 3541 
Q 544 4100 942 4425 
Q 1341 4750 2034 4750 
Q 2731 4750 3128 4425 
Q 3525 4100 3525 3541 
Q 3525 3141 3298 2862 
Q 3072 2584 2669 2484 
Q 3125 2378 3379 2068 
Q 3634 1759 3634 1313 
Q 3634 634 3220 271 
Q 2806 -91 2034 -91 
Q 1263 -91 848 271 
Q 434 634 434 1313 
Q 434 1759 690 2068 
Q 947 2378 1403 2484 
z
M 1172 3481 
Q 1172 3119 1398 2916 
Q 1625 2713 2034 2713 
Q 2441 2713 2670 2916 
Q 2900 3119 2900 3481 
Q 2900 3844 2670 4047 
Q 2441 4250 2034 4250 
Q 1625 4250 1398 4047 
Q 1172 3844 1172 3481 
z
" id="DejaVuSans-38" transform="scale(0.015625)"/>
       </defs>
       <use xlink:href="#DejaVuSans-38"/>
       <use x="63.623047" xlink:href="#DejaVuSans-30"/>
      </g>
     </g>
    </g>
    <g id="xtick_6">
     <g id="text_6">
      <!-- 100 -->
      <g transform="translate(977.788125 287.06881)scale(0.08 -0.08)">
       <defs>
        <path d="M 794 531 
L 1825 531 
L 1825 4091 
L 703 3866 
L 703 4441 
L 1819 4666 
L 2450 4666 
L 2450 531 
L 3481 531 
L 3481 0 
L 794 0 
L 794 531 
z
" id="DejaVuSans-31" transform="scale(0.015625)"/>
       </defs>
       <use xlink:href="#DejaVuSans-31"/>
       <use x="63.623047" xlink:href="#DejaVuSans-30"/>
       <use x="127.246094" xlink:href="#DejaVuSans-30"/>
      </g>
     </g>
    </g>
    <g id="text_7">
     <!-- % GC -->
     <g transform="translate(498.035156 300.330997)scale(0.1 -0.1)">
      <defs>
       <path d="M 4653 2053 
Q 4381 2053 4226 1822 
Q 4072 1591 4072 1178 
Q 4072 772 4226 539 
Q 4381 306 4653 306 
Q 4919 306 5073 539 
Q 5228 772 5228 1178 
Q 5228 1588 5073 1820 
Q 4919 2053 4653 2053 
z
M 4653 2450 
Q 5147 2450 5437 2106 
Q 5728 1763 5728 1178 
Q 5728 594 5436 251 
Q 5144 -91 4653 -91 
Q 4153 -91 3862 251 
Q 3572 594 3572 1178 
Q 3572 1766 3864 2108 
Q 4156 2450 4653 2450 
z
M 1428 4353 
Q 1159 4353 1004 4120 
Q 850 3888 850 3481 
Q 850 3069 1003 2837 
Q 1156 2606 1428 2606 
Q 1700 2606 1854 2837 
Q 2009 3069 2009 3481 
Q 2009 3884 1853 4118 
Q 1697 4353 1428 4353 
z
M 4250 4750 
L 4750 4750 
L 1831 -91 
L 1331 -91 
L 4250 4750 
z
M 1428 4750 
Q 1922 4750 2215 4408 
Q 2509 4066 2509 3481 
Q 2509 2891 2217 2550 
Q 1925 2209 1428 2209 
Q 931 2209 642 2551 
Q 353 2894 353 3481 
Q 353 4063 643 4406 
Q 934 4750 1428 4750 
z
" id="DejaVuSans-25" transform="scale(0.015625)"/>
       <path id="DejaVuSans-20" transform="scale(0.015625)"/>
       <path d="M 3809 666 
L 3809 1919 
L 2778 1919 
L 2778 2438 
L 4434 2438 
L 4434 434 
Q 4069 175 3628 42 
Q 3188 -91 2688 -91 
Q 1594 -91 976 548 
Q 359 1188 359 2328 
Q 359 3472 976 4111 
Q 1594 4750 2688 4750 
Q 3144 4750 3555 4637 
Q 3966 4525 4313 4306 
L 4313 3634 
Q 3963 3931 3569 4081 
Q 3175 4231 2741 4231 
Q 1884 4231 1454 3753 
Q 1025 3275 1025 2328 
Q 1025 1384 1454 906 
Q 1884 428 2741 428 
Q 3075 428 3337 486 
Q 3600 544 3809 666 
z
" id="DejaVuSans-47" transform="scale(0.015625)"/>
       <path d="M 4122 4306 
L 4122 3641 
Q 3803 3938 3442 4084 
Q 3081 4231 2675 4231 
Q 1875 4231 1450 3742 
Q 1025 3253 1025 2328 
Q 1025 1406 1450 917 
Q 1875 428 2675 428 
Q 3081 428 3442 575 
Q 3803 722 4122 1019 
L 4122 359 
Q 3791 134 3420 21 
Q 3050 -91 2638 -91 
Q 1578 -91 968 557 
Q 359 1206 359 2328 
Q 359 3453 968 4101 
Q 1578 4750 2638 4750 
Q 3056 4750 3426 4639 
Q 3797 4528 4122 4306 
z
" id="DejaVuSans-43" transform="scale(0.015625)"/>
      </defs>
      <use xlink:href="#DejaVuSans-25"/>
      <use x="95.019531" xlink:href="#DejaVuSans-20"/>
      <use x="126.806641" xlink:href="#DejaVuSans-47"/>
      <use x="204.296875" xlink:href="#DejaVuSans-43"/>
     </g>
    </g>
   </g>
   <g id="matplotlib.axis_2">
    <g id="ytick_1">
     <g id="line2d_1">
      <path clip-path="url(#p6007a64c94)" d="M 38.058125 273.99006 
L 985.423125 273.99006 
" style="fill:none;stroke:#dedede;stroke-linecap:square;"/>
     </g>
     <g id="text_8">
      <!-- 0 -->
      <g transform="translate(25.968125 277.029435)scale(0.08 -0.08)">
       <use xlink:href="#DejaVuSans-30"/>
      </g>
     </g>
    </g>
    <g id="ytick_2">
     <g id="line2d_2">
      <path clip-path="url(#p6007a64c94)" d="M 38.058125 225.715643 
L 985.423125 225.715643 
" style="fill:none;stroke:#dedede;stroke-linecap:square;"/>
     </g>
     <g id="text_9">
      <!-- 10 -->
      <g transform="translate(20.878125 228.755018)scale(0.08 -0.08)">
       <use xlink:href="#DejaVuSans-31"/>
       <use x="63.623047" xlink:href="#DejaVuSans-30"/>
      </g>
     </g>
    </g>
    <g id="ytick_3">
     <g id="line2d_3">
      <path clip-path="url(#p6007a64c94)" d="M 38.058125 177.441225 
L 985.423125 177.441225 
" style="fill:none;stroke:#dedede;stroke-linecap:square;"/>
     </g>
     <g id="text_10">
      <!-- 20 -->
      <g transform="translate(20.878125 180.4806)scale(0.08 -0.08)">
       <use xlink:href="#DejaVuSans-32"/>
       <use x="63.623047" xlink:href="#DejaVuSans-30"/>
      </g>
     </g>
    </g>
    <g id="ytick_4">
     <g id="line2d_4">
      <path clip-path="url(#p6007a64c94)" d="M 38.058125 129.166808 
L 985.423125 129.166808 
" style="fill:none;stroke:#dedede;stroke-linecap:square;"/>
     </g>
     <g id="text_11">
      <!-- 30 -->
      <g transform="translate(20.878125 132.206183)scale(0.08 -0.08)">
       <defs>
        <path d="M 2597 2516 
Q 3050 2419 3304 2112 
Q 3559 1806 3559 1356 
Q 3559 666 3084 287 
Q 2609 -91 1734 -91 
Q 1441 -91 1130 -33 
Q 819 25 488 141 
L 488 750 
Q 750 597 1062 519 
Q 1375 441 1716 441 
Q 2309 441 2620 675 
Q 2931 909 2931 1356 
Q 2931 1769 2642 2001 
Q 2353 2234 1838 2234 
L 1294 2234 
L 1294 2753 
L 1863 2753 
Q 2328 2753 2575 2939 
Q 2822 3125 2822 3475 
Q 2822 3834 2567 4026 
Q 2313 4219 1838 4219 
Q 1578 4219 1281 4162 
Q 984 4106 628 3988 
L 628 4550 
Q 988 4650 1302 4700 
Q 1616 4750 1894 4750 
Q 2613 4750 3031 4423 
Q 3450 4097 3450 3541 
Q 3450 3153 3228 2886 
Q 3006 2619 2597 2516 
z
" id="DejaVuSans-33" transform="scale(0.015625)"/>
       </defs>
       <use xlink:href="#DejaVuSans-33"/>
       <use x="63.623047" xlink:href="#DejaVuSans-30"/>
      </g>
     </g>
    </g>
    <g id="ytick_5">
     <g id="line2d_5">
      <path clip-path="url(#p6007a64c94)" d="M 38.058125 80.89239 
L 985.423125 80.89239 
" style="fill:none;stroke:#dedede;stroke-linecap:square;"/>
     </g>
     <g id="text_12">
      <!-- 40 -->
      <g transform="translate(20.878125 83.931765)scale(0.08 -0.08)">
       <use xlink:href="#DejaVuSans-34"/>
       <use x="63.623047" xlink:href="#DejaVuSans-30"/>
      </g>
     </g>
    </g>
    <g id="ytick_6">
     <g id="line2d_6">
      <path clip-path="url(#p6007a64c94)" d="M 38.058125 32.617973 
L 985.423125 32.617973 
" style="fill:none;stroke:#dedede;stroke-linecap:square;"/>
     </g>
     <g id="text_13">
      <!-- 50 -->
      <g transform="translate(20.878125 35.657348)scale(0.08 -0.08)">
       <defs>
        <path d="M 691 4666 
L 3169 4666 
L 3169 4134 
L 1269 4134 
L 1269 2991 
Q 1406 3038 1543 3061 
Q 1681 3084 1819 3084 
Q 2600 3084 3056 2656 
Q 3513 2228 3513 1497 
Q 3513 744 3044 326 
Q 2575 -91 1722 -91 
Q 1428 -91 1123 -41 
Q 819 9 494 109 
L 494 744 
Q 775 591 1075 516 
Q 1375 441 1709 441 
Q 2250 441 2565 725 
Q 2881 1009 2881 1497 
Q 2881 1984 2565 2268 
Q 2250 2553 1709 2553 
Q 1456 2553 1204 2497 
Q 953 2441 691 2322 
L 691 4666 
z
" id="DejaVuSans-35" transform="scale(0.015625)"/>
       </defs>
       <use xlink:href="#DejaVuSans-35"/>
       <use x="63.623047" xlink:href="#DejaVuSans-30"/>
      </g>
     </g>
    </g>
    <g id="text_14">
     <!-- Percentage -->
     <g transform="translate(14.798438 180.859116)rotate(-90)scale(0.1 -0.1)">
      <defs>
       <path d="M 1259 4147 
L 1259 2394 
L 2053 2394 
Q 2494 2394 2734 2622 
Q 2975 2850 2975 3272 
Q 2975 3691 2734 3919 
Q 2494 4147 2053 4147 
L 1259 4147 
z
M 628 4666 
L 2053 4666 
Q 2838 4666 3239 4311 
Q 3641 3956 3641 3272 
Q 3641 2581 3239 2228 
Q 2838 1875 2053 1875 
L 1259 1875 
L 1259 0 
L 628 0 
L 628 4666 
z
" id="DejaVuSans-50" transform="scale(0.015625)"/>
       <path d="M 3597 1894 
L 3597 1613 
L 953 1613 
Q 991 1019 1311 708 
Q 1631 397 2203 397 
Q 2534 397 2845 478 
Q 3156 559 3463 722 
L 3463 178 
Q 3153 47 2828 -22 
Q 2503 -91 2169 -91 
Q 1331 -91 842 396 
Q 353 884 353 1716 
Q 353 2575 817 3079 
Q 1281 3584 2069 3584 
Q 2775 3584 3186 3129 
Q 3597 2675 3597 1894 
z
M 3022 2063 
Q 3016 2534 2758 2815 
Q 2500 3097 2075 3097 
Q 1594 3097 1305 2825 
Q 1016 2553 972 2059 
L 3022 2063 
z
" id="DejaVuSans-65" transform="scale(0.015625)"/>
       <path d="M 2631 2963 
Q 2534 3019 2420 3045 
Q 2306 3072 2169 3072 
Q 1681 3072 1420 2755 
Q 1159 2438 1159 1844 
L 1159 0 
L 581 0 
L 581 3500 
L 1159 3500 
L 1159 2956 
Q 1341 3275 1631 3429 
Q 1922 3584 2338 3584 
Q 2397 3584 2469 3576 
Q 2541 3569 2628 3553 
L 2631 2963 
z
" id="DejaVuSans-72" transform="scale(0.015625)"/>
       <path d="M 3122 3366 
L 3122 2828 
Q 2878 2963 2633 3030 
Q 2388 3097 2138 3097 
Q 1578 3097 1268 2742 
Q 959 2388 959 1747 
Q 959 1106 1268 751 
Q 1578 397 2138 397 
Q 2388 397 2633 464 
Q 2878 531 3122 666 
L 3122 134 
Q 2881 22 2623 -34 
Q 2366 -91 2075 -91 
Q 1284 -91 818 406 
Q 353 903 353 1747 
Q 353 2603 823 3093 
Q 1294 3584 2113 3584 
Q 2378 3584 2631 3529 
Q 2884 3475 3122 3366 
z
" id="DejaVuSans-63" transform="scale(0.015625)"/>
       <path d="M 3513 2113 
L 3513 0 
L 2938 0 
L 2938 2094 
Q 2938 2591 2744 2837 
Q 2550 3084 2163 3084 
Q 1697 3084 1428 2787 
Q 1159 2491 1159 1978 
L 1159 0 
L 581 0 
L 581 3500 
L 1159 3500 
L 1159 2956 
Q 1366 3272 1645 3428 
Q 1925 3584 2291 3584 
Q 2894 3584 3203 3211 
Q 3513 2838 3513 2113 
z
" id="DejaVuSans-6e" transform="scale(0.015625)"/>
       <path d="M 1172 4494 
L 1172 3500 
L 2356 3500 
L 2356 3053 
L 1172 3053 
L 1172 1153 
Q 1172 725 1289 603 
Q 1406 481 1766 481 
L 2356 481 
L 2356 0 
L 1766 0 
Q 1100 0 847 248 
Q 594 497 594 1153 
L 594 3053 
L 172 3053 
L 172 3500 
L 594 3500 
L 594 4494 
L 1172 4494 
z
" id="DejaVuSans-74" transform="scale(0.015625)"/>
       <path d="M 2194 1759 
Q 1497 1759 1228 1600 
Q 959 1441 959 1056 
Q 959 750 1161 570 
Q 1363 391 1709 391 
Q 2188 391 2477 730 
Q 2766 1069 2766 1631 
L 2766 1759 
L 2194 1759 
z
M 3341 1997 
L 3341 0 
L 2766 0 
L 2766 531 
Q 2569 213 2275 61 
Q 1981 -91 1556 -91 
Q 1019 -91 701 211 
Q 384 513 384 1019 
Q 384 1609 779 1909 
Q 1175 2209 1959 2209 
L 2766 2209 
L 2766 2266 
Q 2766 2663 2505 2880 
Q 2244 3097 1772 3097 
Q 1472 3097 1187 3025 
Q 903 2953 641 2809 
L 641 3341 
Q 956 3463 1253 3523 
Q 1550 3584 1831 3584 
Q 2591 3584 2966 3190 
Q 3341 2797 3341 1997 
z
" id="DejaVuSans-61" transform="scale(0.015625)"/>
       <path d="M 2906 1791 
Q 2906 2416 2648 2759 
Q 2391 3103 1925 3103 
Q 1463 3103 1205 2759 
Q 947 2416 947 1791 
Q 947 1169 1205 825 
Q 1463 481 1925 481 
Q 2391 481 2648 825 
Q 2906 1169 2906 1791 
z
M 3481 434 
Q 3481 -459 3084 -895 
Q 2688 -1331 1869 -1331 
Q 1566 -1331 1297 -1286 
Q 1028 -1241 775 -1147 
L 775 -588 
Q 1028 -725 1275 -790 
Q 1522 -856 1778 -856 
Q 2344 -856 2625 -561 
Q 2906 -266 2906 331 
L 2906 616 
Q 2728 306 2450 153 
Q 2172 0 1784 0 
Q 1141 0 747 490 
Q 353 981 353 1791 
Q 353 2603 747 3093 
Q 1141 3584 1784 3584 
Q 2172 3584 2450 3431 
Q 2728 3278 2906 2969 
L 2906 3500 
L 3481 3500 
L 3481 434 
z
" id="DejaVuSans-67" transform="scale(0.015625)"/>
      </defs>
      <use xlink:href="#DejaVuSans-50"/>
      <use x="56.677734" xlink:href="#DejaVuSans-65"/>
      <use x="118.201172" xlink:href="#DejaVuSans-72"/>
      <use x="157.064453" xlink:href="#DejaVuSans-63"/>
      <use x="212.044922" xlink:href="#DejaVuSans-65"/>
      <use x="273.568359" xlink:href="#DejaVuSans-6e"/>
      <use x="336.947266" xlink:href="#DejaVuSans-74"/>
      <use x="376.15625" xlink:href="#DejaVuSans-61"/>
      <use x="437.435547" xlink:href="#DejaVuSans-67"/>
      <use x="500.912109" xlink:href="#DejaVuSans-65"/>
     </g>
    </g>
   </g>
   <g id="line2d_7">
    <path clip-path="url(#p6007a64c94)" d="M 38.058125 273.99006 
L 47.531775 273.99006 
L 57.005425 273.99006 
L 66.479075 273.99006 
L 75.952725 273.989387 
L 85.426375 273.988041 
L 94.900025 273.987704 
L 104.373675 273.988714 
L 113.847325 273.987367 
L 123.320975 273.986358 
L 132.794625 273.987031 
L 142.268275 273.984338 
L 151.741925 273.977607 
L 161.215575 273.969192 
L 170.689225 273.952027 
L 180.162875 273.911974 
L 189.636525 273.882356 
L 199.110175 273.850717 
L 208.583825 273.781719 
L 218.057475 273.707673 
L 227.531125 273.615451 
L 237.004775 273.450192 
L 246.478425 273.09645 
L 255.952075 272.292033 
L 265.425725 270.534096 
L 274.899375 266.129659 
L 284.373025 239.586587 
L 293.846675 99.983531 
L 303.320325 77.58876 
L 312.793975 217.520315 
L 322.267625 268.593397 
L 331.741275 273.776671 
L 341.214925 273.966836 
L 350.688575 273.986021 
L 360.162225 273.988377 
L 369.635875 273.98905 
L 379.109525 273.988714 
L 388.583175 273.989387 
L 398.056825 273.989387 
L 407.530475 273.985685 
L 417.004125 273.986021 
L 426.477775 273.98905 
L 435.951425 273.988377 
L 445.425075 273.988714 
L 454.898725 273.988377 
L 464.372375 273.987031 
L 473.846025 273.986358 
L 483.319675 273.985685 
L 492.793325 273.984338 
L 502.266975 273.985685 
L 511.740625 273.988041 
L 521.214275 273.986358 
L 530.687925 273.981646 
L 540.161575 273.983665 
L 549.635225 273.989387 
L 559.108875 273.989723 
L 568.582525 273.989723 
L 578.056175 273.99006 
L 587.529825 273.99006 
L 597.003475 273.99006 
L 606.477125 273.99006 
L 615.950775 273.99006 
L 625.424425 273.99006 
L 634.898075 273.99006 
L 644.371725 273.99006 
L 653.845375 273.99006 
L 663.319025 273.99006 
L 672.792675 273.99006 
L 682.266325 273.99006 
L 691.739975 273.99006 
L 701.213625 273.99006 
L 710.687275 273.99006 
L 720.160925 273.99006 
L 729.634575 273.99006 
L 739.108225 273.99006 
L 748.581875 273.99006 
L 758.055525 273.99006 
L 767.529175 273.99006 
L 777.002825 273.99006 
L 786.476475 273.99006 
L 795.950125 273.99006 
L 805.423775 273.99006 
L 814.897425 273.989723 
L 824.371075 273.989723 
L 833.844725 273.99006 
L 843.318375 273.99006 
L 852.792025 273.99006 
L 862.265675 273.99006 
L 871.739325 273.99006 
L 881.212975 273.99006 
L 890.686625 273.99006 
L 900.160275 273.99006 
L 909.633925 273.99006 
L 919.107575 273.989387 
L 928.581225 273.988714 
L 938.054875 273.989387 
L 947.528525 273.98905 
L 957.002175 273.988377 
L 966.475825 273.986694 
L 975.949475 273.985685 
L 985.423125 273.971885 
" style="fill:none;stroke:#d9534f;stroke-linecap:square;"/>
   </g>
   <g id="line2d_8">
    <path clip-path="url(#p6007a64c94)" d="M 38.058125 273.99006 
L 47.531775 273.99006 
L 57.005425 273.99006 
L 66.479075 273.989723 
L 75.952725 273.989723 
L 85.426375 273.99006 
L 94.900025 273.989723 
L 104.373675 273.989049 
L 113.847325 273.989386 
L 123.320975 273.989723 
L 132.794625 273.989049 
L 142.268275 273.989049 
L 151.741925 273.989049 
L 161.215575 273.987364 
L 170.689225 273.985678 
L 180.162875 273.985004 
L 189.636525 273.980286 
L 199.110175 273.978938 
L 208.583825 273.979612 
L 218.057475 273.975904 
L 227.531125 273.9695 
L 237.004775 273.963097 
L 246.478425 273.951637 
L 255.952075 273.934785 
L 265.425725 273.925011 
L 274.899375 273.916922 
L 284.373025 273.910181 
L 293.846675 273.886588 
L 303.320325 273.852883 
L 312.793975 273.808394 
L 322.267625 273.730873 
L 331.741275 273.636838 
L 341.214925 273.460902 
L 350.688575 273.116443 
L 360.162225 272.464601 
L 369.635875 270.300444 
L 379.109525 244.252366 
L 388.583175 69.402237 
L 398.056825 69.36314 
L 407.530475 245.506843 
L 417.004125 272.144746 
L 426.477775 273.305861 
L 435.951425 273.556622 
L 445.425075 273.676609 
L 454.898725 273.729525 
L 464.372375 273.753792 
L 473.846025 273.78716 
L 483.319675 273.818505 
L 492.793325 273.832324 
L 502.266975 273.83502 
L 511.740625 273.843783 
L 521.214275 273.862995 
L 530.687925 273.882206 
L 540.161575 273.888273 
L 549.635225 273.891306 
L 559.108875 273.897373 
L 568.582525 273.904451 
L 578.056175 273.918944 
L 587.529825 273.929055 
L 597.003475 273.93074 
L 606.477125 273.932089 
L 615.950775 273.93647 
L 625.424425 273.939841 
L 634.898075 273.937481 
L 644.371725 273.944559 
L 653.845375 273.949952 
L 663.319025 273.950626 
L 672.792675 273.955682 
L 682.266325 273.9604 
L 691.739975 273.959726 
L 701.213625 273.959389 
L 710.687275 273.958041 
L 720.160925 273.959726 
L 729.634575 273.969837 
L 739.108225 273.968826 
L 748.581875 273.962422 
L 758.055525 273.958715 
L 767.529175 273.963097 
L 777.002825 273.968826 
L 786.476475 273.968152 
L 795.950125 273.971186 
L 805.423775 273.972197 
L 814.897425 273.970849 
L 824.371075 273.971523 
L 833.844725 273.970849 
L 843.318375 273.973545 
L 852.792025 273.972197 
L 862.265675 273.970511 
L 871.739325 273.973882 
L 881.212975 273.974556 
L 890.686625 273.973545 
L 900.160275 273.9695 
L 909.633925 273.970511 
L 919.107575 273.97523 
L 928.581225 273.972871 
L 938.054875 273.968152 
L 947.528525 273.96613 
L 957.002175 273.961748 
L 966.475825 273.959726 
L 975.949475 273.950963 
L 985.423125 273.277887 
" style="fill:none;stroke:#d9534f;stroke-linecap:square;"/>
   </g>
   <g id="line2d_9">
    <path clip-path="url(#p6007a64c94)" d="M 38.058125 273.99006 
L 47.531775 273.99006 
L 57.005425 273.99006 
L 66.479075 273.99006 
L 75.952725 273.989116 
L 85.426375 273.989116 
L 94.900025 273.99006 
L 104.373675 273.989116 
L 113.847325 273.988171 
L 123.320975 273.988171 
L 132.794625 273.986282 
L 142.268275 273.978726 
L 151.741925 273.965503 
L 161.215575 273.946613 
L 170.689225 273.905055 
L 180.162875 273.860664 
L 189.636525 273.813439 
L 199.110175 273.769992 
L 208.583825 273.714267 
L 218.057475 273.618872 
L 227.531125 273.53859 
L 237.004775 273.443196 
L 246.478425 273.17118 
L 255.952075 272.477919 
L 265.425725 268.371242 
L 274.899375 262.649475 
L 284.373025 51.991513 
L 293.846675 47.065956 
L 303.320325 262.122445 
L 312.793975 273.752047 
L 322.267625 273.970226 
L 331.741275 273.985338 
L 341.214925 273.987227 
L 350.688575 273.989116 
L 360.162225 273.989116 
L 369.635875 273.989116 
L 379.109525 273.99006 
L 388.583175 273.99006 
L 398.056825 273.99006 
L 407.530475 273.99006 
L 417.004125 273.99006 
L 426.477775 273.989116 
L 435.951425 273.989116 
L 445.425075 273.99006 
L 454.898725 273.987227 
L 464.372375 273.987227 
L 473.846025 273.988171 
L 483.319675 273.988171 
L 492.793325 273.989116 
L 502.266975 273.989116 
L 511.740625 273.99006 
L 521.214275 273.99006 
L 530.687925 273.99006 
L 540.161575 273.99006 
L 549.635225 273.99006 
L 559.108875 273.99006 
L 568.582525 273.989116 
L 578.056175 273.989116 
L 587.529825 273.99006 
L 597.003475 273.99006 
L 606.477125 273.99006 
L 615.950775 273.99006 
L 625.424425 273.99006 
L 634.898075 273.99006 
L 644.371725 273.99006 
L 653.845375 273.99006 
L 663.319025 273.99006 
L 672.792675 273.99006 
L 682.266325 273.99006 
L 691.739975 273.989116 
L 701.213625 273.989116 
L 710.687275 273.99006 
L 720.160925 273.99006 
L 729.634575 273.99006 
L 739.108225 273.99006 
L 748.581875 273.989116 
L 758.055525 273.989116 
L 767.529175 273.99006 
L 777.002825 273.99006 
L 786.476475 273.99006 
L 795.950125 273.99006 
L 805.423775 273.99006 
L 814.897425 273.99006 
L 824.371075 273.99006 
L 833.844725 273.99006 
L 843.318375 273.99006 
L 852.792025 273.99006 
L 862.265675 273.99006 
L 871.739325 273.99006 
L 881.212975 273.99006 
L 890.686625 273.99006 
L 900.160275 273.99006 
L 909.633925 273.99006 
L 919.107575 273.99006 
L 928.581225 273.99006 
L 938.054875 273.99006 
L 947.528525 273.99006 
L 957.002175 273.99006 
L 966.475825 273.986282 
L 975.949475 273.983449 
L 985.423125 273.970226 
" style="fill:none;stroke:#d9534f;stroke-linecap:square;"/>
   </g>
   <g id="line2d_10">
    <path clip-path="url(#p6007a64c94)" d="M 38.058125 273.99006 
L 47.531775 273.99006 
L 57.005425 273.99006 
L 66.479075 273.99006 
L 75.952725 273.99006 
L 85.426375 273.99006 
L 94.900025 273.99006 
L 104.373675 273.99006 
L 113.847325 273.99006 
L 123.320975 273.989114 
L 132.794625 273.989114 
L 142.268275 273.989114 
L 151.741925 273.987222 
L 161.215575 273.986277 
L 170.689225 273.984385 
L 180.162875 273.984385 
L 189.636525 273.980602 
L 199.110175 273.975872 
L 208.583825 273.974926 
L 218.057475 273.969251 
L 227.531125 273.963576 
L 237.004775 273.959793 
L 246.478425 273.949389 
L 255.952075 273.931417 
L 265.425725 273.921013 
L 274.899375 273.91723 
L 284.373025 273.908717 
L 293.846675 273.886962 
L 303.320325 273.859533 
L 312.793975 273.813186 
L 322.267625 273.754544 
L 331.741275 273.676984 
L 341.214925 273.576724 
L 350.688575 273.344991 
L 360.162225 272.872067 
L 369.635875 271.88933 
L 379.109525 264.453067 
L 388.583175 43.030822 
L 398.056825 46.940015 
L 407.530475 269.293921 
L 417.004125 273.271215 
L 426.477775 273.548349 
L 435.951425 273.659013 
L 445.425075 273.721439 
L 454.898725 273.757381 
L 464.372375 273.803728 
L 473.846025 273.834941 
L 483.319675 273.846291 
L 492.793325 273.854804 
L 502.266975 273.876558 
L 511.740625 273.886962 
L 521.214275 273.896421 
L 530.687925 273.914392 
L 540.161575 273.905879 
L 549.635225 273.90115 
L 559.108875 273.921959 
L 568.582525 273.930472 
L 578.056175 273.936147 
L 587.529825 273.948443 
L 597.003475 273.954118 
L 606.477125 273.957901 
L 615.950775 273.955064 
L 625.424425 273.952226 
L 634.898075 273.950334 
L 644.371725 273.955064 
L 653.845375 273.956009 
L 663.319025 273.964522 
L 672.792675 273.973981 
L 682.266325 273.972089 
L 691.739975 273.973035 
L 701.213625 273.975872 
L 710.687275 273.973981 
L 720.160925 273.96736 
L 729.634575 273.974926 
L 739.108225 273.979656 
L 748.581875 273.976818 
L 758.055525 273.97871 
L 767.529175 273.981547 
L 777.002825 273.985331 
L 786.476475 273.981547 
L 795.950125 273.97871 
L 805.423775 273.97871 
L 814.897425 273.977764 
L 824.371075 273.974926 
L 833.844725 273.973981 
L 843.318375 273.976818 
L 852.792025 273.982493 
L 862.265675 273.987222 
L 871.739325 273.985331 
L 881.212975 273.977764 
L 890.686625 273.973035 
L 900.160275 273.977764 
L 909.633925 273.982493 
L 919.107575 273.985331 
L 928.581225 273.982493 
L 938.054875 273.97871 
L 947.528525 273.980602 
L 957.002175 273.977764 
L 966.475825 273.975872 
L 975.949475 273.96263 
L 985.423125 273.261756 
" style="fill:none;stroke:#d9534f;stroke-linecap:square;"/>
   </g>
   <g id="line2d_11">
    <path clip-path="url(#p6007a64c94)" d="M 38.058125 273.99006 
L 47.531775 273.99006 
L 57.005425 273.99006 
L 66.479075 273.989972 
L 75.952725 273.989622 
L 85.426375 273.989183 
L 94.900025 273.989008 
L 104.373675 273.988306 
L 113.847325 273.986727 
L 123.320975 273.985149 
L 132.794625 273.983833 
L 142.268275 273.978308 
L 151.741925 273.965592 
L 161.215575 273.940334 
L 170.689225 273.905605 
L 180.162875 273.864211 
L 189.636525 273.814836 
L 199.110175 273.763006 
L 208.583825 273.700651 
L 218.057475 273.618477 
L 227.531125 273.525427 
L 237.004775 273.354589 
L 246.478425 273.052727 
L 255.952075 272.319032 
L 265.425725 268.503397 
L 274.899375 261.59144 
L 284.373025 126.564383 
L 293.846675 70.135647 
L 303.320325 189.636102 
L 312.793975 252.137246 
L 322.267625 271.956131 
L 331.741275 273.892187 
L 341.214925 273.959979 
L 350.688575 273.971292 
L 360.162225 273.971117 
L 369.635875 273.975326 
L 379.109525 273.987517 
L 388.583175 273.988394 
L 398.056825 273.98892 
L 407.530475 273.988657 
L 417.004125 273.988569 
L 426.477775 273.989008 
L 435.951425 273.988657 
L 445.425075 273.981027 
L 454.898725 273.979799 
L 464.372375 273.986991 
L 473.846025 273.988306 
L 483.319675 273.987692 
L 492.793325 273.988131 
L 502.266975 273.989446 
L 511.740625 273.989885 
L 521.214275 273.989534 
L 530.687925 273.987517 
L 540.161575 273.98778 
L 549.635225 273.989534 
L 559.108875 273.989709 
L 568.582525 273.989797 
L 578.056175 273.989885 
L 587.529825 273.989885 
L 597.003475 273.989797 
L 606.477125 273.989797 
L 615.950775 273.989797 
L 625.424425 273.989972 
L 634.898075 273.99006 
L 644.371725 273.99006 
L 653.845375 273.99006 
L 663.319025 273.99006 
L 672.792675 273.99006 
L 682.266325 273.989972 
L 691.739975 273.989972 
L 701.213625 273.99006 
L 710.687275 273.989972 
L 720.160925 273.989972 
L 729.634575 273.99006 
L 739.108225 273.99006 
L 748.581875 273.99006 
L 758.055525 273.99006 
L 767.529175 273.989972 
L 777.002825 273.989972 
L 786.476475 273.99006 
L 795.950125 273.99006 
L 805.423775 273.989972 
L 814.897425 273.989972 
L 824.371075 273.99006 
L 833.844725 273.99006 
L 843.318375 273.99006 
L 852.792025 273.99006 
L 862.265675 273.99006 
L 871.739325 273.99006 
L 881.212975 273.99006 
L 890.686625 273.99006 
L 900.160275 273.989972 
L 909.633925 273.989885 
L 919.107575 273.989972 
L 928.581225 273.99006 
L 938.054875 273.989797 
L 947.528525 273.989622 
L 957.002175 273.989534 
L 966.475825 273.988306 
L 975.949475 273.986903 
L 985.423125 273.973836 
" style="fill:none;stroke:#d9534f;stroke-linecap:square;"/>
   </g>
   <g id="line2d_12">
    <path clip-path="url(#p6007a64c94)" d="M 38.058125 273.99006 
L 47.531775 273.989972 
L 57.005425 273.989972 
L 66.479075 273.989972 
L 75.952725 273.989972 
L 85.426375 273.99006 
L 94.900025 273.989797 
L 104.373675 273.989797 
L 113.847325 273.989972 
L 123.320975 273.989533 
L 132.794625 273.989006 
L 142.268275 273.988216 
L 151.741925 273.987338 
L 161.215575 273.986284 
L 170.689225 273.984528 
L 180.162875 273.981717 
L 189.636525 273.977854 
L 199.110175 273.975658 
L 208.583825 273.972585 
L 218.057475 273.967843 
L 227.531125 273.962135 
L 237.004775 273.95265 
L 246.478425 273.942639 
L 255.952075 273.927184 
L 265.425725 273.909972 
L 274.899375 273.883627 
L 284.373025 273.851135 
L 293.846675 273.827425 
L 303.320325 273.756997 
L 312.793975 273.579521 
L 322.267625 273.317478 
L 331.741275 272.126958 
L 341.214925 271.723356 
L 350.688575 271.509085 
L 360.162225 268.529931 
L 369.635875 265.19723 
L 379.109525 209.093147 
L 388.583175 68.659988 
L 398.056825 110.105226 
L 407.530475 254.365842 
L 417.004125 272.450735 
L 426.477775 273.403099 
L 435.951425 273.603582 
L 445.425075 273.686744 
L 454.898725 273.744351 
L 464.372375 273.789488 
L 473.846025 273.797392 
L 483.319675 273.814077 
L 492.793325 273.845954 
L 502.266975 273.86501 
L 511.740625 273.879763 
L 521.214275 273.887315 
L 530.687925 273.89557 
L 540.161575 273.907689 
L 549.635225 273.911114 
L 559.108875 273.913309 
L 568.582525 273.918578 
L 578.056175 273.927008 
L 587.529825 273.934648 
L 597.003475 273.937546 
L 606.477125 273.942464 
L 615.950775 273.944571 
L 625.424425 273.949401 
L 634.898075 273.954495 
L 644.371725 273.955812 
L 653.845375 273.957041 
L 663.319025 273.957305 
L 672.792675 273.960817 
L 682.266325 273.965384 
L 691.739975 273.966525 
L 701.213625 273.968106 
L 710.687275 273.971004 
L 720.160925 273.971443 
L 729.634575 273.971619 
L 739.108225 273.971267 
L 748.581875 273.971531 
L 758.055525 273.974253 
L 767.529175 273.9768 
L 777.002825 273.978029 
L 786.476475 273.977854 
L 795.950125 273.97882 
L 805.423775 273.979259 
L 814.897425 273.980312 
L 824.371075 273.980927 
L 833.844725 273.979961 
L 843.318375 273.981015 
L 852.792025 273.982508 
L 862.265675 273.982947 
L 871.739325 273.984001 
L 881.212975 273.984176 
L 890.686625 273.983562 
L 900.160275 273.982859 
L 909.633925 273.982596 
L 919.107575 273.982859 
L 928.581225 273.982157 
L 938.054875 273.981015 
L 947.528525 273.979259 
L 957.002175 273.978117 
L 966.475825 273.974341 
L 975.949475 273.962925 
L 985.423125 273.317917 
" style="fill:none;stroke:#d9534f;stroke-linecap:square;"/>
   </g>
   <g id="line2d_13">
    <path clip-path="url(#p6007a64c94)" d="M 38.058125 273.99006 
L 47.531775 273.99006 
L 57.005425 273.99006 
L 66.479075 273.99006 
L 75.952725 273.989676 
L 85.426375 273.989292 
L 94.900025 273.988908 
L 104.373675 273.9891 
L 113.847325 273.988237 
L 123.320975 273.987085 
L 132.794625 273.985262 
L 142.268275 273.979696 
L 151.741925 273.967796 
L 161.215575 273.94342 
L 170.689225 273.90772 
L 180.162875 273.864823 
L 189.636525 273.812617 
L 199.110175 273.758588 
L 208.583825 273.695346 
L 218.057475 273.606001 
L 227.531125 273.490073 
L 237.004775 273.28979 
L 246.478425 272.899685 
L 255.952075 271.854511 
L 265.425725 267.40002 
L 274.899375 259.775938 
L 284.373025 128.001147 
L 293.846675 72.977529 
L 303.320325 189.766529 
L 312.793975 251.750715 
L 322.267625 271.751155 
L 331.741275 273.832674 
L 341.214925 273.901579 
L 350.688575 273.929697 
L 360.162225 273.959639 
L 369.635875 273.974513 
L 379.109525 273.985358 
L 388.583175 273.984494 
L 398.056825 273.98507 
L 407.530475 273.987661 
L 417.004125 273.989388 
L 426.477775 273.988812 
L 435.951425 273.988333 
L 445.425075 273.986797 
L 454.898725 273.985358 
L 464.372375 273.987085 
L 473.846025 273.9891 
L 483.319675 273.989772 
L 492.793325 273.99006 
L 502.266975 273.989868 
L 511.740625 273.989772 
L 521.214275 273.989676 
L 530.687925 273.989388 
L 540.161575 273.98958 
L 549.635225 273.989964 
L 559.108875 273.989772 
L 568.582525 273.98958 
L 578.056175 273.989772 
L 587.529825 273.989964 
L 597.003475 273.99006 
L 606.477125 273.99006 
L 615.950775 273.99006 
L 625.424425 273.99006 
L 634.898075 273.99006 
L 644.371725 273.99006 
L 653.845375 273.989964 
L 663.319025 273.989964 
L 672.792675 273.99006 
L 682.266325 273.99006 
L 691.739975 273.989964 
L 701.213625 273.989676 
L 710.687275 273.989676 
L 720.160925 273.989964 
L 729.634575 273.989772 
L 739.108225 273.989772 
L 748.581875 273.989964 
L 758.055525 273.989964 
L 767.529175 273.989964 
L 777.002825 273.989676 
L 786.476475 273.989676 
L 795.950125 273.989772 
L 805.423775 273.989868 
L 814.897425 273.99006 
L 824.371075 273.989964 
L 833.844725 273.989868 
L 843.318375 273.989964 
L 852.792025 273.99006 
L 862.265675 273.989868 
L 871.739325 273.989676 
L 881.212975 273.989676 
L 890.686625 273.989772 
L 900.160275 273.989868 
L 909.633925 273.989868 
L 919.107575 273.989772 
L 928.581225 273.989868 
L 938.054875 273.99006 
L 947.528525 273.98958 
L 957.002175 273.988429 
L 966.475825 273.987373 
L 975.949475 273.986317 
L 985.423125 273.970099 
" style="fill:none;stroke:#d9534f;stroke-linecap:square;"/>
   </g>
   <g id="line2d_14">
    <path clip-path="url(#p6007a64c94)" d="M 38.058125 273.99006 
L 47.531775 273.99006 
L 57.005425 273.99006 
L 66.479075 273.99006 
L 75.952725 273.989868 
L 85.426375 273.989772 
L 94.900025 273.989964 
L 104.373675 273.989868 
L 113.847325 273.989291 
L 123.320975 273.989003 
L 132.794625 273.989099 
L 142.268275 273.987946 
L 151.741925 273.986985 
L 161.215575 273.985255 
L 170.689225 273.982084 
L 180.162875 273.979393 
L 189.636525 273.976894 
L 199.110175 273.97305 
L 208.583825 273.969783 
L 218.057475 273.965266 
L 227.531125 273.958923 
L 237.004775 273.953445 
L 246.478425 273.941048 
L 255.952075 273.924903 
L 265.425725 273.904434 
L 274.899375 273.851001 
L 284.373025 273.797473 
L 293.846675 273.759225 
L 303.320325 273.658318 
L 312.793975 273.411338 
L 322.267625 272.904692 
L 331.741275 269.090528 
L 341.214925 268.261174 
L 350.688575 269.034405 
L 360.162225 262.541513 
L 369.635875 258.715432 
L 379.109525 212.012319 
L 388.583175 81.62276 
L 398.056825 117.486321 
L 407.530475 253.927474 
L 417.004125 272.423225 
L 426.477775 273.352716 
L 435.951425 273.548667 
L 445.425075 273.666679 
L 454.898725 273.738755 
L 464.372375 273.784595 
L 473.846025 273.796704 
L 483.319675 273.816789 
L 492.793325 273.842352 
L 502.266975 273.861957 
L 511.740625 273.87445 
L 521.214275 273.882042 
L 530.687925 273.894247 
L 540.161575 273.900494 
L 549.635225 273.909719 
L 559.108875 273.918657 
L 568.582525 273.92154 
L 578.056175 273.92375 
L 587.529825 273.929708 
L 597.003475 273.934321 
L 606.477125 273.938261 
L 615.950775 273.94297 
L 625.424425 273.94249 
L 634.898075 273.945853 
L 644.371725 273.953061 
L 653.845375 273.955656 
L 663.319025 273.955752 
L 672.792675 273.956809 
L 682.266325 273.958827 
L 691.739975 273.960172 
L 701.213625 273.962383 
L 710.687275 273.960749 
L 720.160925 273.962383 
L 729.634575 273.966227 
L 739.108225 273.967188 
L 748.581875 273.96911 
L 758.055525 273.968149 
L 767.529175 273.968533 
L 777.002825 273.970263 
L 786.476475 273.969975 
L 795.950125 273.970263 
L 805.423775 273.971897 
L 814.897425 273.971897 
L 824.371075 273.971609 
L 833.844725 273.972858 
L 843.318375 273.97132 
L 852.792025 273.971128 
L 862.265675 273.973434 
L 871.739325 273.974395 
L 881.212975 273.973819 
L 890.686625 273.974395 
L 900.160275 273.976798 
L 909.633925 273.976125 
L 919.107575 273.97478 
L 928.581225 273.974684 
L 938.054875 273.974395 
L 947.528525 273.973531 
L 957.002175 273.971897 
L 966.475825 273.964305 
L 975.949475 273.94989 
L 985.423125 273.271799 
" style="fill:none;stroke:#d9534f;stroke-linecap:square;"/>
   </g>
   <g id="line2d_15">
    <path clip-path="url(#p6007a64c94)" d="M 38.058125 273.99006 
L 47.531775 273.99006 
L 57.005425 273.99006 
L 66.479075 273.989844 
L 75.952725 273.989195 
L 85.426375 273.988979 
L 94.900025 273.988439 
L 104.373675 273.98725 
L 113.847325 273.986169 
L 123.320975 273.98444 
L 132.794625 273.982927 
L 142.268275 273.976333 
L 151.741925 273.961634 
L 161.215575 273.936018 
L 170.689225 273.899594 
L 180.162875 273.859171 
L 189.636525 273.808913 
L 199.110175 273.739739 
L 208.583825 273.670566 
L 218.057475 273.591017 
L 227.531125 273.487473 
L 237.004775 273.313243 
L 246.478425 273.020987 
L 255.952075 272.316609 
L 265.425725 268.791801 
L 274.899375 262.369177 
L 284.373025 128.614881 
L 293.846675 70.337639 
L 303.320325 187.375039 
L 312.793975 251.26666 
L 322.267625 272.01711 
L 331.741275 273.9224 
L 341.214925 273.969092 
L 350.688575 273.96693 
L 360.162225 273.969092 
L 369.635875 273.97482 
L 379.109525 273.987034 
L 388.583175 273.989303 
L 398.056825 273.989628 
L 407.530475 273.989628 
L 417.004125 273.98952 
L 426.477775 273.989736 
L 435.951425 273.989736 
L 445.425075 273.989628 
L 454.898725 273.989303 
L 464.372375 273.989412 
L 473.846025 273.988439 
L 483.319675 273.988006 
L 492.793325 273.98779 
L 502.266975 273.987682 
L 511.740625 273.986061 
L 521.214275 273.982386 
L 530.687925 273.967471 
L 540.161575 273.962066 
L 549.635225 273.975685 
L 559.108875 273.984764 
L 568.582525 273.988979 
L 578.056175 273.989628 
L 587.529825 273.989952 
L 597.003475 273.989952 
L 606.477125 273.989952 
L 615.950775 273.99006 
L 625.424425 273.989952 
L 634.898075 273.989844 
L 644.371725 273.989952 
L 653.845375 273.99006 
L 663.319025 273.99006 
L 672.792675 273.99006 
L 682.266325 273.989952 
L 691.739975 273.989952 
L 701.213625 273.99006 
L 710.687275 273.989952 
L 720.160925 273.989952 
L 729.634575 273.99006 
L 739.108225 273.989952 
L 748.581875 273.989952 
L 758.055525 273.99006 
L 767.529175 273.99006 
L 777.002825 273.99006 
L 786.476475 273.989952 
L 795.950125 273.989952 
L 805.423775 273.99006 
L 814.897425 273.99006 
L 824.371075 273.989952 
L 833.844725 273.989952 
L 843.318375 273.99006 
L 852.792025 273.989952 
L 862.265675 273.989952 
L 871.739325 273.99006 
L 881.212975 273.99006 
L 890.686625 273.99006 
L 900.160275 273.989952 
L 909.633925 273.989628 
L 919.107575 273.989628 
L 928.581225 273.989844 
L 938.054875 273.989628 
L 947.528525 273.989628 
L 957.002175 273.989303 
L 966.475825 273.988439 
L 975.949475 273.987358 
L 985.423125 273.973307 
" style="fill:none;stroke:#d9534f;stroke-linecap:square;"/>
   </g>
   <g id="line2d_16">
    <path clip-path="url(#p6007a64c94)" d="M 38.058125 273.99006 
L 47.531775 273.99006 
L 57.005425 273.99006 
L 66.479075 273.99006 
L 75.952725 273.99006 
L 85.426375 273.989735 
L 94.900025 273.989627 
L 104.373675 273.989844 
L 113.847325 273.989519 
L 123.320975 273.989302 
L 132.794625 273.989086 
L 142.268275 273.98822 
L 151.741925 273.986597 
L 161.215575 273.985731 
L 170.689225 273.984757 
L 180.162875 273.982052 
L 189.636525 273.976208 
L 199.110175 273.970689 
L 208.583825 273.968092 
L 218.057475 273.962897 
L 227.531125 273.952833 
L 237.004775 273.943959 
L 246.478425 273.933894 
L 255.952075 273.918852 
L 265.425725 273.902186 
L 274.899375 273.887036 
L 284.373025 273.869396 
L 293.846675 273.838878 
L 303.320325 273.761502 
L 312.793975 273.575473 
L 322.267625 273.432624 
L 331.741275 272.808634 
L 341.214925 272.505297 
L 350.688575 272.341886 
L 360.162225 270.173288 
L 369.635875 266.726299 
L 379.109525 210.647048 
L 388.583175 66.301972 
L 398.056825 105.872862 
L 407.530475 253.616553 
L 417.004125 272.530945 
L 426.477775 273.437494 
L 435.951425 273.635643 
L 445.425075 273.711829 
L 454.898725 273.75858 
L 464.372375 273.789855 
L 473.846025 273.809659 
L 483.319675 273.828597 
L 492.793325 273.853596 
L 502.266975 273.861496 
L 511.740625 273.847969 
L 521.214275 273.860522 
L 530.687925 273.89223 
L 540.161575 273.906623 
L 549.635225 273.913549 
L 559.108875 273.916904 
L 568.582525 273.922964 
L 578.056175 273.931838 
L 587.529825 273.93844 
L 597.003475 273.941037 
L 606.477125 273.942335 
L 615.950775 273.948179 
L 625.424425 273.951859 
L 634.898075 273.951967 
L 644.371725 273.955646 
L 653.845375 273.959326 
L 663.319025 273.959434 
L 672.792675 273.960841 
L 682.266325 273.966035 
L 691.739975 273.967767 
L 701.213625 273.97004 
L 710.687275 273.972096 
L 720.160925 273.972853 
L 729.634575 273.975342 
L 739.108225 273.975342 
L 748.581875 273.974368 
L 758.055525 273.976857 
L 767.529175 273.978481 
L 777.002825 273.978805 
L 786.476475 273.978048 
L 795.950125 273.978264 
L 805.423775 273.980753 
L 814.897425 273.980753 
L 824.371075 273.981186 
L 833.844725 273.981402 
L 843.318375 273.981294 
L 852.792025 273.980645 
L 862.265675 273.980753 
L 871.739325 273.981727 
L 881.212975 273.98216 
L 890.686625 273.983026 
L 900.160275 273.982052 
L 909.633925 273.981186 
L 919.107575 273.982918 
L 928.581225 273.982485 
L 938.054875 273.981186 
L 947.528525 273.980537 
L 957.002175 273.977831 
L 966.475825 273.97426 
L 975.949475 273.960733 
L 985.423125 273.348214 
" style="fill:none;stroke:#d9534f;stroke-linecap:square;"/>
   </g>
   <g id="line2d_17">
    <path clip-path="url(#p6007a64c94)" d="M 38.058125 273.99006 
L 47.531775 273.99006 
L 57.005425 273.99006 
L 66.479075 273.989968 
L 75.952725 273.989236 
L 85.426375 273.988503 
L 94.900025 273.988778 
L 104.373675 273.988411 
L 113.847325 273.987037 
L 123.320975 273.985755 
L 132.794625 273.98264 
L 142.268275 273.976686 
L 151.741925 273.961571 
L 161.215575 273.930793 
L 170.689225 273.88893 
L 180.162875 273.848991 
L 189.636525 273.800441 
L 199.110175 273.745296 
L 208.583825 273.679434 
L 218.057475 273.590395 
L 227.531125 273.478182 
L 237.004775 273.293784 
L 246.478425 272.924532 
L 255.952075 271.992012 
L 265.425725 267.620801 
L 274.899375 260.689373 
L 284.373025 127.940269 
L 293.846675 72.901975 
L 303.320325 191.041473 
L 312.793975 252.3195 
L 322.267625 271.865141 
L 331.741275 273.872442 
L 341.214925 273.93748 
L 350.688575 273.887922 
L 360.162225 273.543403 
L 369.635875 273.582243 
L 379.109525 273.90835 
L 388.583175 273.933816 
L 398.056825 273.936839 
L 407.530475 273.434487 
L 417.004125 273.417265 
L 426.477775 273.910365 
L 435.951425 273.96835 
L 445.425075 273.984839 
L 454.898725 273.983281 
L 464.372375 273.96551 
L 473.846025 273.931068 
L 483.319675 273.942976 
L 492.793325 273.971007 
L 502.266975 273.956533 
L 511.740625 273.757938 
L 521.214275 273.739434 
L 530.687925 273.922732 
L 540.161575 273.953785 
L 549.635225 273.969816 
L 559.108875 273.973663 
L 568.582525 273.98319 
L 578.056175 273.98951 
L 587.529825 273.989694 
L 597.003475 273.989968 
L 606.477125 273.989877 
L 615.950775 273.989877 
L 625.424425 273.99006 
L 634.898075 273.99006 
L 644.371725 273.99006 
L 653.845375 273.989968 
L 663.319025 273.989968 
L 672.792675 273.989968 
L 682.266325 273.989694 
L 691.739975 273.989785 
L 701.213625 273.99006 
L 710.687275 273.989968 
L 720.160925 273.989968 
L 729.634575 273.989968 
L 739.108225 273.989968 
L 748.581875 273.989968 
L 758.055525 273.989968 
L 767.529175 273.989968 
L 777.002825 273.989968 
L 786.476475 273.99006 
L 795.950125 273.989877 
L 805.423775 273.989877 
L 814.897425 273.989968 
L 824.371075 273.989968 
L 833.844725 273.99006 
L 843.318375 273.989968 
L 852.792025 273.989785 
L 862.265675 273.989877 
L 871.739325 273.989785 
L 881.212975 273.989785 
L 890.686625 273.989877 
L 900.160275 273.989877 
L 909.633925 273.989602 
L 919.107575 273.98951 
L 928.581225 273.989785 
L 938.054875 273.989602 
L 947.528525 273.989419 
L 957.002175 273.989144 
L 966.475825 273.988136 
L 975.949475 273.985846 
L 985.423125 273.964961 
" style="fill:none;stroke:#d9534f;stroke-linecap:square;"/>
   </g>
   <g id="line2d_18">
    <path clip-path="url(#p6007a64c94)" d="M 38.058125 273.99006 
L 47.531775 273.99006 
L 57.005425 273.99006 
L 66.479075 273.99006 
L 75.952725 273.99006 
L 85.426375 273.989968 
L 94.900025 273.989785 
L 104.373675 273.989693 
L 113.847325 273.98951 
L 123.320975 273.989326 
L 132.794625 273.989143 
L 142.268275 273.988317 
L 151.741925 273.9874 
L 161.215575 273.986666 
L 170.689225 273.984373 
L 180.162875 273.981163 
L 189.636525 273.978503 
L 199.110175 273.974742 
L 208.583825 273.971257 
L 218.057475 273.96823 
L 227.531125 273.959975 
L 237.004775 273.950711 
L 246.478425 273.940346 
L 255.952075 273.924203 
L 265.425725 273.903841 
L 274.899375 273.871463 
L 284.373025 273.827986 
L 293.846675 273.78717 
L 303.320325 273.733695 
L 312.793975 273.564926 
L 322.267625 273.17538 
L 331.741275 271.071449 
L 341.214925 270.602471 
L 350.688575 270.719142 
L 360.162225 266.195662 
L 369.635875 262.7978 
L 379.109525 222.121972 
L 388.583175 74.36879 
L 398.056825 102.067805 
L 407.530475 254.311539 
L 417.004125 272.388218 
L 426.477775 273.333327 
L 435.951425 273.57364 
L 445.425075 273.583087 
L 454.898725 273.254537 
L 464.372375 273.262792 
L 473.846025 273.688843 
L 483.319675 273.814962 
L 492.793325 273.816062 
L 502.266975 273.785519 
L 511.740625 273.785244 
L 521.214275 273.818172 
L 530.687925 273.611613 
L 540.161575 273.630691 
L 549.635225 273.875315 
L 559.108875 273.897512 
L 568.582525 273.910812 
L 578.056175 273.920901 
L 587.529825 273.926771 
L 597.003475 273.92668 
L 606.477125 273.930899 
L 615.950775 273.93842 
L 625.424425 273.94053 
L 634.898075 273.943557 
L 644.371725 273.948785 
L 653.845375 273.946767 
L 663.319025 273.946675 
L 672.792675 273.951812 
L 682.266325 273.954839 
L 691.739975 273.95649 
L 701.213625 273.957407 
L 710.687275 273.957498 
L 720.160925 273.960801 
L 729.634575 273.964653 
L 739.108225 273.966854 
L 748.581875 273.967496 
L 758.055525 273.967771 
L 767.529175 273.967129 
L 777.002825 273.968597 
L 786.476475 273.969606 
L 795.950125 273.96878 
L 805.423775 273.971991 
L 814.897425 273.973275 
L 824.371075 273.971624 
L 833.844725 273.971899 
L 843.318375 273.971899 
L 852.792025 273.972724 
L 862.265675 273.974284 
L 871.739325 273.97355 
L 881.212975 273.973642 
L 890.686625 273.975109 
L 900.160275 273.97621 
L 909.633925 273.976669 
L 919.107575 273.973825 
L 928.581225 273.97089 
L 938.054875 273.971165 
L 947.528525 273.971807 
L 957.002175 273.97034 
L 966.475825 273.964928 
L 975.949475 273.949152 
L 985.423125 273.312139 
" style="fill:none;stroke:#d9534f;stroke-linecap:square;"/>
   </g>
   <g id="line2d_19">
    <path clip-path="url(#p6007a64c94)" d="M 38.058125 273.99006 
L 985.423125 273.99006 
" style="fill:none;stroke:#dedede;stroke-linecap:square;stroke-width:2;"/>
   </g>
   <g id="text_15">
    <!-- FastQC: Per Sequence GC Content -->
    <g transform="translate(375.104375 19.3575)scale(0.16 -0.16)">
     <defs>
      <path d="M 628 4666 
L 3309 4666 
L 3309 4134 
L 1259 4134 
L 1259 2759 
L 3109 2759 
L 3109 2228 
L 1259 2228 
L 1259 0 
L 628 0 
L 628 4666 
z
" id="DejaVuSans-46" transform="scale(0.015625)"/>
      <path d="M 2834 3397 
L 2834 2853 
Q 2591 2978 2328 3040 
Q 2066 3103 1784 3103 
Q 1356 3103 1142 2972 
Q 928 2841 928 2578 
Q 928 2378 1081 2264 
Q 1234 2150 1697 2047 
L 1894 2003 
Q 2506 1872 2764 1633 
Q 3022 1394 3022 966 
Q 3022 478 2636 193 
Q 2250 -91 1575 -91 
Q 1294 -91 989 -36 
Q 684 19 347 128 
L 347 722 
Q 666 556 975 473 
Q 1284 391 1588 391 
Q 1994 391 2212 530 
Q 2431 669 2431 922 
Q 2431 1156 2273 1281 
Q 2116 1406 1581 1522 
L 1381 1569 
Q 847 1681 609 1914 
Q 372 2147 372 2553 
Q 372 3047 722 3315 
Q 1072 3584 1716 3584 
Q 2034 3584 2315 3537 
Q 2597 3491 2834 3397 
z
" id="DejaVuSans-73" transform="scale(0.015625)"/>
      <path d="M 2522 4238 
Q 1834 4238 1429 3725 
Q 1025 3213 1025 2328 
Q 1025 1447 1429 934 
Q 1834 422 2522 422 
Q 3209 422 3611 934 
Q 4013 1447 4013 2328 
Q 4013 3213 3611 3725 
Q 3209 4238 2522 4238 
z
M 3406 84 
L 4238 -825 
L 3475 -825 
L 2784 -78 
Q 2681 -84 2626 -87 
Q 2572 -91 2522 -91 
Q 1538 -91 948 567 
Q 359 1225 359 2328 
Q 359 3434 948 4092 
Q 1538 4750 2522 4750 
Q 3503 4750 4090 4092 
Q 4678 3434 4678 2328 
Q 4678 1516 4351 937 
Q 4025 359 3406 84 
z
" id="DejaVuSans-51" transform="scale(0.015625)"/>
      <path d="M 750 794 
L 1409 794 
L 1409 0 
L 750 0 
L 750 794 
z
M 750 3309 
L 1409 3309 
L 1409 2516 
L 750 2516 
L 750 3309 
z
" id="DejaVuSans-3a" transform="scale(0.015625)"/>
      <path d="M 3425 4513 
L 3425 3897 
Q 3066 4069 2747 4153 
Q 2428 4238 2131 4238 
Q 1616 4238 1336 4038 
Q 1056 3838 1056 3469 
Q 1056 3159 1242 3001 
Q 1428 2844 1947 2747 
L 2328 2669 
Q 3034 2534 3370 2195 
Q 3706 1856 3706 1288 
Q 3706 609 3251 259 
Q 2797 -91 1919 -91 
Q 1588 -91 1214 -16 
Q 841 59 441 206 
L 441 856 
Q 825 641 1194 531 
Q 1563 422 1919 422 
Q 2459 422 2753 634 
Q 3047 847 3047 1241 
Q 3047 1584 2836 1778 
Q 2625 1972 2144 2069 
L 1759 2144 
Q 1053 2284 737 2584 
Q 422 2884 422 3419 
Q 422 4038 858 4394 
Q 1294 4750 2059 4750 
Q 2388 4750 2728 4690 
Q 3069 4631 3425 4513 
z
" id="DejaVuSans-53" transform="scale(0.015625)"/>
      <path d="M 947 1747 
Q 947 1113 1208 752 
Q 1469 391 1925 391 
Q 2381 391 2643 752 
Q 2906 1113 2906 1747 
Q 2906 2381 2643 2742 
Q 2381 3103 1925 3103 
Q 1469 3103 1208 2742 
Q 947 2381 947 1747 
z
M 2906 525 
Q 2725 213 2448 61 
Q 2172 -91 1784 -91 
Q 1150 -91 751 415 
Q 353 922 353 1747 
Q 353 2572 751 3078 
Q 1150 3584 1784 3584 
Q 2172 3584 2448 3432 
Q 2725 3281 2906 2969 
L 2906 3500 
L 3481 3500 
L 3481 -1331 
L 2906 -1331 
L 2906 525 
z
" id="DejaVuSans-71" transform="scale(0.015625)"/>
      <path d="M 544 1381 
L 544 3500 
L 1119 3500 
L 1119 1403 
Q 1119 906 1312 657 
Q 1506 409 1894 409 
Q 2359 409 2629 706 
Q 2900 1003 2900 1516 
L 2900 3500 
L 3475 3500 
L 3475 0 
L 2900 0 
L 2900 538 
Q 2691 219 2414 64 
Q 2138 -91 1772 -91 
Q 1169 -91 856 284 
Q 544 659 544 1381 
z
M 1991 3584 
L 1991 3584 
z
" id="DejaVuSans-75" transform="scale(0.015625)"/>
      <path d="M 1959 3097 
Q 1497 3097 1228 2736 
Q 959 2375 959 1747 
Q 959 1119 1226 758 
Q 1494 397 1959 397 
Q 2419 397 2687 759 
Q 2956 1122 2956 1747 
Q 2956 2369 2687 2733 
Q 2419 3097 1959 3097 
z
M 1959 3584 
Q 2709 3584 3137 3096 
Q 3566 2609 3566 1747 
Q 3566 888 3137 398 
Q 2709 -91 1959 -91 
Q 1206 -91 779 398 
Q 353 888 353 1747 
Q 353 2609 779 3096 
Q 1206 3584 1959 3584 
z
" id="DejaVuSans-6f" transform="scale(0.015625)"/>
     </defs>
     <use xlink:href="#DejaVuSans-46"/>
     <use x="48.394531" xlink:href="#DejaVuSans-61"/>
     <use x="109.673828" xlink:href="#DejaVuSans-73"/>
     <use x="161.773438" xlink:href="#DejaVuSans-74"/>
     <use x="200.982422" xlink:href="#DejaVuSans-51"/>
     <use x="279.693359" xlink:href="#DejaVuSans-43"/>
     <use x="349.517578" xlink:href="#DejaVuSans-3a"/>
     <use x="383.208984" xlink:href="#DejaVuSans-20"/>
     <use x="414.996094" xlink:href="#DejaVuSans-50"/>
     <use x="471.673828" xlink:href="#DejaVuSans-65"/>
     <use x="533.197266" xlink:href="#DejaVuSans-72"/>
     <use x="574.310547" xlink:href="#DejaVuSans-20"/>
     <use x="606.097656" xlink:href="#DejaVuSans-53"/>
     <use x="669.574219" xlink:href="#DejaVuSans-65"/>
     <use x="731.097656" xlink:href="#DejaVuSans-71"/>
     <use x="794.574219" xlink:href="#DejaVuSans-75"/>
     <use x="857.953125" xlink:href="#DejaVuSans-65"/>
     <use x="919.476562" xlink:href="#DejaVuSans-6e"/>
     <use x="982.855469" xlink:href="#DejaVuSans-63"/>
     <use x="1037.835938" xlink:href="#DejaVuSans-65"/>
     <use x="1099.359375" xlink:href="#DejaVuSans-20"/>
     <use x="1131.146484" xlink:href="#DejaVuSans-47"/>
     <use x="1208.636719" xlink:href="#DejaVuSans-43"/>
     <use x="1278.460938" xlink:href="#DejaVuSans-20"/>
     <use x="1310.248047" xlink:href="#DejaVuSans-43"/>
     <use x="1380.072266" xlink:href="#DejaVuSans-6f"/>
     <use x="1441.253906" xlink:href="#DejaVuSans-6e"/>
     <use x="1504.632812" xlink:href="#DejaVuSans-74"/>
     <use x="1543.841797" xlink:href="#DejaVuSans-65"/>
     <use x="1605.365234" xlink:href="#DejaVuSans-6e"/>
     <use x="1668.744141" xlink:href="#DejaVuSans-74"/>
    </g>
   </g>
   <g id="legend_1">
    <g id="line2d_20">
     <path d="M 45.258125 291.525394 
L 61.258125 291.525394 
" style="fill:none;stroke:#d9534f;stroke-linecap:square;"/>
    </g>
    <g id="line2d_21"/>
    <g id="text_16">
     <!-- X2_lib_raw_1 -->
     <g transform="translate(67.658125 294.325394)scale(0.08 -0.08)">
      <defs>
       <path d="M 403 4666 
L 1081 4666 
L 2241 2931 
L 3406 4666 
L 4084 4666 
L 2584 2425 
L 4184 0 
L 3506 0 
L 2194 1984 
L 872 0 
L 191 0 
L 1856 2491 
L 403 4666 
z
" id="DejaVuSans-58" transform="scale(0.015625)"/>
       <path d="M 3263 -1063 
L 3263 -1509 
L -63 -1509 
L -63 -1063 
L 3263 -1063 
z
" id="DejaVuSans-5f" transform="scale(0.015625)"/>
       <path d="M 603 4863 
L 1178 4863 
L 1178 0 
L 603 0 
L 603 4863 
z
" id="DejaVuSans-6c" transform="scale(0.015625)"/>
       <path d="M 603 3500 
L 1178 3500 
L 1178 0 
L 603 0 
L 603 3500 
z
M 603 4863 
L 1178 4863 
L 1178 4134 
L 603 4134 
L 603 4863 
z
" id="DejaVuSans-69" transform="scale(0.015625)"/>
       <path d="M 3116 1747 
Q 3116 2381 2855 2742 
Q 2594 3103 2138 3103 
Q 1681 3103 1420 2742 
Q 1159 2381 1159 1747 
Q 1159 1113 1420 752 
Q 1681 391 2138 391 
Q 2594 391 2855 752 
Q 3116 1113 3116 1747 
z
M 1159 2969 
Q 1341 3281 1617 3432 
Q 1894 3584 2278 3584 
Q 2916 3584 3314 3078 
Q 3713 2572 3713 1747 
Q 3713 922 3314 415 
Q 2916 -91 2278 -91 
Q 1894 -91 1617 61 
Q 1341 213 1159 525 
L 1159 0 
L 581 0 
L 581 4863 
L 1159 4863 
L 1159 2969 
z
" id="DejaVuSans-62" transform="scale(0.015625)"/>
       <path d="M 269 3500 
L 844 3500 
L 1563 769 
L 2278 3500 
L 2956 3500 
L 3675 769 
L 4391 3500 
L 4966 3500 
L 4050 0 
L 3372 0 
L 2619 2869 
L 1863 0 
L 1184 0 
L 269 3500 
z
" id="DejaVuSans-77" transform="scale(0.015625)"/>
      </defs>
      <use xlink:href="#DejaVuSans-58"/>
      <use x="68.505859" xlink:href="#DejaVuSans-32"/>
      <use x="132.128906" xlink:href="#DejaVuSans-5f"/>
      <use x="182.128906" xlink:href="#DejaVuSans-6c"/>
      <use x="209.912109" xlink:href="#DejaVuSans-69"/>
      <use x="237.695312" xlink:href="#DejaVuSans-62"/>
      <use x="301.171875" xlink:href="#DejaVuSans-5f"/>
      <use x="351.171875" xlink:href="#DejaVuSans-72"/>
      <use x="392.285156" xlink:href="#DejaVuSans-61"/>
      <use x="453.564453" xlink:href="#DejaVuSans-77"/>
      <use x="535.351562" xlink:href="#DejaVuSans-5f"/>
      <use x="585.351562" xlink:href="#DejaVuSans-31"/>
     </g>
    </g>
    <g id="line2d_22">
     <path d="M 45.258125 303.490394 
L 61.258125 303.490394 
" style="fill:none;stroke:#d9534f;stroke-linecap:square;"/>
    </g>
    <g id="line2d_23"/>
    <g id="text_17">
     <!-- X2_lib_raw_2 -->
     <g transform="translate(67.658125 306.290394)scale(0.08 -0.08)">
      <use xlink:href="#DejaVuSans-58"/>
      <use x="68.505859" xlink:href="#DejaVuSans-32"/>
      <use x="132.128906" xlink:href="#DejaVuSans-5f"/>
      <use x="182.128906" xlink:href="#DejaVuSans-6c"/>
      <use x="209.912109" xlink:href="#DejaVuSans-69"/>
      <use x="237.695312" xlink:href="#DejaVuSans-62"/>
      <use x="301.171875" xlink:href="#DejaVuSans-5f"/>
      <use x="351.171875" xlink:href="#DejaVuSans-72"/>
      <use x="392.285156" xlink:href="#DejaVuSans-61"/>
      <use x="453.564453" xlink:href="#DejaVuSans-77"/>
      <use x="535.351562" xlink:href="#DejaVuSans-5f"/>
      <use x="585.351562" xlink:href="#DejaVuSans-32"/>
     </g>
    </g>
    <g id="line2d_24">
     <path d="M 45.258125 315.455394 
L 61.258125 315.455394 
" style="fill:none;stroke:#d9534f;stroke-linecap:square;"/>
    </g>
    <g id="line2d_25"/>
    <g id="text_18">
     <!-- X2_neg_raw_1 -->
     <g transform="translate(67.658125 318.255394)scale(0.08 -0.08)">
      <use xlink:href="#DejaVuSans-58"/>
      <use x="68.505859" xlink:href="#DejaVuSans-32"/>
      <use x="132.128906" xlink:href="#DejaVuSans-5f"/>
      <use x="182.128906" xlink:href="#DejaVuSans-6e"/>
      <use x="245.507812" xlink:href="#DejaVuSans-65"/>
      <use x="307.03125" xlink:href="#DejaVuSans-67"/>
      <use x="370.507812" xlink:href="#DejaVuSans-5f"/>
      <use x="420.507812" xlink:href="#DejaVuSans-72"/>
      <use x="461.621094" xlink:href="#DejaVuSans-61"/>
      <use x="522.900391" xlink:href="#DejaVuSans-77"/>
      <use x="604.6875" xlink:href="#DejaVuSans-5f"/>
      <use x="654.6875" xlink:href="#DejaVuSans-31"/>
     </g>
    </g>
    <g id="line2d_26">
     <path d="M 240.484375 291.525394 
L 256.484375 291.525394 
" style="fill:none;stroke:#d9534f;stroke-linecap:square;"/>
    </g>
    <g id="line2d_27"/>
    <g id="text_19">
     <!-- X2_neg_raw_2 -->
     <g transform="translate(262.884375 294.325394)scale(0.08 -0.08)">
      <use xlink:href="#DejaVuSans-58"/>
      <use x="68.505859" xlink:href="#DejaVuSans-32"/>
      <use x="132.128906" xlink:href="#DejaVuSans-5f"/>
      <use x="182.128906" xlink:href="#DejaVuSans-6e"/>
      <use x="245.507812" xlink:href="#DejaVuSans-65"/>
      <use x="307.03125" xlink:href="#DejaVuSans-67"/>
      <use x="370.507812" xlink:href="#DejaVuSans-5f"/>
      <use x="420.507812" xlink:href="#DejaVuSans-72"/>
      <use x="461.621094" xlink:href="#DejaVuSans-61"/>
      <use x="522.900391" xlink:href="#DejaVuSans-77"/>
      <use x="604.6875" xlink:href="#DejaVuSans-5f"/>
      <use x="654.6875" xlink:href="#DejaVuSans-32"/>
     </g>
    </g>
    <g id="line2d_28">
     <path d="M 240.484375 303.490394 
L 256.484375 303.490394 
" style="fill:none;stroke:#d9534f;stroke-linecap:square;"/>
    </g>
    <g id="line2d_29"/>
    <g id="text_20">
     <!-- X2rL41_post_raw_1 -->
     <g transform="translate(262.884375 306.290394)scale(0.08 -0.08)">
      <defs>
       <path d="M 628 4666 
L 1259 4666 
L 1259 531 
L 3531 531 
L 3531 0 
L 628 0 
L 628 4666 
z
" id="DejaVuSans-4c" transform="scale(0.015625)"/>
       <path d="M 1159 525 
L 1159 -1331 
L 581 -1331 
L 581 3500 
L 1159 3500 
L 1159 2969 
Q 1341 3281 1617 3432 
Q 1894 3584 2278 3584 
Q 2916 3584 3314 3078 
Q 3713 2572 3713 1747 
Q 3713 922 3314 415 
Q 2916 -91 2278 -91 
Q 1894 -91 1617 61 
Q 1341 213 1159 525 
z
M 3116 1747 
Q 3116 2381 2855 2742 
Q 2594 3103 2138 3103 
Q 1681 3103 1420 2742 
Q 1159 2381 1159 1747 
Q 1159 1113 1420 752 
Q 1681 391 2138 391 
Q 2594 391 2855 752 
Q 3116 1113 3116 1747 
z
" id="DejaVuSans-70" transform="scale(0.015625)"/>
      </defs>
      <use xlink:href="#DejaVuSans-58"/>
      <use x="68.505859" xlink:href="#DejaVuSans-32"/>
      <use x="132.128906" xlink:href="#DejaVuSans-72"/>
      <use x="173.242188" xlink:href="#DejaVuSans-4c"/>
      <use x="228.955078" xlink:href="#DejaVuSans-34"/>
      <use x="292.578125" xlink:href="#DejaVuSans-31"/>
      <use x="356.201172" xlink:href="#DejaVuSans-5f"/>
      <use x="406.201172" xlink:href="#DejaVuSans-70"/>
      <use x="469.677734" xlink:href="#DejaVuSans-6f"/>
      <use x="530.859375" xlink:href="#DejaVuSans-73"/>
      <use x="582.958984" xlink:href="#DejaVuSans-74"/>
      <use x="622.167969" xlink:href="#DejaVuSans-5f"/>
      <use x="672.167969" xlink:href="#DejaVuSans-72"/>
      <use x="713.28125" xlink:href="#DejaVuSans-61"/>
      <use x="774.560547" xlink:href="#DejaVuSans-77"/>
      <use x="856.347656" xlink:href="#DejaVuSans-5f"/>
      <use x="906.347656" xlink:href="#DejaVuSans-31"/>
     </g>
    </g>
    <g id="line2d_30">
     <path d="M 240.484375 315.455394 
L 256.484375 315.455394 
" style="fill:none;stroke:#d9534f;stroke-linecap:square;"/>
    </g>
    <g id="line2d_31"/>
    <g id="text_21">
     <!-- X2rL41_post_raw_2 -->
     <g transform="translate(262.884375 318.255394)scale(0.08 -0.08)">
      <use xlink:href="#DejaVuSans-58"/>
      <use x="68.505859" xlink:href="#DejaVuSans-32"/>
      <use x="132.128906" xlink:href="#DejaVuSans-72"/>
      <use x="173.242188" xlink:href="#DejaVuSans-4c"/>
      <use x="228.955078" xlink:href="#DejaVuSans-34"/>
      <use x="292.578125" xlink:href="#DejaVuSans-31"/>
      <use x="356.201172" xlink:href="#DejaVuSans-5f"/>
      <use x="406.201172" xlink:href="#DejaVuSans-70"/>
      <use x="469.677734" xlink:href="#DejaVuSans-6f"/>
      <use x="530.859375" xlink:href="#DejaVuSans-73"/>
      <use x="582.958984" xlink:href="#DejaVuSans-74"/>
      <use x="622.167969" xlink:href="#DejaVuSans-5f"/>
      <use x="672.167969" xlink:href="#DejaVuSans-72"/>
      <use x="713.28125" xlink:href="#DejaVuSans-61"/>
      <use x="774.560547" xlink:href="#DejaVuSans-77"/>
      <use x="856.347656" xlink:href="#DejaVuSans-5f"/>
      <use x="906.347656" xlink:href="#DejaVuSans-32"/>
     </g>
    </g>
    <g id="line2d_32">
     <path d="M 455.843125 291.525394 
L 471.843125 291.525394 
" style="fill:none;stroke:#d9534f;stroke-linecap:square;"/>
    </g>
    <g id="line2d_33"/>
    <g id="text_22">
     <!-- X2rL41_pre_raw_1 -->
     <g transform="translate(478.243125 294.325394)scale(0.08 -0.08)">
      <use xlink:href="#DejaVuSans-58"/>
      <use x="68.505859" xlink:href="#DejaVuSans-32"/>
      <use x="132.128906" xlink:href="#DejaVuSans-72"/>
      <use x="173.242188" xlink:href="#DejaVuSans-4c"/>
      <use x="228.955078" xlink:href="#DejaVuSans-34"/>
      <use x="292.578125" xlink:href="#DejaVuSans-31"/>
      <use x="356.201172" xlink:href="#DejaVuSans-5f"/>
      <use x="406.201172" xlink:href="#DejaVuSans-70"/>
      <use x="469.677734" xlink:href="#DejaVuSans-72"/>
      <use x="508.541016" xlink:href="#DejaVuSans-65"/>
      <use x="570.064453" xlink:href="#DejaVuSans-5f"/>
      <use x="620.064453" xlink:href="#DejaVuSans-72"/>
      <use x="661.177734" xlink:href="#DejaVuSans-61"/>
      <use x="722.457031" xlink:href="#DejaVuSans-77"/>
      <use x="804.244141" xlink:href="#DejaVuSans-5f"/>
      <use x="854.244141" xlink:href="#DejaVuSans-31"/>
     </g>
    </g>
    <g id="line2d_34">
     <path d="M 455.843125 303.490394 
L 471.843125 303.490394 
" style="fill:none;stroke:#d9534f;stroke-linecap:square;"/>
    </g>
    <g id="line2d_35"/>
    <g id="text_23">
     <!-- X2rL41_pre_raw_2 -->
     <g transform="translate(478.243125 306.290394)scale(0.08 -0.08)">
      <use xlink:href="#DejaVuSans-58"/>
      <use x="68.505859" xlink:href="#DejaVuSans-32"/>
      <use x="132.128906" xlink:href="#DejaVuSans-72"/>
      <use x="173.242188" xlink:href="#DejaVuSans-4c"/>
      <use x="228.955078" xlink:href="#DejaVuSans-34"/>
      <use x="292.578125" xlink:href="#DejaVuSans-31"/>
      <use x="356.201172" xlink:href="#DejaVuSans-5f"/>
      <use x="406.201172" xlink:href="#DejaVuSans-70"/>
      <use x="469.677734" xlink:href="#DejaVuSans-72"/>
      <use x="508.541016" xlink:href="#DejaVuSans-65"/>
      <use x="570.064453" xlink:href="#DejaVuSans-5f"/>
      <use x="620.064453" xlink:href="#DejaVuSans-72"/>
      <use x="661.177734" xlink:href="#DejaVuSans-61"/>
      <use x="722.457031" xlink:href="#DejaVuSans-77"/>
      <use x="804.244141" xlink:href="#DejaVuSans-5f"/>
      <use x="854.244141" xlink:href="#DejaVuSans-32"/>
     </g>
    </g>
    <g id="line2d_36">
     <path d="M 667.034375 291.525394 
L 683.034375 291.525394 
" style="fill:none;stroke:#d9534f;stroke-linecap:square;"/>
    </g>
    <g id="line2d_37"/>
    <g id="text_24">
     <!-- X2rL42_post_raw_1 -->
     <g transform="translate(689.434375 294.325394)scale(0.08 -0.08)">
      <use xlink:href="#DejaVuSans-58"/>
      <use x="68.505859" xlink:href="#DejaVuSans-32"/>
      <use x="132.128906" xlink:href="#DejaVuSans-72"/>
      <use x="173.242188" xlink:href="#DejaVuSans-4c"/>
      <use x="228.955078" xlink:href="#DejaVuSans-34"/>
      <use x="292.578125" xlink:href="#DejaVuSans-32"/>
      <use x="356.201172" xlink:href="#DejaVuSans-5f"/>
      <use x="406.201172" xlink:href="#DejaVuSans-70"/>
      <use x="469.677734" xlink:href="#DejaVuSans-6f"/>
      <use x="530.859375" xlink:href="#DejaVuSans-73"/>
      <use x="582.958984" xlink:href="#DejaVuSans-74"/>
      <use x="622.167969" xlink:href="#DejaVuSans-5f"/>
      <use x="672.167969" xlink:href="#DejaVuSans-72"/>
      <use x="713.28125" xlink:href="#DejaVuSans-61"/>
      <use x="774.560547" xlink:href="#DejaVuSans-77"/>
      <use x="856.347656" xlink:href="#DejaVuSans-5f"/>
      <use x="906.347656" xlink:href="#DejaVuSans-31"/>
     </g>
    </g>
    <g id="line2d_38">
     <path d="M 667.034375 303.490394 
L 683.034375 303.490394 
" style="fill:none;stroke:#d9534f;stroke-linecap:square;"/>
    </g>
    <g id="line2d_39"/>
    <g id="text_25">
     <!-- X2rL42_post_raw_2 -->
     <g transform="translate(689.434375 306.290394)scale(0.08 -0.08)">
      <use xlink:href="#DejaVuSans-58"/>
      <use x="68.505859" xlink:href="#DejaVuSans-32"/>
      <use x="132.128906" xlink:href="#DejaVuSans-72"/>
      <use x="173.242188" xlink:href="#DejaVuSans-4c"/>
      <use x="228.955078" xlink:href="#DejaVuSans-34"/>
      <use x="292.578125" xlink:href="#DejaVuSans-32"/>
      <use x="356.201172" xlink:href="#DejaVuSans-5f"/>
      <use x="406.201172" xlink:href="#DejaVuSans-70"/>
      <use x="469.677734" xlink:href="#DejaVuSans-6f"/>
      <use x="530.859375" xlink:href="#DejaVuSans-73"/>
      <use x="582.958984" xlink:href="#DejaVuSans-74"/>
      <use x="622.167969" xlink:href="#DejaVuSans-5f"/>
      <use x="672.167969" xlink:href="#DejaVuSans-72"/>
      <use x="713.28125" xlink:href="#DejaVuSans-61"/>
      <use x="774.560547" xlink:href="#DejaVuSans-77"/>
      <use x="856.347656" xlink:href="#DejaVuSans-5f"/>
      <use x="906.347656" xlink:href="#DejaVuSans-32"/>
     </g>
    </g>
    <g id="line2d_40">
     <path d="M 882.393125 291.525394 
L 898.393125 291.525394 
" style="fill:none;stroke:#d9534f;stroke-linecap:square;"/>
    </g>
    <g id="line2d_41"/>
    <g id="text_26">
     <!-- X2rL42_pre_raw_1 -->
     <g transform="translate(904.793125 294.325394)scale(0.08 -0.08)">
      <use xlink:href="#DejaVuSans-58"/>
      <use x="68.505859" xlink:href="#DejaVuSans-32"/>
      <use x="132.128906" xlink:href="#DejaVuSans-72"/>
      <use x="173.242188" xlink:href="#DejaVuSans-4c"/>
      <use x="228.955078" xlink:href="#DejaVuSans-34"/>
      <use x="292.578125" xlink:href="#DejaVuSans-32"/>
      <use x="356.201172" xlink:href="#DejaVuSans-5f"/>
      <use x="406.201172" xlink:href="#DejaVuSans-70"/>
      <use x="469.677734" xlink:href="#DejaVuSans-72"/>
      <use x="508.541016" xlink:href="#DejaVuSans-65"/>
      <use x="570.064453" xlink:href="#DejaVuSans-5f"/>
      <use x="620.064453" xlink:href="#DejaVuSans-72"/>
      <use x="661.177734" xlink:href="#DejaVuSans-61"/>
      <use x="722.457031" xlink:href="#DejaVuSans-77"/>
      <use x="804.244141" xlink:href="#DejaVuSans-5f"/>
      <use x="854.244141" xlink:href="#DejaVuSans-31"/>
     </g>
    </g>
    <g id="line2d_42">
     <path d="M 882.393125 303.490394 
L 898.393125 303.490394 
" style="fill:none;stroke:#d9534f;stroke-linecap:square;"/>
    </g>
    <g id="line2d_43"/>
    <g id="text_27">
     <!-- X2rL42_pre_raw_2 -->
     <g transform="translate(904.793125 306.290394)scale(0.08 -0.08)">
      <use xlink:href="#DejaVuSans-58"/>
      <use x="68.505859" xlink:href="#DejaVuSans-32"/>
      <use x="132.128906" xlink:href="#DejaVuSans-72"/>
      <use x="173.242188" xlink:href="#DejaVuSans-4c"/>
      <use x="228.955078" xlink:href="#DejaVuSans-34"/>
      <use x="292.578125" xlink:href="#DejaVuSans-32"/>
      <use x="356.201172" xlink:href="#DejaVuSans-5f"/>
      <use x="406.201172" xlink:href="#DejaVuSans-70"/>
      <use x="469.677734" xlink:href="#DejaVuSans-72"/>
      <use x="508.541016" xlink:href="#DejaVuSans-65"/>
      <use x="570.064453" xlink:href="#DejaVuSans-5f"/>
      <use x="620.064453" xlink:href="#DejaVuSans-72"/>
      <use x="661.177734" xlink:href="#DejaVuSans-61"/>
      <use x="722.457031" xlink:href="#DejaVuSans-77"/>
      <use x="804.244141" xlink:href="#DejaVuSans-5f"/>
      <use x="854.244141" xlink:href="#DejaVuSans-32"/>
     </g>
    </g>
   </g>
  </g>
 </g>
 <defs>
  <clipPath id="p6007a64c94">
   <rect height="242.5072" width="947.365" x="38.058125" y="31.48286"/>
  </clipPath>
 </defs>
</svg>
