<?xml version="1.0" encoding="utf-8" standalone="no"?>
<!DOCTYPE svg PUBLIC "-//W3C//DTD SVG 1.1//EN"
  "http://www.w3.org/Graphics/SVG/1.1/DTD/svg11.dtd">
<svg height="330.541644pt" version="1.1" viewBox="0 0 1000.358125 330.541644" width="1000.358125pt" xmlns="http://www.w3.org/2000/svg" xmlns:xlink="http://www.w3.org/1999/xlink">
 <metadata>
  <rdf:RDF xmlns:cc="http://creativecommons.org/ns#" xmlns:dc="http://purl.org/dc/elements/1.1/" xmlns:rdf="http://www.w3.org/1999/02/22-rdf-syntax-ns#">
   <cc:Work>
    <dc:type rdf:resource="http://purl.org/dc/dcmitype/StillImage"/>
    <dc:date>2022-05-31T19:37:08.351820</dc:date>
    <dc:format>image/svg+xml</dc:format>
    <dc:creator>
     <cc:Agent>
      <dc:title>Matplotlib v3.4.1, https://matplotlib.org/</dc:title>
     </cc:Agent>
    </dc:creator>
   </cc:Work>
  </rdf:RDF>
 </metadata>
 <defs>
  <style type="text/css">*{stroke-linecap:butt;stroke-linejoin:round;}</style>
 </defs>
 <g id="figure_1">
  <g id="axes_1">
   <g id="patch_1">
    <path d="M 32.968125 273.99006 
L 993.158125 273.99006 
L 993.158125 31.48286 
L 32.968125 31.48286 
z
" style="fill:#ffffff;"/>
   </g>
   <g id="patch_2">
    <path clip-path="url(#p57ce3156f3)" d="M 32.968125 -696.03874 
L 993.158125 -696.03874 
L 993.158125 -4576.15394 
L 32.968125 -4576.15394 
z
" style="fill:#e6c3c3;"/>
   </g>
   <g id="patch_3">
    <path clip-path="url(#p57ce3156f3)" d="M 32.968125 31.48286 
L 993.158125 31.48286 
L 993.158125 -696.03874 
L 32.968125 -696.03874 
z
" style="fill:#e6dcc3;"/>
   </g>
   <g id="patch_4">
    <path clip-path="url(#p57ce3156f3)" d="M 32.968125 273.99006 
L 993.158125 273.99006 
L 993.158125 31.48286 
L 32.968125 31.48286 
z
" style="fill:#c3e6c3;"/>
   </g>
   <g id="matplotlib.axis_1">
    <g id="xtick_1">
     <g id="text_1">
      <!-- 0 -->
      <g transform="translate(30.423125 287.06881)scale(0.08 -0.08)">
       <defs>
        <path d="M 2034 4250 
Q 1547 4250 1301 3770 
Q 1056 3291 1056 2328 
Q 1056 1369 1301 889 
Q 1547 409 2034 409 
Q 2525 409 2770 889 
Q 3016 1369 3016 2328 
Q 3016 3291 2770 3770 
Q 2525 4250 2034 4250 
z
M 2034 4750 
Q 2819 4750 3233 4129 
Q 3647 3509 3647 2328 
Q 3647 1150 3233 529 
Q 2819 -91 2034 -91 
Q 1250 -91 836 529 
Q 422 1150 422 2328 
Q 422 3509 836 4129 
Q 1250 4750 2034 4750 
z
" id="DejaVuSans-30" transform="scale(0.015625)"/>
       </defs>
       <use xlink:href="#DejaVuSans-30"/>
      </g>
     </g>
    </g>
    <g id="xtick_2">
     <g id="text_2">
      <!-- 20 -->
      <g transform="translate(149.845734 287.06881)scale(0.08 -0.08)">
       <defs>
        <path d="M 1228 531 
L 3431 531 
L 3431 0 
L 469 0 
L 469 531 
Q 828 903 1448 1529 
Q 2069 2156 2228 2338 
Q 2531 2678 2651 2914 
Q 2772 3150 2772 3378 
Q 2772 3750 2511 3984 
Q 2250 4219 1831 4219 
Q 1534 4219 1204 4116 
Q 875 4013 500 3803 
L 500 4441 
Q 881 4594 1212 4672 
Q 1544 4750 1819 4750 
Q 2544 4750 2975 4387 
Q 3406 4025 3406 3419 
Q 3406 3131 3298 2873 
Q 3191 2616 2906 2266 
Q 2828 2175 2409 1742 
Q 1991 1309 1228 531 
z
" id="DejaVuSans-32" transform="scale(0.015625)"/>
       </defs>
       <use xlink:href="#DejaVuSans-32"/>
       <use x="63.623047" xlink:href="#DejaVuSans-30"/>
      </g>
     </g>
    </g>
    <g id="xtick_3">
     <g id="text_3">
      <!-- 40 -->
      <g transform="translate(271.813343 287.06881)scale(0.08 -0.08)">
       <defs>
        <path d="M 2419 4116 
L 825 1625 
L 2419 1625 
L 2419 4116 
z
M 2253 4666 
L 3047 4666 
L 3047 1625 
L 3713 1625 
L 3713 1100 
L 3047 1100 
L 3047 0 
L 2419 0 
L 2419 1100 
L 313 1100 
L 313 1709 
L 2253 4666 
z
" id="DejaVuSans-34" transform="scale(0.015625)"/>
       </defs>
       <use xlink:href="#DejaVuSans-34"/>
       <use x="63.623047" xlink:href="#DejaVuSans-30"/>
      </g>
     </g>
    </g>
    <g id="xtick_4">
     <g id="text_4">
      <!-- 60 -->
      <g transform="translate(393.780951 287.06881)scale(0.08 -0.08)">
       <defs>
        <path d="M 2113 2584 
Q 1688 2584 1439 2293 
Q 1191 2003 1191 1497 
Q 1191 994 1439 701 
Q 1688 409 2113 409 
Q 2538 409 2786 701 
Q 3034 994 3034 1497 
Q 3034 2003 2786 2293 
Q 2538 2584 2113 2584 
z
M 3366 4563 
L 3366 3988 
Q 3128 4100 2886 4159 
Q 2644 4219 2406 4219 
Q 1781 4219 1451 3797 
Q 1122 3375 1075 2522 
Q 1259 2794 1537 2939 
Q 1816 3084 2150 3084 
Q 2853 3084 3261 2657 
Q 3669 2231 3669 1497 
Q 3669 778 3244 343 
Q 2819 -91 2113 -91 
Q 1303 -91 875 529 
Q 447 1150 447 2328 
Q 447 3434 972 4092 
Q 1497 4750 2381 4750 
Q 2619 4750 2861 4703 
Q 3103 4656 3366 4563 
z
" id="DejaVuSans-36" transform="scale(0.015625)"/>
       </defs>
       <use xlink:href="#DejaVuSans-36"/>
       <use x="63.623047" xlink:href="#DejaVuSans-30"/>
      </g>
     </g>
    </g>
    <g id="xtick_5">
     <g id="text_5">
      <!-- 80 -->
      <g transform="translate(515.74856 287.06881)scale(0.08 -0.08)">
       <defs>
        <path d="M 2034 2216 
Q 1584 2216 1326 1975 
Q 1069 1734 1069 1313 
Q 1069 891 1326 650 
Q 1584 409 2034 409 
Q 2484 409 2743 651 
Q 3003 894 3003 1313 
Q 3003 1734 2745 1975 
Q 2488 2216 2034 2216 
z
M 1403 2484 
Q 997 2584 770 2862 
Q 544 3141 544 3541 
Q 544 4100 942 4425 
Q 1341 4750 2034 4750 
Q 2731 4750 3128 4425 
Q 3525 4100 3525 3541 
Q 3525 3141 3298 2862 
Q 3072 2584 2669 2484 
Q 3125 2378 3379 2068 
Q 3634 1759 3634 1313 
Q 3634 634 3220 271 
Q 2806 -91 2034 -91 
Q 1263 -91 848 271 
Q 434 634 434 1313 
Q 434 1759 690 2068 
Q 947 2378 1403 2484 
z
M 1172 3481 
Q 1172 3119 1398 2916 
Q 1625 2713 2034 2713 
Q 2441 2713 2670 2916 
Q 2900 3119 2900 3481 
Q 2900 3844 2670 4047 
Q 2441 4250 2034 4250 
Q 1625 4250 1398 4047 
Q 1172 3844 1172 3481 
z
" id="DejaVuSans-38" transform="scale(0.015625)"/>
       </defs>
       <use xlink:href="#DejaVuSans-38"/>
       <use x="63.623047" xlink:href="#DejaVuSans-30"/>
      </g>
     </g>
    </g>
    <g id="xtick_6">
     <g id="text_6">
      <!-- 100 -->
      <g transform="translate(635.171169 287.06881)scale(0.08 -0.08)">
       <defs>
        <path d="M 794 531 
L 1825 531 
L 1825 4091 
L 703 3866 
L 703 4441 
L 1819 4666 
L 2450 4666 
L 2450 531 
L 3481 531 
L 3481 0 
L 794 0 
L 794 531 
z
" id="DejaVuSans-31" transform="scale(0.015625)"/>
       </defs>
       <use xlink:href="#DejaVuSans-31"/>
       <use x="63.623047" xlink:href="#DejaVuSans-30"/>
       <use x="127.246094" xlink:href="#DejaVuSans-30"/>
      </g>
     </g>
    </g>
    <g id="xtick_7">
     <g id="text_7">
      <!-- 120 -->
      <g transform="translate(757.138778 287.06881)scale(0.08 -0.08)">
       <use xlink:href="#DejaVuSans-31"/>
       <use x="63.623047" xlink:href="#DejaVuSans-32"/>
       <use x="127.246094" xlink:href="#DejaVuSans-30"/>
      </g>
     </g>
    </g>
    <g id="xtick_8">
     <g id="text_8">
      <!-- 140 -->
      <g transform="translate(879.106386 287.06881)scale(0.08 -0.08)">
       <use xlink:href="#DejaVuSans-31"/>
       <use x="63.623047" xlink:href="#DejaVuSans-34"/>
       <use x="127.246094" xlink:href="#DejaVuSans-30"/>
      </g>
     </g>
    </g>
    <g id="text_9">
     <!-- Position in Read (bp) -->
     <g transform="translate(461.46 300.330997)scale(0.1 -0.1)">
      <defs>
       <path d="M 1259 4147 
L 1259 2394 
L 2053 2394 
Q 2494 2394 2734 2622 
Q 2975 2850 2975 3272 
Q 2975 3691 2734 3919 
Q 2494 4147 2053 4147 
L 1259 4147 
z
M 628 4666 
L 2053 4666 
Q 2838 4666 3239 4311 
Q 3641 3956 3641 3272 
Q 3641 2581 3239 2228 
Q 2838 1875 2053 1875 
L 1259 1875 
L 1259 0 
L 628 0 
L 628 4666 
z
" id="DejaVuSans-50" transform="scale(0.015625)"/>
       <path d="M 1959 3097 
Q 1497 3097 1228 2736 
Q 959 2375 959 1747 
Q 959 1119 1226 758 
Q 1494 397 1959 397 
Q 2419 397 2687 759 
Q 2956 1122 2956 1747 
Q 2956 2369 2687 2733 
Q 2419 3097 1959 3097 
z
M 1959 3584 
Q 2709 3584 3137 3096 
Q 3566 2609 3566 1747 
Q 3566 888 3137 398 
Q 2709 -91 1959 -91 
Q 1206 -91 779 398 
Q 353 888 353 1747 
Q 353 2609 779 3096 
Q 1206 3584 1959 3584 
z
" id="DejaVuSans-6f" transform="scale(0.015625)"/>
       <path d="M 2834 3397 
L 2834 2853 
Q 2591 2978 2328 3040 
Q 2066 3103 1784 3103 
Q 1356 3103 1142 2972 
Q 928 2841 928 2578 
Q 928 2378 1081 2264 
Q 1234 2150 1697 2047 
L 1894 2003 
Q 2506 1872 2764 1633 
Q 3022 1394 3022 966 
Q 3022 478 2636 193 
Q 2250 -91 1575 -91 
Q 1294 -91 989 -36 
Q 684 19 347 128 
L 347 722 
Q 666 556 975 473 
Q 1284 391 1588 391 
Q 1994 391 2212 530 
Q 2431 669 2431 922 
Q 2431 1156 2273 1281 
Q 2116 1406 1581 1522 
L 1381 1569 
Q 847 1681 609 1914 
Q 372 2147 372 2553 
Q 372 3047 722 3315 
Q 1072 3584 1716 3584 
Q 2034 3584 2315 3537 
Q 2597 3491 2834 3397 
z
" id="DejaVuSans-73" transform="scale(0.015625)"/>
       <path d="M 603 3500 
L 1178 3500 
L 1178 0 
L 603 0 
L 603 3500 
z
M 603 4863 
L 1178 4863 
L 1178 4134 
L 603 4134 
L 603 4863 
z
" id="DejaVuSans-69" transform="scale(0.015625)"/>
       <path d="M 1172 4494 
L 1172 3500 
L 2356 3500 
L 2356 3053 
L 1172 3053 
L 1172 1153 
Q 1172 725 1289 603 
Q 1406 481 1766 481 
L 2356 481 
L 2356 0 
L 1766 0 
Q 1100 0 847 248 
Q 594 497 594 1153 
L 594 3053 
L 172 3053 
L 172 3500 
L 594 3500 
L 594 4494 
L 1172 4494 
z
" id="DejaVuSans-74" transform="scale(0.015625)"/>
       <path d="M 3513 2113 
L 3513 0 
L 2938 0 
L 2938 2094 
Q 2938 2591 2744 2837 
Q 2550 3084 2163 3084 
Q 1697 3084 1428 2787 
Q 1159 2491 1159 1978 
L 1159 0 
L 581 0 
L 581 3500 
L 1159 3500 
L 1159 2956 
Q 1366 3272 1645 3428 
Q 1925 3584 2291 3584 
Q 2894 3584 3203 3211 
Q 3513 2838 3513 2113 
z
" id="DejaVuSans-6e" transform="scale(0.015625)"/>
       <path id="DejaVuSans-20" transform="scale(0.015625)"/>
       <path d="M 2841 2188 
Q 3044 2119 3236 1894 
Q 3428 1669 3622 1275 
L 4263 0 
L 3584 0 
L 2988 1197 
Q 2756 1666 2539 1819 
Q 2322 1972 1947 1972 
L 1259 1972 
L 1259 0 
L 628 0 
L 628 4666 
L 2053 4666 
Q 2853 4666 3247 4331 
Q 3641 3997 3641 3322 
Q 3641 2881 3436 2590 
Q 3231 2300 2841 2188 
z
M 1259 4147 
L 1259 2491 
L 2053 2491 
Q 2509 2491 2742 2702 
Q 2975 2913 2975 3322 
Q 2975 3731 2742 3939 
Q 2509 4147 2053 4147 
L 1259 4147 
z
" id="DejaVuSans-52" transform="scale(0.015625)"/>
       <path d="M 3597 1894 
L 3597 1613 
L 953 1613 
Q 991 1019 1311 708 
Q 1631 397 2203 397 
Q 2534 397 2845 478 
Q 3156 559 3463 722 
L 3463 178 
Q 3153 47 2828 -22 
Q 2503 -91 2169 -91 
Q 1331 -91 842 396 
Q 353 884 353 1716 
Q 353 2575 817 3079 
Q 1281 3584 2069 3584 
Q 2775 3584 3186 3129 
Q 3597 2675 3597 1894 
z
M 3022 2063 
Q 3016 2534 2758 2815 
Q 2500 3097 2075 3097 
Q 1594 3097 1305 2825 
Q 1016 2553 972 2059 
L 3022 2063 
z
" id="DejaVuSans-65" transform="scale(0.015625)"/>
       <path d="M 2194 1759 
Q 1497 1759 1228 1600 
Q 959 1441 959 1056 
Q 959 750 1161 570 
Q 1363 391 1709 391 
Q 2188 391 2477 730 
Q 2766 1069 2766 1631 
L 2766 1759 
L 2194 1759 
z
M 3341 1997 
L 3341 0 
L 2766 0 
L 2766 531 
Q 2569 213 2275 61 
Q 1981 -91 1556 -91 
Q 1019 -91 701 211 
Q 384 513 384 1019 
Q 384 1609 779 1909 
Q 1175 2209 1959 2209 
L 2766 2209 
L 2766 2266 
Q 2766 2663 2505 2880 
Q 2244 3097 1772 3097 
Q 1472 3097 1187 3025 
Q 903 2953 641 2809 
L 641 3341 
Q 956 3463 1253 3523 
Q 1550 3584 1831 3584 
Q 2591 3584 2966 3190 
Q 3341 2797 3341 1997 
z
" id="DejaVuSans-61" transform="scale(0.015625)"/>
       <path d="M 2906 2969 
L 2906 4863 
L 3481 4863 
L 3481 0 
L 2906 0 
L 2906 525 
Q 2725 213 2448 61 
Q 2172 -91 1784 -91 
Q 1150 -91 751 415 
Q 353 922 353 1747 
Q 353 2572 751 3078 
Q 1150 3584 1784 3584 
Q 2172 3584 2448 3432 
Q 2725 3281 2906 2969 
z
M 947 1747 
Q 947 1113 1208 752 
Q 1469 391 1925 391 
Q 2381 391 2643 752 
Q 2906 1113 2906 1747 
Q 2906 2381 2643 2742 
Q 2381 3103 1925 3103 
Q 1469 3103 1208 2742 
Q 947 2381 947 1747 
z
" id="DejaVuSans-64" transform="scale(0.015625)"/>
       <path d="M 1984 4856 
Q 1566 4138 1362 3434 
Q 1159 2731 1159 2009 
Q 1159 1288 1364 580 
Q 1569 -128 1984 -844 
L 1484 -844 
Q 1016 -109 783 600 
Q 550 1309 550 2009 
Q 550 2706 781 3412 
Q 1013 4119 1484 4856 
L 1984 4856 
z
" id="DejaVuSans-28" transform="scale(0.015625)"/>
       <path d="M 3116 1747 
Q 3116 2381 2855 2742 
Q 2594 3103 2138 3103 
Q 1681 3103 1420 2742 
Q 1159 2381 1159 1747 
Q 1159 1113 1420 752 
Q 1681 391 2138 391 
Q 2594 391 2855 752 
Q 3116 1113 3116 1747 
z
M 1159 2969 
Q 1341 3281 1617 3432 
Q 1894 3584 2278 3584 
Q 2916 3584 3314 3078 
Q 3713 2572 3713 1747 
Q 3713 922 3314 415 
Q 2916 -91 2278 -91 
Q 1894 -91 1617 61 
Q 1341 213 1159 525 
L 1159 0 
L 581 0 
L 581 4863 
L 1159 4863 
L 1159 2969 
z
" id="DejaVuSans-62" transform="scale(0.015625)"/>
       <path d="M 1159 525 
L 1159 -1331 
L 581 -1331 
L 581 3500 
L 1159 3500 
L 1159 2969 
Q 1341 3281 1617 3432 
Q 1894 3584 2278 3584 
Q 2916 3584 3314 3078 
Q 3713 2572 3713 1747 
Q 3713 922 3314 415 
Q 2916 -91 2278 -91 
Q 1894 -91 1617 61 
Q 1341 213 1159 525 
z
M 3116 1747 
Q 3116 2381 2855 2742 
Q 2594 3103 2138 3103 
Q 1681 3103 1420 2742 
Q 1159 2381 1159 1747 
Q 1159 1113 1420 752 
Q 1681 391 2138 391 
Q 2594 391 2855 752 
Q 3116 1113 3116 1747 
z
" id="DejaVuSans-70" transform="scale(0.015625)"/>
       <path d="M 513 4856 
L 1013 4856 
Q 1481 4119 1714 3412 
Q 1947 2706 1947 2009 
Q 1947 1309 1714 600 
Q 1481 -109 1013 -844 
L 513 -844 
Q 928 -128 1133 580 
Q 1338 1288 1338 2009 
Q 1338 2731 1133 3434 
Q 928 4138 513 4856 
z
" id="DejaVuSans-29" transform="scale(0.015625)"/>
      </defs>
      <use xlink:href="#DejaVuSans-50"/>
      <use x="56.677734" xlink:href="#DejaVuSans-6f"/>
      <use x="117.859375" xlink:href="#DejaVuSans-73"/>
      <use x="169.958984" xlink:href="#DejaVuSans-69"/>
      <use x="197.742188" xlink:href="#DejaVuSans-74"/>
      <use x="236.951172" xlink:href="#DejaVuSans-69"/>
      <use x="264.734375" xlink:href="#DejaVuSans-6f"/>
      <use x="325.916016" xlink:href="#DejaVuSans-6e"/>
      <use x="389.294922" xlink:href="#DejaVuSans-20"/>
      <use x="421.082031" xlink:href="#DejaVuSans-69"/>
      <use x="448.865234" xlink:href="#DejaVuSans-6e"/>
      <use x="512.244141" xlink:href="#DejaVuSans-20"/>
      <use x="544.03125" xlink:href="#DejaVuSans-52"/>
      <use x="609.013672" xlink:href="#DejaVuSans-65"/>
      <use x="670.537109" xlink:href="#DejaVuSans-61"/>
      <use x="731.816406" xlink:href="#DejaVuSans-64"/>
      <use x="795.292969" xlink:href="#DejaVuSans-20"/>
      <use x="827.080078" xlink:href="#DejaVuSans-28"/>
      <use x="866.09375" xlink:href="#DejaVuSans-62"/>
      <use x="929.570312" xlink:href="#DejaVuSans-70"/>
      <use x="993.046875" xlink:href="#DejaVuSans-29"/>
     </g>
    </g>
   </g>
   <g id="matplotlib.axis_2">
    <g id="ytick_1">
     <g id="line2d_1">
      <path clip-path="url(#p57ce3156f3)" d="M 32.968125 273.99006 
L 993.158125 273.99006 
" style="fill:none;stroke:#dedede;stroke-linecap:square;"/>
     </g>
     <g id="text_10">
      <!-- 0 -->
      <g transform="translate(20.878125 277.029435)scale(0.08 -0.08)">
       <use xlink:href="#DejaVuSans-30"/>
      </g>
     </g>
    </g>
    <g id="ytick_2">
     <g id="line2d_2">
      <path clip-path="url(#p57ce3156f3)" d="M 32.968125 225.48862 
L 993.158125 225.48862 
" style="fill:none;stroke:#dedede;stroke-linecap:square;"/>
     </g>
     <g id="text_11">
      <!-- 1 -->
      <g transform="translate(20.878125 228.527995)scale(0.08 -0.08)">
       <use xlink:href="#DejaVuSans-31"/>
      </g>
     </g>
    </g>
    <g id="ytick_3">
     <g id="line2d_3">
      <path clip-path="url(#p57ce3156f3)" d="M 32.968125 176.98718 
L 993.158125 176.98718 
" style="fill:none;stroke:#dedede;stroke-linecap:square;"/>
     </g>
     <g id="text_12">
      <!-- 2 -->
      <g transform="translate(20.878125 180.026555)scale(0.08 -0.08)">
       <use xlink:href="#DejaVuSans-32"/>
      </g>
     </g>
    </g>
    <g id="ytick_4">
     <g id="line2d_4">
      <path clip-path="url(#p57ce3156f3)" d="M 32.968125 128.48574 
L 993.158125 128.48574 
" style="fill:none;stroke:#dedede;stroke-linecap:square;"/>
     </g>
     <g id="text_13">
      <!-- 3 -->
      <g transform="translate(20.878125 131.525115)scale(0.08 -0.08)">
       <defs>
        <path d="M 2597 2516 
Q 3050 2419 3304 2112 
Q 3559 1806 3559 1356 
Q 3559 666 3084 287 
Q 2609 -91 1734 -91 
Q 1441 -91 1130 -33 
Q 819 25 488 141 
L 488 750 
Q 750 597 1062 519 
Q 1375 441 1716 441 
Q 2309 441 2620 675 
Q 2931 909 2931 1356 
Q 2931 1769 2642 2001 
Q 2353 2234 1838 2234 
L 1294 2234 
L 1294 2753 
L 1863 2753 
Q 2328 2753 2575 2939 
Q 2822 3125 2822 3475 
Q 2822 3834 2567 4026 
Q 2313 4219 1838 4219 
Q 1578 4219 1281 4162 
Q 984 4106 628 3988 
L 628 4550 
Q 988 4650 1302 4700 
Q 1616 4750 1894 4750 
Q 2613 4750 3031 4423 
Q 3450 4097 3450 3541 
Q 3450 3153 3228 2886 
Q 3006 2619 2597 2516 
z
" id="DejaVuSans-33" transform="scale(0.015625)"/>
       </defs>
       <use xlink:href="#DejaVuSans-33"/>
      </g>
     </g>
    </g>
    <g id="ytick_5">
     <g id="line2d_5">
      <path clip-path="url(#p57ce3156f3)" d="M 32.968125 79.9843 
L 993.158125 79.9843 
" style="fill:none;stroke:#dedede;stroke-linecap:square;"/>
     </g>
     <g id="text_14">
      <!-- 4 -->
      <g transform="translate(20.878125 83.023675)scale(0.08 -0.08)">
       <use xlink:href="#DejaVuSans-34"/>
      </g>
     </g>
    </g>
    <g id="ytick_6">
     <g id="line2d_6">
      <path clip-path="url(#p57ce3156f3)" d="M 32.968125 31.48286 
L 993.158125 31.48286 
" style="fill:none;stroke:#dedede;stroke-linecap:square;"/>
     </g>
     <g id="text_15">
      <!-- 5 -->
      <g transform="translate(20.878125 34.522235)scale(0.08 -0.08)">
       <defs>
        <path d="M 691 4666 
L 3169 4666 
L 3169 4134 
L 1269 4134 
L 1269 2991 
Q 1406 3038 1543 3061 
Q 1681 3084 1819 3084 
Q 2600 3084 3056 2656 
Q 3513 2228 3513 1497 
Q 3513 744 3044 326 
Q 2575 -91 1722 -91 
Q 1428 -91 1123 -41 
Q 819 9 494 109 
L 494 744 
Q 775 591 1075 516 
Q 1375 441 1709 441 
Q 2250 441 2565 725 
Q 2881 1009 2881 1497 
Q 2881 1984 2565 2268 
Q 2250 2553 1709 2553 
Q 1456 2553 1204 2497 
Q 953 2441 691 2322 
L 691 4666 
z
" id="DejaVuSans-35" transform="scale(0.015625)"/>
       </defs>
       <use xlink:href="#DejaVuSans-35"/>
      </g>
     </g>
    </g>
    <g id="text_16">
     <!-- Percentage N-Count -->
     <g transform="translate(14.798438 202.841147)rotate(-90)scale(0.1 -0.1)">
      <defs>
       <path d="M 2631 2963 
Q 2534 3019 2420 3045 
Q 2306 3072 2169 3072 
Q 1681 3072 1420 2755 
Q 1159 2438 1159 1844 
L 1159 0 
L 581 0 
L 581 3500 
L 1159 3500 
L 1159 2956 
Q 1341 3275 1631 3429 
Q 1922 3584 2338 3584 
Q 2397 3584 2469 3576 
Q 2541 3569 2628 3553 
L 2631 2963 
z
" id="DejaVuSans-72" transform="scale(0.015625)"/>
       <path d="M 3122 3366 
L 3122 2828 
Q 2878 2963 2633 3030 
Q 2388 3097 2138 3097 
Q 1578 3097 1268 2742 
Q 959 2388 959 1747 
Q 959 1106 1268 751 
Q 1578 397 2138 397 
Q 2388 397 2633 464 
Q 2878 531 3122 666 
L 3122 134 
Q 2881 22 2623 -34 
Q 2366 -91 2075 -91 
Q 1284 -91 818 406 
Q 353 903 353 1747 
Q 353 2603 823 3093 
Q 1294 3584 2113 3584 
Q 2378 3584 2631 3529 
Q 2884 3475 3122 3366 
z
" id="DejaVuSans-63" transform="scale(0.015625)"/>
       <path d="M 2906 1791 
Q 2906 2416 2648 2759 
Q 2391 3103 1925 3103 
Q 1463 3103 1205 2759 
Q 947 2416 947 1791 
Q 947 1169 1205 825 
Q 1463 481 1925 481 
Q 2391 481 2648 825 
Q 2906 1169 2906 1791 
z
M 3481 434 
Q 3481 -459 3084 -895 
Q 2688 -1331 1869 -1331 
Q 1566 -1331 1297 -1286 
Q 1028 -1241 775 -1147 
L 775 -588 
Q 1028 -725 1275 -790 
Q 1522 -856 1778 -856 
Q 2344 -856 2625 -561 
Q 2906 -266 2906 331 
L 2906 616 
Q 2728 306 2450 153 
Q 2172 0 1784 0 
Q 1141 0 747 490 
Q 353 981 353 1791 
Q 353 2603 747 3093 
Q 1141 3584 1784 3584 
Q 2172 3584 2450 3431 
Q 2728 3278 2906 2969 
L 2906 3500 
L 3481 3500 
L 3481 434 
z
" id="DejaVuSans-67" transform="scale(0.015625)"/>
       <path d="M 628 4666 
L 1478 4666 
L 3547 763 
L 3547 4666 
L 4159 4666 
L 4159 0 
L 3309 0 
L 1241 3903 
L 1241 0 
L 628 0 
L 628 4666 
z
" id="DejaVuSans-4e" transform="scale(0.015625)"/>
       <path d="M 313 2009 
L 1997 2009 
L 1997 1497 
L 313 1497 
L 313 2009 
z
" id="DejaVuSans-2d" transform="scale(0.015625)"/>
       <path d="M 4122 4306 
L 4122 3641 
Q 3803 3938 3442 4084 
Q 3081 4231 2675 4231 
Q 1875 4231 1450 3742 
Q 1025 3253 1025 2328 
Q 1025 1406 1450 917 
Q 1875 428 2675 428 
Q 3081 428 3442 575 
Q 3803 722 4122 1019 
L 4122 359 
Q 3791 134 3420 21 
Q 3050 -91 2638 -91 
Q 1578 -91 968 557 
Q 359 1206 359 2328 
Q 359 3453 968 4101 
Q 1578 4750 2638 4750 
Q 3056 4750 3426 4639 
Q 3797 4528 4122 4306 
z
" id="DejaVuSans-43" transform="scale(0.015625)"/>
       <path d="M 544 1381 
L 544 3500 
L 1119 3500 
L 1119 1403 
Q 1119 906 1312 657 
Q 1506 409 1894 409 
Q 2359 409 2629 706 
Q 2900 1003 2900 1516 
L 2900 3500 
L 3475 3500 
L 3475 0 
L 2900 0 
L 2900 538 
Q 2691 219 2414 64 
Q 2138 -91 1772 -91 
Q 1169 -91 856 284 
Q 544 659 544 1381 
z
M 1991 3584 
L 1991 3584 
z
" id="DejaVuSans-75" transform="scale(0.015625)"/>
      </defs>
      <use xlink:href="#DejaVuSans-50"/>
      <use x="56.677734" xlink:href="#DejaVuSans-65"/>
      <use x="118.201172" xlink:href="#DejaVuSans-72"/>
      <use x="157.064453" xlink:href="#DejaVuSans-63"/>
      <use x="212.044922" xlink:href="#DejaVuSans-65"/>
      <use x="273.568359" xlink:href="#DejaVuSans-6e"/>
      <use x="336.947266" xlink:href="#DejaVuSans-74"/>
      <use x="376.15625" xlink:href="#DejaVuSans-61"/>
      <use x="437.435547" xlink:href="#DejaVuSans-67"/>
      <use x="500.912109" xlink:href="#DejaVuSans-65"/>
      <use x="562.435547" xlink:href="#DejaVuSans-20"/>
      <use x="594.222656" xlink:href="#DejaVuSans-4e"/>
      <use x="669.027344" xlink:href="#DejaVuSans-2d"/>
      <use x="705.111328" xlink:href="#DejaVuSans-43"/>
      <use x="774.935547" xlink:href="#DejaVuSans-6f"/>
      <use x="836.117188" xlink:href="#DejaVuSans-75"/>
      <use x="899.496094" xlink:href="#DejaVuSans-6e"/>
      <use x="962.875" xlink:href="#DejaVuSans-74"/>
     </g>
    </g>
   </g>
   <g id="line2d_7">
    <path clip-path="url(#p57ce3156f3)" d="M 39.066505 273.969771 
L 45.164886 273.99006 
L 51.263266 273.99006 
L 57.361647 273.99006 
L 63.460027 273.99006 
L 69.558408 273.908905 
L 75.656788 273.99006 
L 81.755169 273.99006 
L 87.853549 273.99006 
L 106.14869 273.99006 
L 136.640592 273.99006 
L 167.132495 273.969771 
L 197.624397 273.981944 
L 228.116299 273.977887 
L 258.608201 273.98465 
L 289.100103 273.988707 
L 319.592006 273.98465 
L 350.083908 273.987355 
L 380.57581 273.99006 
L 411.067712 273.987355 
L 441.559614 273.986002 
L 472.051517 273.979239 
L 502.543419 273.99006 
L 533.035321 273.983297 
L 563.527223 273.99006 
L 594.019125 273.983297 
L 624.511028 273.973829 
L 655.00293 273.910257 
L 685.494832 273.536942 
L 715.986734 273.152807 
L 746.478636 273.366516 
L 776.970538 273.192032 
L 807.462441 272.605008 
L 837.954343 273.273187 
L 868.446245 273.91702 
L 898.938147 273.983297 
L 929.430049 273.981944 
L 947.725191 273.976534 
" style="fill:none;stroke:#5cb85c;stroke-linecap:square;"/>
   </g>
   <g id="line2d_8">
    <path clip-path="url(#p57ce3156f3)" d="M 39.066505 273.104114 
L 45.164886 273.618098 
L 51.263266 273.543705 
L 57.361647 273.949482 
L 63.460027 273.935956 
L 69.558408 273.935956 
L 75.656788 273.976534 
L 81.755169 273.969771 
L 87.853549 273.99006 
L 106.14869 273.987355 
L 136.640592 273.95354 
L 167.132495 273.987355 
L 197.624397 273.965713 
L 228.116299 273.986002 
L 258.608201 273.949482 
L 289.100103 273.927841 
L 319.592006 273.931899 
L 350.083908 273.933251 
L 380.57581 273.934604 
L 411.067712 273.841275 
L 441.559614 273.792582 
L 472.051517 273.676259 
L 502.543419 273.365163 
L 533.035321 273.216379 
L 563.527223 273.090588 
L 594.019125 273.063536 
L 624.511028 273.059478 
L 655.00293 273.004022 
L 685.494832 272.963444 
L 715.986734 272.939098 
L 746.478636 272.880936 
L 776.970538 273.00808 
L 807.462441 272.399414 
L 837.954343 272.330432 
L 868.446245 272.241161 
L 898.938147 272.529263 
L 929.430049 272.757851 
" style="fill:none;stroke:#5cb85c;stroke-linecap:square;"/>
   </g>
   <g id="line2d_9">
    <path clip-path="url(#p57ce3156f3)" d="M 39.066505 273.99006 
L 45.164886 273.99006 
L 51.263266 273.99006 
L 57.361647 273.99006 
L 63.460027 273.99006 
L 69.558408 273.914148 
L 75.656788 273.99006 
L 81.755169 273.99006 
L 87.853549 273.99006 
L 106.14869 273.99006 
L 136.640592 273.99006 
L 167.132495 273.971082 
L 197.624397 273.986264 
L 228.116299 273.99006 
L 258.608201 273.986264 
L 289.100103 273.99006 
L 319.592006 273.982469 
L 350.083908 273.99006 
L 380.57581 273.99006 
L 411.067712 273.99006 
L 441.559614 273.986264 
L 472.051517 273.986264 
L 502.543419 273.986264 
L 533.035321 273.982469 
L 563.527223 273.99006 
L 594.019125 273.982469 
L 624.511028 273.978673 
L 655.00293 273.898965 
L 685.494832 273.629476 
L 715.986734 273.284074 
L 746.478636 273.439694 
L 776.970538 273.329621 
L 807.462441 272.862759 
L 837.954343 273.416921 
L 868.446245 273.906556 
L 898.938147 273.982469 
L 929.430049 273.982469 
L 947.725191 273.971082 
" style="fill:none;stroke:#5cb85c;stroke-linecap:square;"/>
   </g>
   <g id="line2d_10">
    <path clip-path="url(#p57ce3156f3)" d="M 39.066505 273.041154 
L 45.164886 273.648454 
L 51.263266 273.553563 
L 57.361647 273.971082 
L 63.460027 273.971082 
L 69.558408 273.971082 
L 75.656788 273.971082 
L 81.755169 273.971082 
L 87.853549 273.99006 
L 106.14869 273.982469 
L 136.640592 273.955899 
L 167.132495 273.99006 
L 197.624397 273.967286 
L 228.116299 273.982469 
L 258.608201 273.940717 
L 289.100103 273.925534 
L 319.592006 273.933126 
L 350.083908 273.925534 
L 380.57581 273.921739 
L 411.067712 273.845826 
L 441.559614 273.792688 
L 472.051517 273.663636 
L 502.543419 273.38276 
L 533.035321 273.234731 
L 563.527223 273.192979 
L 594.019125 273.071519 
L 624.511028 273.117066 
L 655.00293 273.101884 
L 685.494832 273.006993 
L 715.986734 273.037358 
L 746.478636 272.953854 
L 776.970538 273.01838 
L 807.462441 272.433854 
L 837.954343 272.323781 
L 868.446245 272.221299 
L 898.938147 272.540131 
L 929.430049 272.862759 
" style="fill:none;stroke:#5cb85c;stroke-linecap:square;"/>
   </g>
   <g id="line2d_11">
    <path clip-path="url(#p57ce3156f3)" d="M 39.066505 273.961865 
L 45.164886 273.984773 
L 51.263266 273.99006 
L 57.361647 273.99006 
L 63.460027 273.99006 
L 69.558408 273.889615 
L 75.656788 273.99006 
L 81.755169 273.99006 
L 87.853549 273.99006 
L 106.14869 273.989355 
L 136.640592 273.99006 
L 167.132495 273.973848 
L 197.624397 273.984421 
L 228.116299 273.980544 
L 258.608201 273.985831 
L 289.100103 273.987593 
L 319.592006 273.984421 
L 350.083908 273.987593 
L 380.57581 273.98724 
L 411.067712 273.983011 
L 441.559614 273.980544 
L 472.051517 273.977372 
L 502.543419 273.979839 
L 533.035321 273.972086 
L 563.527223 273.98865 
L 594.019125 273.982659 
L 624.511028 273.97702 
L 655.00293 273.893845 
L 685.494832 273.587576 
L 715.986734 273.206591 
L 746.478636 273.433913 
L 776.970538 273.25417 
L 807.462441 272.734325 
L 837.954343 273.376819 
L 868.446245 273.911819 
L 898.938147 273.980192 
L 929.430049 273.985478 
L 947.725191 273.986536 
" style="fill:none;stroke:#5cb85c;stroke-linecap:square;"/>
   </g>
   <g id="line2d_12">
    <path clip-path="url(#p57ce3156f3)" d="M 39.066505 273.079009 
L 45.164886 273.621763 
L 51.263266 273.551275 
L 57.361647 273.938957 
L 63.460027 273.963627 
L 69.558408 273.937194 
L 75.656788 273.979487 
L 81.755169 273.963627 
L 87.853549 273.984773 
L 106.14869 273.985478 
L 136.640592 273.950235 
L 167.132495 273.987945 
L 197.624397 273.960808 
L 228.116299 273.983716 
L 258.608201 273.941071 
L 289.100103 273.911114 
L 319.592006 273.917105 
L 350.083908 273.916401 
L 380.57581 273.905475 
L 411.067712 273.798686 
L 441.559614 273.754984 
L 472.051517 273.603788 
L 502.543419 273.315142 
L 533.035321 273.157602 
L 563.527223 273.063502 
L 594.019125 272.98667 
L 624.511028 273.021561 
L 655.00293 272.976097 
L 685.494832 272.883406 
L 715.986734 272.876005 
L 746.478636 272.814328 
L 776.970538 272.930633 
L 807.462441 272.276508 
L 837.954343 272.215889 
L 868.446245 272.052006 
L 898.938147 272.445678 
L 929.430049 272.724457 
" style="fill:none;stroke:#5cb85c;stroke-linecap:square;"/>
   </g>
   <g id="line2d_13">
    <path clip-path="url(#p57ce3156f3)" d="M 39.066505 273.976562 
L 45.164886 273.986203 
L 51.263266 273.99006 
L 57.361647 273.99006 
L 63.460027 273.99006 
L 69.558408 273.893645 
L 75.656788 273.99006 
L 81.755169 273.99006 
L 87.853549 273.99006 
L 106.14869 273.99006 
L 136.640592 273.99006 
L 167.132495 273.975019 
L 197.624397 273.984661 
L 228.116299 273.983504 
L 258.608201 273.982732 
L 289.100103 273.986975 
L 319.592006 273.980033 
L 350.083908 273.986203 
L 380.57581 273.987746 
L 411.067712 273.983889 
L 441.559614 273.980804 
L 472.051517 273.976562 
L 502.543419 273.985046 
L 533.035321 273.976562 
L 563.527223 273.98736 
L 594.019125 273.981576 
L 624.511028 273.974634 
L 655.00293 273.896345 
L 685.494832 273.592832 
L 715.986734 273.214501 
L 746.478636 273.432784 
L 776.970538 273.270807 
L 807.462441 272.755954 
L 837.954343 273.375706 
L 868.446245 273.912928 
L 898.938147 273.979262 
L 929.430049 273.986203 
L 947.725191 273.97849 
" style="fill:none;stroke:#5cb85c;stroke-linecap:square;"/>
   </g>
   <g id="line2d_14">
    <path clip-path="url(#p57ce3156f3)" d="M 39.066505 273.104974 
L 45.164886 273.600545 
L 51.263266 273.533055 
L 57.361647 273.941853 
L 63.460027 273.966921 
L 69.558408 273.951494 
L 75.656788 273.982347 
L 81.755169 273.964992 
L 87.853549 273.982347 
L 106.14869 273.984661 
L 136.640592 273.949952 
L 167.132495 273.985432 
L 197.624397 273.964221 
L 228.116299 273.983889 
L 258.608201 273.946481 
L 289.100103 273.931054 
L 319.592006 273.929126 
L 350.083908 273.930669 
L 380.57581 273.927198 
L 411.067712 273.839653 
L 441.559614 273.803787 
L 472.051517 273.684619 
L 502.543419 273.415815 
L 533.035321 273.250368 
L 563.527223 273.126957 
L 594.019125 273.087234 
L 624.511028 273.088391 
L 655.00293 273.037099 
L 685.494832 272.980021 
L 715.986734 272.945698 
L 746.478636 272.87088 
L 776.970538 273.023986 
L 807.462441 272.334044 
L 837.954343 272.280823 
L 868.446245 272.10612 
L 898.938147 272.490621 
L 929.430049 272.778707 
" style="fill:none;stroke:#5cb85c;stroke-linecap:square;"/>
   </g>
   <g id="line2d_15">
    <path clip-path="url(#p57ce3156f3)" d="M 39.066505 273.983545 
L 45.164886 273.983545 
L 51.263266 273.99006 
L 57.361647 273.99006 
L 63.460027 273.99006 
L 69.558408 273.901018 
L 75.656788 273.99006 
L 81.755169 273.99006 
L 87.853549 273.99006 
L 106.14869 273.99006 
L 136.640592 273.99006 
L 167.132495 273.97312 
L 197.624397 273.985716 
L 228.116299 273.986151 
L 258.608201 273.985282 
L 289.100103 273.987888 
L 319.592006 273.984848 
L 350.083908 273.987454 
L 380.57581 273.988757 
L 411.067712 273.985716 
L 441.559614 273.98311 
L 472.051517 273.977898 
L 502.543419 273.986151 
L 533.035321 273.974423 
L 563.527223 273.989626 
L 594.019125 273.981807 
L 624.511028 273.975726 
L 655.00293 273.903624 
L 685.494832 273.580032 
L 715.986734 273.200408 
L 746.478636 273.444948 
L 776.970538 273.261217 
L 807.462441 272.759975 
L 837.954343 273.380229 
L 868.446245 273.914483 
L 898.938147 273.981807 
L 929.430049 273.985716 
L 947.725191 273.970514 
" style="fill:none;stroke:#5cb85c;stroke-linecap:square;"/>
   </g>
   <g id="line2d_16">
    <path clip-path="url(#p57ce3156f3)" d="M 39.066505 272.973676 
L 45.164886 273.560051 
L 51.263266 273.568738 
L 57.361647 273.920564 
L 63.460027 273.948797 
L 69.558408 273.940109 
L 75.656788 273.981373 
L 81.755169 273.963999 
L 87.853549 273.981373 
L 106.14869 273.984413 
L 136.640592 273.951403 
L 167.132495 273.984848 
L 197.624397 273.960524 
L 228.116299 273.984848 
L 258.608201 273.934897 
L 289.100103 273.920129 
L 319.592006 273.922301 
L 350.083908 273.914483 
L 380.57581 273.914483 
L 411.067712 273.806763 
L 441.559614 273.765934 
L 472.051517 273.629548 
L 502.543419 273.338097 
L 533.035321 273.168266 
L 563.527223 273.074446 
L 594.019125 272.994525 
L 624.511028 273.037526 
L 655.00293 272.999303 
L 685.494832 272.902442 
L 715.986734 272.891583 
L 746.478636 272.820349 
L 776.970538 272.949786 
L 807.462441 272.275237 
L 837.954343 272.245267 
L 868.446245 272.096284 
L 898.938147 272.440291 
L 929.430049 272.737823 
" style="fill:none;stroke:#5cb85c;stroke-linecap:square;"/>
   </g>
   <g id="line2d_17">
    <path clip-path="url(#p57ce3156f3)" d="M 39.066505 273.973495 
L 45.164886 273.988219 
L 51.263266 273.99006 
L 57.361647 273.99006 
L 63.460027 273.99006 
L 69.558408 273.881465 
L 75.656788 273.99006 
L 81.755169 273.99006 
L 87.853549 273.99006 
L 106.14869 273.99006 
L 136.640592 273.99006 
L 167.132495 273.974599 
L 197.624397 273.98417 
L 228.116299 273.98417 
L 258.608201 273.984538 
L 289.100103 273.987851 
L 319.592006 273.985274 
L 350.083908 273.987851 
L 380.57581 273.988956 
L 411.067712 273.98417 
L 441.559614 273.981593 
L 472.051517 273.978648 
L 502.543419 273.981593 
L 533.035321 273.976071 
L 563.527223 273.988956 
L 594.019125 273.983434 
L 624.511028 273.97828 
L 655.00293 273.894717 
L 685.494832 273.545004 
L 715.986734 273.166578 
L 746.478636 273.3834 
L 776.970538 273.22106 
L 807.462441 272.722995 
L 837.954343 273.339226 
L 868.446245 273.919013 
L 898.938147 273.981593 
L 929.430049 273.986379 
L 947.725191 273.977176 
" style="fill:none;stroke:#5cb85c;stroke-linecap:square;"/>
   </g>
   <g id="line2d_18">
    <path clip-path="url(#p57ce3156f3)" d="M 39.066505 273.014545 
L 45.164886 273.58697 
L 51.263266 273.581448 
L 57.361647 273.933002 
L 63.460027 273.953248 
L 69.558408 273.933002 
L 75.656788 273.984538 
L 81.755169 273.964292 
L 87.853549 273.980857 
L 106.14869 273.981593 
L 136.640592 273.952512 
L 167.132495 273.983066 
L 197.624397 273.965764 
L 228.116299 273.986747 
L 258.608201 273.941468 
L 289.100103 273.915332 
L 319.592006 273.919013 
L 350.083908 273.925639 
L 380.57581 273.917909 
L 411.067712 273.822566 
L 441.559614 273.781705 
L 472.051517 273.651759 
L 502.543419 273.359472 
L 533.035321 273.196028 
L 563.527223 273.090378 
L 594.019125 273.026693 
L 624.511028 273.057615 
L 655.00293 272.976261 
L 685.494832 272.909631 
L 715.986734 272.91773 
L 746.478636 272.840057 
L 776.970538 272.930246 
L 807.462441 272.293768 
L 837.954343 272.234133 
L 868.446245 272.085413 
L 898.938147 272.456109 
L 929.430049 272.72005 
" style="fill:none;stroke:#5cb85c;stroke-linecap:square;"/>
   </g>
   <g id="line2d_19">
    <path clip-path="url(#p57ce3156f3)" d="M 32.968125 273.99006 
L 993.158125 273.99006 
" style="fill:none;stroke:#dedede;stroke-linecap:square;stroke-width:2;"/>
   </g>
   <g id="text_17">
    <!-- FastQC: Per Base N Content -->
    <g transform="translate(402.209375 19.3575)scale(0.16 -0.16)">
     <defs>
      <path d="M 628 4666 
L 3309 4666 
L 3309 4134 
L 1259 4134 
L 1259 2759 
L 3109 2759 
L 3109 2228 
L 1259 2228 
L 1259 0 
L 628 0 
L 628 4666 
z
" id="DejaVuSans-46" transform="scale(0.015625)"/>
      <path d="M 2522 4238 
Q 1834 4238 1429 3725 
Q 1025 3213 1025 2328 
Q 1025 1447 1429 934 
Q 1834 422 2522 422 
Q 3209 422 3611 934 
Q 4013 1447 4013 2328 
Q 4013 3213 3611 3725 
Q 3209 4238 2522 4238 
z
M 3406 84 
L 4238 -825 
L 3475 -825 
L 2784 -78 
Q 2681 -84 2626 -87 
Q 2572 -91 2522 -91 
Q 1538 -91 948 567 
Q 359 1225 359 2328 
Q 359 3434 948 4092 
Q 1538 4750 2522 4750 
Q 3503 4750 4090 4092 
Q 4678 3434 4678 2328 
Q 4678 1516 4351 937 
Q 4025 359 3406 84 
z
" id="DejaVuSans-51" transform="scale(0.015625)"/>
      <path d="M 750 794 
L 1409 794 
L 1409 0 
L 750 0 
L 750 794 
z
M 750 3309 
L 1409 3309 
L 1409 2516 
L 750 2516 
L 750 3309 
z
" id="DejaVuSans-3a" transform="scale(0.015625)"/>
      <path d="M 1259 2228 
L 1259 519 
L 2272 519 
Q 2781 519 3026 730 
Q 3272 941 3272 1375 
Q 3272 1813 3026 2020 
Q 2781 2228 2272 2228 
L 1259 2228 
z
M 1259 4147 
L 1259 2741 
L 2194 2741 
Q 2656 2741 2882 2914 
Q 3109 3088 3109 3444 
Q 3109 3797 2882 3972 
Q 2656 4147 2194 4147 
L 1259 4147 
z
M 628 4666 
L 2241 4666 
Q 2963 4666 3353 4366 
Q 3744 4066 3744 3513 
Q 3744 3084 3544 2831 
Q 3344 2578 2956 2516 
Q 3422 2416 3680 2098 
Q 3938 1781 3938 1306 
Q 3938 681 3513 340 
Q 3088 0 2303 0 
L 628 0 
L 628 4666 
z
" id="DejaVuSans-42" transform="scale(0.015625)"/>
     </defs>
     <use xlink:href="#DejaVuSans-46"/>
     <use x="48.394531" xlink:href="#DejaVuSans-61"/>
     <use x="109.673828" xlink:href="#DejaVuSans-73"/>
     <use x="161.773438" xlink:href="#DejaVuSans-74"/>
     <use x="200.982422" xlink:href="#DejaVuSans-51"/>
     <use x="279.693359" xlink:href="#DejaVuSans-43"/>
     <use x="349.517578" xlink:href="#DejaVuSans-3a"/>
     <use x="383.208984" xlink:href="#DejaVuSans-20"/>
     <use x="414.996094" xlink:href="#DejaVuSans-50"/>
     <use x="471.673828" xlink:href="#DejaVuSans-65"/>
     <use x="533.197266" xlink:href="#DejaVuSans-72"/>
     <use x="574.310547" xlink:href="#DejaVuSans-20"/>
     <use x="606.097656" xlink:href="#DejaVuSans-42"/>
     <use x="674.701172" xlink:href="#DejaVuSans-61"/>
     <use x="735.980469" xlink:href="#DejaVuSans-73"/>
     <use x="788.080078" xlink:href="#DejaVuSans-65"/>
     <use x="849.603516" xlink:href="#DejaVuSans-20"/>
     <use x="881.390625" xlink:href="#DejaVuSans-4e"/>
     <use x="956.195312" xlink:href="#DejaVuSans-20"/>
     <use x="987.982422" xlink:href="#DejaVuSans-43"/>
     <use x="1057.806641" xlink:href="#DejaVuSans-6f"/>
     <use x="1118.988281" xlink:href="#DejaVuSans-6e"/>
     <use x="1182.367188" xlink:href="#DejaVuSans-74"/>
     <use x="1221.576172" xlink:href="#DejaVuSans-65"/>
     <use x="1283.099609" xlink:href="#DejaVuSans-6e"/>
     <use x="1346.478516" xlink:href="#DejaVuSans-74"/>
    </g>
   </g>
   <g id="legend_1">
    <g id="line2d_20">
     <path d="M 40.168125 291.525394 
L 56.168125 291.525394 
" style="fill:none;stroke:#5cb85c;stroke-linecap:square;"/>
    </g>
    <g id="line2d_21"/>
    <g id="text_18">
     <!-- X2_lib_raw_1 -->
     <g transform="translate(62.568125 294.325394)scale(0.08 -0.08)">
      <defs>
       <path d="M 403 4666 
L 1081 4666 
L 2241 2931 
L 3406 4666 
L 4084 4666 
L 2584 2425 
L 4184 0 
L 3506 0 
L 2194 1984 
L 872 0 
L 191 0 
L 1856 2491 
L 403 4666 
z
" id="DejaVuSans-58" transform="scale(0.015625)"/>
       <path d="M 3263 -1063 
L 3263 -1509 
L -63 -1509 
L -63 -1063 
L 3263 -1063 
z
" id="DejaVuSans-5f" transform="scale(0.015625)"/>
       <path d="M 603 4863 
L 1178 4863 
L 1178 0 
L 603 0 
L 603 4863 
z
" id="DejaVuSans-6c" transform="scale(0.015625)"/>
       <path d="M 269 3500 
L 844 3500 
L 1563 769 
L 2278 3500 
L 2956 3500 
L 3675 769 
L 4391 3500 
L 4966 3500 
L 4050 0 
L 3372 0 
L 2619 2869 
L 1863 0 
L 1184 0 
L 269 3500 
z
" id="DejaVuSans-77" transform="scale(0.015625)"/>
      </defs>
      <use xlink:href="#DejaVuSans-58"/>
      <use x="68.505859" xlink:href="#DejaVuSans-32"/>
      <use x="132.128906" xlink:href="#DejaVuSans-5f"/>
      <use x="182.128906" xlink:href="#DejaVuSans-6c"/>
      <use x="209.912109" xlink:href="#DejaVuSans-69"/>
      <use x="237.695312" xlink:href="#DejaVuSans-62"/>
      <use x="301.171875" xlink:href="#DejaVuSans-5f"/>
      <use x="351.171875" xlink:href="#DejaVuSans-72"/>
      <use x="392.285156" xlink:href="#DejaVuSans-61"/>
      <use x="453.564453" xlink:href="#DejaVuSans-77"/>
      <use x="535.351562" xlink:href="#DejaVuSans-5f"/>
      <use x="585.351562" xlink:href="#DejaVuSans-31"/>
     </g>
    </g>
    <g id="line2d_22">
     <path d="M 40.168125 303.490394 
L 56.168125 303.490394 
" style="fill:none;stroke:#5cb85c;stroke-linecap:square;"/>
    </g>
    <g id="line2d_23"/>
    <g id="text_19">
     <!-- X2_lib_raw_2 -->
     <g transform="translate(62.568125 306.290394)scale(0.08 -0.08)">
      <use xlink:href="#DejaVuSans-58"/>
      <use x="68.505859" xlink:href="#DejaVuSans-32"/>
      <use x="132.128906" xlink:href="#DejaVuSans-5f"/>
      <use x="182.128906" xlink:href="#DejaVuSans-6c"/>
      <use x="209.912109" xlink:href="#DejaVuSans-69"/>
      <use x="237.695312" xlink:href="#DejaVuSans-62"/>
      <use x="301.171875" xlink:href="#DejaVuSans-5f"/>
      <use x="351.171875" xlink:href="#DejaVuSans-72"/>
      <use x="392.285156" xlink:href="#DejaVuSans-61"/>
      <use x="453.564453" xlink:href="#DejaVuSans-77"/>
      <use x="535.351562" xlink:href="#DejaVuSans-5f"/>
      <use x="585.351562" xlink:href="#DejaVuSans-32"/>
     </g>
    </g>
    <g id="line2d_24">
     <path d="M 40.168125 315.455394 
L 56.168125 315.455394 
" style="fill:none;stroke:#5cb85c;stroke-linecap:square;"/>
    </g>
    <g id="line2d_25"/>
    <g id="text_20">
     <!-- X2_neg_raw_1 -->
     <g transform="translate(62.568125 318.255394)scale(0.08 -0.08)">
      <use xlink:href="#DejaVuSans-58"/>
      <use x="68.505859" xlink:href="#DejaVuSans-32"/>
      <use x="132.128906" xlink:href="#DejaVuSans-5f"/>
      <use x="182.128906" xlink:href="#DejaVuSans-6e"/>
      <use x="245.507812" xlink:href="#DejaVuSans-65"/>
      <use x="307.03125" xlink:href="#DejaVuSans-67"/>
      <use x="370.507812" xlink:href="#DejaVuSans-5f"/>
      <use x="420.507812" xlink:href="#DejaVuSans-72"/>
      <use x="461.621094" xlink:href="#DejaVuSans-61"/>
      <use x="522.900391" xlink:href="#DejaVuSans-77"/>
      <use x="604.6875" xlink:href="#DejaVuSans-5f"/>
      <use x="654.6875" xlink:href="#DejaVuSans-31"/>
     </g>
    </g>
    <g id="line2d_26">
     <path d="M 238.600625 291.525394 
L 254.600625 291.525394 
" style="fill:none;stroke:#5cb85c;stroke-linecap:square;"/>
    </g>
    <g id="line2d_27"/>
    <g id="text_21">
     <!-- X2_neg_raw_2 -->
     <g transform="translate(261.000625 294.325394)scale(0.08 -0.08)">
      <use xlink:href="#DejaVuSans-58"/>
      <use x="68.505859" xlink:href="#DejaVuSans-32"/>
      <use x="132.128906" xlink:href="#DejaVuSans-5f"/>
      <use x="182.128906" xlink:href="#DejaVuSans-6e"/>
      <use x="245.507812" xlink:href="#DejaVuSans-65"/>
      <use x="307.03125" xlink:href="#DejaVuSans-67"/>
      <use x="370.507812" xlink:href="#DejaVuSans-5f"/>
      <use x="420.507812" xlink:href="#DejaVuSans-72"/>
      <use x="461.621094" xlink:href="#DejaVuSans-61"/>
      <use x="522.900391" xlink:href="#DejaVuSans-77"/>
      <use x="604.6875" xlink:href="#DejaVuSans-5f"/>
      <use x="654.6875" xlink:href="#DejaVuSans-32"/>
     </g>
    </g>
    <g id="line2d_28">
     <path d="M 238.600625 303.490394 
L 254.600625 303.490394 
" style="fill:none;stroke:#5cb85c;stroke-linecap:square;"/>
    </g>
    <g id="line2d_29"/>
    <g id="text_22">
     <!-- X2rL41_post_raw_1 -->
     <g transform="translate(261.000625 306.290394)scale(0.08 -0.08)">
      <defs>
       <path d="M 628 4666 
L 1259 4666 
L 1259 531 
L 3531 531 
L 3531 0 
L 628 0 
L 628 4666 
z
" id="DejaVuSans-4c" transform="scale(0.015625)"/>
      </defs>
      <use xlink:href="#DejaVuSans-58"/>
      <use x="68.505859" xlink:href="#DejaVuSans-32"/>
      <use x="132.128906" xlink:href="#DejaVuSans-72"/>
      <use x="173.242188" xlink:href="#DejaVuSans-4c"/>
      <use x="228.955078" xlink:href="#DejaVuSans-34"/>
      <use x="292.578125" xlink:href="#DejaVuSans-31"/>
      <use x="356.201172" xlink:href="#DejaVuSans-5f"/>
      <use x="406.201172" xlink:href="#DejaVuSans-70"/>
      <use x="469.677734" xlink:href="#DejaVuSans-6f"/>
      <use x="530.859375" xlink:href="#DejaVuSans-73"/>
      <use x="582.958984" xlink:href="#DejaVuSans-74"/>
      <use x="622.167969" xlink:href="#DejaVuSans-5f"/>
      <use x="672.167969" xlink:href="#DejaVuSans-72"/>
      <use x="713.28125" xlink:href="#DejaVuSans-61"/>
      <use x="774.560547" xlink:href="#DejaVuSans-77"/>
      <use x="856.347656" xlink:href="#DejaVuSans-5f"/>
      <use x="906.347656" xlink:href="#DejaVuSans-31"/>
     </g>
    </g>
    <g id="line2d_30">
     <path d="M 238.600625 315.455394 
L 254.600625 315.455394 
" style="fill:none;stroke:#5cb85c;stroke-linecap:square;"/>
    </g>
    <g id="line2d_31"/>
    <g id="text_23">
     <!-- X2rL41_post_raw_2 -->
     <g transform="translate(261.000625 318.255394)scale(0.08 -0.08)">
      <use xlink:href="#DejaVuSans-58"/>
      <use x="68.505859" xlink:href="#DejaVuSans-32"/>
      <use x="132.128906" xlink:href="#DejaVuSans-72"/>
      <use x="173.242188" xlink:href="#DejaVuSans-4c"/>
      <use x="228.955078" xlink:href="#DejaVuSans-34"/>
      <use x="292.578125" xlink:href="#DejaVuSans-31"/>
      <use x="356.201172" xlink:href="#DejaVuSans-5f"/>
      <use x="406.201172" xlink:href="#DejaVuSans-70"/>
      <use x="469.677734" xlink:href="#DejaVuSans-6f"/>
      <use x="530.859375" xlink:href="#DejaVuSans-73"/>
      <use x="582.958984" xlink:href="#DejaVuSans-74"/>
      <use x="622.167969" xlink:href="#DejaVuSans-5f"/>
      <use x="672.167969" xlink:href="#DejaVuSans-72"/>
      <use x="713.28125" xlink:href="#DejaVuSans-61"/>
      <use x="774.560547" xlink:href="#DejaVuSans-77"/>
      <use x="856.347656" xlink:href="#DejaVuSans-5f"/>
      <use x="906.347656" xlink:href="#DejaVuSans-32"/>
     </g>
    </g>
    <g id="line2d_32">
     <path d="M 457.165625 291.525394 
L 473.165625 291.525394 
" style="fill:none;stroke:#5cb85c;stroke-linecap:square;"/>
    </g>
    <g id="line2d_33"/>
    <g id="text_24">
     <!-- X2rL41_pre_raw_1 -->
     <g transform="translate(479.565625 294.325394)scale(0.08 -0.08)">
      <use xlink:href="#DejaVuSans-58"/>
      <use x="68.505859" xlink:href="#DejaVuSans-32"/>
      <use x="132.128906" xlink:href="#DejaVuSans-72"/>
      <use x="173.242188" xlink:href="#DejaVuSans-4c"/>
      <use x="228.955078" xlink:href="#DejaVuSans-34"/>
      <use x="292.578125" xlink:href="#DejaVuSans-31"/>
      <use x="356.201172" xlink:href="#DejaVuSans-5f"/>
      <use x="406.201172" xlink:href="#DejaVuSans-70"/>
      <use x="469.677734" xlink:href="#DejaVuSans-72"/>
      <use x="508.541016" xlink:href="#DejaVuSans-65"/>
      <use x="570.064453" xlink:href="#DejaVuSans-5f"/>
      <use x="620.064453" xlink:href="#DejaVuSans-72"/>
      <use x="661.177734" xlink:href="#DejaVuSans-61"/>
      <use x="722.457031" xlink:href="#DejaVuSans-77"/>
      <use x="804.244141" xlink:href="#DejaVuSans-5f"/>
      <use x="854.244141" xlink:href="#DejaVuSans-31"/>
     </g>
    </g>
    <g id="line2d_34">
     <path d="M 457.165625 303.490394 
L 473.165625 303.490394 
" style="fill:none;stroke:#5cb85c;stroke-linecap:square;"/>
    </g>
    <g id="line2d_35"/>
    <g id="text_25">
     <!-- X2rL41_pre_raw_2 -->
     <g transform="translate(479.565625 306.290394)scale(0.08 -0.08)">
      <use xlink:href="#DejaVuSans-58"/>
      <use x="68.505859" xlink:href="#DejaVuSans-32"/>
      <use x="132.128906" xlink:href="#DejaVuSans-72"/>
      <use x="173.242188" xlink:href="#DejaVuSans-4c"/>
      <use x="228.955078" xlink:href="#DejaVuSans-34"/>
      <use x="292.578125" xlink:href="#DejaVuSans-31"/>
      <use x="356.201172" xlink:href="#DejaVuSans-5f"/>
      <use x="406.201172" xlink:href="#DejaVuSans-70"/>
      <use x="469.677734" xlink:href="#DejaVuSans-72"/>
      <use x="508.541016" xlink:href="#DejaVuSans-65"/>
      <use x="570.064453" xlink:href="#DejaVuSans-5f"/>
      <use x="620.064453" xlink:href="#DejaVuSans-72"/>
      <use x="661.177734" xlink:href="#DejaVuSans-61"/>
      <use x="722.457031" xlink:href="#DejaVuSans-77"/>
      <use x="804.244141" xlink:href="#DejaVuSans-5f"/>
      <use x="854.244141" xlink:href="#DejaVuSans-32"/>
     </g>
    </g>
    <g id="line2d_36">
     <path d="M 671.563125 291.525394 
L 687.563125 291.525394 
" style="fill:none;stroke:#5cb85c;stroke-linecap:square;"/>
    </g>
    <g id="line2d_37"/>
    <g id="text_26">
     <!-- X2rL42_post_raw_1 -->
     <g transform="translate(693.963125 294.325394)scale(0.08 -0.08)">
      <use xlink:href="#DejaVuSans-58"/>
      <use x="68.505859" xlink:href="#DejaVuSans-32"/>
      <use x="132.128906" xlink:href="#DejaVuSans-72"/>
      <use x="173.242188" xlink:href="#DejaVuSans-4c"/>
      <use x="228.955078" xlink:href="#DejaVuSans-34"/>
      <use x="292.578125" xlink:href="#DejaVuSans-32"/>
      <use x="356.201172" xlink:href="#DejaVuSans-5f"/>
      <use x="406.201172" xlink:href="#DejaVuSans-70"/>
      <use x="469.677734" xlink:href="#DejaVuSans-6f"/>
      <use x="530.859375" xlink:href="#DejaVuSans-73"/>
      <use x="582.958984" xlink:href="#DejaVuSans-74"/>
      <use x="622.167969" xlink:href="#DejaVuSans-5f"/>
      <use x="672.167969" xlink:href="#DejaVuSans-72"/>
      <use x="713.28125" xlink:href="#DejaVuSans-61"/>
      <use x="774.560547" xlink:href="#DejaVuSans-77"/>
      <use x="856.347656" xlink:href="#DejaVuSans-5f"/>
      <use x="906.347656" xlink:href="#DejaVuSans-31"/>
     </g>
    </g>
    <g id="line2d_38">
     <path d="M 671.563125 303.490394 
L 687.563125 303.490394 
" style="fill:none;stroke:#5cb85c;stroke-linecap:square;"/>
    </g>
    <g id="line2d_39"/>
    <g id="text_27">
     <!-- X2rL42_post_raw_2 -->
     <g transform="translate(693.963125 306.290394)scale(0.08 -0.08)">
      <use xlink:href="#DejaVuSans-58"/>
      <use x="68.505859" xlink:href="#DejaVuSans-32"/>
      <use x="132.128906" xlink:href="#DejaVuSans-72"/>
      <use x="173.242188" xlink:href="#DejaVuSans-4c"/>
      <use x="228.955078" xlink:href="#DejaVuSans-34"/>
      <use x="292.578125" xlink:href="#DejaVuSans-32"/>
      <use x="356.201172" xlink:href="#DejaVuSans-5f"/>
      <use x="406.201172" xlink:href="#DejaVuSans-70"/>
      <use x="469.677734" xlink:href="#DejaVuSans-6f"/>
      <use x="530.859375" xlink:href="#DejaVuSans-73"/>
      <use x="582.958984" xlink:href="#DejaVuSans-74"/>
      <use x="622.167969" xlink:href="#DejaVuSans-5f"/>
      <use x="672.167969" xlink:href="#DejaVuSans-72"/>
      <use x="713.28125" xlink:href="#DejaVuSans-61"/>
      <use x="774.560547" xlink:href="#DejaVuSans-77"/>
      <use x="856.347656" xlink:href="#DejaVuSans-5f"/>
      <use x="906.347656" xlink:href="#DejaVuSans-32"/>
     </g>
    </g>
    <g id="line2d_40">
     <path d="M 890.128125 291.525394 
L 906.128125 291.525394 
" style="fill:none;stroke:#5cb85c;stroke-linecap:square;"/>
    </g>
    <g id="line2d_41"/>
    <g id="text_28">
     <!-- X2rL42_pre_raw_1 -->
     <g transform="translate(912.528125 294.325394)scale(0.08 -0.08)">
      <use xlink:href="#DejaVuSans-58"/>
      <use x="68.505859" xlink:href="#DejaVuSans-32"/>
      <use x="132.128906" xlink:href="#DejaVuSans-72"/>
      <use x="173.242188" xlink:href="#DejaVuSans-4c"/>
      <use x="228.955078" xlink:href="#DejaVuSans-34"/>
      <use x="292.578125" xlink:href="#DejaVuSans-32"/>
      <use x="356.201172" xlink:href="#DejaVuSans-5f"/>
      <use x="406.201172" xlink:href="#DejaVuSans-70"/>
      <use x="469.677734" xlink:href="#DejaVuSans-72"/>
      <use x="508.541016" xlink:href="#DejaVuSans-65"/>
      <use x="570.064453" xlink:href="#DejaVuSans-5f"/>
      <use x="620.064453" xlink:href="#DejaVuSans-72"/>
      <use x="661.177734" xlink:href="#DejaVuSans-61"/>
      <use x="722.457031" xlink:href="#DejaVuSans-77"/>
      <use x="804.244141" xlink:href="#DejaVuSans-5f"/>
      <use x="854.244141" xlink:href="#DejaVuSans-31"/>
     </g>
    </g>
    <g id="line2d_42">
     <path d="M 890.128125 303.490394 
L 906.128125 303.490394 
" style="fill:none;stroke:#5cb85c;stroke-linecap:square;"/>
    </g>
    <g id="line2d_43"/>
    <g id="text_29">
     <!-- X2rL42_pre_raw_2 -->
     <g transform="translate(912.528125 306.290394)scale(0.08 -0.08)">
      <use xlink:href="#DejaVuSans-58"/>
      <use x="68.505859" xlink:href="#DejaVuSans-32"/>
      <use x="132.128906" xlink:href="#DejaVuSans-72"/>
      <use x="173.242188" xlink:href="#DejaVuSans-4c"/>
      <use x="228.955078" xlink:href="#DejaVuSans-34"/>
      <use x="292.578125" xlink:href="#DejaVuSans-32"/>
      <use x="356.201172" xlink:href="#DejaVuSans-5f"/>
      <use x="406.201172" xlink:href="#DejaVuSans-70"/>
      <use x="469.677734" xlink:href="#DejaVuSans-72"/>
      <use x="508.541016" xlink:href="#DejaVuSans-65"/>
      <use x="570.064453" xlink:href="#DejaVuSans-5f"/>
      <use x="620.064453" xlink:href="#DejaVuSans-72"/>
      <use x="661.177734" xlink:href="#DejaVuSans-61"/>
      <use x="722.457031" xlink:href="#DejaVuSans-77"/>
      <use x="804.244141" xlink:href="#DejaVuSans-5f"/>
      <use x="854.244141" xlink:href="#DejaVuSans-32"/>
     </g>
    </g>
   </g>
  </g>
 </g>
 <defs>
  <clipPath id="p57ce3156f3">
   <rect height="242.5072" width="960.19" x="32.968125" y="31.48286"/>
  </clipPath>
 </defs>
</svg>
