<?xml version="1.0" encoding="utf-8" standalone="no"?>
<!DOCTYPE svg PUBLIC "-//W3C//DTD SVG 1.1//EN"
  "http://www.w3.org/Graphics/SVG/1.1/DTD/svg11.dtd">
<svg height="330.541644pt" version="1.1" viewBox="0 0 1000.280625 330.541644" width="1000.280625pt" xmlns="http://www.w3.org/2000/svg" xmlns:xlink="http://www.w3.org/1999/xlink">
 <metadata>
  <rdf:RDF xmlns:cc="http://creativecommons.org/ns#" xmlns:dc="http://purl.org/dc/elements/1.1/" xmlns:rdf="http://www.w3.org/1999/02/22-rdf-syntax-ns#">
   <cc:Work>
    <dc:type rdf:resource="http://purl.org/dc/dcmitype/StillImage"/>
    <dc:date>2022-05-31T19:37:07.747825</dc:date>
    <dc:format>image/svg+xml</dc:format>
    <dc:creator>
     <cc:Agent>
      <dc:title>Matplotlib v3.4.1, https://matplotlib.org/</dc:title>
     </cc:Agent>
    </dc:creator>
   </cc:Work>
  </rdf:RDF>
 </metadata>
 <defs>
  <style type="text/css">*{stroke-linecap:butt;stroke-linejoin:round;}</style>
 </defs>
 <g id="figure_1">
  <g id="axes_1">
   <g id="patch_1">
    <path d="M 40.600625 273.99006 
L 985.445625 273.99006 
L 985.445625 31.48286 
L 40.600625 31.48286 
z
" style="fill:#ffffff;"/>
   </g>
   <g id="matplotlib.axis_1">
    <g id="xtick_1">
     <g id="text_1">
      <!-- 0 -->
      <g transform="translate(38.055625 287.06881)scale(0.08 -0.08)">
       <defs>
        <path d="M 2034 4250 
Q 1547 4250 1301 3770 
Q 1056 3291 1056 2328 
Q 1056 1369 1301 889 
Q 1547 409 2034 409 
Q 2525 409 2770 889 
Q 3016 1369 3016 2328 
Q 3016 3291 2770 3770 
Q 2525 4250 2034 4250 
z
M 2034 4750 
Q 2819 4750 3233 4129 
Q 3647 3509 3647 2328 
Q 3647 1150 3233 529 
Q 2819 -91 2034 -91 
Q 1250 -91 836 529 
Q 422 1150 422 2328 
Q 422 3509 836 4129 
Q 1250 4750 2034 4750 
z
" id="DejaVuSans-30" transform="scale(0.015625)"/>
       </defs>
       <use xlink:href="#DejaVuSans-30"/>
      </g>
     </g>
    </g>
    <g id="xtick_2">
     <g id="text_2">
      <!-- 20 -->
      <g transform="translate(224.479625 287.06881)scale(0.08 -0.08)">
       <defs>
        <path d="M 1228 531 
L 3431 531 
L 3431 0 
L 469 0 
L 469 531 
Q 828 903 1448 1529 
Q 2069 2156 2228 2338 
Q 2531 2678 2651 2914 
Q 2772 3150 2772 3378 
Q 2772 3750 2511 3984 
Q 2250 4219 1831 4219 
Q 1534 4219 1204 4116 
Q 875 4013 500 3803 
L 500 4441 
Q 881 4594 1212 4672 
Q 1544 4750 1819 4750 
Q 2544 4750 2975 4387 
Q 3406 4025 3406 3419 
Q 3406 3131 3298 2873 
Q 3191 2616 2906 2266 
Q 2828 2175 2409 1742 
Q 1991 1309 1228 531 
z
" id="DejaVuSans-32" transform="scale(0.015625)"/>
       </defs>
       <use xlink:href="#DejaVuSans-32"/>
       <use x="63.623047" xlink:href="#DejaVuSans-30"/>
      </g>
     </g>
    </g>
    <g id="xtick_3">
     <g id="text_3">
      <!-- 40 -->
      <g transform="translate(413.448625 287.06881)scale(0.08 -0.08)">
       <defs>
        <path d="M 2419 4116 
L 825 1625 
L 2419 1625 
L 2419 4116 
z
M 2253 4666 
L 3047 4666 
L 3047 1625 
L 3713 1625 
L 3713 1100 
L 3047 1100 
L 3047 0 
L 2419 0 
L 2419 1100 
L 313 1100 
L 313 1709 
L 2253 4666 
z
" id="DejaVuSans-34" transform="scale(0.015625)"/>
       </defs>
       <use xlink:href="#DejaVuSans-34"/>
       <use x="63.623047" xlink:href="#DejaVuSans-30"/>
      </g>
     </g>
    </g>
    <g id="xtick_4">
     <g id="text_4">
      <!-- 60 -->
      <g transform="translate(602.417625 287.06881)scale(0.08 -0.08)">
       <defs>
        <path d="M 2113 2584 
Q 1688 2584 1439 2293 
Q 1191 2003 1191 1497 
Q 1191 994 1439 701 
Q 1688 409 2113 409 
Q 2538 409 2786 701 
Q 3034 994 3034 1497 
Q 3034 2003 2786 2293 
Q 2538 2584 2113 2584 
z
M 3366 4563 
L 3366 3988 
Q 3128 4100 2886 4159 
Q 2644 4219 2406 4219 
Q 1781 4219 1451 3797 
Q 1122 3375 1075 2522 
Q 1259 2794 1537 2939 
Q 1816 3084 2150 3084 
Q 2853 3084 3261 2657 
Q 3669 2231 3669 1497 
Q 3669 778 3244 343 
Q 2819 -91 2113 -91 
Q 1303 -91 875 529 
Q 447 1150 447 2328 
Q 447 3434 972 4092 
Q 1497 4750 2381 4750 
Q 2619 4750 2861 4703 
Q 3103 4656 3366 4563 
z
" id="DejaVuSans-36" transform="scale(0.015625)"/>
       </defs>
       <use xlink:href="#DejaVuSans-36"/>
       <use x="63.623047" xlink:href="#DejaVuSans-30"/>
      </g>
     </g>
    </g>
    <g id="xtick_5">
     <g id="text_5">
      <!-- 80 -->
      <g transform="translate(791.386625 287.06881)scale(0.08 -0.08)">
       <defs>
        <path d="M 2034 2216 
Q 1584 2216 1326 1975 
Q 1069 1734 1069 1313 
Q 1069 891 1326 650 
Q 1584 409 2034 409 
Q 2484 409 2743 651 
Q 3003 894 3003 1313 
Q 3003 1734 2745 1975 
Q 2488 2216 2034 2216 
z
M 1403 2484 
Q 997 2584 770 2862 
Q 544 3141 544 3541 
Q 544 4100 942 4425 
Q 1341 4750 2034 4750 
Q 2731 4750 3128 4425 
Q 3525 4100 3525 3541 
Q 3525 3141 3298 2862 
Q 3072 2584 2669 2484 
Q 3125 2378 3379 2068 
Q 3634 1759 3634 1313 
Q 3634 634 3220 271 
Q 2806 -91 2034 -91 
Q 1263 -91 848 271 
Q 434 634 434 1313 
Q 434 1759 690 2068 
Q 947 2378 1403 2484 
z
M 1172 3481 
Q 1172 3119 1398 2916 
Q 1625 2713 2034 2713 
Q 2441 2713 2670 2916 
Q 2900 3119 2900 3481 
Q 2900 3844 2670 4047 
Q 2441 4250 2034 4250 
Q 1625 4250 1398 4047 
Q 1172 3844 1172 3481 
z
" id="DejaVuSans-38" transform="scale(0.015625)"/>
       </defs>
       <use xlink:href="#DejaVuSans-38"/>
       <use x="63.623047" xlink:href="#DejaVuSans-30"/>
      </g>
     </g>
    </g>
    <g id="xtick_6">
     <g id="text_6">
      <!-- 100 -->
      <g transform="translate(977.810625 287.06881)scale(0.08 -0.08)">
       <defs>
        <path d="M 794 531 
L 1825 531 
L 1825 4091 
L 703 3866 
L 703 4441 
L 1819 4666 
L 2450 4666 
L 2450 531 
L 3481 531 
L 3481 0 
L 794 0 
L 794 531 
z
" id="DejaVuSans-31" transform="scale(0.015625)"/>
       </defs>
       <use xlink:href="#DejaVuSans-31"/>
       <use x="63.623047" xlink:href="#DejaVuSans-30"/>
       <use x="127.246094" xlink:href="#DejaVuSans-30"/>
      </g>
     </g>
    </g>
    <g id="text_7">
     <!-- % GC -->
     <g transform="translate(499.317656 300.330997)scale(0.1 -0.1)">
      <defs>
       <path d="M 4653 2053 
Q 4381 2053 4226 1822 
Q 4072 1591 4072 1178 
Q 4072 772 4226 539 
Q 4381 306 4653 306 
Q 4919 306 5073 539 
Q 5228 772 5228 1178 
Q 5228 1588 5073 1820 
Q 4919 2053 4653 2053 
z
M 4653 2450 
Q 5147 2450 5437 2106 
Q 5728 1763 5728 1178 
Q 5728 594 5436 251 
Q 5144 -91 4653 -91 
Q 4153 -91 3862 251 
Q 3572 594 3572 1178 
Q 3572 1766 3864 2108 
Q 4156 2450 4653 2450 
z
M 1428 4353 
Q 1159 4353 1004 4120 
Q 850 3888 850 3481 
Q 850 3069 1003 2837 
Q 1156 2606 1428 2606 
Q 1700 2606 1854 2837 
Q 2009 3069 2009 3481 
Q 2009 3884 1853 4118 
Q 1697 4353 1428 4353 
z
M 4250 4750 
L 4750 4750 
L 1831 -91 
L 1331 -91 
L 4250 4750 
z
M 1428 4750 
Q 1922 4750 2215 4408 
Q 2509 4066 2509 3481 
Q 2509 2891 2217 2550 
Q 1925 2209 1428 2209 
Q 931 2209 642 2551 
Q 353 2894 353 3481 
Q 353 4063 643 4406 
Q 934 4750 1428 4750 
z
" id="DejaVuSans-25" transform="scale(0.015625)"/>
       <path id="DejaVuSans-20" transform="scale(0.015625)"/>
       <path d="M 3809 666 
L 3809 1919 
L 2778 1919 
L 2778 2438 
L 4434 2438 
L 4434 434 
Q 4069 175 3628 42 
Q 3188 -91 2688 -91 
Q 1594 -91 976 548 
Q 359 1188 359 2328 
Q 359 3472 976 4111 
Q 1594 4750 2688 4750 
Q 3144 4750 3555 4637 
Q 3966 4525 4313 4306 
L 4313 3634 
Q 3963 3931 3569 4081 
Q 3175 4231 2741 4231 
Q 1884 4231 1454 3753 
Q 1025 3275 1025 2328 
Q 1025 1384 1454 906 
Q 1884 428 2741 428 
Q 3075 428 3337 486 
Q 3600 544 3809 666 
z
" id="DejaVuSans-47" transform="scale(0.015625)"/>
       <path d="M 4122 4306 
L 4122 3641 
Q 3803 3938 3442 4084 
Q 3081 4231 2675 4231 
Q 1875 4231 1450 3742 
Q 1025 3253 1025 2328 
Q 1025 1406 1450 917 
Q 1875 428 2675 428 
Q 3081 428 3442 575 
Q 3803 722 4122 1019 
L 4122 359 
Q 3791 134 3420 21 
Q 3050 -91 2638 -91 
Q 1578 -91 968 557 
Q 359 1206 359 2328 
Q 359 3453 968 4101 
Q 1578 4750 2638 4750 
Q 3056 4750 3426 4639 
Q 3797 4528 4122 4306 
z
" id="DejaVuSans-43" transform="scale(0.015625)"/>
      </defs>
      <use xlink:href="#DejaVuSans-25"/>
      <use x="95.019531" xlink:href="#DejaVuSans-20"/>
      <use x="126.806641" xlink:href="#DejaVuSans-47"/>
      <use x="204.296875" xlink:href="#DejaVuSans-43"/>
     </g>
    </g>
   </g>
   <g id="matplotlib.axis_2">
    <g id="ytick_1">
     <g id="line2d_1">
      <path clip-path="url(#pbe966f7c08)" d="M 40.600625 273.99006 
L 985.445625 273.99006 
" style="fill:none;stroke:#dedede;stroke-linecap:square;"/>
     </g>
     <g id="text_8">
      <!-- 0.0 -->
      <g transform="translate(20.878125 277.029435)scale(0.08 -0.08)">
       <defs>
        <path d="M 684 794 
L 1344 794 
L 1344 0 
L 684 0 
L 684 794 
z
" id="DejaVuSans-2e" transform="scale(0.015625)"/>
       </defs>
       <use xlink:href="#DejaVuSans-30"/>
       <use x="63.623047" xlink:href="#DejaVuSans-2e"/>
       <use x="95.410156" xlink:href="#DejaVuSans-30"/>
      </g>
     </g>
    </g>
    <g id="ytick_2">
     <g id="line2d_2">
      <path clip-path="url(#pbe966f7c08)" d="M 40.600625 234.479253 
L 985.445625 234.479253 
" style="fill:none;stroke:#dedede;stroke-linecap:square;"/>
     </g>
     <g id="text_9">
      <!-- 0.2 -->
      <g transform="translate(20.878125 237.518628)scale(0.08 -0.08)">
       <use xlink:href="#DejaVuSans-30"/>
       <use x="63.623047" xlink:href="#DejaVuSans-2e"/>
       <use x="95.410156" xlink:href="#DejaVuSans-32"/>
      </g>
     </g>
    </g>
    <g id="ytick_3">
     <g id="line2d_3">
      <path clip-path="url(#pbe966f7c08)" d="M 40.600625 194.968446 
L 985.445625 194.968446 
" style="fill:none;stroke:#dedede;stroke-linecap:square;"/>
     </g>
     <g id="text_10">
      <!-- 0.4 -->
      <g transform="translate(20.878125 198.007821)scale(0.08 -0.08)">
       <use xlink:href="#DejaVuSans-30"/>
       <use x="63.623047" xlink:href="#DejaVuSans-2e"/>
       <use x="95.410156" xlink:href="#DejaVuSans-34"/>
      </g>
     </g>
    </g>
    <g id="ytick_4">
     <g id="line2d_4">
      <path clip-path="url(#pbe966f7c08)" d="M 40.600625 155.457638 
L 985.445625 155.457638 
" style="fill:none;stroke:#dedede;stroke-linecap:square;"/>
     </g>
     <g id="text_11">
      <!-- 0.6 -->
      <g transform="translate(20.878125 158.497013)scale(0.08 -0.08)">
       <use xlink:href="#DejaVuSans-30"/>
       <use x="63.623047" xlink:href="#DejaVuSans-2e"/>
       <use x="95.410156" xlink:href="#DejaVuSans-36"/>
      </g>
     </g>
    </g>
    <g id="ytick_5">
     <g id="line2d_5">
      <path clip-path="url(#pbe966f7c08)" d="M 40.600625 115.946831 
L 985.445625 115.946831 
" style="fill:none;stroke:#dedede;stroke-linecap:square;"/>
     </g>
     <g id="text_12">
      <!-- 0.8 -->
      <g transform="translate(20.878125 118.986206)scale(0.08 -0.08)">
       <use xlink:href="#DejaVuSans-30"/>
       <use x="63.623047" xlink:href="#DejaVuSans-2e"/>
       <use x="95.410156" xlink:href="#DejaVuSans-38"/>
      </g>
     </g>
    </g>
    <g id="ytick_6">
     <g id="line2d_6">
      <path clip-path="url(#pbe966f7c08)" d="M 40.600625 76.436024 
L 985.445625 76.436024 
" style="fill:none;stroke:#dedede;stroke-linecap:square;"/>
     </g>
     <g id="text_13">
      <!-- 1.0 -->
      <g transform="translate(20.878125 79.475399)scale(0.08 -0.08)">
       <use xlink:href="#DejaVuSans-31"/>
       <use x="63.623047" xlink:href="#DejaVuSans-2e"/>
       <use x="95.410156" xlink:href="#DejaVuSans-30"/>
      </g>
     </g>
    </g>
    <g id="ytick_7">
     <g id="line2d_7">
      <path clip-path="url(#pbe966f7c08)" d="M 40.600625 36.925217 
L 985.445625 36.925217 
" style="fill:none;stroke:#dedede;stroke-linecap:square;"/>
     </g>
     <g id="text_14">
      <!-- 1.2 -->
      <g transform="translate(20.878125 39.964592)scale(0.08 -0.08)">
       <use xlink:href="#DejaVuSans-31"/>
       <use x="63.623047" xlink:href="#DejaVuSans-2e"/>
       <use x="95.410156" xlink:href="#DejaVuSans-32"/>
      </g>
     </g>
    </g>
    <g id="text_15">
     <!-- Count -->
     <g transform="translate(14.798438 167.584897)rotate(-90)scale(0.1 -0.1)">
      <defs>
       <path d="M 1959 3097 
Q 1497 3097 1228 2736 
Q 959 2375 959 1747 
Q 959 1119 1226 758 
Q 1494 397 1959 397 
Q 2419 397 2687 759 
Q 2956 1122 2956 1747 
Q 2956 2369 2687 2733 
Q 2419 3097 1959 3097 
z
M 1959 3584 
Q 2709 3584 3137 3096 
Q 3566 2609 3566 1747 
Q 3566 888 3137 398 
Q 2709 -91 1959 -91 
Q 1206 -91 779 398 
Q 353 888 353 1747 
Q 353 2609 779 3096 
Q 1206 3584 1959 3584 
z
" id="DejaVuSans-6f" transform="scale(0.015625)"/>
       <path d="M 544 1381 
L 544 3500 
L 1119 3500 
L 1119 1403 
Q 1119 906 1312 657 
Q 1506 409 1894 409 
Q 2359 409 2629 706 
Q 2900 1003 2900 1516 
L 2900 3500 
L 3475 3500 
L 3475 0 
L 2900 0 
L 2900 538 
Q 2691 219 2414 64 
Q 2138 -91 1772 -91 
Q 1169 -91 856 284 
Q 544 659 544 1381 
z
M 1991 3584 
L 1991 3584 
z
" id="DejaVuSans-75" transform="scale(0.015625)"/>
       <path d="M 3513 2113 
L 3513 0 
L 2938 0 
L 2938 2094 
Q 2938 2591 2744 2837 
Q 2550 3084 2163 3084 
Q 1697 3084 1428 2787 
Q 1159 2491 1159 1978 
L 1159 0 
L 581 0 
L 581 3500 
L 1159 3500 
L 1159 2956 
Q 1366 3272 1645 3428 
Q 1925 3584 2291 3584 
Q 2894 3584 3203 3211 
Q 3513 2838 3513 2113 
z
" id="DejaVuSans-6e" transform="scale(0.015625)"/>
       <path d="M 1172 4494 
L 1172 3500 
L 2356 3500 
L 2356 3053 
L 1172 3053 
L 1172 1153 
Q 1172 725 1289 603 
Q 1406 481 1766 481 
L 2356 481 
L 2356 0 
L 1766 0 
Q 1100 0 847 248 
Q 594 497 594 1153 
L 594 3053 
L 172 3053 
L 172 3500 
L 594 3500 
L 594 4494 
L 1172 4494 
z
" id="DejaVuSans-74" transform="scale(0.015625)"/>
      </defs>
      <use xlink:href="#DejaVuSans-43"/>
      <use x="69.824219" xlink:href="#DejaVuSans-6f"/>
      <use x="131.005859" xlink:href="#DejaVuSans-75"/>
      <use x="194.384766" xlink:href="#DejaVuSans-6e"/>
      <use x="257.763672" xlink:href="#DejaVuSans-74"/>
     </g>
    </g>
    <g id="text_16">
     <!-- 1e6 -->
     <g transform="translate(40.600625 28.48286)scale(0.1 -0.1)">
      <defs>
       <path d="M 3597 1894 
L 3597 1613 
L 953 1613 
Q 991 1019 1311 708 
Q 1631 397 2203 397 
Q 2534 397 2845 478 
Q 3156 559 3463 722 
L 3463 178 
Q 3153 47 2828 -22 
Q 2503 -91 2169 -91 
Q 1331 -91 842 396 
Q 353 884 353 1716 
Q 353 2575 817 3079 
Q 1281 3584 2069 3584 
Q 2775 3584 3186 3129 
Q 3597 2675 3597 1894 
z
M 3022 2063 
Q 3016 2534 2758 2815 
Q 2500 3097 2075 3097 
Q 1594 3097 1305 2825 
Q 1016 2553 972 2059 
L 3022 2063 
z
" id="DejaVuSans-65" transform="scale(0.015625)"/>
      </defs>
      <use xlink:href="#DejaVuSans-31"/>
      <use x="63.623047" xlink:href="#DejaVuSans-65"/>
      <use x="125.146484" xlink:href="#DejaVuSans-36"/>
     </g>
    </g>
   </g>
   <g id="line2d_8">
    <path clip-path="url(#pbe966f7c08)" d="M 40.600625 273.99006 
L 50.049075 273.99006 
L 59.497525 273.99006 
L 68.945975 273.99006 
L 78.394425 273.989862 
L 87.842875 273.989467 
L 97.291325 273.989369 
L 106.739775 273.989665 
L 116.188225 273.98927 
L 125.636675 273.988973 
L 135.085125 273.989171 
L 144.533575 273.988381 
L 153.982025 273.986405 
L 163.430475 273.983936 
L 172.878925 273.978898 
L 182.327375 273.967144 
L 191.775825 273.958451 
L 201.224275 273.949166 
L 210.672725 273.928917 
L 220.121175 273.907186 
L 229.569625 273.880121 
L 239.018075 273.831622 
L 248.466525 273.727807 
L 257.914975 273.49173 
L 267.363425 272.975818 
L 276.811875 271.683222 
L 286.260325 263.893468 
L 295.708775 222.923329 
L 305.157225 216.351003 
L 314.605675 257.417548 
L 324.054125 272.406269 
L 333.502575 273.927435 
L 342.951025 273.983244 
L 352.399475 273.988875 
L 361.847925 273.989566 
L 371.296375 273.989764 
L 380.744825 273.989665 
L 390.193275 273.989862 
L 399.641725 273.989862 
L 409.090175 273.988776 
L 418.538625 273.988875 
L 427.987075 273.989764 
L 437.435525 273.989566 
L 446.883975 273.989665 
L 456.332425 273.989566 
L 465.780875 273.989171 
L 475.229325 273.988973 
L 484.677775 273.988776 
L 494.126225 273.988381 
L 503.574675 273.988776 
L 513.023125 273.989467 
L 522.471575 273.988973 
L 531.920025 273.987591 
L 541.368475 273.988183 
L 550.816925 273.989862 
L 560.265375 273.989961 
L 569.713825 273.989961 
L 579.162275 273.99006 
L 588.610725 273.99006 
L 598.059175 273.99006 
L 607.507625 273.99006 
L 616.956075 273.99006 
L 626.404525 273.99006 
L 635.852975 273.99006 
L 645.301425 273.99006 
L 654.749875 273.99006 
L 664.198325 273.99006 
L 673.646775 273.99006 
L 683.095225 273.99006 
L 692.543675 273.99006 
L 701.992125 273.99006 
L 711.440575 273.99006 
L 720.889025 273.99006 
L 730.337475 273.99006 
L 739.785925 273.99006 
L 749.234375 273.99006 
L 758.682825 273.99006 
L 768.131275 273.99006 
L 777.579725 273.99006 
L 787.028175 273.99006 
L 796.476625 273.99006 
L 805.925075 273.99006 
L 815.373525 273.989961 
L 824.821975 273.989961 
L 834.270425 273.99006 
L 843.718875 273.99006 
L 853.167325 273.99006 
L 862.615775 273.99006 
L 872.064225 273.99006 
L 881.512675 273.99006 
L 890.961125 273.99006 
L 900.409575 273.99006 
L 909.858025 273.99006 
L 919.306475 273.989862 
L 928.754925 273.989665 
L 938.203375 273.989862 
L 947.651825 273.989764 
L 957.100275 273.989566 
L 966.548725 273.989072 
L 975.997175 273.988776 
L 985.445625 273.984726 
" style="fill:none;stroke:#d9534f;stroke-linecap:square;"/>
   </g>
   <g id="line2d_9">
    <path clip-path="url(#pbe966f7c08)" d="M 40.600625 273.99006 
L 50.049075 273.99006 
L 59.497525 273.99006 
L 68.945975 273.989961 
L 78.394425 273.989961 
L 87.842875 273.99006 
L 97.291325 273.989961 
L 106.739775 273.989764 
L 116.188225 273.989862 
L 125.636675 273.989961 
L 135.085125 273.989764 
L 144.533575 273.989764 
L 153.982025 273.989764 
L 163.430475 273.98927 
L 172.878925 273.988776 
L 182.327375 273.988578 
L 191.775825 273.987195 
L 201.224275 273.9868 
L 210.672725 273.986998 
L 220.121175 273.985911 
L 229.569625 273.984035 
L 239.018075 273.982158 
L 248.466525 273.978799 
L 257.914975 273.973861 
L 267.363425 273.970996 
L 276.811875 273.968625 
L 286.260325 273.96665 
L 295.708775 273.959735 
L 305.157225 273.949858 
L 314.605675 273.936819 
L 324.054125 273.9141 
L 333.502575 273.886542 
L 342.951025 273.83498 
L 352.399475 273.73403 
L 361.847925 273.542995 
L 371.296375 272.908748 
L 380.744825 265.274865 
L 390.193275 214.031719 
L 399.641725 214.020261 
L 409.090175 265.642513 
L 418.538625 273.449256 
L 427.987075 273.789543 
L 437.435525 273.863033 
L 446.883975 273.898197 
L 456.332425 273.913705 
L 465.780875 273.920817 
L 475.229325 273.930596 
L 484.677775 273.939782 
L 494.126225 273.943832 
L 503.574675 273.944623 
L 513.023125 273.947191 
L 522.471575 273.952821 
L 531.920025 273.958451 
L 541.368475 273.960229 
L 550.816925 273.961118 
L 560.265375 273.962896 
L 569.713825 273.964971 
L 579.162275 273.969218 
L 588.610725 273.972181 
L 598.059175 273.972675 
L 607.507625 273.97307 
L 616.956075 273.974354 
L 626.404525 273.975342 
L 635.852975 273.974651 
L 645.301425 273.976725 
L 654.749875 273.978306 
L 664.198325 273.978503 
L 673.646775 273.979985 
L 683.095225 273.981368 
L 692.543675 273.98117 
L 701.992125 273.981071 
L 711.440575 273.980676 
L 720.889025 273.98117 
L 730.337475 273.984133 
L 739.785925 273.983837 
L 749.234375 273.98196 
L 758.682825 273.980874 
L 768.131275 273.982158 
L 777.579725 273.983837 
L 787.028175 273.983639 
L 796.476625 273.984528 
L 805.925075 273.984825 
L 815.373525 273.98443 
L 824.821975 273.984627 
L 834.270425 273.98443 
L 843.718875 273.98522 
L 853.167325 273.984825 
L 862.615775 273.984331 
L 872.064225 273.985319 
L 881.512675 273.985516 
L 890.961125 273.98522 
L 900.409575 273.984035 
L 909.858025 273.984331 
L 919.306475 273.985714 
L 928.754925 273.985022 
L 938.203375 273.983639 
L 947.651825 273.983047 
L 957.100275 273.981763 
L 966.548725 273.98117 
L 975.997175 273.978602 
L 985.445625 273.781344 
" style="fill:none;stroke:#d9534f;stroke-linecap:square;"/>
   </g>
   <g id="line2d_10">
    <path clip-path="url(#pbe966f7c08)" d="M 40.600625 273.99006 
L 50.049075 273.99006 
L 59.497525 273.99006 
L 68.945975 273.99006 
L 78.394425 273.989961 
L 87.842875 273.989961 
L 97.291325 273.99006 
L 106.739775 273.989961 
L 116.188225 273.989862 
L 125.636675 273.989862 
L 135.085125 273.989665 
L 144.533575 273.988875 
L 153.982025 273.987492 
L 163.430475 273.985516 
L 172.878925 273.98117 
L 182.327375 273.976528 
L 191.775825 273.971589 
L 201.224275 273.967045 
L 210.672725 273.961217 
L 220.121175 273.951241 
L 229.569625 273.942845 
L 239.018075 273.932868 
L 248.466525 273.90442 
L 257.914975 273.831918 
L 267.363425 273.402436 
L 276.811875 272.804044 
L 286.260325 250.773115 
L 295.708775 250.257992 
L 305.157225 272.748927 
L 314.605675 273.965168 
L 324.054125 273.987986 
L 333.502575 273.989566 
L 342.951025 273.989764 
L 352.399475 273.989961 
L 361.847925 273.989961 
L 371.296375 273.989961 
L 380.744825 273.99006 
L 390.193275 273.99006 
L 399.641725 273.99006 
L 409.090175 273.99006 
L 418.538625 273.99006 
L 427.987075 273.989961 
L 437.435525 273.989961 
L 446.883975 273.99006 
L 456.332425 273.989764 
L 465.780875 273.989764 
L 475.229325 273.989862 
L 484.677775 273.989862 
L 494.126225 273.989961 
L 503.574675 273.989961 
L 513.023125 273.99006 
L 522.471575 273.99006 
L 531.920025 273.99006 
L 541.368475 273.99006 
L 550.816925 273.99006 
L 560.265375 273.99006 
L 569.713825 273.989961 
L 579.162275 273.989961 
L 588.610725 273.99006 
L 598.059175 273.99006 
L 607.507625 273.99006 
L 616.956075 273.99006 
L 626.404525 273.99006 
L 635.852975 273.99006 
L 645.301425 273.99006 
L 654.749875 273.99006 
L 664.198325 273.99006 
L 673.646775 273.99006 
L 683.095225 273.99006 
L 692.543675 273.989961 
L 701.992125 273.989961 
L 711.440575 273.99006 
L 720.889025 273.99006 
L 730.337475 273.99006 
L 739.785925 273.99006 
L 749.234375 273.989961 
L 758.682825 273.989961 
L 768.131275 273.99006 
L 777.579725 273.99006 
L 787.028175 273.99006 
L 796.476625 273.99006 
L 805.925075 273.99006 
L 815.373525 273.99006 
L 824.821975 273.99006 
L 834.270425 273.99006 
L 843.718875 273.99006 
L 853.167325 273.99006 
L 862.615775 273.99006 
L 872.064225 273.99006 
L 881.512675 273.99006 
L 890.961125 273.99006 
L 900.409575 273.99006 
L 909.858025 273.99006 
L 919.306475 273.99006 
L 928.754925 273.99006 
L 938.203375 273.99006 
L 947.651825 273.99006 
L 957.100275 273.99006 
L 966.548725 273.989665 
L 975.997175 273.989369 
L 985.445625 273.987986 
" style="fill:none;stroke:#d9534f;stroke-linecap:square;"/>
   </g>
   <g id="line2d_11">
    <path clip-path="url(#pbe966f7c08)" d="M 40.600625 273.99006 
L 50.049075 273.99006 
L 59.497525 273.99006 
L 68.945975 273.99006 
L 78.394425 273.99006 
L 87.842875 273.99006 
L 97.291325 273.99006 
L 106.739775 273.99006 
L 116.188225 273.99006 
L 125.636675 273.989961 
L 135.085125 273.989961 
L 144.533575 273.989961 
L 153.982025 273.989764 
L 163.430475 273.989665 
L 172.878925 273.989467 
L 182.327375 273.989467 
L 191.775825 273.989072 
L 201.224275 273.988578 
L 210.672725 273.98848 
L 220.121175 273.987887 
L 229.569625 273.987294 
L 239.018075 273.986899 
L 248.466525 273.985813 
L 257.914975 273.983936 
L 267.363425 273.982849 
L 276.811875 273.982454 
L 286.260325 273.981565 
L 295.708775 273.979293 
L 305.157225 273.976429 
L 314.605675 273.971589 
L 324.054125 273.965465 
L 333.502575 273.957365 
L 342.951025 273.946894 
L 352.399475 273.922694 
L 361.847925 273.873306 
L 371.296375 273.770676 
L 380.744825 272.994091 
L 390.193275 249.87049 
L 399.641725 250.278736 
L 409.090175 273.499632 
L 418.538625 273.914989 
L 427.987075 273.943931 
L 437.435525 273.955488 
L 446.883975 273.962007 
L 456.332425 273.965761 
L 465.780875 273.970601 
L 475.229325 273.973861 
L 484.677775 273.975046 
L 494.126225 273.975935 
L 503.574675 273.978207 
L 513.023125 273.979293 
L 522.471575 273.980281 
L 531.920025 273.982158 
L 541.368475 273.981269 
L 550.816925 273.980775 
L 560.265375 273.982948 
L 569.713825 273.983837 
L 579.162275 273.98443 
L 588.610725 273.985714 
L 598.059175 273.986306 
L 607.507625 273.986702 
L 616.956075 273.986405 
L 626.404525 273.986109 
L 635.852975 273.985911 
L 645.301425 273.986405 
L 654.749875 273.986504 
L 664.198325 273.987393 
L 673.646775 273.988381 
L 683.095225 273.988183 
L 692.543675 273.988282 
L 701.992125 273.988578 
L 711.440575 273.988381 
L 720.889025 273.987689 
L 730.337475 273.98848 
L 739.785925 273.988973 
L 749.234375 273.988677 
L 758.682825 273.988875 
L 768.131275 273.989171 
L 777.579725 273.989566 
L 787.028175 273.989171 
L 796.476625 273.988875 
L 805.925075 273.988875 
L 815.373525 273.988776 
L 824.821975 273.98848 
L 834.270425 273.988381 
L 843.718875 273.988677 
L 853.167325 273.98927 
L 862.615775 273.989764 
L 872.064225 273.989566 
L 881.512675 273.988776 
L 890.961125 273.988282 
L 900.409575 273.988776 
L 909.858025 273.98927 
L 919.306475 273.989566 
L 928.754925 273.98927 
L 938.203375 273.988875 
L 947.651825 273.989072 
L 957.100275 273.988776 
L 966.548725 273.988578 
L 975.997175 273.987195 
L 985.445625 273.914002 
" style="fill:none;stroke:#d9534f;stroke-linecap:square;"/>
   </g>
   <g id="line2d_12">
    <path clip-path="url(#pbe966f7c08)" d="M 40.600625 273.99006 
L 50.049075 273.99006 
L 59.497525 273.99006 
L 68.945975 273.989961 
L 78.394425 273.989566 
L 87.842875 273.989072 
L 97.291325 273.988875 
L 106.739775 273.988084 
L 116.188225 273.986306 
L 125.636675 273.984528 
L 135.085125 273.983047 
L 144.533575 273.976824 
L 153.982025 273.962501 
L 163.430475 273.934053 
L 172.878925 273.894938 
L 182.327375 273.848315 
L 191.775825 273.792704 
L 201.224275 273.734326 
L 210.672725 273.664096 
L 220.121175 273.571542 
L 229.569625 273.466739 
L 239.018075 273.274322 
L 248.466525 272.934331 
L 257.914975 272.107963 
L 267.363425 267.810372 
L 276.811875 260.02536 
L 286.260325 107.942929 
L 295.708775 44.386635 
L 305.157225 178.981286 
L 314.605675 249.377 
L 324.054125 271.699223 
L 333.502575 273.879825 
L 342.951025 273.956179 
L 352.399475 273.968922 
L 361.847925 273.968724 
L 371.296375 273.973465 
L 380.744825 273.987195 
L 390.193275 273.988183 
L 399.641725 273.988776 
L 409.090175 273.98848 
L 418.538625 273.988381 
L 427.987075 273.988875 
L 437.435525 273.98848 
L 446.883975 273.979886 
L 456.332425 273.978503 
L 465.780875 273.986603 
L 475.229325 273.988084 
L 484.677775 273.987393 
L 494.126225 273.987887 
L 503.574675 273.989369 
L 513.023125 273.989862 
L 522.471575 273.989467 
L 531.920025 273.987195 
L 541.368475 273.987492 
L 550.816925 273.989467 
L 560.265375 273.989665 
L 569.713825 273.989764 
L 579.162275 273.989862 
L 588.610725 273.989862 
L 598.059175 273.989764 
L 607.507625 273.989764 
L 616.956075 273.989764 
L 626.404525 273.989961 
L 635.852975 273.99006 
L 645.301425 273.99006 
L 654.749875 273.99006 
L 664.198325 273.99006 
L 673.646775 273.99006 
L 683.095225 273.989961 
L 692.543675 273.989961 
L 701.992125 273.99006 
L 711.440575 273.989961 
L 720.889025 273.989961 
L 730.337475 273.99006 
L 739.785925 273.99006 
L 749.234375 273.99006 
L 758.682825 273.99006 
L 768.131275 273.989961 
L 777.579725 273.989961 
L 787.028175 273.99006 
L 796.476625 273.99006 
L 805.925075 273.989961 
L 815.373525 273.989961 
L 824.821975 273.99006 
L 834.270425 273.99006 
L 843.718875 273.99006 
L 853.167325 273.99006 
L 862.615775 273.99006 
L 872.064225 273.99006 
L 881.512675 273.99006 
L 890.961125 273.99006 
L 900.409575 273.989961 
L 909.858025 273.989862 
L 919.306475 273.989961 
L 928.754925 273.99006 
L 938.203375 273.989764 
L 947.651825 273.989566 
L 957.100275 273.989467 
L 966.548725 273.988084 
L 975.997175 273.986504 
L 985.445625 273.971786 
" style="fill:none;stroke:#d9534f;stroke-linecap:square;"/>
   </g>
   <g id="line2d_13">
    <path clip-path="url(#pbe966f7c08)" d="M 40.600625 273.99006 
L 50.049075 273.989961 
L 59.497525 273.989961 
L 68.945975 273.989961 
L 78.394425 273.989961 
L 87.842875 273.99006 
L 97.291325 273.989764 
L 106.739775 273.989764 
L 116.188225 273.989961 
L 125.636675 273.989467 
L 135.085125 273.988875 
L 144.533575 273.987986 
L 153.982025 273.986998 
L 163.430475 273.985813 
L 172.878925 273.983837 
L 182.327375 273.980676 
L 191.775825 273.97633 
L 201.224275 273.973861 
L 210.672725 273.970403 
L 220.121175 273.965069 
L 229.569625 273.958649 
L 239.018075 273.947981 
L 248.466525 273.93672 
L 257.914975 273.919336 
L 267.363425 273.899975 
L 276.811875 273.870342 
L 286.260325 273.833795 
L 295.708775 273.807125 
L 305.157225 273.727906 
L 314.605675 273.528277 
L 324.054125 273.233527 
L 333.502575 271.894407 
L 342.951025 271.440428 
L 352.399475 271.199412 
L 361.847925 267.848401 
L 371.296375 264.099715 
L 380.744825 200.992757 
L 390.193275 43.030822 
L 399.641725 89.649228 
L 409.090175 251.91636 
L 418.538625 272.258598 
L 427.987075 273.329834 
L 437.435525 273.555342 
L 446.883975 273.648884 
L 456.332425 273.713682 
L 465.780875 273.764453 
L 475.229325 273.773343 
L 484.677775 273.792111 
L 494.126225 273.827967 
L 503.574675 273.849402 
L 513.023125 273.865996 
L 522.471575 273.874491 
L 531.920025 273.883776 
L 541.368475 273.897407 
L 550.816925 273.901259 
L 560.265375 273.903729 
L 569.713825 273.909656 
L 579.162275 273.919138 
L 588.610725 273.927732 
L 598.059175 273.930991 
L 607.507625 273.936523 
L 616.956075 273.938894 
L 626.404525 273.944326 
L 635.852975 273.950055 
L 645.301425 273.951537 
L 654.749875 273.95292 
L 664.198325 273.953216 
L 673.646775 273.957167 
L 683.095225 273.962304 
L 692.543675 273.963588 
L 701.992125 273.965366 
L 711.440575 273.968625 
L 720.889025 273.969119 
L 730.337475 273.969317 
L 739.785925 273.968922 
L 749.234375 273.969218 
L 758.682825 273.97228 
L 768.131275 273.975145 
L 777.579725 273.976528 
L 787.028175 273.97633 
L 796.476625 273.977417 
L 805.925075 273.97791 
L 815.373525 273.979096 
L 824.821975 273.979787 
L 834.270425 273.978701 
L 843.718875 273.979886 
L 853.167325 273.981565 
L 862.615775 273.982059 
L 872.064225 273.983244 
L 881.512675 273.983442 
L 890.961125 273.982751 
L 900.409575 273.98196 
L 909.858025 273.981664 
L 919.306475 273.98196 
L 928.754925 273.98117 
L 938.203375 273.979886 
L 947.651825 273.97791 
L 957.100275 273.976626 
L 966.548725 273.972379 
L 975.997175 273.959538 
L 985.445625 273.234021 
" style="fill:none;stroke:#d9534f;stroke-linecap:square;"/>
   </g>
   <g id="line2d_14">
    <path clip-path="url(#pbe966f7c08)" d="M 40.600625 273.99006 
L 50.049075 273.99006 
L 59.497525 273.99006 
L 68.945975 273.99006 
L 78.394425 273.989665 
L 87.842875 273.98927 
L 97.291325 273.988875 
L 106.739775 273.989072 
L 116.188225 273.988183 
L 125.636675 273.986998 
L 135.085125 273.985121 
L 144.533575 273.979392 
L 153.982025 273.967144 
L 163.430475 273.942054 
L 172.878925 273.905309 
L 182.327375 273.861156 
L 191.775825 273.807421 
L 201.224275 273.75181 
L 210.672725 273.686716 
L 220.121175 273.594754 
L 229.569625 273.475432 
L 239.018075 273.269284 
L 248.466525 272.867756 
L 257.914975 271.791975 
L 267.363425 267.207042 
L 276.811875 259.359702 
L 286.260325 123.726114 
L 295.708775 67.091224 
L 305.157225 187.300188 
L 314.605675 251.099474 
L 324.054125 271.685592 
L 333.502575 273.828066 
L 342.951025 273.898988 
L 352.399475 273.927929 
L 361.847925 273.958748 
L 371.296375 273.974058 
L 380.744825 273.98522 
L 390.193275 273.984331 
L 399.641725 273.984924 
L 409.090175 273.987591 
L 418.538625 273.989369 
L 427.987075 273.988776 
L 437.435525 273.988282 
L 446.883975 273.986702 
L 456.332425 273.98522 
L 465.780875 273.986998 
L 475.229325 273.989072 
L 484.677775 273.989764 
L 494.126225 273.99006 
L 503.574675 273.989862 
L 513.023125 273.989764 
L 522.471575 273.989665 
L 531.920025 273.989369 
L 541.368475 273.989566 
L 550.816925 273.989961 
L 560.265375 273.989764 
L 569.713825 273.989566 
L 579.162275 273.989764 
L 588.610725 273.989961 
L 598.059175 273.99006 
L 607.507625 273.99006 
L 616.956075 273.99006 
L 626.404525 273.99006 
L 635.852975 273.99006 
L 645.301425 273.99006 
L 654.749875 273.989961 
L 664.198325 273.989961 
L 673.646775 273.99006 
L 683.095225 273.99006 
L 692.543675 273.989961 
L 701.992125 273.989665 
L 711.440575 273.989665 
L 720.889025 273.989961 
L 730.337475 273.989764 
L 739.785925 273.989764 
L 749.234375 273.989961 
L 758.682825 273.989961 
L 768.131275 273.989961 
L 777.579725 273.989665 
L 787.028175 273.989665 
L 796.476625 273.989764 
L 805.925075 273.989862 
L 815.373525 273.99006 
L 824.821975 273.989961 
L 834.270425 273.989862 
L 843.718875 273.989961 
L 853.167325 273.99006 
L 862.615775 273.989862 
L 872.064225 273.989665 
L 881.512675 273.989665 
L 890.961125 273.989764 
L 900.409575 273.989862 
L 909.858025 273.989862 
L 919.306475 273.989764 
L 928.754925 273.989862 
L 938.203375 273.99006 
L 947.651825 273.989566 
L 957.100275 273.988381 
L 966.548725 273.987294 
L 975.997175 273.986208 
L 985.445625 273.969514 
" style="fill:none;stroke:#d9534f;stroke-linecap:square;"/>
   </g>
   <g id="line2d_15">
    <path clip-path="url(#pbe966f7c08)" d="M 40.600625 273.99006 
L 50.049075 273.99006 
L 59.497525 273.99006 
L 68.945975 273.99006 
L 78.394425 273.989862 
L 87.842875 273.989764 
L 97.291325 273.989961 
L 106.739775 273.989862 
L 116.188225 273.98927 
L 125.636675 273.988973 
L 135.085125 273.989072 
L 144.533575 273.987887 
L 153.982025 273.986899 
L 163.430475 273.985121 
L 172.878925 273.981862 
L 182.327375 273.979096 
L 191.775825 273.976528 
L 201.224275 273.972576 
L 210.672725 273.969218 
L 220.121175 273.964576 
L 229.569625 273.958056 
L 239.018075 273.952426 
L 248.466525 273.939684 
L 257.914975 273.923089 
L 267.363425 273.90205 
L 276.811875 273.84713 
L 286.260325 273.792111 
L 295.708775 273.752798 
L 305.157225 273.649082 
L 314.605675 273.395225 
L 324.054125 272.874472 
L 333.502575 268.954111 
L 342.951025 268.101666 
L 352.399475 268.896426 
L 361.847925 262.222754 
L 371.296375 258.290144 
L 380.744825 210.286687 
L 390.193275 76.26672 
L 399.641725 113.128822 
L 409.090175 253.368876 
L 418.538625 272.379599 
L 427.987075 273.334971 
L 437.435525 273.536377 
L 446.883975 273.657675 
L 456.332425 273.731758 
L 465.780875 273.778875 
L 475.229325 273.791321 
L 484.677775 273.811965 
L 494.126225 273.83824 
L 503.574675 273.85839 
L 513.023125 273.871231 
L 522.471575 273.879035 
L 531.920025 273.891579 
L 541.368475 273.898 
L 550.816925 273.907482 
L 560.265375 273.916669 
L 569.713825 273.919632 
L 579.162275 273.921904 
L 588.610725 273.928028 
L 598.059175 273.932769 
L 607.507625 273.936819 
L 616.956075 273.941659 
L 626.404525 273.941165 
L 635.852975 273.944623 
L 645.301425 273.952031 
L 654.749875 273.954698 
L 664.198325 273.954797 
L 673.646775 273.955883 
L 683.095225 273.957957 
L 692.543675 273.95934 
L 701.992125 273.961612 
L 711.440575 273.959933 
L 720.889025 273.961612 
L 730.337475 273.965563 
L 739.785925 273.966551 
L 749.234375 273.968527 
L 758.682825 273.967539 
L 768.131275 273.967934 
L 777.579725 273.969712 
L 787.028175 273.969416 
L 796.476625 273.969712 
L 805.925075 273.971391 
L 815.373525 273.971391 
L 824.821975 273.971095 
L 834.270425 273.972379 
L 843.718875 273.970798 
L 853.167325 273.970601 
L 862.615775 273.972972 
L 872.064225 273.973959 
L 881.512675 273.973367 
L 890.961125 273.973959 
L 900.409575 273.976429 
L 909.858025 273.975737 
L 919.306475 273.974354 
L 928.754925 273.974256 
L 938.203375 273.973959 
L 947.651825 273.97307 
L 957.100275 273.971391 
L 966.548725 273.963588 
L 975.997175 273.948771 
L 985.445625 273.251801 
" style="fill:none;stroke:#d9534f;stroke-linecap:square;"/>
   </g>
   <g id="line2d_16">
    <path clip-path="url(#pbe966f7c08)" d="M 40.600625 273.99006 
L 50.049075 273.99006 
L 59.497525 273.99006 
L 68.945975 273.989862 
L 78.394425 273.98927 
L 87.842875 273.989072 
L 97.291325 273.988578 
L 106.739775 273.987492 
L 116.188225 273.986504 
L 125.636675 273.984924 
L 135.085125 273.983541 
L 144.533575 273.977515 
L 153.982025 273.964082 
L 163.430475 273.940671 
L 172.878925 273.907384 
L 182.327375 273.870441 
L 191.775825 273.82451 
L 201.224275 273.761292 
L 210.672725 273.698075 
L 220.121175 273.625375 
L 229.569625 273.530747 
L 239.018075 273.371518 
L 248.466525 273.104425 
L 257.914975 272.460695 
L 267.363425 269.239379 
L 276.811875 263.369753 
L 286.260325 141.131909 
L 295.708775 87.872427 
L 305.157225 194.832726 
L 314.605675 253.22318 
L 324.054125 272.186984 
L 333.502575 273.928226 
L 342.951025 273.970897 
L 352.399475 273.968922 
L 361.847925 273.970897 
L 371.296375 273.976132 
L 380.744825 273.987294 
L 390.193275 273.989369 
L 399.641725 273.989665 
L 409.090175 273.989665 
L 418.538625 273.989566 
L 427.987075 273.989764 
L 437.435525 273.989764 
L 446.883975 273.989665 
L 456.332425 273.989369 
L 465.780875 273.989467 
L 475.229325 273.988578 
L 484.677775 273.988183 
L 494.126225 273.987986 
L 503.574675 273.987887 
L 513.023125 273.986405 
L 522.471575 273.983047 
L 531.920025 273.969416 
L 541.368475 273.964477 
L 550.816925 273.976923 
L 560.265375 273.98522 
L 569.713825 273.989072 
L 579.162275 273.989665 
L 588.610725 273.989961 
L 598.059175 273.989961 
L 607.507625 273.989961 
L 616.956075 273.99006 
L 626.404525 273.989961 
L 635.852975 273.989862 
L 645.301425 273.989961 
L 654.749875 273.99006 
L 664.198325 273.99006 
L 673.646775 273.99006 
L 683.095225 273.989961 
L 692.543675 273.989961 
L 701.992125 273.99006 
L 711.440575 273.989961 
L 720.889025 273.989961 
L 730.337475 273.99006 
L 739.785925 273.989961 
L 749.234375 273.989961 
L 758.682825 273.99006 
L 768.131275 273.99006 
L 777.579725 273.99006 
L 787.028175 273.989961 
L 796.476625 273.989961 
L 805.925075 273.99006 
L 815.373525 273.99006 
L 824.821975 273.989961 
L 834.270425 273.989961 
L 843.718875 273.99006 
L 853.167325 273.989961 
L 862.615775 273.989961 
L 872.064225 273.99006 
L 881.512675 273.99006 
L 890.961125 273.99006 
L 900.409575 273.989961 
L 909.858025 273.989665 
L 919.306475 273.989665 
L 928.754925 273.989862 
L 938.203375 273.989665 
L 947.651825 273.989665 
L 957.100275 273.989369 
L 966.548725 273.988578 
L 975.997175 273.987591 
L 985.445625 273.97475 
" style="fill:none;stroke:#d9534f;stroke-linecap:square;"/>
   </g>
   <g id="line2d_17">
    <path clip-path="url(#pbe966f7c08)" d="M 40.600625 273.99006 
L 50.049075 273.99006 
L 59.497525 273.99006 
L 68.945975 273.99006 
L 78.394425 273.99006 
L 87.842875 273.989764 
L 97.291325 273.989665 
L 106.739775 273.989862 
L 116.188225 273.989566 
L 125.636675 273.989369 
L 135.085125 273.989171 
L 144.533575 273.988381 
L 153.982025 273.986899 
L 163.430475 273.986109 
L 172.878925 273.98522 
L 182.327375 273.982751 
L 191.775825 273.977417 
L 201.224275 273.972379 
L 210.672725 273.970008 
L 220.121175 273.965267 
L 229.569625 273.956081 
L 239.018075 273.947981 
L 248.466525 273.938795 
L 257.914975 273.925065 
L 267.363425 273.909853 
L 276.811875 273.896024 
L 286.260325 273.879924 
L 295.708775 273.852069 
L 305.157225 273.781443 
L 314.605675 273.611645 
L 324.054125 273.48126 
L 333.502575 272.911711 
L 342.951025 272.634839 
L 352.399475 272.485686 
L 361.847925 270.506293 
L 371.296375 267.360048 
L 380.744825 216.1736 
L 390.193275 84.422344 
L 399.641725 120.540753 
L 409.090175 255.394101 
L 418.538625 272.658249 
L 427.987075 273.485705 
L 437.435525 273.666565 
L 446.883975 273.736104 
L 456.332425 273.778776 
L 465.780875 273.807323 
L 475.229325 273.825399 
L 484.677775 273.842685 
L 494.126225 273.865502 
L 503.574675 273.872713 
L 513.023125 273.860366 
L 522.471575 273.871824 
L 531.920025 273.900766 
L 541.368475 273.913903 
L 550.816925 273.920225 
L 560.265375 273.923287 
L 569.713825 273.928818 
L 579.162275 273.936918 
L 588.610725 273.942943 
L 598.059175 273.945314 
L 607.507625 273.946499 
L 616.956075 273.951833 
L 626.404525 273.955192 
L 635.852975 273.95529 
L 645.301425 273.958649 
L 654.749875 273.962007 
L 664.198325 273.962106 
L 673.646775 273.96339 
L 683.095225 273.968132 
L 692.543675 273.969712 
L 701.992125 273.971786 
L 711.440575 273.973663 
L 720.889025 273.974354 
L 730.337475 273.976626 
L 739.785925 273.976626 
L 749.234375 273.975737 
L 758.682825 273.978009 
L 768.131275 273.979491 
L 777.579725 273.979787 
L 787.028175 273.979096 
L 796.476625 273.979293 
L 805.925075 273.981565 
L 815.373525 273.981565 
L 824.821975 273.98196 
L 834.270425 273.982158 
L 843.718875 273.982059 
L 853.167325 273.981466 
L 862.615775 273.981565 
L 872.064225 273.982454 
L 881.512675 273.982849 
L 890.961125 273.983639 
L 900.409575 273.982751 
L 909.858025 273.98196 
L 919.306475 273.983541 
L 928.754925 273.983146 
L 938.203375 273.98196 
L 947.651825 273.981368 
L 957.100275 273.978898 
L 966.548725 273.975639 
L 975.997175 273.963291 
L 985.445625 273.404214 
" style="fill:none;stroke:#d9534f;stroke-linecap:square;"/>
   </g>
   <g id="line2d_18">
    <path clip-path="url(#pbe966f7c08)" d="M 40.600625 273.99006 
L 50.049075 273.99006 
L 59.497525 273.99006 
L 68.945975 273.989961 
L 78.394425 273.989171 
L 87.842875 273.988381 
L 97.291325 273.988677 
L 106.739775 273.988282 
L 116.188225 273.9868 
L 125.636675 273.985417 
L 135.085125 273.982059 
L 144.533575 273.975639 
L 153.982025 273.95934 
L 163.430475 273.926151 
L 172.878925 273.88101 
L 182.327375 273.837943 
L 191.775825 273.785592 
L 201.224275 273.726128 
L 210.672725 273.655107 
L 220.121175 273.559096 
L 229.569625 273.438094 
L 239.018075 273.239256 
L 248.466525 272.841086 
L 257.914975 271.835536 
L 267.363425 267.121995 
L 276.811875 259.647736 
L 286.260325 116.502452 
L 295.708775 57.153861 
L 305.157225 184.545396 
L 314.605675 250.622381 
L 324.054125 271.69873 
L 333.502575 273.86323 
L 342.951025 273.933362 
L 352.399475 273.879924 
L 361.847925 273.508423 
L 371.296375 273.550305 
L 380.744825 273.901951 
L 390.193275 273.929411 
L 399.641725 273.932671 
L 409.090175 273.390977 
L 418.538625 273.372407 
L 427.987075 273.904124 
L 437.435525 273.96665 
L 446.883975 273.98443 
L 456.332425 273.982751 
L 465.780875 273.963588 
L 475.229325 273.926448 
L 484.677775 273.939289 
L 494.126225 273.969514 
L 503.574675 273.953908 
L 513.023125 273.739759 
L 522.471575 273.719806 
L 531.920025 273.917459 
L 541.368475 273.950944 
L 550.816925 273.96823 
L 560.265375 273.972379 
L 569.713825 273.982652 
L 579.162275 273.989467 
L 588.610725 273.989665 
L 598.059175 273.989961 
L 607.507625 273.989862 
L 616.956075 273.989862 
L 626.404525 273.99006 
L 635.852975 273.99006 
L 645.301425 273.99006 
L 654.749875 273.989961 
L 664.198325 273.989961 
L 673.646775 273.989961 
L 683.095225 273.989665 
L 692.543675 273.989764 
L 701.992125 273.99006 
L 711.440575 273.989961 
L 720.889025 273.989961 
L 730.337475 273.989961 
L 739.785925 273.989961 
L 749.234375 273.989961 
L 758.682825 273.989961 
L 768.131275 273.989961 
L 777.579725 273.989961 
L 787.028175 273.99006 
L 796.476625 273.989862 
L 805.925075 273.989862 
L 815.373525 273.989961 
L 824.821975 273.989961 
L 834.270425 273.99006 
L 843.718875 273.989961 
L 853.167325 273.989764 
L 862.615775 273.989862 
L 872.064225 273.989764 
L 881.512675 273.989764 
L 890.961125 273.989862 
L 900.409575 273.989862 
L 909.858025 273.989566 
L 919.306475 273.989467 
L 928.754925 273.989764 
L 938.203375 273.989566 
L 947.651825 273.989369 
L 957.100275 273.989072 
L 966.548725 273.987986 
L 975.997175 273.985516 
L 985.445625 273.962995 
" style="fill:none;stroke:#d9534f;stroke-linecap:square;"/>
   </g>
   <g id="line2d_19">
    <path clip-path="url(#pbe966f7c08)" d="M 40.600625 273.99006 
L 50.049075 273.99006 
L 59.497525 273.99006 
L 68.945975 273.99006 
L 78.394425 273.99006 
L 87.842875 273.989961 
L 97.291325 273.989764 
L 106.739775 273.989665 
L 116.188225 273.989467 
L 125.636675 273.98927 
L 135.085125 273.989072 
L 144.533575 273.988183 
L 153.982025 273.987195 
L 163.430475 273.986405 
L 172.878925 273.983936 
L 182.327375 273.980479 
L 191.775825 273.977614 
L 201.224275 273.973564 
L 210.672725 273.969811 
L 220.121175 273.966551 
L 229.569625 273.957661 
L 239.018075 273.947685 
L 248.466525 273.936523 
L 257.914975 273.919138 
L 267.363425 273.89721 
L 276.811875 273.862341 
L 286.260325 273.815521 
L 295.708775 273.771565 
L 305.157225 273.713978 
L 314.605675 273.532229 
L 324.054125 273.112723 
L 333.502575 270.846975 
L 342.951025 270.341928 
L 352.399475 270.467573 
L 361.847925 265.596187 
L 371.296375 261.936992 
L 380.744825 218.132743 
L 390.193275 59.015709 
L 399.641725 88.845084 
L 409.090175 252.798043 
L 418.538625 272.265018 
L 427.987075 273.282817 
L 437.435525 273.541612 
L 446.883975 273.551786 
L 456.332425 273.197967 
L 465.780875 273.206857 
L 475.229325 273.665676 
L 484.677775 273.801495 
L 494.126225 273.80268 
L 503.574675 273.769787 
L 513.023125 273.769491 
L 522.471575 273.804952 
L 531.920025 273.582506 
L 541.368475 273.603052 
L 550.816925 273.86649 
L 560.265375 273.890394 
L 569.713825 273.904717 
L 579.162275 273.915582 
L 588.610725 273.921904 
L 598.059175 273.921805 
L 607.507625 273.926349 
L 616.956075 273.934449 
L 626.404525 273.93672 
L 635.852975 273.93998 
L 645.301425 273.94561 
L 654.749875 273.943437 
L 664.198325 273.943338 
L 673.646775 273.94887 
L 683.095225 273.95213 
L 692.543675 273.953908 
L 701.992125 273.954895 
L 711.440575 273.954994 
L 720.889025 273.95855 
L 730.337475 273.962699 
L 739.785925 273.965069 
L 749.234375 273.965761 
L 758.682825 273.966057 
L 768.131275 273.965366 
L 777.579725 273.966946 
L 787.028175 273.968033 
L 796.476625 273.967144 
L 805.925075 273.970601 
L 815.373525 273.971984 
L 824.821975 273.970206 
L 834.270425 273.970502 
L 843.718875 273.970502 
L 853.167325 273.971391 
L 862.615775 273.97307 
L 872.064225 273.97228 
L 881.512675 273.972379 
L 890.961125 273.973959 
L 900.409575 273.975145 
L 909.858025 273.975639 
L 919.306475 273.972576 
L 928.754925 273.969416 
L 938.203375 273.969712 
L 947.651825 273.970403 
L 957.100275 273.968823 
L 966.548725 273.962995 
L 975.997175 273.946005 
L 985.445625 273.259999 
" style="fill:none;stroke:#d9534f;stroke-linecap:square;"/>
   </g>
   <g id="line2d_20">
    <path clip-path="url(#pbe966f7c08)" d="M 40.600625 273.99006 
L 985.445625 273.99006 
" style="fill:none;stroke:#dedede;stroke-linecap:square;stroke-width:2;"/>
   </g>
   <g id="text_17">
    <!-- FastQC: Per Sequence GC Content -->
    <g transform="translate(376.386875 19.3575)scale(0.16 -0.16)">
     <defs>
      <path d="M 628 4666 
L 3309 4666 
L 3309 4134 
L 1259 4134 
L 1259 2759 
L 3109 2759 
L 3109 2228 
L 1259 2228 
L 1259 0 
L 628 0 
L 628 4666 
z
" id="DejaVuSans-46" transform="scale(0.015625)"/>
      <path d="M 2194 1759 
Q 1497 1759 1228 1600 
Q 959 1441 959 1056 
Q 959 750 1161 570 
Q 1363 391 1709 391 
Q 2188 391 2477 730 
Q 2766 1069 2766 1631 
L 2766 1759 
L 2194 1759 
z
M 3341 1997 
L 3341 0 
L 2766 0 
L 2766 531 
Q 2569 213 2275 61 
Q 1981 -91 1556 -91 
Q 1019 -91 701 211 
Q 384 513 384 1019 
Q 384 1609 779 1909 
Q 1175 2209 1959 2209 
L 2766 2209 
L 2766 2266 
Q 2766 2663 2505 2880 
Q 2244 3097 1772 3097 
Q 1472 3097 1187 3025 
Q 903 2953 641 2809 
L 641 3341 
Q 956 3463 1253 3523 
Q 1550 3584 1831 3584 
Q 2591 3584 2966 3190 
Q 3341 2797 3341 1997 
z
" id="DejaVuSans-61" transform="scale(0.015625)"/>
      <path d="M 2834 3397 
L 2834 2853 
Q 2591 2978 2328 3040 
Q 2066 3103 1784 3103 
Q 1356 3103 1142 2972 
Q 928 2841 928 2578 
Q 928 2378 1081 2264 
Q 1234 2150 1697 2047 
L 1894 2003 
Q 2506 1872 2764 1633 
Q 3022 1394 3022 966 
Q 3022 478 2636 193 
Q 2250 -91 1575 -91 
Q 1294 -91 989 -36 
Q 684 19 347 128 
L 347 722 
Q 666 556 975 473 
Q 1284 391 1588 391 
Q 1994 391 2212 530 
Q 2431 669 2431 922 
Q 2431 1156 2273 1281 
Q 2116 1406 1581 1522 
L 1381 1569 
Q 847 1681 609 1914 
Q 372 2147 372 2553 
Q 372 3047 722 3315 
Q 1072 3584 1716 3584 
Q 2034 3584 2315 3537 
Q 2597 3491 2834 3397 
z
" id="DejaVuSans-73" transform="scale(0.015625)"/>
      <path d="M 2522 4238 
Q 1834 4238 1429 3725 
Q 1025 3213 1025 2328 
Q 1025 1447 1429 934 
Q 1834 422 2522 422 
Q 3209 422 3611 934 
Q 4013 1447 4013 2328 
Q 4013 3213 3611 3725 
Q 3209 4238 2522 4238 
z
M 3406 84 
L 4238 -825 
L 3475 -825 
L 2784 -78 
Q 2681 -84 2626 -87 
Q 2572 -91 2522 -91 
Q 1538 -91 948 567 
Q 359 1225 359 2328 
Q 359 3434 948 4092 
Q 1538 4750 2522 4750 
Q 3503 4750 4090 4092 
Q 4678 3434 4678 2328 
Q 4678 1516 4351 937 
Q 4025 359 3406 84 
z
" id="DejaVuSans-51" transform="scale(0.015625)"/>
      <path d="M 750 794 
L 1409 794 
L 1409 0 
L 750 0 
L 750 794 
z
M 750 3309 
L 1409 3309 
L 1409 2516 
L 750 2516 
L 750 3309 
z
" id="DejaVuSans-3a" transform="scale(0.015625)"/>
      <path d="M 1259 4147 
L 1259 2394 
L 2053 2394 
Q 2494 2394 2734 2622 
Q 2975 2850 2975 3272 
Q 2975 3691 2734 3919 
Q 2494 4147 2053 4147 
L 1259 4147 
z
M 628 4666 
L 2053 4666 
Q 2838 4666 3239 4311 
Q 3641 3956 3641 3272 
Q 3641 2581 3239 2228 
Q 2838 1875 2053 1875 
L 1259 1875 
L 1259 0 
L 628 0 
L 628 4666 
z
" id="DejaVuSans-50" transform="scale(0.015625)"/>
      <path d="M 2631 2963 
Q 2534 3019 2420 3045 
Q 2306 3072 2169 3072 
Q 1681 3072 1420 2755 
Q 1159 2438 1159 1844 
L 1159 0 
L 581 0 
L 581 3500 
L 1159 3500 
L 1159 2956 
Q 1341 3275 1631 3429 
Q 1922 3584 2338 3584 
Q 2397 3584 2469 3576 
Q 2541 3569 2628 3553 
L 2631 2963 
z
" id="DejaVuSans-72" transform="scale(0.015625)"/>
      <path d="M 3425 4513 
L 3425 3897 
Q 3066 4069 2747 4153 
Q 2428 4238 2131 4238 
Q 1616 4238 1336 4038 
Q 1056 3838 1056 3469 
Q 1056 3159 1242 3001 
Q 1428 2844 1947 2747 
L 2328 2669 
Q 3034 2534 3370 2195 
Q 3706 1856 3706 1288 
Q 3706 609 3251 259 
Q 2797 -91 1919 -91 
Q 1588 -91 1214 -16 
Q 841 59 441 206 
L 441 856 
Q 825 641 1194 531 
Q 1563 422 1919 422 
Q 2459 422 2753 634 
Q 3047 847 3047 1241 
Q 3047 1584 2836 1778 
Q 2625 1972 2144 2069 
L 1759 2144 
Q 1053 2284 737 2584 
Q 422 2884 422 3419 
Q 422 4038 858 4394 
Q 1294 4750 2059 4750 
Q 2388 4750 2728 4690 
Q 3069 4631 3425 4513 
z
" id="DejaVuSans-53" transform="scale(0.015625)"/>
      <path d="M 947 1747 
Q 947 1113 1208 752 
Q 1469 391 1925 391 
Q 2381 391 2643 752 
Q 2906 1113 2906 1747 
Q 2906 2381 2643 2742 
Q 2381 3103 1925 3103 
Q 1469 3103 1208 2742 
Q 947 2381 947 1747 
z
M 2906 525 
Q 2725 213 2448 61 
Q 2172 -91 1784 -91 
Q 1150 -91 751 415 
Q 353 922 353 1747 
Q 353 2572 751 3078 
Q 1150 3584 1784 3584 
Q 2172 3584 2448 3432 
Q 2725 3281 2906 2969 
L 2906 3500 
L 3481 3500 
L 3481 -1331 
L 2906 -1331 
L 2906 525 
z
" id="DejaVuSans-71" transform="scale(0.015625)"/>
      <path d="M 3122 3366 
L 3122 2828 
Q 2878 2963 2633 3030 
Q 2388 3097 2138 3097 
Q 1578 3097 1268 2742 
Q 959 2388 959 1747 
Q 959 1106 1268 751 
Q 1578 397 2138 397 
Q 2388 397 2633 464 
Q 2878 531 3122 666 
L 3122 134 
Q 2881 22 2623 -34 
Q 2366 -91 2075 -91 
Q 1284 -91 818 406 
Q 353 903 353 1747 
Q 353 2603 823 3093 
Q 1294 3584 2113 3584 
Q 2378 3584 2631 3529 
Q 2884 3475 3122 3366 
z
" id="DejaVuSans-63" transform="scale(0.015625)"/>
     </defs>
     <use xlink:href="#DejaVuSans-46"/>
     <use x="48.394531" xlink:href="#DejaVuSans-61"/>
     <use x="109.673828" xlink:href="#DejaVuSans-73"/>
     <use x="161.773438" xlink:href="#DejaVuSans-74"/>
     <use x="200.982422" xlink:href="#DejaVuSans-51"/>
     <use x="279.693359" xlink:href="#DejaVuSans-43"/>
     <use x="349.517578" xlink:href="#DejaVuSans-3a"/>
     <use x="383.208984" xlink:href="#DejaVuSans-20"/>
     <use x="414.996094" xlink:href="#DejaVuSans-50"/>
     <use x="471.673828" xlink:href="#DejaVuSans-65"/>
     <use x="533.197266" xlink:href="#DejaVuSans-72"/>
     <use x="574.310547" xlink:href="#DejaVuSans-20"/>
     <use x="606.097656" xlink:href="#DejaVuSans-53"/>
     <use x="669.574219" xlink:href="#DejaVuSans-65"/>
     <use x="731.097656" xlink:href="#DejaVuSans-71"/>
     <use x="794.574219" xlink:href="#DejaVuSans-75"/>
     <use x="857.953125" xlink:href="#DejaVuSans-65"/>
     <use x="919.476562" xlink:href="#DejaVuSans-6e"/>
     <use x="982.855469" xlink:href="#DejaVuSans-63"/>
     <use x="1037.835938" xlink:href="#DejaVuSans-65"/>
     <use x="1099.359375" xlink:href="#DejaVuSans-20"/>
     <use x="1131.146484" xlink:href="#DejaVuSans-47"/>
     <use x="1208.636719" xlink:href="#DejaVuSans-43"/>
     <use x="1278.460938" xlink:href="#DejaVuSans-20"/>
     <use x="1310.248047" xlink:href="#DejaVuSans-43"/>
     <use x="1380.072266" xlink:href="#DejaVuSans-6f"/>
     <use x="1441.253906" xlink:href="#DejaVuSans-6e"/>
     <use x="1504.632812" xlink:href="#DejaVuSans-74"/>
     <use x="1543.841797" xlink:href="#DejaVuSans-65"/>
     <use x="1605.365234" xlink:href="#DejaVuSans-6e"/>
     <use x="1668.744141" xlink:href="#DejaVuSans-74"/>
    </g>
   </g>
   <g id="legend_1">
    <g id="line2d_21">
     <path d="M 47.800625 291.525394 
L 63.800625 291.525394 
" style="fill:none;stroke:#d9534f;stroke-linecap:square;"/>
    </g>
    <g id="line2d_22"/>
    <g id="text_18">
     <!-- X2_lib_raw_1 -->
     <g transform="translate(70.200625 294.325394)scale(0.08 -0.08)">
      <defs>
       <path d="M 403 4666 
L 1081 4666 
L 2241 2931 
L 3406 4666 
L 4084 4666 
L 2584 2425 
L 4184 0 
L 3506 0 
L 2194 1984 
L 872 0 
L 191 0 
L 1856 2491 
L 403 4666 
z
" id="DejaVuSans-58" transform="scale(0.015625)"/>
       <path d="M 3263 -1063 
L 3263 -1509 
L -63 -1509 
L -63 -1063 
L 3263 -1063 
z
" id="DejaVuSans-5f" transform="scale(0.015625)"/>
       <path d="M 603 4863 
L 1178 4863 
L 1178 0 
L 603 0 
L 603 4863 
z
" id="DejaVuSans-6c" transform="scale(0.015625)"/>
       <path d="M 603 3500 
L 1178 3500 
L 1178 0 
L 603 0 
L 603 3500 
z
M 603 4863 
L 1178 4863 
L 1178 4134 
L 603 4134 
L 603 4863 
z
" id="DejaVuSans-69" transform="scale(0.015625)"/>
       <path d="M 3116 1747 
Q 3116 2381 2855 2742 
Q 2594 3103 2138 3103 
Q 1681 3103 1420 2742 
Q 1159 2381 1159 1747 
Q 1159 1113 1420 752 
Q 1681 391 2138 391 
Q 2594 391 2855 752 
Q 3116 1113 3116 1747 
z
M 1159 2969 
Q 1341 3281 1617 3432 
Q 1894 3584 2278 3584 
Q 2916 3584 3314 3078 
Q 3713 2572 3713 1747 
Q 3713 922 3314 415 
Q 2916 -91 2278 -91 
Q 1894 -91 1617 61 
Q 1341 213 1159 525 
L 1159 0 
L 581 0 
L 581 4863 
L 1159 4863 
L 1159 2969 
z
" id="DejaVuSans-62" transform="scale(0.015625)"/>
       <path d="M 269 3500 
L 844 3500 
L 1563 769 
L 2278 3500 
L 2956 3500 
L 3675 769 
L 4391 3500 
L 4966 3500 
L 4050 0 
L 3372 0 
L 2619 2869 
L 1863 0 
L 1184 0 
L 269 3500 
z
" id="DejaVuSans-77" transform="scale(0.015625)"/>
      </defs>
      <use xlink:href="#DejaVuSans-58"/>
      <use x="68.505859" xlink:href="#DejaVuSans-32"/>
      <use x="132.128906" xlink:href="#DejaVuSans-5f"/>
      <use x="182.128906" xlink:href="#DejaVuSans-6c"/>
      <use x="209.912109" xlink:href="#DejaVuSans-69"/>
      <use x="237.695312" xlink:href="#DejaVuSans-62"/>
      <use x="301.171875" xlink:href="#DejaVuSans-5f"/>
      <use x="351.171875" xlink:href="#DejaVuSans-72"/>
      <use x="392.285156" xlink:href="#DejaVuSans-61"/>
      <use x="453.564453" xlink:href="#DejaVuSans-77"/>
      <use x="535.351562" xlink:href="#DejaVuSans-5f"/>
      <use x="585.351562" xlink:href="#DejaVuSans-31"/>
     </g>
    </g>
    <g id="line2d_23">
     <path d="M 47.800625 303.490394 
L 63.800625 303.490394 
" style="fill:none;stroke:#d9534f;stroke-linecap:square;"/>
    </g>
    <g id="line2d_24"/>
    <g id="text_19">
     <!-- X2_lib_raw_2 -->
     <g transform="translate(70.200625 306.290394)scale(0.08 -0.08)">
      <use xlink:href="#DejaVuSans-58"/>
      <use x="68.505859" xlink:href="#DejaVuSans-32"/>
      <use x="132.128906" xlink:href="#DejaVuSans-5f"/>
      <use x="182.128906" xlink:href="#DejaVuSans-6c"/>
      <use x="209.912109" xlink:href="#DejaVuSans-69"/>
      <use x="237.695312" xlink:href="#DejaVuSans-62"/>
      <use x="301.171875" xlink:href="#DejaVuSans-5f"/>
      <use x="351.171875" xlink:href="#DejaVuSans-72"/>
      <use x="392.285156" xlink:href="#DejaVuSans-61"/>
      <use x="453.564453" xlink:href="#DejaVuSans-77"/>
      <use x="535.351562" xlink:href="#DejaVuSans-5f"/>
      <use x="585.351562" xlink:href="#DejaVuSans-32"/>
     </g>
    </g>
    <g id="line2d_25">
     <path d="M 47.800625 315.455394 
L 63.800625 315.455394 
" style="fill:none;stroke:#d9534f;stroke-linecap:square;"/>
    </g>
    <g id="line2d_26"/>
    <g id="text_20">
     <!-- X2_neg_raw_1 -->
     <g transform="translate(70.200625 318.255394)scale(0.08 -0.08)">
      <defs>
       <path d="M 2906 1791 
Q 2906 2416 2648 2759 
Q 2391 3103 1925 3103 
Q 1463 3103 1205 2759 
Q 947 2416 947 1791 
Q 947 1169 1205 825 
Q 1463 481 1925 481 
Q 2391 481 2648 825 
Q 2906 1169 2906 1791 
z
M 3481 434 
Q 3481 -459 3084 -895 
Q 2688 -1331 1869 -1331 
Q 1566 -1331 1297 -1286 
Q 1028 -1241 775 -1147 
L 775 -588 
Q 1028 -725 1275 -790 
Q 1522 -856 1778 -856 
Q 2344 -856 2625 -561 
Q 2906 -266 2906 331 
L 2906 616 
Q 2728 306 2450 153 
Q 2172 0 1784 0 
Q 1141 0 747 490 
Q 353 981 353 1791 
Q 353 2603 747 3093 
Q 1141 3584 1784 3584 
Q 2172 3584 2450 3431 
Q 2728 3278 2906 2969 
L 2906 3500 
L 3481 3500 
L 3481 434 
z
" id="DejaVuSans-67" transform="scale(0.015625)"/>
      </defs>
      <use xlink:href="#DejaVuSans-58"/>
      <use x="68.505859" xlink:href="#DejaVuSans-32"/>
      <use x="132.128906" xlink:href="#DejaVuSans-5f"/>
      <use x="182.128906" xlink:href="#DejaVuSans-6e"/>
      <use x="245.507812" xlink:href="#DejaVuSans-65"/>
      <use x="307.03125" xlink:href="#DejaVuSans-67"/>
      <use x="370.507812" xlink:href="#DejaVuSans-5f"/>
      <use x="420.507812" xlink:href="#DejaVuSans-72"/>
      <use x="461.621094" xlink:href="#DejaVuSans-61"/>
      <use x="522.900391" xlink:href="#DejaVuSans-77"/>
      <use x="604.6875" xlink:href="#DejaVuSans-5f"/>
      <use x="654.6875" xlink:href="#DejaVuSans-31"/>
     </g>
    </g>
    <g id="line2d_27">
     <path d="M 242.396875 291.525394 
L 258.396875 291.525394 
" style="fill:none;stroke:#d9534f;stroke-linecap:square;"/>
    </g>
    <g id="line2d_28"/>
    <g id="text_21">
     <!-- X2_neg_raw_2 -->
     <g transform="translate(264.796875 294.325394)scale(0.08 -0.08)">
      <use xlink:href="#DejaVuSans-58"/>
      <use x="68.505859" xlink:href="#DejaVuSans-32"/>
      <use x="132.128906" xlink:href="#DejaVuSans-5f"/>
      <use x="182.128906" xlink:href="#DejaVuSans-6e"/>
      <use x="245.507812" xlink:href="#DejaVuSans-65"/>
      <use x="307.03125" xlink:href="#DejaVuSans-67"/>
      <use x="370.507812" xlink:href="#DejaVuSans-5f"/>
      <use x="420.507812" xlink:href="#DejaVuSans-72"/>
      <use x="461.621094" xlink:href="#DejaVuSans-61"/>
      <use x="522.900391" xlink:href="#DejaVuSans-77"/>
      <use x="604.6875" xlink:href="#DejaVuSans-5f"/>
      <use x="654.6875" xlink:href="#DejaVuSans-32"/>
     </g>
    </g>
    <g id="line2d_29">
     <path d="M 242.396875 303.490394 
L 258.396875 303.490394 
" style="fill:none;stroke:#d9534f;stroke-linecap:square;"/>
    </g>
    <g id="line2d_30"/>
    <g id="text_22">
     <!-- X2rL41_post_raw_1 -->
     <g transform="translate(264.796875 306.290394)scale(0.08 -0.08)">
      <defs>
       <path d="M 628 4666 
L 1259 4666 
L 1259 531 
L 3531 531 
L 3531 0 
L 628 0 
L 628 4666 
z
" id="DejaVuSans-4c" transform="scale(0.015625)"/>
       <path d="M 1159 525 
L 1159 -1331 
L 581 -1331 
L 581 3500 
L 1159 3500 
L 1159 2969 
Q 1341 3281 1617 3432 
Q 1894 3584 2278 3584 
Q 2916 3584 3314 3078 
Q 3713 2572 3713 1747 
Q 3713 922 3314 415 
Q 2916 -91 2278 -91 
Q 1894 -91 1617 61 
Q 1341 213 1159 525 
z
M 3116 1747 
Q 3116 2381 2855 2742 
Q 2594 3103 2138 3103 
Q 1681 3103 1420 2742 
Q 1159 2381 1159 1747 
Q 1159 1113 1420 752 
Q 1681 391 2138 391 
Q 2594 391 2855 752 
Q 3116 1113 3116 1747 
z
" id="DejaVuSans-70" transform="scale(0.015625)"/>
      </defs>
      <use xlink:href="#DejaVuSans-58"/>
      <use x="68.505859" xlink:href="#DejaVuSans-32"/>
      <use x="132.128906" xlink:href="#DejaVuSans-72"/>
      <use x="173.242188" xlink:href="#DejaVuSans-4c"/>
      <use x="228.955078" xlink:href="#DejaVuSans-34"/>
      <use x="292.578125" xlink:href="#DejaVuSans-31"/>
      <use x="356.201172" xlink:href="#DejaVuSans-5f"/>
      <use x="406.201172" xlink:href="#DejaVuSans-70"/>
      <use x="469.677734" xlink:href="#DejaVuSans-6f"/>
      <use x="530.859375" xlink:href="#DejaVuSans-73"/>
      <use x="582.958984" xlink:href="#DejaVuSans-74"/>
      <use x="622.167969" xlink:href="#DejaVuSans-5f"/>
      <use x="672.167969" xlink:href="#DejaVuSans-72"/>
      <use x="713.28125" xlink:href="#DejaVuSans-61"/>
      <use x="774.560547" xlink:href="#DejaVuSans-77"/>
      <use x="856.347656" xlink:href="#DejaVuSans-5f"/>
      <use x="906.347656" xlink:href="#DejaVuSans-31"/>
     </g>
    </g>
    <g id="line2d_31">
     <path d="M 242.396875 315.455394 
L 258.396875 315.455394 
" style="fill:none;stroke:#d9534f;stroke-linecap:square;"/>
    </g>
    <g id="line2d_32"/>
    <g id="text_23">
     <!-- X2rL41_post_raw_2 -->
     <g transform="translate(264.796875 318.255394)scale(0.08 -0.08)">
      <use xlink:href="#DejaVuSans-58"/>
      <use x="68.505859" xlink:href="#DejaVuSans-32"/>
      <use x="132.128906" xlink:href="#DejaVuSans-72"/>
      <use x="173.242188" xlink:href="#DejaVuSans-4c"/>
      <use x="228.955078" xlink:href="#DejaVuSans-34"/>
      <use x="292.578125" xlink:href="#DejaVuSans-31"/>
      <use x="356.201172" xlink:href="#DejaVuSans-5f"/>
      <use x="406.201172" xlink:href="#DejaVuSans-70"/>
      <use x="469.677734" xlink:href="#DejaVuSans-6f"/>
      <use x="530.859375" xlink:href="#DejaVuSans-73"/>
      <use x="582.958984" xlink:href="#DejaVuSans-74"/>
      <use x="622.167969" xlink:href="#DejaVuSans-5f"/>
      <use x="672.167969" xlink:href="#DejaVuSans-72"/>
      <use x="713.28125" xlink:href="#DejaVuSans-61"/>
      <use x="774.560547" xlink:href="#DejaVuSans-77"/>
      <use x="856.347656" xlink:href="#DejaVuSans-5f"/>
      <use x="906.347656" xlink:href="#DejaVuSans-32"/>
     </g>
    </g>
    <g id="line2d_33">
     <path d="M 457.125625 291.525394 
L 473.125625 291.525394 
" style="fill:none;stroke:#d9534f;stroke-linecap:square;"/>
    </g>
    <g id="line2d_34"/>
    <g id="text_24">
     <!-- X2rL41_pre_raw_1 -->
     <g transform="translate(479.525625 294.325394)scale(0.08 -0.08)">
      <use xlink:href="#DejaVuSans-58"/>
      <use x="68.505859" xlink:href="#DejaVuSans-32"/>
      <use x="132.128906" xlink:href="#DejaVuSans-72"/>
      <use x="173.242188" xlink:href="#DejaVuSans-4c"/>
      <use x="228.955078" xlink:href="#DejaVuSans-34"/>
      <use x="292.578125" xlink:href="#DejaVuSans-31"/>
      <use x="356.201172" xlink:href="#DejaVuSans-5f"/>
      <use x="406.201172" xlink:href="#DejaVuSans-70"/>
      <use x="469.677734" xlink:href="#DejaVuSans-72"/>
      <use x="508.541016" xlink:href="#DejaVuSans-65"/>
      <use x="570.064453" xlink:href="#DejaVuSans-5f"/>
      <use x="620.064453" xlink:href="#DejaVuSans-72"/>
      <use x="661.177734" xlink:href="#DejaVuSans-61"/>
      <use x="722.457031" xlink:href="#DejaVuSans-77"/>
      <use x="804.244141" xlink:href="#DejaVuSans-5f"/>
      <use x="854.244141" xlink:href="#DejaVuSans-31"/>
     </g>
    </g>
    <g id="line2d_35">
     <path d="M 457.125625 303.490394 
L 473.125625 303.490394 
" style="fill:none;stroke:#d9534f;stroke-linecap:square;"/>
    </g>
    <g id="line2d_36"/>
    <g id="text_25">
     <!-- X2rL41_pre_raw_2 -->
     <g transform="translate(479.525625 306.290394)scale(0.08 -0.08)">
      <use xlink:href="#DejaVuSans-58"/>
      <use x="68.505859" xlink:href="#DejaVuSans-32"/>
      <use x="132.128906" xlink:href="#DejaVuSans-72"/>
      <use x="173.242188" xlink:href="#DejaVuSans-4c"/>
      <use x="228.955078" xlink:href="#DejaVuSans-34"/>
      <use x="292.578125" xlink:href="#DejaVuSans-31"/>
      <use x="356.201172" xlink:href="#DejaVuSans-5f"/>
      <use x="406.201172" xlink:href="#DejaVuSans-70"/>
      <use x="469.677734" xlink:href="#DejaVuSans-72"/>
      <use x="508.541016" xlink:href="#DejaVuSans-65"/>
      <use x="570.064453" xlink:href="#DejaVuSans-5f"/>
      <use x="620.064453" xlink:href="#DejaVuSans-72"/>
      <use x="661.177734" xlink:href="#DejaVuSans-61"/>
      <use x="722.457031" xlink:href="#DejaVuSans-77"/>
      <use x="804.244141" xlink:href="#DejaVuSans-5f"/>
      <use x="854.244141" xlink:href="#DejaVuSans-32"/>
     </g>
    </g>
    <g id="line2d_37">
     <path d="M 667.686875 291.525394 
L 683.686875 291.525394 
" style="fill:none;stroke:#d9534f;stroke-linecap:square;"/>
    </g>
    <g id="line2d_38"/>
    <g id="text_26">
     <!-- X2rL42_post_raw_1 -->
     <g transform="translate(690.086875 294.325394)scale(0.08 -0.08)">
      <use xlink:href="#DejaVuSans-58"/>
      <use x="68.505859" xlink:href="#DejaVuSans-32"/>
      <use x="132.128906" xlink:href="#DejaVuSans-72"/>
      <use x="173.242188" xlink:href="#DejaVuSans-4c"/>
      <use x="228.955078" xlink:href="#DejaVuSans-34"/>
      <use x="292.578125" xlink:href="#DejaVuSans-32"/>
      <use x="356.201172" xlink:href="#DejaVuSans-5f"/>
      <use x="406.201172" xlink:href="#DejaVuSans-70"/>
      <use x="469.677734" xlink:href="#DejaVuSans-6f"/>
      <use x="530.859375" xlink:href="#DejaVuSans-73"/>
      <use x="582.958984" xlink:href="#DejaVuSans-74"/>
      <use x="622.167969" xlink:href="#DejaVuSans-5f"/>
      <use x="672.167969" xlink:href="#DejaVuSans-72"/>
      <use x="713.28125" xlink:href="#DejaVuSans-61"/>
      <use x="774.560547" xlink:href="#DejaVuSans-77"/>
      <use x="856.347656" xlink:href="#DejaVuSans-5f"/>
      <use x="906.347656" xlink:href="#DejaVuSans-31"/>
     </g>
    </g>
    <g id="line2d_39">
     <path d="M 667.686875 303.490394 
L 683.686875 303.490394 
" style="fill:none;stroke:#d9534f;stroke-linecap:square;"/>
    </g>
    <g id="line2d_40"/>
    <g id="text_27">
     <!-- X2rL42_post_raw_2 -->
     <g transform="translate(690.086875 306.290394)scale(0.08 -0.08)">
      <use xlink:href="#DejaVuSans-58"/>
      <use x="68.505859" xlink:href="#DejaVuSans-32"/>
      <use x="132.128906" xlink:href="#DejaVuSans-72"/>
      <use x="173.242188" xlink:href="#DejaVuSans-4c"/>
      <use x="228.955078" xlink:href="#DejaVuSans-34"/>
      <use x="292.578125" xlink:href="#DejaVuSans-32"/>
      <use x="356.201172" xlink:href="#DejaVuSans-5f"/>
      <use x="406.201172" xlink:href="#DejaVuSans-70"/>
      <use x="469.677734" xlink:href="#DejaVuSans-6f"/>
      <use x="530.859375" xlink:href="#DejaVuSans-73"/>
      <use x="582.958984" xlink:href="#DejaVuSans-74"/>
      <use x="622.167969" xlink:href="#DejaVuSans-5f"/>
      <use x="672.167969" xlink:href="#DejaVuSans-72"/>
      <use x="713.28125" xlink:href="#DejaVuSans-61"/>
      <use x="774.560547" xlink:href="#DejaVuSans-77"/>
      <use x="856.347656" xlink:href="#DejaVuSans-5f"/>
      <use x="906.347656" xlink:href="#DejaVuSans-32"/>
     </g>
    </g>
    <g id="line2d_41">
     <path d="M 882.415625 291.525394 
L 898.415625 291.525394 
" style="fill:none;stroke:#d9534f;stroke-linecap:square;"/>
    </g>
    <g id="line2d_42"/>
    <g id="text_28">
     <!-- X2rL42_pre_raw_1 -->
     <g transform="translate(904.815625 294.325394)scale(0.08 -0.08)">
      <use xlink:href="#DejaVuSans-58"/>
      <use x="68.505859" xlink:href="#DejaVuSans-32"/>
      <use x="132.128906" xlink:href="#DejaVuSans-72"/>
      <use x="173.242188" xlink:href="#DejaVuSans-4c"/>
      <use x="228.955078" xlink:href="#DejaVuSans-34"/>
      <use x="292.578125" xlink:href="#DejaVuSans-32"/>
      <use x="356.201172" xlink:href="#DejaVuSans-5f"/>
      <use x="406.201172" xlink:href="#DejaVuSans-70"/>
      <use x="469.677734" xlink:href="#DejaVuSans-72"/>
      <use x="508.541016" xlink:href="#DejaVuSans-65"/>
      <use x="570.064453" xlink:href="#DejaVuSans-5f"/>
      <use x="620.064453" xlink:href="#DejaVuSans-72"/>
      <use x="661.177734" xlink:href="#DejaVuSans-61"/>
      <use x="722.457031" xlink:href="#DejaVuSans-77"/>
      <use x="804.244141" xlink:href="#DejaVuSans-5f"/>
      <use x="854.244141" xlink:href="#DejaVuSans-31"/>
     </g>
    </g>
    <g id="line2d_43">
     <path d="M 882.415625 303.490394 
L 898.415625 303.490394 
" style="fill:none;stroke:#d9534f;stroke-linecap:square;"/>
    </g>
    <g id="line2d_44"/>
    <g id="text_29">
     <!-- X2rL42_pre_raw_2 -->
     <g transform="translate(904.815625 306.290394)scale(0.08 -0.08)">
      <use xlink:href="#DejaVuSans-58"/>
      <use x="68.505859" xlink:href="#DejaVuSans-32"/>
      <use x="132.128906" xlink:href="#DejaVuSans-72"/>
      <use x="173.242188" xlink:href="#DejaVuSans-4c"/>
      <use x="228.955078" xlink:href="#DejaVuSans-34"/>
      <use x="292.578125" xlink:href="#DejaVuSans-32"/>
      <use x="356.201172" xlink:href="#DejaVuSans-5f"/>
      <use x="406.201172" xlink:href="#DejaVuSans-70"/>
      <use x="469.677734" xlink:href="#DejaVuSans-72"/>
      <use x="508.541016" xlink:href="#DejaVuSans-65"/>
      <use x="570.064453" xlink:href="#DejaVuSans-5f"/>
      <use x="620.064453" xlink:href="#DejaVuSans-72"/>
      <use x="661.177734" xlink:href="#DejaVuSans-61"/>
      <use x="722.457031" xlink:href="#DejaVuSans-77"/>
      <use x="804.244141" xlink:href="#DejaVuSans-5f"/>
      <use x="854.244141" xlink:href="#DejaVuSans-32"/>
     </g>
    </g>
   </g>
  </g>
 </g>
 <defs>
  <clipPath id="pbe966f7c08">
   <rect height="242.5072" width="944.845" x="40.600625" y="31.48286"/>
  </clipPath>
 </defs>
</svg>
