<?xml version="1.0" encoding="utf-8" standalone="no"?>
<!DOCTYPE svg PUBLIC "-//W3C//DTD SVG 1.1//EN"
  "http://www.w3.org/Graphics/SVG/1.1/DTD/svg11.dtd">
<svg height="330.541644pt" version="1.1" viewBox="0 0 1000.318125 330.541644" width="1000.318125pt" xmlns="http://www.w3.org/2000/svg" xmlns:xlink="http://www.w3.org/1999/xlink">
 <metadata>
  <rdf:RDF xmlns:cc="http://creativecommons.org/ns#" xmlns:dc="http://purl.org/dc/elements/1.1/" xmlns:rdf="http://www.w3.org/1999/02/22-rdf-syntax-ns#">
   <cc:Work>
    <dc:type rdf:resource="http://purl.org/dc/dcmitype/StillImage"/>
    <dc:date>2022-05-31T19:37:00.700629</dc:date>
    <dc:format>image/svg+xml</dc:format>
    <dc:creator>
     <cc:Agent>
      <dc:title>Matplotlib v3.4.1, https://matplotlib.org/</dc:title>
     </cc:Agent>
    </dc:creator>
   </cc:Work>
  </rdf:RDF>
 </metadata>
 <defs>
  <style type="text/css">*{stroke-linecap:butt;stroke-linejoin:round;}</style>
 </defs>
 <g id="figure_1">
  <g id="axes_1">
   <g id="patch_1">
    <path d="M 38.058125 273.99006 
L 993.118125 273.99006 
L 993.118125 31.48286 
L 38.058125 31.48286 
z
" style="fill:#ffffff;"/>
   </g>
   <g id="patch_2">
    <path clip-path="url(#p11dabb703b)" d="M 38.058125 160.925834 
L 952.852091 160.925834 
L 952.852091 -129.810749 
L 38.058125 -129.810749 
z
" style="fill:#c3e6c3;"/>
   </g>
   <g id="patch_3">
    <path clip-path="url(#p11dabb703b)" d="M 38.058125 193.229898 
L 952.852091 193.229898 
L 952.852091 160.925834 
L 38.058125 160.925834 
z
" style="fill:#e6dcc3;"/>
   </g>
   <g id="patch_4">
    <path clip-path="url(#p11dabb703b)" d="M 38.058125 273.99006 
L 952.852091 273.99006 
L 952.852091 193.229898 
L 38.058125 193.229898 
z
" style="fill:#e6c3c3;"/>
   </g>
   <g id="matplotlib.axis_1">
    <g id="xtick_1">
     <g id="text_1">
      <!-- 0 -->
      <g transform="translate(75.779159 287.06881)scale(0.08 -0.08)">
       <defs>
        <path d="M 2034 4250 
Q 1547 4250 1301 3770 
Q 1056 3291 1056 2328 
Q 1056 1369 1301 889 
Q 1547 409 2034 409 
Q 2525 409 2770 889 
Q 3016 1369 3016 2328 
Q 3016 3291 2770 3770 
Q 2525 4250 2034 4250 
z
M 2034 4750 
Q 2819 4750 3233 4129 
Q 3647 3509 3647 2328 
Q 3647 1150 3233 529 
Q 2819 -91 2034 -91 
Q 1250 -91 836 529 
Q 422 1150 422 2328 
Q 422 3509 836 4129 
Q 1250 4750 2034 4750 
z
" id="DejaVuSans-30" transform="scale(0.015625)"/>
       </defs>
       <use xlink:href="#DejaVuSans-30"/>
      </g>
     </g>
    </g>
    <g id="xtick_2">
     <g id="text_2">
      <!-- 50 -->
      <g transform="translate(230.523356 287.06881)scale(0.08 -0.08)">
       <defs>
        <path d="M 691 4666 
L 3169 4666 
L 3169 4134 
L 1269 4134 
L 1269 2991 
Q 1406 3038 1543 3061 
Q 1681 3084 1819 3084 
Q 2600 3084 3056 2656 
Q 3513 2228 3513 1497 
Q 3513 744 3044 326 
Q 2575 -91 1722 -91 
Q 1428 -91 1123 -41 
Q 819 9 494 109 
L 494 744 
Q 775 591 1075 516 
Q 1375 441 1709 441 
Q 2250 441 2565 725 
Q 2881 1009 2881 1497 
Q 2881 1984 2565 2268 
Q 2250 2553 1709 2553 
Q 1456 2553 1204 2497 
Q 953 2441 691 2322 
L 691 4666 
z
" id="DejaVuSans-35" transform="scale(0.015625)"/>
       </defs>
       <use xlink:href="#DejaVuSans-35"/>
       <use x="63.623047" xlink:href="#DejaVuSans-30"/>
      </g>
     </g>
    </g>
    <g id="xtick_3">
     <g id="text_3">
      <!-- 100 -->
      <g transform="translate(385.267552 287.06881)scale(0.08 -0.08)">
       <defs>
        <path d="M 794 531 
L 1825 531 
L 1825 4091 
L 703 3866 
L 703 4441 
L 1819 4666 
L 2450 4666 
L 2450 531 
L 3481 531 
L 3481 0 
L 794 0 
L 794 531 
z
" id="DejaVuSans-31" transform="scale(0.015625)"/>
       </defs>
       <use xlink:href="#DejaVuSans-31"/>
       <use x="63.623047" xlink:href="#DejaVuSans-30"/>
       <use x="127.246094" xlink:href="#DejaVuSans-30"/>
      </g>
     </g>
    </g>
    <g id="xtick_4">
     <g id="text_4">
      <!-- 150 -->
      <g transform="translate(542.556748 287.06881)scale(0.08 -0.08)">
       <use xlink:href="#DejaVuSans-31"/>
       <use x="63.623047" xlink:href="#DejaVuSans-35"/>
       <use x="127.246094" xlink:href="#DejaVuSans-30"/>
      </g>
     </g>
    </g>
    <g id="xtick_5">
     <g id="text_5">
      <!-- 200 -->
      <g transform="translate(699.845944 287.06881)scale(0.08 -0.08)">
       <defs>
        <path d="M 1228 531 
L 3431 531 
L 3431 0 
L 469 0 
L 469 531 
Q 828 903 1448 1529 
Q 2069 2156 2228 2338 
Q 2531 2678 2651 2914 
Q 2772 3150 2772 3378 
Q 2772 3750 2511 3984 
Q 2250 4219 1831 4219 
Q 1534 4219 1204 4116 
Q 875 4013 500 3803 
L 500 4441 
Q 881 4594 1212 4672 
Q 1544 4750 1819 4750 
Q 2544 4750 2975 4387 
Q 3406 4025 3406 3419 
Q 3406 3131 3298 2873 
Q 3191 2616 2906 2266 
Q 2828 2175 2409 1742 
Q 1991 1309 1228 531 
z
" id="DejaVuSans-32" transform="scale(0.015625)"/>
       </defs>
       <use xlink:href="#DejaVuSans-32"/>
       <use x="63.623047" xlink:href="#DejaVuSans-30"/>
       <use x="127.246094" xlink:href="#DejaVuSans-30"/>
      </g>
     </g>
    </g>
    <g id="xtick_6">
     <g id="text_6">
      <!-- 250 -->
      <g transform="translate(857.135141 287.06881)scale(0.08 -0.08)">
       <use xlink:href="#DejaVuSans-32"/>
       <use x="63.623047" xlink:href="#DejaVuSans-35"/>
       <use x="127.246094" xlink:href="#DejaVuSans-30"/>
      </g>
     </g>
    </g>
    <g id="text_7">
     <!-- Position (bp) -->
     <g transform="translate(484.285 300.330997)scale(0.1 -0.1)">
      <defs>
       <path d="M 1259 4147 
L 1259 2394 
L 2053 2394 
Q 2494 2394 2734 2622 
Q 2975 2850 2975 3272 
Q 2975 3691 2734 3919 
Q 2494 4147 2053 4147 
L 1259 4147 
z
M 628 4666 
L 2053 4666 
Q 2838 4666 3239 4311 
Q 3641 3956 3641 3272 
Q 3641 2581 3239 2228 
Q 2838 1875 2053 1875 
L 1259 1875 
L 1259 0 
L 628 0 
L 628 4666 
z
" id="DejaVuSans-50" transform="scale(0.015625)"/>
       <path d="M 1959 3097 
Q 1497 3097 1228 2736 
Q 959 2375 959 1747 
Q 959 1119 1226 758 
Q 1494 397 1959 397 
Q 2419 397 2687 759 
Q 2956 1122 2956 1747 
Q 2956 2369 2687 2733 
Q 2419 3097 1959 3097 
z
M 1959 3584 
Q 2709 3584 3137 3096 
Q 3566 2609 3566 1747 
Q 3566 888 3137 398 
Q 2709 -91 1959 -91 
Q 1206 -91 779 398 
Q 353 888 353 1747 
Q 353 2609 779 3096 
Q 1206 3584 1959 3584 
z
" id="DejaVuSans-6f" transform="scale(0.015625)"/>
       <path d="M 2834 3397 
L 2834 2853 
Q 2591 2978 2328 3040 
Q 2066 3103 1784 3103 
Q 1356 3103 1142 2972 
Q 928 2841 928 2578 
Q 928 2378 1081 2264 
Q 1234 2150 1697 2047 
L 1894 2003 
Q 2506 1872 2764 1633 
Q 3022 1394 3022 966 
Q 3022 478 2636 193 
Q 2250 -91 1575 -91 
Q 1294 -91 989 -36 
Q 684 19 347 128 
L 347 722 
Q 666 556 975 473 
Q 1284 391 1588 391 
Q 1994 391 2212 530 
Q 2431 669 2431 922 
Q 2431 1156 2273 1281 
Q 2116 1406 1581 1522 
L 1381 1569 
Q 847 1681 609 1914 
Q 372 2147 372 2553 
Q 372 3047 722 3315 
Q 1072 3584 1716 3584 
Q 2034 3584 2315 3537 
Q 2597 3491 2834 3397 
z
" id="DejaVuSans-73" transform="scale(0.015625)"/>
       <path d="M 603 3500 
L 1178 3500 
L 1178 0 
L 603 0 
L 603 3500 
z
M 603 4863 
L 1178 4863 
L 1178 4134 
L 603 4134 
L 603 4863 
z
" id="DejaVuSans-69" transform="scale(0.015625)"/>
       <path d="M 1172 4494 
L 1172 3500 
L 2356 3500 
L 2356 3053 
L 1172 3053 
L 1172 1153 
Q 1172 725 1289 603 
Q 1406 481 1766 481 
L 2356 481 
L 2356 0 
L 1766 0 
Q 1100 0 847 248 
Q 594 497 594 1153 
L 594 3053 
L 172 3053 
L 172 3500 
L 594 3500 
L 594 4494 
L 1172 4494 
z
" id="DejaVuSans-74" transform="scale(0.015625)"/>
       <path d="M 3513 2113 
L 3513 0 
L 2938 0 
L 2938 2094 
Q 2938 2591 2744 2837 
Q 2550 3084 2163 3084 
Q 1697 3084 1428 2787 
Q 1159 2491 1159 1978 
L 1159 0 
L 581 0 
L 581 3500 
L 1159 3500 
L 1159 2956 
Q 1366 3272 1645 3428 
Q 1925 3584 2291 3584 
Q 2894 3584 3203 3211 
Q 3513 2838 3513 2113 
z
" id="DejaVuSans-6e" transform="scale(0.015625)"/>
       <path id="DejaVuSans-20" transform="scale(0.015625)"/>
       <path d="M 1984 4856 
Q 1566 4138 1362 3434 
Q 1159 2731 1159 2009 
Q 1159 1288 1364 580 
Q 1569 -128 1984 -844 
L 1484 -844 
Q 1016 -109 783 600 
Q 550 1309 550 2009 
Q 550 2706 781 3412 
Q 1013 4119 1484 4856 
L 1984 4856 
z
" id="DejaVuSans-28" transform="scale(0.015625)"/>
       <path d="M 3116 1747 
Q 3116 2381 2855 2742 
Q 2594 3103 2138 3103 
Q 1681 3103 1420 2742 
Q 1159 2381 1159 1747 
Q 1159 1113 1420 752 
Q 1681 391 2138 391 
Q 2594 391 2855 752 
Q 3116 1113 3116 1747 
z
M 1159 2969 
Q 1341 3281 1617 3432 
Q 1894 3584 2278 3584 
Q 2916 3584 3314 3078 
Q 3713 2572 3713 1747 
Q 3713 922 3314 415 
Q 2916 -91 2278 -91 
Q 1894 -91 1617 61 
Q 1341 213 1159 525 
L 1159 0 
L 581 0 
L 581 4863 
L 1159 4863 
L 1159 2969 
z
" id="DejaVuSans-62" transform="scale(0.015625)"/>
       <path d="M 1159 525 
L 1159 -1331 
L 581 -1331 
L 581 3500 
L 1159 3500 
L 1159 2969 
Q 1341 3281 1617 3432 
Q 1894 3584 2278 3584 
Q 2916 3584 3314 3078 
Q 3713 2572 3713 1747 
Q 3713 922 3314 415 
Q 2916 -91 2278 -91 
Q 1894 -91 1617 61 
Q 1341 213 1159 525 
z
M 3116 1747 
Q 3116 2381 2855 2742 
Q 2594 3103 2138 3103 
Q 1681 3103 1420 2742 
Q 1159 2381 1159 1747 
Q 1159 1113 1420 752 
Q 1681 391 2138 391 
Q 2594 391 2855 752 
Q 3116 1113 3116 1747 
z
" id="DejaVuSans-70" transform="scale(0.015625)"/>
       <path d="M 513 4856 
L 1013 4856 
Q 1481 4119 1714 3412 
Q 1947 2706 1947 2009 
Q 1947 1309 1714 600 
Q 1481 -109 1013 -844 
L 513 -844 
Q 928 -128 1133 580 
Q 1338 1288 1338 2009 
Q 1338 2731 1133 3434 
Q 928 4138 513 4856 
z
" id="DejaVuSans-29" transform="scale(0.015625)"/>
      </defs>
      <use xlink:href="#DejaVuSans-50"/>
      <use x="56.677734" xlink:href="#DejaVuSans-6f"/>
      <use x="117.859375" xlink:href="#DejaVuSans-73"/>
      <use x="169.958984" xlink:href="#DejaVuSans-69"/>
      <use x="197.742188" xlink:href="#DejaVuSans-74"/>
      <use x="236.951172" xlink:href="#DejaVuSans-69"/>
      <use x="264.734375" xlink:href="#DejaVuSans-6f"/>
      <use x="325.916016" xlink:href="#DejaVuSans-6e"/>
      <use x="389.294922" xlink:href="#DejaVuSans-20"/>
      <use x="421.082031" xlink:href="#DejaVuSans-28"/>
      <use x="460.095703" xlink:href="#DejaVuSans-62"/>
      <use x="523.572266" xlink:href="#DejaVuSans-70"/>
      <use x="587.048828" xlink:href="#DejaVuSans-29"/>
     </g>
    </g>
   </g>
   <g id="matplotlib.axis_2">
    <g id="ytick_1">
     <g id="line2d_1">
      <path clip-path="url(#p11dabb703b)" d="M 38.058125 273.99006 
L 993.118125 273.99006 
" style="fill:none;stroke:#dedede;stroke-linecap:square;"/>
     </g>
     <g id="text_8">
      <!-- 0 -->
      <g transform="translate(25.968125 277.029435)scale(0.08 -0.08)">
       <use xlink:href="#DejaVuSans-30"/>
      </g>
     </g>
    </g>
    <g id="ytick_2">
     <g id="line2d_2">
      <path clip-path="url(#p11dabb703b)" d="M 38.058125 233.609979 
L 993.118125 233.609979 
" style="fill:none;stroke:#dedede;stroke-linecap:square;"/>
     </g>
     <g id="text_9">
      <!-- 10 -->
      <g transform="translate(20.878125 236.649354)scale(0.08 -0.08)">
       <use xlink:href="#DejaVuSans-31"/>
       <use x="63.623047" xlink:href="#DejaVuSans-30"/>
      </g>
     </g>
    </g>
    <g id="ytick_3">
     <g id="line2d_3">
      <path clip-path="url(#p11dabb703b)" d="M 38.058125 193.229898 
L 993.118125 193.229898 
" style="fill:none;stroke:#dedede;stroke-linecap:square;"/>
     </g>
     <g id="text_10">
      <!-- 20 -->
      <g transform="translate(20.878125 196.269273)scale(0.08 -0.08)">
       <use xlink:href="#DejaVuSans-32"/>
       <use x="63.623047" xlink:href="#DejaVuSans-30"/>
      </g>
     </g>
    </g>
    <g id="ytick_4">
     <g id="line2d_4">
      <path clip-path="url(#p11dabb703b)" d="M 38.058125 152.849817 
L 993.118125 152.849817 
" style="fill:none;stroke:#dedede;stroke-linecap:square;"/>
     </g>
     <g id="text_11">
      <!-- 30 -->
      <g transform="translate(20.878125 155.889192)scale(0.08 -0.08)">
       <defs>
        <path d="M 2597 2516 
Q 3050 2419 3304 2112 
Q 3559 1806 3559 1356 
Q 3559 666 3084 287 
Q 2609 -91 1734 -91 
Q 1441 -91 1130 -33 
Q 819 25 488 141 
L 488 750 
Q 750 597 1062 519 
Q 1375 441 1716 441 
Q 2309 441 2620 675 
Q 2931 909 2931 1356 
Q 2931 1769 2642 2001 
Q 2353 2234 1838 2234 
L 1294 2234 
L 1294 2753 
L 1863 2753 
Q 2328 2753 2575 2939 
Q 2822 3125 2822 3475 
Q 2822 3834 2567 4026 
Q 2313 4219 1838 4219 
Q 1578 4219 1281 4162 
Q 984 4106 628 3988 
L 628 4550 
Q 988 4650 1302 4700 
Q 1616 4750 1894 4750 
Q 2613 4750 3031 4423 
Q 3450 4097 3450 3541 
Q 3450 3153 3228 2886 
Q 3006 2619 2597 2516 
z
" id="DejaVuSans-33" transform="scale(0.015625)"/>
       </defs>
       <use xlink:href="#DejaVuSans-33"/>
       <use x="63.623047" xlink:href="#DejaVuSans-30"/>
      </g>
     </g>
    </g>
    <g id="ytick_5">
     <g id="line2d_5">
      <path clip-path="url(#p11dabb703b)" d="M 38.058125 112.469737 
L 993.118125 112.469737 
" style="fill:none;stroke:#dedede;stroke-linecap:square;"/>
     </g>
     <g id="text_12">
      <!-- 40 -->
      <g transform="translate(20.878125 115.509112)scale(0.08 -0.08)">
       <defs>
        <path d="M 2419 4116 
L 825 1625 
L 2419 1625 
L 2419 4116 
z
M 2253 4666 
L 3047 4666 
L 3047 1625 
L 3713 1625 
L 3713 1100 
L 3047 1100 
L 3047 0 
L 2419 0 
L 2419 1100 
L 313 1100 
L 313 1709 
L 2253 4666 
z
" id="DejaVuSans-34" transform="scale(0.015625)"/>
       </defs>
       <use xlink:href="#DejaVuSans-34"/>
       <use x="63.623047" xlink:href="#DejaVuSans-30"/>
      </g>
     </g>
    </g>
    <g id="ytick_6">
     <g id="line2d_6">
      <path clip-path="url(#p11dabb703b)" d="M 38.058125 72.089656 
L 993.118125 72.089656 
" style="fill:none;stroke:#dedede;stroke-linecap:square;"/>
     </g>
     <g id="text_13">
      <!-- 50 -->
      <g transform="translate(20.878125 75.129031)scale(0.08 -0.08)">
       <use xlink:href="#DejaVuSans-35"/>
       <use x="63.623047" xlink:href="#DejaVuSans-30"/>
      </g>
     </g>
    </g>
    <g id="ytick_7">
     <g id="line2d_7">
      <path clip-path="url(#p11dabb703b)" d="M 38.058125 31.709575 
L 993.118125 31.709575 
" style="fill:none;stroke:#dedede;stroke-linecap:square;"/>
     </g>
     <g id="text_14">
      <!-- 60 -->
      <g transform="translate(20.878125 34.74895)scale(0.08 -0.08)">
       <defs>
        <path d="M 2113 2584 
Q 1688 2584 1439 2293 
Q 1191 2003 1191 1497 
Q 1191 994 1439 701 
Q 1688 409 2113 409 
Q 2538 409 2786 701 
Q 3034 994 3034 1497 
Q 3034 2003 2786 2293 
Q 2538 2584 2113 2584 
z
M 3366 4563 
L 3366 3988 
Q 3128 4100 2886 4159 
Q 2644 4219 2406 4219 
Q 1781 4219 1451 3797 
Q 1122 3375 1075 2522 
Q 1259 2794 1537 2939 
Q 1816 3084 2150 3084 
Q 2853 3084 3261 2657 
Q 3669 2231 3669 1497 
Q 3669 778 3244 343 
Q 2819 -91 2113 -91 
Q 1303 -91 875 529 
Q 447 1150 447 2328 
Q 447 3434 972 4092 
Q 1497 4750 2381 4750 
Q 2619 4750 2861 4703 
Q 3103 4656 3366 4563 
z
" id="DejaVuSans-36" transform="scale(0.015625)"/>
       </defs>
       <use xlink:href="#DejaVuSans-36"/>
       <use x="63.623047" xlink:href="#DejaVuSans-30"/>
      </g>
     </g>
    </g>
    <g id="text_15">
     <!-- Phred Score -->
     <g transform="translate(14.798438 182.70521)rotate(-90)scale(0.1 -0.1)">
      <defs>
       <path d="M 3513 2113 
L 3513 0 
L 2938 0 
L 2938 2094 
Q 2938 2591 2744 2837 
Q 2550 3084 2163 3084 
Q 1697 3084 1428 2787 
Q 1159 2491 1159 1978 
L 1159 0 
L 581 0 
L 581 4863 
L 1159 4863 
L 1159 2956 
Q 1366 3272 1645 3428 
Q 1925 3584 2291 3584 
Q 2894 3584 3203 3211 
Q 3513 2838 3513 2113 
z
" id="DejaVuSans-68" transform="scale(0.015625)"/>
       <path d="M 2631 2963 
Q 2534 3019 2420 3045 
Q 2306 3072 2169 3072 
Q 1681 3072 1420 2755 
Q 1159 2438 1159 1844 
L 1159 0 
L 581 0 
L 581 3500 
L 1159 3500 
L 1159 2956 
Q 1341 3275 1631 3429 
Q 1922 3584 2338 3584 
Q 2397 3584 2469 3576 
Q 2541 3569 2628 3553 
L 2631 2963 
z
" id="DejaVuSans-72" transform="scale(0.015625)"/>
       <path d="M 3597 1894 
L 3597 1613 
L 953 1613 
Q 991 1019 1311 708 
Q 1631 397 2203 397 
Q 2534 397 2845 478 
Q 3156 559 3463 722 
L 3463 178 
Q 3153 47 2828 -22 
Q 2503 -91 2169 -91 
Q 1331 -91 842 396 
Q 353 884 353 1716 
Q 353 2575 817 3079 
Q 1281 3584 2069 3584 
Q 2775 3584 3186 3129 
Q 3597 2675 3597 1894 
z
M 3022 2063 
Q 3016 2534 2758 2815 
Q 2500 3097 2075 3097 
Q 1594 3097 1305 2825 
Q 1016 2553 972 2059 
L 3022 2063 
z
" id="DejaVuSans-65" transform="scale(0.015625)"/>
       <path d="M 2906 2969 
L 2906 4863 
L 3481 4863 
L 3481 0 
L 2906 0 
L 2906 525 
Q 2725 213 2448 61 
Q 2172 -91 1784 -91 
Q 1150 -91 751 415 
Q 353 922 353 1747 
Q 353 2572 751 3078 
Q 1150 3584 1784 3584 
Q 2172 3584 2448 3432 
Q 2725 3281 2906 2969 
z
M 947 1747 
Q 947 1113 1208 752 
Q 1469 391 1925 391 
Q 2381 391 2643 752 
Q 2906 1113 2906 1747 
Q 2906 2381 2643 2742 
Q 2381 3103 1925 3103 
Q 1469 3103 1208 2742 
Q 947 2381 947 1747 
z
" id="DejaVuSans-64" transform="scale(0.015625)"/>
       <path d="M 3425 4513 
L 3425 3897 
Q 3066 4069 2747 4153 
Q 2428 4238 2131 4238 
Q 1616 4238 1336 4038 
Q 1056 3838 1056 3469 
Q 1056 3159 1242 3001 
Q 1428 2844 1947 2747 
L 2328 2669 
Q 3034 2534 3370 2195 
Q 3706 1856 3706 1288 
Q 3706 609 3251 259 
Q 2797 -91 1919 -91 
Q 1588 -91 1214 -16 
Q 841 59 441 206 
L 441 856 
Q 825 641 1194 531 
Q 1563 422 1919 422 
Q 2459 422 2753 634 
Q 3047 847 3047 1241 
Q 3047 1584 2836 1778 
Q 2625 1972 2144 2069 
L 1759 2144 
Q 1053 2284 737 2584 
Q 422 2884 422 3419 
Q 422 4038 858 4394 
Q 1294 4750 2059 4750 
Q 2388 4750 2728 4690 
Q 3069 4631 3425 4513 
z
" id="DejaVuSans-53" transform="scale(0.015625)"/>
       <path d="M 3122 3366 
L 3122 2828 
Q 2878 2963 2633 3030 
Q 2388 3097 2138 3097 
Q 1578 3097 1268 2742 
Q 959 2388 959 1747 
Q 959 1106 1268 751 
Q 1578 397 2138 397 
Q 2388 397 2633 464 
Q 2878 531 3122 666 
L 3122 134 
Q 2881 22 2623 -34 
Q 2366 -91 2075 -91 
Q 1284 -91 818 406 
Q 353 903 353 1747 
Q 353 2603 823 3093 
Q 1294 3584 2113 3584 
Q 2378 3584 2631 3529 
Q 2884 3475 3122 3366 
z
" id="DejaVuSans-63" transform="scale(0.015625)"/>
      </defs>
      <use xlink:href="#DejaVuSans-50"/>
      <use x="60.302734" xlink:href="#DejaVuSans-68"/>
      <use x="123.681641" xlink:href="#DejaVuSans-72"/>
      <use x="162.544922" xlink:href="#DejaVuSans-65"/>
      <use x="224.068359" xlink:href="#DejaVuSans-64"/>
      <use x="287.544922" xlink:href="#DejaVuSans-20"/>
      <use x="319.332031" xlink:href="#DejaVuSans-53"/>
      <use x="382.808594" xlink:href="#DejaVuSans-63"/>
      <use x="437.789062" xlink:href="#DejaVuSans-6f"/>
      <use x="498.970703" xlink:href="#DejaVuSans-72"/>
      <use x="537.833984" xlink:href="#DejaVuSans-65"/>
     </g>
    </g>
   </g>
   <g id="line2d_8">
    <path clip-path="url(#p11dabb703b)" d="M 81.469943 148.089273 
L 84.615727 147.018096 
L 87.761511 146.696883 
L 90.907295 146.744707 
L 94.053079 145.343688 
L 97.198863 129.872411 
L 100.344647 130.65969 
L 103.490431 133.069433 
L 106.636215 135.894092 
L 116.073566 132.449685 
L 131.802486 131.249845 
L 147.531406 130.795101 
L 163.260325 129.63421 
L 178.989245 130.389907 
L 194.718165 129.82443 
L 210.447084 129.678451 
L 226.176004 129.605679 
L 241.904923 129.778729 
L 257.633843 129.271737 
L 273.362763 129.867088 
L 289.091682 130.263617 
L 304.820602 132.735767 
L 320.549522 129.705911 
L 336.278441 129.784281 
L 352.007361 70.390809 
L 367.73628 37.487881 
L 383.4652 37.170633 
L 399.19412 37.44603 
L 414.923039 37.508094 
L 430.651959 37.56383 
L 446.380879 37.11482 
L 462.109798 38.00509 
L 477.838718 39.177212 
L 493.567638 40.318449 
L 509.296557 38.706754 
L 525.025477 38.58854 
L 540.754396 39.502143 
L 556.483316 119.532007 
L 572.212236 134.3109 
L 587.941155 135.114595 
L 603.670075 136.237104 
L 619.398995 133.656452 
L 635.127914 134.548604 
L 650.856834 133.696052 
L 666.585753 132.840155 
L 682.314673 133.818201 
L 698.043593 132.366203 
L 713.772512 132.708796 
L 729.501432 132.39448 
L 745.230352 131.89191 
L 760.959271 131.633957 
L 776.688191 131.477788 
L 792.417111 132.638767 
L 808.14603 144.246095 
L 823.87495 144.93133 
L 839.603869 135.727218 
L 855.332789 140.166516 
L 871.061709 141.775956 
L 886.790628 142.614125 
L 902.519548 144.230955 
L 918.248468 133.305858 
L 933.977387 149.754011 
L 946.560523 144.773801 
" style="fill:none;stroke:#5cb85c;stroke-linecap:square;"/>
   </g>
   <g id="line2d_9">
    <path clip-path="url(#p11dabb703b)" d="M 81.469943 148.169619 
L 84.615727 147.371152 
L 87.761511 146.770491 
L 90.907295 146.911909 
L 94.053079 145.415119 
L 97.198863 130.183028 
L 100.344647 131.206503 
L 103.490431 132.957762 
L 106.636215 134.597527 
L 116.073566 131.828151 
L 131.802486 131.630143 
L 147.531406 131.35801 
L 163.260325 130.207487 
L 178.989245 131.213556 
L 194.718165 130.683311 
L 210.447084 130.770226 
L 226.176004 130.963281 
L 241.904923 131.470336 
L 257.633843 131.24099 
L 273.362763 132.271816 
L 289.091682 133.466334 
L 304.820602 136.359201 
L 320.549522 133.994415 
L 336.278441 135.366143 
L 352.007361 79.392314 
L 367.73628 37.532816 
L 383.4652 37.352638 
L 399.19412 37.229487 
L 414.923039 37.674233 
L 430.651959 38.012475 
L 446.380879 37.418471 
L 462.109798 37.534429 
L 477.838718 40.056212 
L 493.567638 40.101742 
L 509.296557 38.90674 
L 525.025477 37.691811 
L 540.754396 39.936605 
L 556.483316 120.837102 
L 572.212236 133.128438 
L 587.941155 134.204401 
L 603.670075 136.823433 
L 619.398995 134.044396 
L 635.127914 134.524228 
L 650.856834 134.082628 
L 666.585753 132.715072 
L 682.314673 133.651073 
L 698.043593 132.358784 
L 713.772512 132.704675 
L 729.501432 132.59223 
L 745.230352 131.876636 
L 760.959271 131.576523 
L 776.688191 131.372636 
L 792.417111 132.195051 
L 808.14603 143.487735 
L 823.87495 145.887802 
L 839.603869 139.370999 
L 855.332789 137.813044 
L 871.061709 145.716003 
L 886.790628 138.043788 
L 902.519548 128.621769 
L 918.248468 140.735793 
L 933.977387 141.543395 
L 943.414739 144.773801 
" style="fill:none;stroke:#5cb85c;stroke-linecap:square;"/>
   </g>
   <g id="line2d_10">
    <path clip-path="url(#p11dabb703b)" d="M 81.469943 147.974861 
L 84.615727 147.057896 
L 87.761511 146.491576 
L 90.907295 146.737783 
L 94.053079 145.077763 
L 97.198863 130.142546 
L 100.344647 132.092097 
L 103.490431 131.332164 
L 106.636215 132.379261 
L 116.073566 132.232768 
L 131.802486 132.127298 
L 147.531406 130.887395 
L 163.260325 129.874048 
L 178.989245 130.588515 
L 194.718165 129.991008 
L 210.447084 129.78751 
L 226.176004 129.885344 
L 241.904923 130.174951 
L 257.633843 129.630165 
L 273.362763 130.157345 
L 289.091682 130.91729 
L 304.820602 133.080113 
L 320.549522 130.0518 
L 336.278441 130.480052 
L 352.007361 80.221001 
L 367.73628 38.251059 
L 383.4652 37.916324 
L 399.19412 38.002082 
L 414.923039 38.267744 
L 430.651959 38.22787 
L 446.380879 37.83494 
L 462.109798 38.514955 
L 477.838718 39.968186 
L 493.567638 40.368776 
L 509.296557 39.117802 
L 525.025477 38.017826 
L 540.754396 40.186596 
L 556.483316 120.941492 
L 572.212236 134.438148 
L 587.941155 135.288653 
L 603.670075 136.833571 
L 619.398995 134.001061 
L 635.127914 135.219286 
L 650.856834 134.349974 
L 666.585753 133.016114 
L 682.314673 134.315039 
L 698.043593 132.810389 
L 713.772512 133.079588 
L 729.501432 132.576197 
L 745.230352 132.154069 
L 760.959271 131.903843 
L 776.688191 131.71581 
L 792.417111 132.652854 
L 808.14603 142.909323 
L 823.87495 144.037303 
L 839.603869 133.61513 
L 855.332789 135.854046 
L 871.061709 141.205898 
L 886.790628 136.978354 
L 902.519548 135.535437 
L 918.248468 136.334454 
L 933.977387 139.632722 
L 949.706307 146.992929 
" style="fill:none;stroke:#5cb85c;stroke-linecap:square;"/>
   </g>
   <g id="line2d_11">
    <path clip-path="url(#p11dabb703b)" d="M 81.469943 147.50233 
L 84.615727 147.344785 
L 87.761511 146.406193 
L 90.907295 146.392904 
L 94.053079 144.790056 
L 97.198863 129.849308 
L 100.344647 130.899574 
L 103.490431 132.232025 
L 106.636215 133.084471 
L 116.073566 131.154748 
L 131.802486 131.305726 
L 147.531406 130.668065 
L 163.260325 129.35617 
L 178.989245 130.23687 
L 194.718165 129.330161 
L 210.447084 128.872905 
L 226.176004 128.71163 
L 241.904923 128.55916 
L 257.633843 127.35508 
L 273.362763 126.679277 
L 289.091682 127.242259 
L 304.820602 129.389036 
L 320.549522 124.659081 
L 336.278441 124.71584 
L 352.007361 77.697475 
L 367.73628 38.962754 
L 383.4652 38.419727 
L 399.19412 38.317076 
L 414.923039 39.204344 
L 430.651959 39.507285 
L 446.380879 38.696921 
L 462.109798 39.778037 
L 477.838718 41.22866 
L 493.567638 41.49994 
L 509.296557 40.733685 
L 525.025477 39.080127 
L 540.754396 40.599734 
L 556.483316 121.11163 
L 572.212236 134.321488 
L 587.941155 134.612699 
L 603.670075 136.143643 
L 619.398995 133.921098 
L 635.127914 134.289835 
L 650.856834 134.551409 
L 666.585753 132.700271 
L 682.314673 133.535472 
L 698.043593 132.854651 
L 713.772512 132.726536 
L 729.501432 133.034044 
L 745.230352 132.229211 
L 760.959271 131.861485 
L 776.688191 131.901036 
L 792.417111 132.353856 
L 808.14603 143.065696 
L 823.87495 144.09047 
L 839.603869 134.578563 
L 855.332789 136.029274 
L 871.061709 140.692776 
L 886.790628 137.250917 
L 902.519548 137.426943 
L 918.248468 137.60937 
L 933.977387 142.049935 
L 949.706307 146.296314 
" style="fill:none;stroke:#5cb85c;stroke-linecap:square;"/>
   </g>
   <g id="line2d_12">
    <path clip-path="url(#p11dabb703b)" d="M 81.469943 148.022039 
L 84.615727 146.989351 
L 87.761511 146.638787 
L 90.907295 146.81879 
L 94.053079 145.148283 
L 97.198863 129.940097 
L 100.344647 131.327439 
L 103.490431 131.939004 
L 106.636215 133.080092 
L 116.073566 131.548812 
L 131.802486 132.13856 
L 147.531406 130.897635 
L 163.260325 129.970445 
L 178.989245 130.709576 
L 194.718165 130.146556 
L 210.447084 130.076938 
L 226.176004 130.21425 
L 241.904923 130.600465 
L 257.633843 130.166908 
L 273.362763 130.947362 
L 289.091682 131.808173 
L 304.820602 134.109154 
L 320.549522 131.260209 
L 336.278441 131.908976 
L 352.007361 81.677643 
L 367.73628 38.313244 
L 383.4652 37.95784 
L 399.19412 38.083525 
L 414.923039 38.114079 
L 430.651959 38.080472 
L 446.380879 37.685728 
L 462.109798 38.455742 
L 477.838718 39.889649 
L 493.567638 40.255436 
L 509.296557 38.795229 
L 525.025477 37.90744 
L 540.754396 40.146074 
L 556.483316 120.83067 
L 572.212236 134.397125 
L 587.941155 135.363648 
L 603.670075 136.830768 
L 619.398995 133.838145 
L 635.127914 135.329623 
L 650.856834 134.28575 
L 666.585753 133.072994 
L 682.314673 134.375455 
L 698.043593 132.802611 
L 713.772512 133.059153 
L 729.501432 132.437638 
L 745.230352 132.099566 
L 760.959271 131.82892 
L 776.688191 131.571304 
L 792.417111 132.565914 
L 808.14603 142.763485 
L 823.87495 143.364593 
L 839.603869 133.289344 
L 855.332789 134.369369 
L 871.061709 139.742647 
L 886.790628 137.131661 
L 902.519548 136.311107 
L 918.248468 137.833574 
L 933.977387 144.145329 
L 949.706307 146.609018 
" style="fill:none;stroke:#5cb85c;stroke-linecap:square;"/>
   </g>
   <g id="line2d_13">
    <path clip-path="url(#p11dabb703b)" d="M 81.469943 147.613184 
L 84.615727 146.646814 
L 87.761511 146.288755 
L 90.907295 146.283305 
L 94.053079 144.781342 
L 97.198863 129.676893 
L 100.344647 130.433337 
L 103.490431 131.804983 
L 106.636215 132.409645 
L 116.073566 131.270729 
L 131.802486 131.04029 
L 147.531406 130.498523 
L 163.260325 129.450354 
L 178.989245 130.236168 
L 194.718165 129.576738 
L 210.447084 129.328606 
L 226.176004 129.273584 
L 241.904923 129.398547 
L 257.633843 128.694403 
L 273.362763 128.692502 
L 289.091682 129.33177 
L 304.820602 131.630874 
L 320.549522 127.392332 
L 336.278441 127.633552 
L 352.007361 77.787439 
L 367.73628 38.421998 
L 383.4652 37.923026 
L 399.19412 37.91985 
L 414.923039 38.418938 
L 430.651959 38.62968 
L 446.380879 37.985717 
L 462.109798 38.803621 
L 477.838718 40.494449 
L 493.567638 40.814549 
L 509.296557 39.644335 
L 525.025477 38.426512 
L 540.754396 40.216444 
L 556.483316 120.935265 
L 572.212236 134.222374 
L 587.941155 134.893691 
L 603.670075 136.522056 
L 619.398995 134.013348 
L 635.127914 134.688603 
L 650.856834 134.285165 
L 666.585753 132.876522 
L 682.314673 133.883272 
L 698.043593 132.68571 
L 713.772512 132.831204 
L 729.501432 132.680992 
L 745.230352 132.173887 
L 760.959271 131.926579 
L 776.688191 131.816433 
L 792.417111 132.527021 
L 808.14603 143.209575 
L 823.87495 143.865245 
L 839.603869 135.224343 
L 855.332789 135.513068 
L 871.061709 139.661345 
L 886.790628 137.110041 
L 902.519548 137.548491 
L 918.248468 139.08733 
L 933.977387 144.019269 
L 949.706307 145.775638 
" style="fill:none;stroke:#5cb85c;stroke-linecap:square;"/>
   </g>
   <g id="line2d_14">
    <path clip-path="url(#p11dabb703b)" d="M 38.058125 273.99006 
L 993.118125 273.99006 
" style="fill:none;stroke:#dedede;stroke-linecap:square;stroke-width:2;"/>
   </g>
   <g id="text_16">
    <!-- FastQC: Mean Quality Scores -->
    <g transform="translate(400.349375 19.3575)scale(0.16 -0.16)">
     <defs>
      <path d="M 628 4666 
L 3309 4666 
L 3309 4134 
L 1259 4134 
L 1259 2759 
L 3109 2759 
L 3109 2228 
L 1259 2228 
L 1259 0 
L 628 0 
L 628 4666 
z
" id="DejaVuSans-46" transform="scale(0.015625)"/>
      <path d="M 2194 1759 
Q 1497 1759 1228 1600 
Q 959 1441 959 1056 
Q 959 750 1161 570 
Q 1363 391 1709 391 
Q 2188 391 2477 730 
Q 2766 1069 2766 1631 
L 2766 1759 
L 2194 1759 
z
M 3341 1997 
L 3341 0 
L 2766 0 
L 2766 531 
Q 2569 213 2275 61 
Q 1981 -91 1556 -91 
Q 1019 -91 701 211 
Q 384 513 384 1019 
Q 384 1609 779 1909 
Q 1175 2209 1959 2209 
L 2766 2209 
L 2766 2266 
Q 2766 2663 2505 2880 
Q 2244 3097 1772 3097 
Q 1472 3097 1187 3025 
Q 903 2953 641 2809 
L 641 3341 
Q 956 3463 1253 3523 
Q 1550 3584 1831 3584 
Q 2591 3584 2966 3190 
Q 3341 2797 3341 1997 
z
" id="DejaVuSans-61" transform="scale(0.015625)"/>
      <path d="M 2522 4238 
Q 1834 4238 1429 3725 
Q 1025 3213 1025 2328 
Q 1025 1447 1429 934 
Q 1834 422 2522 422 
Q 3209 422 3611 934 
Q 4013 1447 4013 2328 
Q 4013 3213 3611 3725 
Q 3209 4238 2522 4238 
z
M 3406 84 
L 4238 -825 
L 3475 -825 
L 2784 -78 
Q 2681 -84 2626 -87 
Q 2572 -91 2522 -91 
Q 1538 -91 948 567 
Q 359 1225 359 2328 
Q 359 3434 948 4092 
Q 1538 4750 2522 4750 
Q 3503 4750 4090 4092 
Q 4678 3434 4678 2328 
Q 4678 1516 4351 937 
Q 4025 359 3406 84 
z
" id="DejaVuSans-51" transform="scale(0.015625)"/>
      <path d="M 4122 4306 
L 4122 3641 
Q 3803 3938 3442 4084 
Q 3081 4231 2675 4231 
Q 1875 4231 1450 3742 
Q 1025 3253 1025 2328 
Q 1025 1406 1450 917 
Q 1875 428 2675 428 
Q 3081 428 3442 575 
Q 3803 722 4122 1019 
L 4122 359 
Q 3791 134 3420 21 
Q 3050 -91 2638 -91 
Q 1578 -91 968 557 
Q 359 1206 359 2328 
Q 359 3453 968 4101 
Q 1578 4750 2638 4750 
Q 3056 4750 3426 4639 
Q 3797 4528 4122 4306 
z
" id="DejaVuSans-43" transform="scale(0.015625)"/>
      <path d="M 750 794 
L 1409 794 
L 1409 0 
L 750 0 
L 750 794 
z
M 750 3309 
L 1409 3309 
L 1409 2516 
L 750 2516 
L 750 3309 
z
" id="DejaVuSans-3a" transform="scale(0.015625)"/>
      <path d="M 628 4666 
L 1569 4666 
L 2759 1491 
L 3956 4666 
L 4897 4666 
L 4897 0 
L 4281 0 
L 4281 4097 
L 3078 897 
L 2444 897 
L 1241 4097 
L 1241 0 
L 628 0 
L 628 4666 
z
" id="DejaVuSans-4d" transform="scale(0.015625)"/>
      <path d="M 544 1381 
L 544 3500 
L 1119 3500 
L 1119 1403 
Q 1119 906 1312 657 
Q 1506 409 1894 409 
Q 2359 409 2629 706 
Q 2900 1003 2900 1516 
L 2900 3500 
L 3475 3500 
L 3475 0 
L 2900 0 
L 2900 538 
Q 2691 219 2414 64 
Q 2138 -91 1772 -91 
Q 1169 -91 856 284 
Q 544 659 544 1381 
z
M 1991 3584 
L 1991 3584 
z
" id="DejaVuSans-75" transform="scale(0.015625)"/>
      <path d="M 603 4863 
L 1178 4863 
L 1178 0 
L 603 0 
L 603 4863 
z
" id="DejaVuSans-6c" transform="scale(0.015625)"/>
      <path d="M 2059 -325 
Q 1816 -950 1584 -1140 
Q 1353 -1331 966 -1331 
L 506 -1331 
L 506 -850 
L 844 -850 
Q 1081 -850 1212 -737 
Q 1344 -625 1503 -206 
L 1606 56 
L 191 3500 
L 800 3500 
L 1894 763 
L 2988 3500 
L 3597 3500 
L 2059 -325 
z
" id="DejaVuSans-79" transform="scale(0.015625)"/>
     </defs>
     <use xlink:href="#DejaVuSans-46"/>
     <use x="48.394531" xlink:href="#DejaVuSans-61"/>
     <use x="109.673828" xlink:href="#DejaVuSans-73"/>
     <use x="161.773438" xlink:href="#DejaVuSans-74"/>
     <use x="200.982422" xlink:href="#DejaVuSans-51"/>
     <use x="279.693359" xlink:href="#DejaVuSans-43"/>
     <use x="349.517578" xlink:href="#DejaVuSans-3a"/>
     <use x="383.208984" xlink:href="#DejaVuSans-20"/>
     <use x="414.996094" xlink:href="#DejaVuSans-4d"/>
     <use x="501.275391" xlink:href="#DejaVuSans-65"/>
     <use x="562.798828" xlink:href="#DejaVuSans-61"/>
     <use x="624.078125" xlink:href="#DejaVuSans-6e"/>
     <use x="687.457031" xlink:href="#DejaVuSans-20"/>
     <use x="719.244141" xlink:href="#DejaVuSans-51"/>
     <use x="797.955078" xlink:href="#DejaVuSans-75"/>
     <use x="861.333984" xlink:href="#DejaVuSans-61"/>
     <use x="922.613281" xlink:href="#DejaVuSans-6c"/>
     <use x="950.396484" xlink:href="#DejaVuSans-69"/>
     <use x="978.179688" xlink:href="#DejaVuSans-74"/>
     <use x="1017.388672" xlink:href="#DejaVuSans-79"/>
     <use x="1076.568359" xlink:href="#DejaVuSans-20"/>
     <use x="1108.355469" xlink:href="#DejaVuSans-53"/>
     <use x="1171.832031" xlink:href="#DejaVuSans-63"/>
     <use x="1226.8125" xlink:href="#DejaVuSans-6f"/>
     <use x="1287.994141" xlink:href="#DejaVuSans-72"/>
     <use x="1326.857422" xlink:href="#DejaVuSans-65"/>
     <use x="1388.380859" xlink:href="#DejaVuSans-73"/>
    </g>
   </g>
   <g id="legend_1">
    <g id="line2d_15">
     <path d="M 45.258125 303.490394 
L 61.258125 303.490394 
" style="fill:none;stroke:#5cb85c;stroke-linecap:square;"/>
    </g>
    <g id="line2d_16"/>
    <g id="text_17">
     <!-- X2_lib_merged -->
     <g transform="translate(67.658125 306.290394)scale(0.08 -0.08)">
      <defs>
       <path d="M 403 4666 
L 1081 4666 
L 2241 2931 
L 3406 4666 
L 4084 4666 
L 2584 2425 
L 4184 0 
L 3506 0 
L 2194 1984 
L 872 0 
L 191 0 
L 1856 2491 
L 403 4666 
z
" id="DejaVuSans-58" transform="scale(0.015625)"/>
       <path d="M 3263 -1063 
L 3263 -1509 
L -63 -1509 
L -63 -1063 
L 3263 -1063 
z
" id="DejaVuSans-5f" transform="scale(0.015625)"/>
       <path d="M 3328 2828 
Q 3544 3216 3844 3400 
Q 4144 3584 4550 3584 
Q 5097 3584 5394 3201 
Q 5691 2819 5691 2113 
L 5691 0 
L 5113 0 
L 5113 2094 
Q 5113 2597 4934 2840 
Q 4756 3084 4391 3084 
Q 3944 3084 3684 2787 
Q 3425 2491 3425 1978 
L 3425 0 
L 2847 0 
L 2847 2094 
Q 2847 2600 2669 2842 
Q 2491 3084 2119 3084 
Q 1678 3084 1418 2786 
Q 1159 2488 1159 1978 
L 1159 0 
L 581 0 
L 581 3500 
L 1159 3500 
L 1159 2956 
Q 1356 3278 1631 3431 
Q 1906 3584 2284 3584 
Q 2666 3584 2933 3390 
Q 3200 3197 3328 2828 
z
" id="DejaVuSans-6d" transform="scale(0.015625)"/>
       <path d="M 2906 1791 
Q 2906 2416 2648 2759 
Q 2391 3103 1925 3103 
Q 1463 3103 1205 2759 
Q 947 2416 947 1791 
Q 947 1169 1205 825 
Q 1463 481 1925 481 
Q 2391 481 2648 825 
Q 2906 1169 2906 1791 
z
M 3481 434 
Q 3481 -459 3084 -895 
Q 2688 -1331 1869 -1331 
Q 1566 -1331 1297 -1286 
Q 1028 -1241 775 -1147 
L 775 -588 
Q 1028 -725 1275 -790 
Q 1522 -856 1778 -856 
Q 2344 -856 2625 -561 
Q 2906 -266 2906 331 
L 2906 616 
Q 2728 306 2450 153 
Q 2172 0 1784 0 
Q 1141 0 747 490 
Q 353 981 353 1791 
Q 353 2603 747 3093 
Q 1141 3584 1784 3584 
Q 2172 3584 2450 3431 
Q 2728 3278 2906 2969 
L 2906 3500 
L 3481 3500 
L 3481 434 
z
" id="DejaVuSans-67" transform="scale(0.015625)"/>
      </defs>
      <use xlink:href="#DejaVuSans-58"/>
      <use x="68.505859" xlink:href="#DejaVuSans-32"/>
      <use x="132.128906" xlink:href="#DejaVuSans-5f"/>
      <use x="182.128906" xlink:href="#DejaVuSans-6c"/>
      <use x="209.912109" xlink:href="#DejaVuSans-69"/>
      <use x="237.695312" xlink:href="#DejaVuSans-62"/>
      <use x="301.171875" xlink:href="#DejaVuSans-5f"/>
      <use x="351.171875" xlink:href="#DejaVuSans-6d"/>
      <use x="448.583984" xlink:href="#DejaVuSans-65"/>
      <use x="510.107422" xlink:href="#DejaVuSans-72"/>
      <use x="549.470703" xlink:href="#DejaVuSans-67"/>
      <use x="612.947266" xlink:href="#DejaVuSans-65"/>
      <use x="674.470703" xlink:href="#DejaVuSans-64"/>
     </g>
    </g>
    <g id="line2d_17">
     <path d="M 45.258125 315.455394 
L 61.258125 315.455394 
" style="fill:none;stroke:#5cb85c;stroke-linecap:square;"/>
    </g>
    <g id="line2d_18"/>
    <g id="text_18">
     <!-- X2_neg_merged -->
     <g transform="translate(67.658125 318.255394)scale(0.08 -0.08)">
      <use xlink:href="#DejaVuSans-58"/>
      <use x="68.505859" xlink:href="#DejaVuSans-32"/>
      <use x="132.128906" xlink:href="#DejaVuSans-5f"/>
      <use x="182.128906" xlink:href="#DejaVuSans-6e"/>
      <use x="245.507812" xlink:href="#DejaVuSans-65"/>
      <use x="307.03125" xlink:href="#DejaVuSans-67"/>
      <use x="370.507812" xlink:href="#DejaVuSans-5f"/>
      <use x="420.507812" xlink:href="#DejaVuSans-6d"/>
      <use x="517.919922" xlink:href="#DejaVuSans-65"/>
      <use x="579.443359" xlink:href="#DejaVuSans-72"/>
      <use x="618.806641" xlink:href="#DejaVuSans-67"/>
      <use x="682.283203" xlink:href="#DejaVuSans-65"/>
      <use x="743.806641" xlink:href="#DejaVuSans-64"/>
     </g>
    </g>
    <g id="line2d_19">
     <path d="M 240.628125 303.490394 
L 256.628125 303.490394 
" style="fill:none;stroke:#5cb85c;stroke-linecap:square;"/>
    </g>
    <g id="line2d_20"/>
    <g id="text_19">
     <!-- X2rL41_post_merged -->
     <g transform="translate(263.028125 306.290394)scale(0.08 -0.08)">
      <defs>
       <path d="M 628 4666 
L 1259 4666 
L 1259 531 
L 3531 531 
L 3531 0 
L 628 0 
L 628 4666 
z
" id="DejaVuSans-4c" transform="scale(0.015625)"/>
      </defs>
      <use xlink:href="#DejaVuSans-58"/>
      <use x="68.505859" xlink:href="#DejaVuSans-32"/>
      <use x="132.128906" xlink:href="#DejaVuSans-72"/>
      <use x="173.242188" xlink:href="#DejaVuSans-4c"/>
      <use x="228.955078" xlink:href="#DejaVuSans-34"/>
      <use x="292.578125" xlink:href="#DejaVuSans-31"/>
      <use x="356.201172" xlink:href="#DejaVuSans-5f"/>
      <use x="406.201172" xlink:href="#DejaVuSans-70"/>
      <use x="469.677734" xlink:href="#DejaVuSans-6f"/>
      <use x="530.859375" xlink:href="#DejaVuSans-73"/>
      <use x="582.958984" xlink:href="#DejaVuSans-74"/>
      <use x="622.167969" xlink:href="#DejaVuSans-5f"/>
      <use x="672.167969" xlink:href="#DejaVuSans-6d"/>
      <use x="769.580078" xlink:href="#DejaVuSans-65"/>
      <use x="831.103516" xlink:href="#DejaVuSans-72"/>
      <use x="870.466797" xlink:href="#DejaVuSans-67"/>
      <use x="933.943359" xlink:href="#DejaVuSans-65"/>
      <use x="995.466797" xlink:href="#DejaVuSans-64"/>
     </g>
    </g>
    <g id="line2d_21">
     <path d="M 456.130625 303.490394 
L 472.130625 303.490394 
" style="fill:none;stroke:#5cb85c;stroke-linecap:square;"/>
    </g>
    <g id="line2d_22"/>
    <g id="text_20">
     <!-- X2rL41_pre_merged -->
     <g transform="translate(478.530625 306.290394)scale(0.08 -0.08)">
      <use xlink:href="#DejaVuSans-58"/>
      <use x="68.505859" xlink:href="#DejaVuSans-32"/>
      <use x="132.128906" xlink:href="#DejaVuSans-72"/>
      <use x="173.242188" xlink:href="#DejaVuSans-4c"/>
      <use x="228.955078" xlink:href="#DejaVuSans-34"/>
      <use x="292.578125" xlink:href="#DejaVuSans-31"/>
      <use x="356.201172" xlink:href="#DejaVuSans-5f"/>
      <use x="406.201172" xlink:href="#DejaVuSans-70"/>
      <use x="469.677734" xlink:href="#DejaVuSans-72"/>
      <use x="508.541016" xlink:href="#DejaVuSans-65"/>
      <use x="570.064453" xlink:href="#DejaVuSans-5f"/>
      <use x="620.064453" xlink:href="#DejaVuSans-6d"/>
      <use x="717.476562" xlink:href="#DejaVuSans-65"/>
      <use x="779" xlink:href="#DejaVuSans-72"/>
      <use x="818.363281" xlink:href="#DejaVuSans-67"/>
      <use x="881.839844" xlink:href="#DejaVuSans-65"/>
      <use x="943.363281" xlink:href="#DejaVuSans-64"/>
     </g>
    </g>
    <g id="line2d_23">
     <path d="M 667.465625 303.490394 
L 683.465625 303.490394 
" style="fill:none;stroke:#5cb85c;stroke-linecap:square;"/>
    </g>
    <g id="line2d_24"/>
    <g id="text_21">
     <!-- X2rL42_post_merged -->
     <g transform="translate(689.865625 306.290394)scale(0.08 -0.08)">
      <use xlink:href="#DejaVuSans-58"/>
      <use x="68.505859" xlink:href="#DejaVuSans-32"/>
      <use x="132.128906" xlink:href="#DejaVuSans-72"/>
      <use x="173.242188" xlink:href="#DejaVuSans-4c"/>
      <use x="228.955078" xlink:href="#DejaVuSans-34"/>
      <use x="292.578125" xlink:href="#DejaVuSans-32"/>
      <use x="356.201172" xlink:href="#DejaVuSans-5f"/>
      <use x="406.201172" xlink:href="#DejaVuSans-70"/>
      <use x="469.677734" xlink:href="#DejaVuSans-6f"/>
      <use x="530.859375" xlink:href="#DejaVuSans-73"/>
      <use x="582.958984" xlink:href="#DejaVuSans-74"/>
      <use x="622.167969" xlink:href="#DejaVuSans-5f"/>
      <use x="672.167969" xlink:href="#DejaVuSans-6d"/>
      <use x="769.580078" xlink:href="#DejaVuSans-65"/>
      <use x="831.103516" xlink:href="#DejaVuSans-72"/>
      <use x="870.466797" xlink:href="#DejaVuSans-67"/>
      <use x="933.943359" xlink:href="#DejaVuSans-65"/>
      <use x="995.466797" xlink:href="#DejaVuSans-64"/>
     </g>
    </g>
    <g id="line2d_25">
     <path d="M 882.968125 303.490394 
L 898.968125 303.490394 
" style="fill:none;stroke:#5cb85c;stroke-linecap:square;"/>
    </g>
    <g id="line2d_26"/>
    <g id="text_22">
     <!-- X2rL42_pre_merged -->
     <g transform="translate(905.368125 306.290394)scale(0.08 -0.08)">
      <use xlink:href="#DejaVuSans-58"/>
      <use x="68.505859" xlink:href="#DejaVuSans-32"/>
      <use x="132.128906" xlink:href="#DejaVuSans-72"/>
      <use x="173.242188" xlink:href="#DejaVuSans-4c"/>
      <use x="228.955078" xlink:href="#DejaVuSans-34"/>
      <use x="292.578125" xlink:href="#DejaVuSans-32"/>
      <use x="356.201172" xlink:href="#DejaVuSans-5f"/>
      <use x="406.201172" xlink:href="#DejaVuSans-70"/>
      <use x="469.677734" xlink:href="#DejaVuSans-72"/>
      <use x="508.541016" xlink:href="#DejaVuSans-65"/>
      <use x="570.064453" xlink:href="#DejaVuSans-5f"/>
      <use x="620.064453" xlink:href="#DejaVuSans-6d"/>
      <use x="717.476562" xlink:href="#DejaVuSans-65"/>
      <use x="779" xlink:href="#DejaVuSans-72"/>
      <use x="818.363281" xlink:href="#DejaVuSans-67"/>
      <use x="881.839844" xlink:href="#DejaVuSans-65"/>
      <use x="943.363281" xlink:href="#DejaVuSans-64"/>
     </g>
    </g>
   </g>
  </g>
 </g>
 <defs>
  <clipPath id="p11dabb703b">
   <rect height="242.5072" width="955.06" x="38.058125" y="31.48286"/>
  </clipPath>
 </defs>
</svg>
