<?xml version="1.0" encoding="utf-8" standalone="no"?>
<!DOCTYPE svg PUBLIC "-//W3C//DTD SVG 1.1//EN"
  "http://www.w3.org/Graphics/SVG/1.1/DTD/svg11.dtd">
<svg height="330.541644pt" version="1.1" viewBox="0 0 1000.318125 330.541644" width="1000.318125pt" xmlns="http://www.w3.org/2000/svg" xmlns:xlink="http://www.w3.org/1999/xlink">
 <metadata>
  <rdf:RDF xmlns:cc="http://creativecommons.org/ns#" xmlns:dc="http://purl.org/dc/elements/1.1/" xmlns:rdf="http://www.w3.org/1999/02/22-rdf-syntax-ns#">
   <cc:Work>
    <dc:type rdf:resource="http://purl.org/dc/dcmitype/StillImage"/>
    <dc:date>2022-05-31T19:37:05.878085</dc:date>
    <dc:format>image/svg+xml</dc:format>
    <dc:creator>
     <cc:Agent>
      <dc:title>Matplotlib v3.4.1, https://matplotlib.org/</dc:title>
     </cc:Agent>
    </dc:creator>
   </cc:Work>
  </rdf:RDF>
 </metadata>
 <defs>
  <style type="text/css">*{stroke-linecap:butt;stroke-linejoin:round;}</style>
 </defs>
 <g id="figure_1">
  <g id="axes_1">
   <g id="patch_1">
    <path d="M 38.058125 273.99006 
L 993.118125 273.99006 
L 993.118125 31.48286 
L 38.058125 31.48286 
z
" style="fill:#ffffff;"/>
   </g>
   <g id="patch_2">
    <path clip-path="url(#p7e9782fda9)" d="M 38.058125 87.147432 
L 955.533397 87.147432 
L 955.533397 -393.30504 
L 38.058125 -393.30504 
z
" style="fill:#c3e6c3;"/>
   </g>
   <g id="patch_3">
    <path clip-path="url(#p7e9782fda9)" d="M 38.058125 140.53104 
L 955.533397 140.53104 
L 955.533397 87.147432 
L 38.058125 87.147432 
z
" style="fill:#e6dcc3;"/>
   </g>
   <g id="patch_4">
    <path clip-path="url(#p7e9782fda9)" d="M 38.058125 273.99006 
L 955.533397 273.99006 
L 955.533397 140.53104 
L 38.058125 140.53104 
z
" style="fill:#e6c3c3;"/>
   </g>
   <g id="matplotlib.axis_1">
    <g id="xtick_1">
     <g id="text_1">
      <!-- 0 -->
      <g transform="translate(73.097853 287.06881)scale(0.08 -0.08)">
       <defs>
        <path d="M 2034 4250 
Q 1547 4250 1301 3770 
Q 1056 3291 1056 2328 
Q 1056 1369 1301 889 
Q 1547 409 2034 409 
Q 2525 409 2770 889 
Q 3016 1369 3016 2328 
Q 3016 3291 2770 3770 
Q 2525 4250 2034 4250 
z
M 2034 4750 
Q 2819 4750 3233 4129 
Q 3647 3509 3647 2328 
Q 3647 1150 3233 529 
Q 2819 -91 2034 -91 
Q 1250 -91 836 529 
Q 422 1150 422 2328 
Q 422 3509 836 4129 
Q 1250 4750 2034 4750 
z
" id="DejaVuSans-30" transform="scale(0.015625)"/>
       </defs>
       <use xlink:href="#DejaVuSans-30"/>
      </g>
     </g>
    </g>
    <g id="xtick_2">
     <g id="text_2">
      <!-- 20 -->
      <g transform="translate(187.094647 287.06881)scale(0.08 -0.08)">
       <defs>
        <path d="M 1228 531 
L 3431 531 
L 3431 0 
L 469 0 
L 469 531 
Q 828 903 1448 1529 
Q 2069 2156 2228 2338 
Q 2531 2678 2651 2914 
Q 2772 3150 2772 3378 
Q 2772 3750 2511 3984 
Q 2250 4219 1831 4219 
Q 1534 4219 1204 4116 
Q 875 4013 500 3803 
L 500 4441 
Q 881 4594 1212 4672 
Q 1544 4750 1819 4750 
Q 2544 4750 2975 4387 
Q 3406 4025 3406 3419 
Q 3406 3131 3298 2873 
Q 3191 2616 2906 2266 
Q 2828 2175 2409 1742 
Q 1991 1309 1228 531 
z
" id="DejaVuSans-32" transform="scale(0.015625)"/>
       </defs>
       <use xlink:href="#DejaVuSans-32"/>
       <use x="63.623047" xlink:href="#DejaVuSans-30"/>
      </g>
     </g>
    </g>
    <g id="xtick_3">
     <g id="text_3">
      <!-- 40 -->
      <g transform="translate(303.636441 287.06881)scale(0.08 -0.08)">
       <defs>
        <path d="M 2419 4116 
L 825 1625 
L 2419 1625 
L 2419 4116 
z
M 2253 4666 
L 3047 4666 
L 3047 1625 
L 3713 1625 
L 3713 1100 
L 3047 1100 
L 3047 0 
L 2419 0 
L 2419 1100 
L 313 1100 
L 313 1709 
L 2253 4666 
z
" id="DejaVuSans-34" transform="scale(0.015625)"/>
       </defs>
       <use xlink:href="#DejaVuSans-34"/>
       <use x="63.623047" xlink:href="#DejaVuSans-30"/>
      </g>
     </g>
    </g>
    <g id="xtick_4">
     <g id="text_4">
      <!-- 60 -->
      <g transform="translate(420.178235 287.06881)scale(0.08 -0.08)">
       <defs>
        <path d="M 2113 2584 
Q 1688 2584 1439 2293 
Q 1191 2003 1191 1497 
Q 1191 994 1439 701 
Q 1688 409 2113 409 
Q 2538 409 2786 701 
Q 3034 994 3034 1497 
Q 3034 2003 2786 2293 
Q 2538 2584 2113 2584 
z
M 3366 4563 
L 3366 3988 
Q 3128 4100 2886 4159 
Q 2644 4219 2406 4219 
Q 1781 4219 1451 3797 
Q 1122 3375 1075 2522 
Q 1259 2794 1537 2939 
Q 1816 3084 2150 3084 
Q 2853 3084 3261 2657 
Q 3669 2231 3669 1497 
Q 3669 778 3244 343 
Q 2819 -91 2113 -91 
Q 1303 -91 875 529 
Q 447 1150 447 2328 
Q 447 3434 972 4092 
Q 1497 4750 2381 4750 
Q 2619 4750 2861 4703 
Q 3103 4656 3366 4563 
z
" id="DejaVuSans-36" transform="scale(0.015625)"/>
       </defs>
       <use xlink:href="#DejaVuSans-36"/>
       <use x="63.623047" xlink:href="#DejaVuSans-30"/>
      </g>
     </g>
    </g>
    <g id="xtick_5">
     <g id="text_5">
      <!-- 80 -->
      <g transform="translate(536.720029 287.06881)scale(0.08 -0.08)">
       <defs>
        <path d="M 2034 2216 
Q 1584 2216 1326 1975 
Q 1069 1734 1069 1313 
Q 1069 891 1326 650 
Q 1584 409 2034 409 
Q 2484 409 2743 651 
Q 3003 894 3003 1313 
Q 3003 1734 2745 1975 
Q 2488 2216 2034 2216 
z
M 1403 2484 
Q 997 2584 770 2862 
Q 544 3141 544 3541 
Q 544 4100 942 4425 
Q 1341 4750 2034 4750 
Q 2731 4750 3128 4425 
Q 3525 4100 3525 3541 
Q 3525 3141 3298 2862 
Q 3072 2584 2669 2484 
Q 3125 2378 3379 2068 
Q 3634 1759 3634 1313 
Q 3634 634 3220 271 
Q 2806 -91 2034 -91 
Q 1263 -91 848 271 
Q 434 634 434 1313 
Q 434 1759 690 2068 
Q 947 2378 1403 2484 
z
M 1172 3481 
Q 1172 3119 1398 2916 
Q 1625 2713 2034 2713 
Q 2441 2713 2670 2916 
Q 2900 3119 2900 3481 
Q 2900 3844 2670 4047 
Q 2441 4250 2034 4250 
Q 1625 4250 1398 4047 
Q 1172 3844 1172 3481 
z
" id="DejaVuSans-38" transform="scale(0.015625)"/>
       </defs>
       <use xlink:href="#DejaVuSans-38"/>
       <use x="63.623047" xlink:href="#DejaVuSans-30"/>
      </g>
     </g>
    </g>
    <g id="xtick_6">
     <g id="text_6">
      <!-- 100 -->
      <g transform="translate(650.716822 287.06881)scale(0.08 -0.08)">
       <defs>
        <path d="M 794 531 
L 1825 531 
L 1825 4091 
L 703 3866 
L 703 4441 
L 1819 4666 
L 2450 4666 
L 2450 531 
L 3481 531 
L 3481 0 
L 794 0 
L 794 531 
z
" id="DejaVuSans-31" transform="scale(0.015625)"/>
       </defs>
       <use xlink:href="#DejaVuSans-31"/>
       <use x="63.623047" xlink:href="#DejaVuSans-30"/>
       <use x="127.246094" xlink:href="#DejaVuSans-30"/>
      </g>
     </g>
    </g>
    <g id="xtick_7">
     <g id="text_7">
      <!-- 120 -->
      <g transform="translate(767.258616 287.06881)scale(0.08 -0.08)">
       <use xlink:href="#DejaVuSans-31"/>
       <use x="63.623047" xlink:href="#DejaVuSans-32"/>
       <use x="127.246094" xlink:href="#DejaVuSans-30"/>
      </g>
     </g>
    </g>
    <g id="xtick_8">
     <g id="text_8">
      <!-- 140 -->
      <g transform="translate(883.80041 287.06881)scale(0.08 -0.08)">
       <use xlink:href="#DejaVuSans-31"/>
       <use x="63.623047" xlink:href="#DejaVuSans-34"/>
       <use x="127.246094" xlink:href="#DejaVuSans-30"/>
      </g>
     </g>
    </g>
    <g id="text_9">
     <!-- Position (bp) -->
     <g transform="translate(484.285 300.330997)scale(0.1 -0.1)">
      <defs>
       <path d="M 1259 4147 
L 1259 2394 
L 2053 2394 
Q 2494 2394 2734 2622 
Q 2975 2850 2975 3272 
Q 2975 3691 2734 3919 
Q 2494 4147 2053 4147 
L 1259 4147 
z
M 628 4666 
L 2053 4666 
Q 2838 4666 3239 4311 
Q 3641 3956 3641 3272 
Q 3641 2581 3239 2228 
Q 2838 1875 2053 1875 
L 1259 1875 
L 1259 0 
L 628 0 
L 628 4666 
z
" id="DejaVuSans-50" transform="scale(0.015625)"/>
       <path d="M 1959 3097 
Q 1497 3097 1228 2736 
Q 959 2375 959 1747 
Q 959 1119 1226 758 
Q 1494 397 1959 397 
Q 2419 397 2687 759 
Q 2956 1122 2956 1747 
Q 2956 2369 2687 2733 
Q 2419 3097 1959 3097 
z
M 1959 3584 
Q 2709 3584 3137 3096 
Q 3566 2609 3566 1747 
Q 3566 888 3137 398 
Q 2709 -91 1959 -91 
Q 1206 -91 779 398 
Q 353 888 353 1747 
Q 353 2609 779 3096 
Q 1206 3584 1959 3584 
z
" id="DejaVuSans-6f" transform="scale(0.015625)"/>
       <path d="M 2834 3397 
L 2834 2853 
Q 2591 2978 2328 3040 
Q 2066 3103 1784 3103 
Q 1356 3103 1142 2972 
Q 928 2841 928 2578 
Q 928 2378 1081 2264 
Q 1234 2150 1697 2047 
L 1894 2003 
Q 2506 1872 2764 1633 
Q 3022 1394 3022 966 
Q 3022 478 2636 193 
Q 2250 -91 1575 -91 
Q 1294 -91 989 -36 
Q 684 19 347 128 
L 347 722 
Q 666 556 975 473 
Q 1284 391 1588 391 
Q 1994 391 2212 530 
Q 2431 669 2431 922 
Q 2431 1156 2273 1281 
Q 2116 1406 1581 1522 
L 1381 1569 
Q 847 1681 609 1914 
Q 372 2147 372 2553 
Q 372 3047 722 3315 
Q 1072 3584 1716 3584 
Q 2034 3584 2315 3537 
Q 2597 3491 2834 3397 
z
" id="DejaVuSans-73" transform="scale(0.015625)"/>
       <path d="M 603 3500 
L 1178 3500 
L 1178 0 
L 603 0 
L 603 3500 
z
M 603 4863 
L 1178 4863 
L 1178 4134 
L 603 4134 
L 603 4863 
z
" id="DejaVuSans-69" transform="scale(0.015625)"/>
       <path d="M 1172 4494 
L 1172 3500 
L 2356 3500 
L 2356 3053 
L 1172 3053 
L 1172 1153 
Q 1172 725 1289 603 
Q 1406 481 1766 481 
L 2356 481 
L 2356 0 
L 1766 0 
Q 1100 0 847 248 
Q 594 497 594 1153 
L 594 3053 
L 172 3053 
L 172 3500 
L 594 3500 
L 594 4494 
L 1172 4494 
z
" id="DejaVuSans-74" transform="scale(0.015625)"/>
       <path d="M 3513 2113 
L 3513 0 
L 2938 0 
L 2938 2094 
Q 2938 2591 2744 2837 
Q 2550 3084 2163 3084 
Q 1697 3084 1428 2787 
Q 1159 2491 1159 1978 
L 1159 0 
L 581 0 
L 581 3500 
L 1159 3500 
L 1159 2956 
Q 1366 3272 1645 3428 
Q 1925 3584 2291 3584 
Q 2894 3584 3203 3211 
Q 3513 2838 3513 2113 
z
" id="DejaVuSans-6e" transform="scale(0.015625)"/>
       <path id="DejaVuSans-20" transform="scale(0.015625)"/>
       <path d="M 1984 4856 
Q 1566 4138 1362 3434 
Q 1159 2731 1159 2009 
Q 1159 1288 1364 580 
Q 1569 -128 1984 -844 
L 1484 -844 
Q 1016 -109 783 600 
Q 550 1309 550 2009 
Q 550 2706 781 3412 
Q 1013 4119 1484 4856 
L 1984 4856 
z
" id="DejaVuSans-28" transform="scale(0.015625)"/>
       <path d="M 3116 1747 
Q 3116 2381 2855 2742 
Q 2594 3103 2138 3103 
Q 1681 3103 1420 2742 
Q 1159 2381 1159 1747 
Q 1159 1113 1420 752 
Q 1681 391 2138 391 
Q 2594 391 2855 752 
Q 3116 1113 3116 1747 
z
M 1159 2969 
Q 1341 3281 1617 3432 
Q 1894 3584 2278 3584 
Q 2916 3584 3314 3078 
Q 3713 2572 3713 1747 
Q 3713 922 3314 415 
Q 2916 -91 2278 -91 
Q 1894 -91 1617 61 
Q 1341 213 1159 525 
L 1159 0 
L 581 0 
L 581 4863 
L 1159 4863 
L 1159 2969 
z
" id="DejaVuSans-62" transform="scale(0.015625)"/>
       <path d="M 1159 525 
L 1159 -1331 
L 581 -1331 
L 581 3500 
L 1159 3500 
L 1159 2969 
Q 1341 3281 1617 3432 
Q 1894 3584 2278 3584 
Q 2916 3584 3314 3078 
Q 3713 2572 3713 1747 
Q 3713 922 3314 415 
Q 2916 -91 2278 -91 
Q 1894 -91 1617 61 
Q 1341 213 1159 525 
z
M 3116 1747 
Q 3116 2381 2855 2742 
Q 2594 3103 2138 3103 
Q 1681 3103 1420 2742 
Q 1159 2381 1159 1747 
Q 1159 1113 1420 752 
Q 1681 391 2138 391 
Q 2594 391 2855 752 
Q 3116 1113 3116 1747 
z
" id="DejaVuSans-70" transform="scale(0.015625)"/>
       <path d="M 513 4856 
L 1013 4856 
Q 1481 4119 1714 3412 
Q 1947 2706 1947 2009 
Q 1947 1309 1714 600 
Q 1481 -109 1013 -844 
L 513 -844 
Q 928 -128 1133 580 
Q 1338 1288 1338 2009 
Q 1338 2731 1133 3434 
Q 928 4138 513 4856 
z
" id="DejaVuSans-29" transform="scale(0.015625)"/>
      </defs>
      <use xlink:href="#DejaVuSans-50"/>
      <use x="56.677734" xlink:href="#DejaVuSans-6f"/>
      <use x="117.859375" xlink:href="#DejaVuSans-73"/>
      <use x="169.958984" xlink:href="#DejaVuSans-69"/>
      <use x="197.742188" xlink:href="#DejaVuSans-74"/>
      <use x="236.951172" xlink:href="#DejaVuSans-69"/>
      <use x="264.734375" xlink:href="#DejaVuSans-6f"/>
      <use x="325.916016" xlink:href="#DejaVuSans-6e"/>
      <use x="389.294922" xlink:href="#DejaVuSans-20"/>
      <use x="421.082031" xlink:href="#DejaVuSans-28"/>
      <use x="460.095703" xlink:href="#DejaVuSans-62"/>
      <use x="523.572266" xlink:href="#DejaVuSans-70"/>
      <use x="587.048828" xlink:href="#DejaVuSans-29"/>
     </g>
    </g>
   </g>
   <g id="matplotlib.axis_2">
    <g id="ytick_1">
     <g id="line2d_1">
      <path clip-path="url(#p7e9782fda9)" d="M 38.058125 273.99006 
L 993.118125 273.99006 
" style="fill:none;stroke:#dedede;stroke-linecap:square;"/>
     </g>
     <g id="text_10">
      <!-- 0 -->
      <g transform="translate(25.968125 277.029435)scale(0.08 -0.08)">
       <use xlink:href="#DejaVuSans-30"/>
      </g>
     </g>
    </g>
    <g id="ytick_2">
     <g id="line2d_2">
      <path clip-path="url(#p7e9782fda9)" d="M 38.058125 240.625305 
L 993.118125 240.625305 
" style="fill:none;stroke:#dedede;stroke-linecap:square;"/>
     </g>
     <g id="text_11">
      <!-- 5 -->
      <g transform="translate(25.968125 243.66468)scale(0.08 -0.08)">
       <defs>
        <path d="M 691 4666 
L 3169 4666 
L 3169 4134 
L 1269 4134 
L 1269 2991 
Q 1406 3038 1543 3061 
Q 1681 3084 1819 3084 
Q 2600 3084 3056 2656 
Q 3513 2228 3513 1497 
Q 3513 744 3044 326 
Q 2575 -91 1722 -91 
Q 1428 -91 1123 -41 
Q 819 9 494 109 
L 494 744 
Q 775 591 1075 516 
Q 1375 441 1709 441 
Q 2250 441 2565 725 
Q 2881 1009 2881 1497 
Q 2881 1984 2565 2268 
Q 2250 2553 1709 2553 
Q 1456 2553 1204 2497 
Q 953 2441 691 2322 
L 691 4666 
z
" id="DejaVuSans-35" transform="scale(0.015625)"/>
       </defs>
       <use xlink:href="#DejaVuSans-35"/>
      </g>
     </g>
    </g>
    <g id="ytick_3">
     <g id="line2d_3">
      <path clip-path="url(#p7e9782fda9)" d="M 38.058125 207.26055 
L 993.118125 207.26055 
" style="fill:none;stroke:#dedede;stroke-linecap:square;"/>
     </g>
     <g id="text_12">
      <!-- 10 -->
      <g transform="translate(20.878125 210.299925)scale(0.08 -0.08)">
       <use xlink:href="#DejaVuSans-31"/>
       <use x="63.623047" xlink:href="#DejaVuSans-30"/>
      </g>
     </g>
    </g>
    <g id="ytick_4">
     <g id="line2d_4">
      <path clip-path="url(#p7e9782fda9)" d="M 38.058125 173.895795 
L 993.118125 173.895795 
" style="fill:none;stroke:#dedede;stroke-linecap:square;"/>
     </g>
     <g id="text_13">
      <!-- 15 -->
      <g transform="translate(20.878125 176.93517)scale(0.08 -0.08)">
       <use xlink:href="#DejaVuSans-31"/>
       <use x="63.623047" xlink:href="#DejaVuSans-35"/>
      </g>
     </g>
    </g>
    <g id="ytick_5">
     <g id="line2d_5">
      <path clip-path="url(#p7e9782fda9)" d="M 38.058125 140.53104 
L 993.118125 140.53104 
" style="fill:none;stroke:#dedede;stroke-linecap:square;"/>
     </g>
     <g id="text_14">
      <!-- 20 -->
      <g transform="translate(20.878125 143.570415)scale(0.08 -0.08)">
       <use xlink:href="#DejaVuSans-32"/>
       <use x="63.623047" xlink:href="#DejaVuSans-30"/>
      </g>
     </g>
    </g>
    <g id="ytick_6">
     <g id="line2d_6">
      <path clip-path="url(#p7e9782fda9)" d="M 38.058125 107.166285 
L 993.118125 107.166285 
" style="fill:none;stroke:#dedede;stroke-linecap:square;"/>
     </g>
     <g id="text_15">
      <!-- 25 -->
      <g transform="translate(20.878125 110.20566)scale(0.08 -0.08)">
       <use xlink:href="#DejaVuSans-32"/>
       <use x="63.623047" xlink:href="#DejaVuSans-35"/>
      </g>
     </g>
    </g>
    <g id="ytick_7">
     <g id="line2d_7">
      <path clip-path="url(#p7e9782fda9)" d="M 38.058125 73.80153 
L 993.118125 73.80153 
" style="fill:none;stroke:#dedede;stroke-linecap:square;"/>
     </g>
     <g id="text_16">
      <!-- 30 -->
      <g transform="translate(20.878125 76.840905)scale(0.08 -0.08)">
       <defs>
        <path d="M 2597 2516 
Q 3050 2419 3304 2112 
Q 3559 1806 3559 1356 
Q 3559 666 3084 287 
Q 2609 -91 1734 -91 
Q 1441 -91 1130 -33 
Q 819 25 488 141 
L 488 750 
Q 750 597 1062 519 
Q 1375 441 1716 441 
Q 2309 441 2620 675 
Q 2931 909 2931 1356 
Q 2931 1769 2642 2001 
Q 2353 2234 1838 2234 
L 1294 2234 
L 1294 2753 
L 1863 2753 
Q 2328 2753 2575 2939 
Q 2822 3125 2822 3475 
Q 2822 3834 2567 4026 
Q 2313 4219 1838 4219 
Q 1578 4219 1281 4162 
Q 984 4106 628 3988 
L 628 4550 
Q 988 4650 1302 4700 
Q 1616 4750 1894 4750 
Q 2613 4750 3031 4423 
Q 3450 4097 3450 3541 
Q 3450 3153 3228 2886 
Q 3006 2619 2597 2516 
z
" id="DejaVuSans-33" transform="scale(0.015625)"/>
       </defs>
       <use xlink:href="#DejaVuSans-33"/>
       <use x="63.623047" xlink:href="#DejaVuSans-30"/>
      </g>
     </g>
    </g>
    <g id="ytick_8">
     <g id="line2d_8">
      <path clip-path="url(#p7e9782fda9)" d="M 38.058125 40.436775 
L 993.118125 40.436775 
" style="fill:none;stroke:#dedede;stroke-linecap:square;"/>
     </g>
     <g id="text_17">
      <!-- 35 -->
      <g transform="translate(20.878125 43.47615)scale(0.08 -0.08)">
       <use xlink:href="#DejaVuSans-33"/>
       <use x="63.623047" xlink:href="#DejaVuSans-35"/>
      </g>
     </g>
    </g>
    <g id="text_18">
     <!-- Phred Score -->
     <g transform="translate(14.798438 182.70521)rotate(-90)scale(0.1 -0.1)">
      <defs>
       <path d="M 3513 2113 
L 3513 0 
L 2938 0 
L 2938 2094 
Q 2938 2591 2744 2837 
Q 2550 3084 2163 3084 
Q 1697 3084 1428 2787 
Q 1159 2491 1159 1978 
L 1159 0 
L 581 0 
L 581 4863 
L 1159 4863 
L 1159 2956 
Q 1366 3272 1645 3428 
Q 1925 3584 2291 3584 
Q 2894 3584 3203 3211 
Q 3513 2838 3513 2113 
z
" id="DejaVuSans-68" transform="scale(0.015625)"/>
       <path d="M 2631 2963 
Q 2534 3019 2420 3045 
Q 2306 3072 2169 3072 
Q 1681 3072 1420 2755 
Q 1159 2438 1159 1844 
L 1159 0 
L 581 0 
L 581 3500 
L 1159 3500 
L 1159 2956 
Q 1341 3275 1631 3429 
Q 1922 3584 2338 3584 
Q 2397 3584 2469 3576 
Q 2541 3569 2628 3553 
L 2631 2963 
z
" id="DejaVuSans-72" transform="scale(0.015625)"/>
       <path d="M 3597 1894 
L 3597 1613 
L 953 1613 
Q 991 1019 1311 708 
Q 1631 397 2203 397 
Q 2534 397 2845 478 
Q 3156 559 3463 722 
L 3463 178 
Q 3153 47 2828 -22 
Q 2503 -91 2169 -91 
Q 1331 -91 842 396 
Q 353 884 353 1716 
Q 353 2575 817 3079 
Q 1281 3584 2069 3584 
Q 2775 3584 3186 3129 
Q 3597 2675 3597 1894 
z
M 3022 2063 
Q 3016 2534 2758 2815 
Q 2500 3097 2075 3097 
Q 1594 3097 1305 2825 
Q 1016 2553 972 2059 
L 3022 2063 
z
" id="DejaVuSans-65" transform="scale(0.015625)"/>
       <path d="M 2906 2969 
L 2906 4863 
L 3481 4863 
L 3481 0 
L 2906 0 
L 2906 525 
Q 2725 213 2448 61 
Q 2172 -91 1784 -91 
Q 1150 -91 751 415 
Q 353 922 353 1747 
Q 353 2572 751 3078 
Q 1150 3584 1784 3584 
Q 2172 3584 2448 3432 
Q 2725 3281 2906 2969 
z
M 947 1747 
Q 947 1113 1208 752 
Q 1469 391 1925 391 
Q 2381 391 2643 752 
Q 2906 1113 2906 1747 
Q 2906 2381 2643 2742 
Q 2381 3103 1925 3103 
Q 1469 3103 1208 2742 
Q 947 2381 947 1747 
z
" id="DejaVuSans-64" transform="scale(0.015625)"/>
       <path d="M 3425 4513 
L 3425 3897 
Q 3066 4069 2747 4153 
Q 2428 4238 2131 4238 
Q 1616 4238 1336 4038 
Q 1056 3838 1056 3469 
Q 1056 3159 1242 3001 
Q 1428 2844 1947 2747 
L 2328 2669 
Q 3034 2534 3370 2195 
Q 3706 1856 3706 1288 
Q 3706 609 3251 259 
Q 2797 -91 1919 -91 
Q 1588 -91 1214 -16 
Q 841 59 441 206 
L 441 856 
Q 825 641 1194 531 
Q 1563 422 1919 422 
Q 2459 422 2753 634 
Q 3047 847 3047 1241 
Q 3047 1584 2836 1778 
Q 2625 1972 2144 2069 
L 1759 2144 
Q 1053 2284 737 2584 
Q 422 2884 422 3419 
Q 422 4038 858 4394 
Q 1294 4750 2059 4750 
Q 2388 4750 2728 4690 
Q 3069 4631 3425 4513 
z
" id="DejaVuSans-53" transform="scale(0.015625)"/>
       <path d="M 3122 3366 
L 3122 2828 
Q 2878 2963 2633 3030 
Q 2388 3097 2138 3097 
Q 1578 3097 1268 2742 
Q 959 2388 959 1747 
Q 959 1106 1268 751 
Q 1578 397 2138 397 
Q 2388 397 2633 464 
Q 2878 531 3122 666 
L 3122 134 
Q 2881 22 2623 -34 
Q 2366 -91 2075 -91 
Q 1284 -91 818 406 
Q 353 903 353 1747 
Q 353 2603 823 3093 
Q 1294 3584 2113 3584 
Q 2378 3584 2631 3529 
Q 2884 3475 3122 3366 
z
" id="DejaVuSans-63" transform="scale(0.015625)"/>
      </defs>
      <use xlink:href="#DejaVuSans-50"/>
      <use x="60.302734" xlink:href="#DejaVuSans-68"/>
      <use x="123.681641" xlink:href="#DejaVuSans-72"/>
      <use x="162.544922" xlink:href="#DejaVuSans-65"/>
      <use x="224.068359" xlink:href="#DejaVuSans-64"/>
      <use x="287.544922" xlink:href="#DejaVuSans-20"/>
      <use x="319.332031" xlink:href="#DejaVuSans-53"/>
      <use x="382.808594" xlink:href="#DejaVuSans-63"/>
      <use x="437.789062" xlink:href="#DejaVuSans-6f"/>
      <use x="498.970703" xlink:href="#DejaVuSans-72"/>
      <use x="537.833984" xlink:href="#DejaVuSans-65"/>
     </g>
    </g>
   </g>
   <g id="line2d_9">
    <path clip-path="url(#p7e9782fda9)" d="M 81.469943 66.566197 
L 87.297033 64.696142 
L 93.124123 64.077709 
L 98.951212 64.448425 
L 104.778302 61.713457 
L 110.605392 36.408704 
L 116.432481 37.816803 
L 122.259571 41.961954 
L 128.086661 46.448911 
L 145.56793 40.826855 
L 174.703378 38.899627 
L 203.838827 38.211595 
L 232.974275 36.46812 
L 262.109724 38.087525 
L 291.245172 37.539313 
L 320.38062 37.877246 
L 349.516069 38.292773 
L 378.651517 39.297117 
L 407.786966 38.898596 
L 436.922414 40.941086 
L 466.057863 42.420291 
L 495.193311 46.974757 
L 524.32876 42.842275 
L 553.464208 45.904781 
L 582.599656 46.837052 
L 611.735105 46.000269 
L 640.870553 46.112509 
L 670.006002 45.274528 
L 699.14145 51.426456 
L 728.276899 53.320382 
L 757.412347 49.372452 
L 786.547796 54.422047 
L 815.683244 64.344057 
L 844.818692 69.379127 
L 873.954141 69.00132 
L 903.089589 67.578455 
L 932.225038 69.834736 
L 949.706307 116.039978 
" style="fill:none;stroke:#f0ad4e;stroke-linecap:square;"/>
   </g>
   <g id="line2d_10">
    <path clip-path="url(#p7e9782fda9)" d="M 81.469943 63.960955 
L 87.297033 64.940956 
L 93.124123 63.722021 
L 98.951212 64.307478 
L 104.778302 64.196604 
L 110.605392 39.90655 
L 116.432481 42.512053 
L 122.259571 38.825063 
L 128.086661 42.497976 
L 145.56793 40.869452 
L 174.703378 40.166096 
L 203.838827 41.310062 
L 232.974275 42.436051 
L 262.109724 41.430027 
L 291.245172 42.573518 
L 320.38062 45.471258 
L 349.516069 42.871564 
L 378.651517 44.585091 
L 407.786966 46.050743 
L 436.922414 43.905347 
L 466.057863 47.693687 
L 495.193311 48.025853 
L 524.32876 45.103151 
L 553.464208 49.557908 
L 582.599656 49.022467 
L 611.735105 48.662439 
L 640.870553 46.795114 
L 670.006002 48.440645 
L 699.14145 49.845639 
L 728.276899 50.750238 
L 757.412347 50.933182 
L 786.547796 50.321761 
L 815.683244 54.348477 
L 844.818692 59.161141 
L 873.954141 53.169892 
L 903.089589 57.622829 
L 932.225038 65.90324 
" style="fill:none;stroke:#5cb85c;stroke-linecap:square;"/>
   </g>
   <g id="line2d_11">
    <path clip-path="url(#p7e9782fda9)" d="M 81.469943 66.694882 
L 87.297033 65.266216 
L 93.124123 64.199807 
L 98.951212 64.741445 
L 104.778302 61.750139 
L 110.605392 36.870957 
L 116.432481 38.664937 
L 122.259571 41.843065 
L 128.086661 44.324745 
L 145.56793 39.752521 
L 174.703378 39.420055 
L 203.838827 38.91128 
L 232.974275 37.011312 
L 262.109724 38.846473 
L 291.245172 37.984626 
L 320.38062 38.267565 
L 349.516069 38.822843 
L 378.651517 39.802434 
L 407.786966 39.280395 
L 436.922414 41.463652 
L 466.057863 43.394363 
L 495.193311 47.987459 
L 524.32876 43.936011 
L 553.464208 46.822807 
L 582.599656 47.471405 
L 611.735105 45.641732 
L 640.870553 46.508681 
L 670.006002 45.15537 
L 699.14145 52.95269 
L 728.276899 55.943615 
L 757.412347 52.42007 
L 786.547796 52.063321 
L 815.683244 70.417959 
L 844.818692 70.328676 
L 873.954141 71.479307 
L 903.089589 67.362692 
L 932.225038 72.116061 
L 949.706307 134.925594 
" style="fill:none;stroke:#f0ad4e;stroke-linecap:square;"/>
   </g>
   <g id="line2d_12">
    <path clip-path="url(#p7e9782fda9)" d="M 81.469943 64.329707 
L 87.297033 64.895498 
L 93.124123 63.379178 
L 98.951212 63.919562 
L 104.778302 64.425925 
L 110.605392 40.359409 
L 116.432481 42.597321 
L 122.259571 38.50689 
L 128.086661 42.03516 
L 145.56793 40.602342 
L 174.703378 40.083729 
L 203.838827 41.293709 
L 232.974275 42.800268 
L 262.109724 41.510019 
L 291.245172 42.274521 
L 320.38062 45.406397 
L 349.516069 42.423367 
L 378.651517 44.996278 
L 407.786966 45.655638 
L 436.922414 44.088883 
L 466.057863 48.293126 
L 495.193311 47.641411 
L 524.32876 44.222298 
L 553.464208 47.359448 
L 582.599656 48.268451 
L 611.735105 48.55361 
L 640.870553 46.592528 
L 670.006002 47.854807 
L 699.14145 49.508375 
L 728.276899 50.621934 
L 757.412347 50.560814 
L 786.547796 50.719164 
L 815.683244 53.707849 
L 844.818692 57.317763 
L 873.954141 53.082574 
L 903.089589 58.042196 
L 932.225038 67.568908 
" style="fill:none;stroke:#5cb85c;stroke-linecap:square;"/>
   </g>
   <g id="line2d_13">
    <path clip-path="url(#p7e9782fda9)" d="M 81.469943 66.716825 
L 87.297033 65.14468 
L 93.124123 64.117212 
L 98.951212 64.862077 
L 104.778302 61.617026 
L 110.605392 37.277714 
L 116.432481 40.488843 
L 122.259571 39.425655 
L 128.086661 41.012301 
L 145.56793 40.853015 
L 174.703378 40.782801 
L 203.838827 38.677059 
L 232.974275 37.114426 
L 262.109724 38.672248 
L 291.245172 37.997394 
L 320.38062 38.191419 
L 349.516069 38.795225 
L 378.651517 39.873214 
L 407.786966 39.372946 
L 436.922414 41.700039 
L 466.057863 43.454114 
L 495.193311 47.54602 
L 524.32876 44.112341 
L 553.464208 46.876478 
L 582.599656 46.373216 
L 611.735105 45.698079 
L 640.870553 46.717127 
L 670.006002 45.792151 
L 699.14145 52.825801 
L 728.276899 54.61049 
L 757.412347 51.006567 
L 786.547796 52.341595 
L 815.683244 66.591381 
L 844.818692 68.750237 
L 873.954141 70.597623 
L 903.089589 66.315953 
L 932.225038 71.189176 
L 949.706307 128.993734 
" style="fill:none;stroke:#f0ad4e;stroke-linecap:square;"/>
   </g>
   <g id="line2d_14">
    <path clip-path="url(#p7e9782fda9)" d="M 81.469943 64.429393 
L 87.297033 65.073258 
L 93.124123 63.49902 
L 98.951212 64.143374 
L 104.778302 64.484768 
L 110.605392 40.54632 
L 116.432481 43.19771 
L 122.259571 38.760307 
L 128.086661 42.526068 
L 145.56793 41.111117 
L 174.703378 40.378883 
L 203.838827 41.615031 
L 232.974275 42.90305 
L 262.109724 41.709227 
L 291.245172 42.924153 
L 320.38062 46.182472 
L 349.516069 43.913544 
L 378.651517 45.051601 
L 407.786966 47.47985 
L 436.922414 44.667051 
L 466.057863 48.35106 
L 495.193311 49.033005 
L 524.32876 46.541082 
L 553.464208 49.441999 
L 582.599656 50.546982 
L 611.735105 49.37112 
L 640.870553 47.635757 
L 670.006002 49.189277 
L 699.14145 50.637449 
L 728.276899 53.627153 
L 757.412347 52.991356 
L 786.547796 52.694753 
L 815.683244 55.039051 
L 844.818692 60.802069 
L 873.954141 54.857557 
L 903.089589 59.63117 
L 932.225038 67.605955 
" style="fill:none;stroke:#5cb85c;stroke-linecap:square;"/>
   </g>
   <g id="line2d_15">
    <path clip-path="url(#p7e9782fda9)" d="M 81.469943 66.623516 
L 87.297033 66.308083 
L 93.124123 64.660899 
L 98.951212 64.947003 
L 104.778302 61.82094 
L 110.605392 37.300811 
L 116.432481 39.152154 
L 122.259571 41.752036 
L 128.086661 43.027703 
L 145.56793 39.875114 
L 174.703378 40.301454 
L 203.838827 39.344668 
L 232.974275 37.388007 
L 262.109724 39.436061 
L 291.245172 38.522028 
L 320.38062 38.817928 
L 349.516069 39.327379 
L 378.651517 40.556675 
L 407.786966 40.152361 
L 436.922414 42.486728 
L 466.057863 44.65253 
L 495.193311 49.866893 
L 524.32876 45.355152 
L 553.464208 49.016756 
L 582.599656 49.753393 
L 611.735105 47.7771 
L 640.870553 48.560389 
L 670.006002 47.578151 
L 699.14145 55.675561 
L 728.276899 57.917752 
L 757.412347 54.547946 
L 786.547796 56.210646 
L 815.683244 72.084945 
L 844.818692 73.596417 
L 873.954141 75.081319 
L 903.089589 70.541618 
L 932.225038 74.807193 
L 949.706307 129.36287 
" style="fill:none;stroke:#f0ad4e;stroke-linecap:square;"/>
   </g>
   <g id="line2d_16">
    <path clip-path="url(#p7e9782fda9)" d="M 81.469943 64.680884 
L 87.297033 65.269466 
L 93.124123 63.436118 
L 98.951212 63.722846 
L 104.778302 64.756181 
L 110.605392 40.986024 
L 116.432481 42.979012 
L 122.259571 38.562495 
L 128.086661 41.501593 
L 145.56793 40.708936 
L 174.703378 40.366827 
L 203.838827 41.622469 
L 232.974275 43.443079 
L 262.109724 41.916987 
L 291.245172 42.166723 
L 320.38062 45.832621 
L 349.516069 43.126791 
L 378.651517 45.77592 
L 407.786966 46.412962 
L 436.922414 44.480634 
L 466.057863 48.230686 
L 495.193311 48.710627 
L 524.32876 46.099955 
L 553.464208 50.421493 
L 582.599656 50.254409 
L 611.735105 50.387934 
L 640.870553 50.145446 
L 670.006002 51.561827 
L 699.14145 51.941384 
L 728.276899 55.263392 
L 757.412347 54.291351 
L 786.547796 56.115265 
L 815.683244 57.422417 
L 844.818692 61.730409 
L 873.954141 56.98293 
L 903.089589 61.409115 
L 932.225038 71.816076 
" style="fill:none;stroke:#5cb85c;stroke-linecap:square;"/>
   </g>
   <g id="line2d_17">
    <path clip-path="url(#p7e9782fda9)" d="M 81.469943 66.822086 
L 87.297033 64.988695 
L 93.124123 64.343901 
L 98.951212 65.024655 
L 104.778302 61.719313 
L 110.605392 36.961504 
L 116.432481 39.292917 
L 122.259571 40.494607 
L 128.086661 42.165793 
L 145.56793 39.66995 
L 174.703378 40.736746 
L 203.838827 38.589793 
L 232.974275 37.139959 
L 262.109724 38.639181 
L 291.245172 37.937896 
L 320.38062 38.222558 
L 349.516069 38.810353 
L 378.651517 39.868284 
L 407.786966 39.341477 
L 436.922414 41.655326 
L 466.057863 43.363793 
L 495.193311 47.577777 
L 524.32876 43.920702 
L 553.464208 46.857262 
L 582.599656 46.788342 
L 611.735105 45.828733 
L 640.870553 46.646905 
L 670.006002 45.579828 
L 699.14145 52.331458 
L 728.276899 54.59572 
L 757.412347 50.719866 
L 786.547796 52.345545 
L 815.683244 67.018148 
L 844.818692 68.892111 
L 873.954141 70.241466 
L 903.089589 66.551164 
L 932.225038 70.984729 
L 949.706307 129.59984 
" style="fill:none;stroke:#f0ad4e;stroke-linecap:square;"/>
   </g>
   <g id="line2d_18">
    <path clip-path="url(#p7e9782fda9)" d="M 81.469943 64.30175 
L 87.297033 64.958319 
L 93.124123 63.600454 
L 98.951212 64.318259 
L 104.778302 64.467717 
L 110.605392 40.370236 
L 116.432481 42.859548 
L 122.259571 38.822797 
L 128.086661 42.704771 
L 145.56793 41.052799 
L 174.703378 40.339305 
L 203.838827 41.581532 
L 232.974275 42.835058 
L 262.109724 41.689171 
L 291.245172 42.960812 
L 320.38062 46.222671 
L 349.516069 44.053828 
L 378.651517 44.958874 
L 407.786966 47.672327 
L 436.922414 44.557409 
L 466.057863 48.068104 
L 495.193311 48.951679 
L 524.32876 46.638243 
L 553.464208 49.069524 
L 582.599656 50.623282 
L 611.735105 49.123754 
L 640.870553 47.078217 
L 670.006002 48.630382 
L 699.14145 50.412038 
L 728.276899 53.489135 
L 757.412347 52.76837 
L 786.547796 51.879092 
L 815.683244 54.467206 
L 844.818692 60.690558 
L 873.954141 54.399796 
L 903.089589 59.311299 
L 932.225038 66.82998 
" style="fill:none;stroke:#5cb85c;stroke-linecap:square;"/>
   </g>
   <g id="line2d_19">
    <path clip-path="url(#p7e9782fda9)" d="M 81.469943 66.712585 
L 87.297033 65.034801 
L 93.124123 64.368237 
L 98.951212 64.677865 
L 104.778302 61.692439 
L 110.605392 36.958574 
L 116.432481 38.340604 
L 122.259571 40.859655 
L 128.086661 41.660306 
L 145.56793 39.831308 
L 174.703378 39.581067 
L 203.838827 38.866312 
L 232.974275 37.271184 
L 262.109724 38.955907 
L 291.245172 38.114503 
L 320.38062 38.455141 
L 349.516069 38.985555 
L 378.651517 40.103164 
L 407.786966 39.744179 
L 436.922414 41.97525 
L 466.057863 43.933365 
L 495.193311 49.013751 
L 524.32876 44.505948 
L 553.464208 47.928115 
L 582.599656 48.93758 
L 611.735105 47.138952 
L 640.870553 47.474548 
L 670.006002 46.26737 
L 699.14145 53.553407 
L 728.276899 56.449229 
L 757.412347 52.497304 
L 786.547796 54.731937 
L 815.683244 70.094956 
L 844.818692 71.510077 
L 873.954141 72.287625 
L 903.089589 68.924443 
L 932.225038 72.687796 
L 949.706307 128.765501 
" style="fill:none;stroke:#f0ad4e;stroke-linecap:square;"/>
   </g>
   <g id="line2d_20">
    <path clip-path="url(#p7e9782fda9)" d="M 81.469943 64.669506 
L 87.297033 65.329656 
L 93.124123 63.654424 
L 98.951212 64.142314 
L 104.778302 64.752696 
L 110.605392 40.876541 
L 116.432481 43.119509 
L 122.259571 38.983873 
L 128.086661 42.132404 
L 145.56793 41.143646 
L 174.703378 40.570345 
L 203.838827 41.887185 
L 232.974275 43.118732 
L 262.109724 41.852382 
L 291.245172 42.708909 
L 320.38062 45.909279 
L 349.516069 43.692453 
L 378.651517 45.353279 
L 407.786966 46.831521 
L 436.922414 44.813388 
L 466.057863 48.523286 
L 495.193311 48.775317 
L 524.32876 46.247586 
L 553.464208 49.802114 
L 582.599656 49.954231 
L 611.735105 49.569001 
L 640.870553 48.642233 
L 670.006002 50.135502 
L 699.14145 50.979165 
L 728.276899 53.545378 
L 757.412347 52.950967 
L 786.547796 53.443747 
L 815.683244 55.664089 
L 844.818692 60.358668 
L 873.954141 55.156682 
L 903.089589 59.711555 
L 932.225038 68.458457 
" style="fill:none;stroke:#5cb85c;stroke-linecap:square;"/>
   </g>
   <g id="line2d_21">
    <path clip-path="url(#p7e9782fda9)" d="M 38.058125 273.99006 
L 993.118125 273.99006 
" style="fill:none;stroke:#dedede;stroke-linecap:square;stroke-width:2;"/>
   </g>
   <g id="text_19">
    <!-- FastQC: Mean Quality Scores -->
    <g transform="translate(400.349375 19.3575)scale(0.16 -0.16)">
     <defs>
      <path d="M 628 4666 
L 3309 4666 
L 3309 4134 
L 1259 4134 
L 1259 2759 
L 3109 2759 
L 3109 2228 
L 1259 2228 
L 1259 0 
L 628 0 
L 628 4666 
z
" id="DejaVuSans-46" transform="scale(0.015625)"/>
      <path d="M 2194 1759 
Q 1497 1759 1228 1600 
Q 959 1441 959 1056 
Q 959 750 1161 570 
Q 1363 391 1709 391 
Q 2188 391 2477 730 
Q 2766 1069 2766 1631 
L 2766 1759 
L 2194 1759 
z
M 3341 1997 
L 3341 0 
L 2766 0 
L 2766 531 
Q 2569 213 2275 61 
Q 1981 -91 1556 -91 
Q 1019 -91 701 211 
Q 384 513 384 1019 
Q 384 1609 779 1909 
Q 1175 2209 1959 2209 
L 2766 2209 
L 2766 2266 
Q 2766 2663 2505 2880 
Q 2244 3097 1772 3097 
Q 1472 3097 1187 3025 
Q 903 2953 641 2809 
L 641 3341 
Q 956 3463 1253 3523 
Q 1550 3584 1831 3584 
Q 2591 3584 2966 3190 
Q 3341 2797 3341 1997 
z
" id="DejaVuSans-61" transform="scale(0.015625)"/>
      <path d="M 2522 4238 
Q 1834 4238 1429 3725 
Q 1025 3213 1025 2328 
Q 1025 1447 1429 934 
Q 1834 422 2522 422 
Q 3209 422 3611 934 
Q 4013 1447 4013 2328 
Q 4013 3213 3611 3725 
Q 3209 4238 2522 4238 
z
M 3406 84 
L 4238 -825 
L 3475 -825 
L 2784 -78 
Q 2681 -84 2626 -87 
Q 2572 -91 2522 -91 
Q 1538 -91 948 567 
Q 359 1225 359 2328 
Q 359 3434 948 4092 
Q 1538 4750 2522 4750 
Q 3503 4750 4090 4092 
Q 4678 3434 4678 2328 
Q 4678 1516 4351 937 
Q 4025 359 3406 84 
z
" id="DejaVuSans-51" transform="scale(0.015625)"/>
      <path d="M 4122 4306 
L 4122 3641 
Q 3803 3938 3442 4084 
Q 3081 4231 2675 4231 
Q 1875 4231 1450 3742 
Q 1025 3253 1025 2328 
Q 1025 1406 1450 917 
Q 1875 428 2675 428 
Q 3081 428 3442 575 
Q 3803 722 4122 1019 
L 4122 359 
Q 3791 134 3420 21 
Q 3050 -91 2638 -91 
Q 1578 -91 968 557 
Q 359 1206 359 2328 
Q 359 3453 968 4101 
Q 1578 4750 2638 4750 
Q 3056 4750 3426 4639 
Q 3797 4528 4122 4306 
z
" id="DejaVuSans-43" transform="scale(0.015625)"/>
      <path d="M 750 794 
L 1409 794 
L 1409 0 
L 750 0 
L 750 794 
z
M 750 3309 
L 1409 3309 
L 1409 2516 
L 750 2516 
L 750 3309 
z
" id="DejaVuSans-3a" transform="scale(0.015625)"/>
      <path d="M 628 4666 
L 1569 4666 
L 2759 1491 
L 3956 4666 
L 4897 4666 
L 4897 0 
L 4281 0 
L 4281 4097 
L 3078 897 
L 2444 897 
L 1241 4097 
L 1241 0 
L 628 0 
L 628 4666 
z
" id="DejaVuSans-4d" transform="scale(0.015625)"/>
      <path d="M 544 1381 
L 544 3500 
L 1119 3500 
L 1119 1403 
Q 1119 906 1312 657 
Q 1506 409 1894 409 
Q 2359 409 2629 706 
Q 2900 1003 2900 1516 
L 2900 3500 
L 3475 3500 
L 3475 0 
L 2900 0 
L 2900 538 
Q 2691 219 2414 64 
Q 2138 -91 1772 -91 
Q 1169 -91 856 284 
Q 544 659 544 1381 
z
M 1991 3584 
L 1991 3584 
z
" id="DejaVuSans-75" transform="scale(0.015625)"/>
      <path d="M 603 4863 
L 1178 4863 
L 1178 0 
L 603 0 
L 603 4863 
z
" id="DejaVuSans-6c" transform="scale(0.015625)"/>
      <path d="M 2059 -325 
Q 1816 -950 1584 -1140 
Q 1353 -1331 966 -1331 
L 506 -1331 
L 506 -850 
L 844 -850 
Q 1081 -850 1212 -737 
Q 1344 -625 1503 -206 
L 1606 56 
L 191 3500 
L 800 3500 
L 1894 763 
L 2988 3500 
L 3597 3500 
L 2059 -325 
z
" id="DejaVuSans-79" transform="scale(0.015625)"/>
     </defs>
     <use xlink:href="#DejaVuSans-46"/>
     <use x="48.394531" xlink:href="#DejaVuSans-61"/>
     <use x="109.673828" xlink:href="#DejaVuSans-73"/>
     <use x="161.773438" xlink:href="#DejaVuSans-74"/>
     <use x="200.982422" xlink:href="#DejaVuSans-51"/>
     <use x="279.693359" xlink:href="#DejaVuSans-43"/>
     <use x="349.517578" xlink:href="#DejaVuSans-3a"/>
     <use x="383.208984" xlink:href="#DejaVuSans-20"/>
     <use x="414.996094" xlink:href="#DejaVuSans-4d"/>
     <use x="501.275391" xlink:href="#DejaVuSans-65"/>
     <use x="562.798828" xlink:href="#DejaVuSans-61"/>
     <use x="624.078125" xlink:href="#DejaVuSans-6e"/>
     <use x="687.457031" xlink:href="#DejaVuSans-20"/>
     <use x="719.244141" xlink:href="#DejaVuSans-51"/>
     <use x="797.955078" xlink:href="#DejaVuSans-75"/>
     <use x="861.333984" xlink:href="#DejaVuSans-61"/>
     <use x="922.613281" xlink:href="#DejaVuSans-6c"/>
     <use x="950.396484" xlink:href="#DejaVuSans-69"/>
     <use x="978.179688" xlink:href="#DejaVuSans-74"/>
     <use x="1017.388672" xlink:href="#DejaVuSans-79"/>
     <use x="1076.568359" xlink:href="#DejaVuSans-20"/>
     <use x="1108.355469" xlink:href="#DejaVuSans-53"/>
     <use x="1171.832031" xlink:href="#DejaVuSans-63"/>
     <use x="1226.8125" xlink:href="#DejaVuSans-6f"/>
     <use x="1287.994141" xlink:href="#DejaVuSans-72"/>
     <use x="1326.857422" xlink:href="#DejaVuSans-65"/>
     <use x="1388.380859" xlink:href="#DejaVuSans-73"/>
    </g>
   </g>
   <g id="legend_1">
    <g id="line2d_22">
     <path d="M 45.258125 291.525394 
L 61.258125 291.525394 
" style="fill:none;stroke:#f0ad4e;stroke-linecap:square;"/>
    </g>
    <g id="line2d_23"/>
    <g id="text_20">
     <!-- X2_lib_raw_1 -->
     <g transform="translate(67.658125 294.325394)scale(0.08 -0.08)">
      <defs>
       <path d="M 403 4666 
L 1081 4666 
L 2241 2931 
L 3406 4666 
L 4084 4666 
L 2584 2425 
L 4184 0 
L 3506 0 
L 2194 1984 
L 872 0 
L 191 0 
L 1856 2491 
L 403 4666 
z
" id="DejaVuSans-58" transform="scale(0.015625)"/>
       <path d="M 3263 -1063 
L 3263 -1509 
L -63 -1509 
L -63 -1063 
L 3263 -1063 
z
" id="DejaVuSans-5f" transform="scale(0.015625)"/>
       <path d="M 269 3500 
L 844 3500 
L 1563 769 
L 2278 3500 
L 2956 3500 
L 3675 769 
L 4391 3500 
L 4966 3500 
L 4050 0 
L 3372 0 
L 2619 2869 
L 1863 0 
L 1184 0 
L 269 3500 
z
" id="DejaVuSans-77" transform="scale(0.015625)"/>
      </defs>
      <use xlink:href="#DejaVuSans-58"/>
      <use x="68.505859" xlink:href="#DejaVuSans-32"/>
      <use x="132.128906" xlink:href="#DejaVuSans-5f"/>
      <use x="182.128906" xlink:href="#DejaVuSans-6c"/>
      <use x="209.912109" xlink:href="#DejaVuSans-69"/>
      <use x="237.695312" xlink:href="#DejaVuSans-62"/>
      <use x="301.171875" xlink:href="#DejaVuSans-5f"/>
      <use x="351.171875" xlink:href="#DejaVuSans-72"/>
      <use x="392.285156" xlink:href="#DejaVuSans-61"/>
      <use x="453.564453" xlink:href="#DejaVuSans-77"/>
      <use x="535.351562" xlink:href="#DejaVuSans-5f"/>
      <use x="585.351562" xlink:href="#DejaVuSans-31"/>
     </g>
    </g>
    <g id="line2d_24">
     <path d="M 45.258125 303.490394 
L 61.258125 303.490394 
" style="fill:none;stroke:#5cb85c;stroke-linecap:square;"/>
    </g>
    <g id="line2d_25"/>
    <g id="text_21">
     <!-- X2_lib_raw_2 -->
     <g transform="translate(67.658125 306.290394)scale(0.08 -0.08)">
      <use xlink:href="#DejaVuSans-58"/>
      <use x="68.505859" xlink:href="#DejaVuSans-32"/>
      <use x="132.128906" xlink:href="#DejaVuSans-5f"/>
      <use x="182.128906" xlink:href="#DejaVuSans-6c"/>
      <use x="209.912109" xlink:href="#DejaVuSans-69"/>
      <use x="237.695312" xlink:href="#DejaVuSans-62"/>
      <use x="301.171875" xlink:href="#DejaVuSans-5f"/>
      <use x="351.171875" xlink:href="#DejaVuSans-72"/>
      <use x="392.285156" xlink:href="#DejaVuSans-61"/>
      <use x="453.564453" xlink:href="#DejaVuSans-77"/>
      <use x="535.351562" xlink:href="#DejaVuSans-5f"/>
      <use x="585.351562" xlink:href="#DejaVuSans-32"/>
     </g>
    </g>
    <g id="line2d_26">
     <path d="M 45.258125 315.455394 
L 61.258125 315.455394 
" style="fill:none;stroke:#f0ad4e;stroke-linecap:square;"/>
    </g>
    <g id="line2d_27"/>
    <g id="text_22">
     <!-- X2_neg_raw_1 -->
     <g transform="translate(67.658125 318.255394)scale(0.08 -0.08)">
      <defs>
       <path d="M 2906 1791 
Q 2906 2416 2648 2759 
Q 2391 3103 1925 3103 
Q 1463 3103 1205 2759 
Q 947 2416 947 1791 
Q 947 1169 1205 825 
Q 1463 481 1925 481 
Q 2391 481 2648 825 
Q 2906 1169 2906 1791 
z
M 3481 434 
Q 3481 -459 3084 -895 
Q 2688 -1331 1869 -1331 
Q 1566 -1331 1297 -1286 
Q 1028 -1241 775 -1147 
L 775 -588 
Q 1028 -725 1275 -790 
Q 1522 -856 1778 -856 
Q 2344 -856 2625 -561 
Q 2906 -266 2906 331 
L 2906 616 
Q 2728 306 2450 153 
Q 2172 0 1784 0 
Q 1141 0 747 490 
Q 353 981 353 1791 
Q 353 2603 747 3093 
Q 1141 3584 1784 3584 
Q 2172 3584 2450 3431 
Q 2728 3278 2906 2969 
L 2906 3500 
L 3481 3500 
L 3481 434 
z
" id="DejaVuSans-67" transform="scale(0.015625)"/>
      </defs>
      <use xlink:href="#DejaVuSans-58"/>
      <use x="68.505859" xlink:href="#DejaVuSans-32"/>
      <use x="132.128906" xlink:href="#DejaVuSans-5f"/>
      <use x="182.128906" xlink:href="#DejaVuSans-6e"/>
      <use x="245.507812" xlink:href="#DejaVuSans-65"/>
      <use x="307.03125" xlink:href="#DejaVuSans-67"/>
      <use x="370.507812" xlink:href="#DejaVuSans-5f"/>
      <use x="420.507812" xlink:href="#DejaVuSans-72"/>
      <use x="461.621094" xlink:href="#DejaVuSans-61"/>
      <use x="522.900391" xlink:href="#DejaVuSans-77"/>
      <use x="604.6875" xlink:href="#DejaVuSans-5f"/>
      <use x="654.6875" xlink:href="#DejaVuSans-31"/>
     </g>
    </g>
    <g id="line2d_28">
     <path d="M 242.408125 291.525394 
L 258.408125 291.525394 
" style="fill:none;stroke:#5cb85c;stroke-linecap:square;"/>
    </g>
    <g id="line2d_29"/>
    <g id="text_23">
     <!-- X2_neg_raw_2 -->
     <g transform="translate(264.808125 294.325394)scale(0.08 -0.08)">
      <use xlink:href="#DejaVuSans-58"/>
      <use x="68.505859" xlink:href="#DejaVuSans-32"/>
      <use x="132.128906" xlink:href="#DejaVuSans-5f"/>
      <use x="182.128906" xlink:href="#DejaVuSans-6e"/>
      <use x="245.507812" xlink:href="#DejaVuSans-65"/>
      <use x="307.03125" xlink:href="#DejaVuSans-67"/>
      <use x="370.507812" xlink:href="#DejaVuSans-5f"/>
      <use x="420.507812" xlink:href="#DejaVuSans-72"/>
      <use x="461.621094" xlink:href="#DejaVuSans-61"/>
      <use x="522.900391" xlink:href="#DejaVuSans-77"/>
      <use x="604.6875" xlink:href="#DejaVuSans-5f"/>
      <use x="654.6875" xlink:href="#DejaVuSans-32"/>
     </g>
    </g>
    <g id="line2d_30">
     <path d="M 242.408125 303.490394 
L 258.408125 303.490394 
" style="fill:none;stroke:#f0ad4e;stroke-linecap:square;"/>
    </g>
    <g id="line2d_31"/>
    <g id="text_24">
     <!-- X2rL41_post_raw_1 -->
     <g transform="translate(264.808125 306.290394)scale(0.08 -0.08)">
      <defs>
       <path d="M 628 4666 
L 1259 4666 
L 1259 531 
L 3531 531 
L 3531 0 
L 628 0 
L 628 4666 
z
" id="DejaVuSans-4c" transform="scale(0.015625)"/>
      </defs>
      <use xlink:href="#DejaVuSans-58"/>
      <use x="68.505859" xlink:href="#DejaVuSans-32"/>
      <use x="132.128906" xlink:href="#DejaVuSans-72"/>
      <use x="173.242188" xlink:href="#DejaVuSans-4c"/>
      <use x="228.955078" xlink:href="#DejaVuSans-34"/>
      <use x="292.578125" xlink:href="#DejaVuSans-31"/>
      <use x="356.201172" xlink:href="#DejaVuSans-5f"/>
      <use x="406.201172" xlink:href="#DejaVuSans-70"/>
      <use x="469.677734" xlink:href="#DejaVuSans-6f"/>
      <use x="530.859375" xlink:href="#DejaVuSans-73"/>
      <use x="582.958984" xlink:href="#DejaVuSans-74"/>
      <use x="622.167969" xlink:href="#DejaVuSans-5f"/>
      <use x="672.167969" xlink:href="#DejaVuSans-72"/>
      <use x="713.28125" xlink:href="#DejaVuSans-61"/>
      <use x="774.560547" xlink:href="#DejaVuSans-77"/>
      <use x="856.347656" xlink:href="#DejaVuSans-5f"/>
      <use x="906.347656" xlink:href="#DejaVuSans-31"/>
     </g>
    </g>
    <g id="line2d_32">
     <path d="M 242.408125 315.455394 
L 258.408125 315.455394 
" style="fill:none;stroke:#5cb85c;stroke-linecap:square;"/>
    </g>
    <g id="line2d_33"/>
    <g id="text_25">
     <!-- X2rL41_post_raw_2 -->
     <g transform="translate(264.808125 318.255394)scale(0.08 -0.08)">
      <use xlink:href="#DejaVuSans-58"/>
      <use x="68.505859" xlink:href="#DejaVuSans-32"/>
      <use x="132.128906" xlink:href="#DejaVuSans-72"/>
      <use x="173.242188" xlink:href="#DejaVuSans-4c"/>
      <use x="228.955078" xlink:href="#DejaVuSans-34"/>
      <use x="292.578125" xlink:href="#DejaVuSans-31"/>
      <use x="356.201172" xlink:href="#DejaVuSans-5f"/>
      <use x="406.201172" xlink:href="#DejaVuSans-70"/>
      <use x="469.677734" xlink:href="#DejaVuSans-6f"/>
      <use x="530.859375" xlink:href="#DejaVuSans-73"/>
      <use x="582.958984" xlink:href="#DejaVuSans-74"/>
      <use x="622.167969" xlink:href="#DejaVuSans-5f"/>
      <use x="672.167969" xlink:href="#DejaVuSans-72"/>
      <use x="713.28125" xlink:href="#DejaVuSans-61"/>
      <use x="774.560547" xlink:href="#DejaVuSans-77"/>
      <use x="856.347656" xlink:href="#DejaVuSans-5f"/>
      <use x="906.347656" xlink:href="#DejaVuSans-32"/>
     </g>
    </g>
    <g id="line2d_34">
     <path d="M 459.690625 291.525394 
L 475.690625 291.525394 
" style="fill:none;stroke:#f0ad4e;stroke-linecap:square;"/>
    </g>
    <g id="line2d_35"/>
    <g id="text_26">
     <!-- X2rL41_pre_raw_1 -->
     <g transform="translate(482.090625 294.325394)scale(0.08 -0.08)">
      <use xlink:href="#DejaVuSans-58"/>
      <use x="68.505859" xlink:href="#DejaVuSans-32"/>
      <use x="132.128906" xlink:href="#DejaVuSans-72"/>
      <use x="173.242188" xlink:href="#DejaVuSans-4c"/>
      <use x="228.955078" xlink:href="#DejaVuSans-34"/>
      <use x="292.578125" xlink:href="#DejaVuSans-31"/>
      <use x="356.201172" xlink:href="#DejaVuSans-5f"/>
      <use x="406.201172" xlink:href="#DejaVuSans-70"/>
      <use x="469.677734" xlink:href="#DejaVuSans-72"/>
      <use x="508.541016" xlink:href="#DejaVuSans-65"/>
      <use x="570.064453" xlink:href="#DejaVuSans-5f"/>
      <use x="620.064453" xlink:href="#DejaVuSans-72"/>
      <use x="661.177734" xlink:href="#DejaVuSans-61"/>
      <use x="722.457031" xlink:href="#DejaVuSans-77"/>
      <use x="804.244141" xlink:href="#DejaVuSans-5f"/>
      <use x="854.244141" xlink:href="#DejaVuSans-31"/>
     </g>
    </g>
    <g id="line2d_36">
     <path d="M 459.690625 303.490394 
L 475.690625 303.490394 
" style="fill:none;stroke:#5cb85c;stroke-linecap:square;"/>
    </g>
    <g id="line2d_37"/>
    <g id="text_27">
     <!-- X2rL41_pre_raw_2 -->
     <g transform="translate(482.090625 306.290394)scale(0.08 -0.08)">
      <use xlink:href="#DejaVuSans-58"/>
      <use x="68.505859" xlink:href="#DejaVuSans-32"/>
      <use x="132.128906" xlink:href="#DejaVuSans-72"/>
      <use x="173.242188" xlink:href="#DejaVuSans-4c"/>
      <use x="228.955078" xlink:href="#DejaVuSans-34"/>
      <use x="292.578125" xlink:href="#DejaVuSans-31"/>
      <use x="356.201172" xlink:href="#DejaVuSans-5f"/>
      <use x="406.201172" xlink:href="#DejaVuSans-70"/>
      <use x="469.677734" xlink:href="#DejaVuSans-72"/>
      <use x="508.541016" xlink:href="#DejaVuSans-65"/>
      <use x="570.064453" xlink:href="#DejaVuSans-5f"/>
      <use x="620.064453" xlink:href="#DejaVuSans-72"/>
      <use x="661.177734" xlink:href="#DejaVuSans-61"/>
      <use x="722.457031" xlink:href="#DejaVuSans-77"/>
      <use x="804.244141" xlink:href="#DejaVuSans-5f"/>
      <use x="854.244141" xlink:href="#DejaVuSans-32"/>
     </g>
    </g>
    <g id="line2d_38">
     <path d="M 672.805625 291.525394 
L 688.805625 291.525394 
" style="fill:none;stroke:#f0ad4e;stroke-linecap:square;"/>
    </g>
    <g id="line2d_39"/>
    <g id="text_28">
     <!-- X2rL42_post_raw_1 -->
     <g transform="translate(695.205625 294.325394)scale(0.08 -0.08)">
      <use xlink:href="#DejaVuSans-58"/>
      <use x="68.505859" xlink:href="#DejaVuSans-32"/>
      <use x="132.128906" xlink:href="#DejaVuSans-72"/>
      <use x="173.242188" xlink:href="#DejaVuSans-4c"/>
      <use x="228.955078" xlink:href="#DejaVuSans-34"/>
      <use x="292.578125" xlink:href="#DejaVuSans-32"/>
      <use x="356.201172" xlink:href="#DejaVuSans-5f"/>
      <use x="406.201172" xlink:href="#DejaVuSans-70"/>
      <use x="469.677734" xlink:href="#DejaVuSans-6f"/>
      <use x="530.859375" xlink:href="#DejaVuSans-73"/>
      <use x="582.958984" xlink:href="#DejaVuSans-74"/>
      <use x="622.167969" xlink:href="#DejaVuSans-5f"/>
      <use x="672.167969" xlink:href="#DejaVuSans-72"/>
      <use x="713.28125" xlink:href="#DejaVuSans-61"/>
      <use x="774.560547" xlink:href="#DejaVuSans-77"/>
      <use x="856.347656" xlink:href="#DejaVuSans-5f"/>
      <use x="906.347656" xlink:href="#DejaVuSans-31"/>
     </g>
    </g>
    <g id="line2d_40">
     <path d="M 672.805625 303.490394 
L 688.805625 303.490394 
" style="fill:none;stroke:#5cb85c;stroke-linecap:square;"/>
    </g>
    <g id="line2d_41"/>
    <g id="text_29">
     <!-- X2rL42_post_raw_2 -->
     <g transform="translate(695.205625 306.290394)scale(0.08 -0.08)">
      <use xlink:href="#DejaVuSans-58"/>
      <use x="68.505859" xlink:href="#DejaVuSans-32"/>
      <use x="132.128906" xlink:href="#DejaVuSans-72"/>
      <use x="173.242188" xlink:href="#DejaVuSans-4c"/>
      <use x="228.955078" xlink:href="#DejaVuSans-34"/>
      <use x="292.578125" xlink:href="#DejaVuSans-32"/>
      <use x="356.201172" xlink:href="#DejaVuSans-5f"/>
      <use x="406.201172" xlink:href="#DejaVuSans-70"/>
      <use x="469.677734" xlink:href="#DejaVuSans-6f"/>
      <use x="530.859375" xlink:href="#DejaVuSans-73"/>
      <use x="582.958984" xlink:href="#DejaVuSans-74"/>
      <use x="622.167969" xlink:href="#DejaVuSans-5f"/>
      <use x="672.167969" xlink:href="#DejaVuSans-72"/>
      <use x="713.28125" xlink:href="#DejaVuSans-61"/>
      <use x="774.560547" xlink:href="#DejaVuSans-77"/>
      <use x="856.347656" xlink:href="#DejaVuSans-5f"/>
      <use x="906.347656" xlink:href="#DejaVuSans-32"/>
     </g>
    </g>
    <g id="line2d_42">
     <path d="M 890.088125 291.525394 
L 906.088125 291.525394 
" style="fill:none;stroke:#f0ad4e;stroke-linecap:square;"/>
    </g>
    <g id="line2d_43"/>
    <g id="text_30">
     <!-- X2rL42_pre_raw_1 -->
     <g transform="translate(912.488125 294.325394)scale(0.08 -0.08)">
      <use xlink:href="#DejaVuSans-58"/>
      <use x="68.505859" xlink:href="#DejaVuSans-32"/>
      <use x="132.128906" xlink:href="#DejaVuSans-72"/>
      <use x="173.242188" xlink:href="#DejaVuSans-4c"/>
      <use x="228.955078" xlink:href="#DejaVuSans-34"/>
      <use x="292.578125" xlink:href="#DejaVuSans-32"/>
      <use x="356.201172" xlink:href="#DejaVuSans-5f"/>
      <use x="406.201172" xlink:href="#DejaVuSans-70"/>
      <use x="469.677734" xlink:href="#DejaVuSans-72"/>
      <use x="508.541016" xlink:href="#DejaVuSans-65"/>
      <use x="570.064453" xlink:href="#DejaVuSans-5f"/>
      <use x="620.064453" xlink:href="#DejaVuSans-72"/>
      <use x="661.177734" xlink:href="#DejaVuSans-61"/>
      <use x="722.457031" xlink:href="#DejaVuSans-77"/>
      <use x="804.244141" xlink:href="#DejaVuSans-5f"/>
      <use x="854.244141" xlink:href="#DejaVuSans-31"/>
     </g>
    </g>
    <g id="line2d_44">
     <path d="M 890.088125 303.490394 
L 906.088125 303.490394 
" style="fill:none;stroke:#5cb85c;stroke-linecap:square;"/>
    </g>
    <g id="line2d_45"/>
    <g id="text_31">
     <!-- X2rL42_pre_raw_2 -->
     <g transform="translate(912.488125 306.290394)scale(0.08 -0.08)">
      <use xlink:href="#DejaVuSans-58"/>
      <use x="68.505859" xlink:href="#DejaVuSans-32"/>
      <use x="132.128906" xlink:href="#DejaVuSans-72"/>
      <use x="173.242188" xlink:href="#DejaVuSans-4c"/>
      <use x="228.955078" xlink:href="#DejaVuSans-34"/>
      <use x="292.578125" xlink:href="#DejaVuSans-32"/>
      <use x="356.201172" xlink:href="#DejaVuSans-5f"/>
      <use x="406.201172" xlink:href="#DejaVuSans-70"/>
      <use x="469.677734" xlink:href="#DejaVuSans-72"/>
      <use x="508.541016" xlink:href="#DejaVuSans-65"/>
      <use x="570.064453" xlink:href="#DejaVuSans-5f"/>
      <use x="620.064453" xlink:href="#DejaVuSans-72"/>
      <use x="661.177734" xlink:href="#DejaVuSans-61"/>
      <use x="722.457031" xlink:href="#DejaVuSans-77"/>
      <use x="804.244141" xlink:href="#DejaVuSans-5f"/>
      <use x="854.244141" xlink:href="#DejaVuSans-32"/>
     </g>
    </g>
   </g>
  </g>
 </g>
 <defs>
  <clipPath id="p7e9782fda9">
   <rect height="242.5072" width="955.06" x="38.058125" y="31.48286"/>
  </clipPath>
 </defs>
</svg>
