<?xml version="1.0" encoding="UTF-8" standalone="no"?>
<!DOCTYPE svg PUBLIC "-//W3C//DTD SVG 1.1//EN"
 "http://www.w3.org/Graphics/SVG/1.1/DTD/svg11.dtd">
<!-- Generated by graphviz version 2.40.1 (20161225.0304)
 -->
<!-- Title: pipeline_dag_20220531_192836 Pages: 1 -->
<svg width="3986pt" height="1103pt"
 viewBox="0.00 0.00 3986.47 1103.40" xmlns="http://www.w3.org/2000/svg" xmlns:xlink="http://www.w3.org/1999/xlink">
<g id="graph0" class="graph" transform="scale(1 1) rotate(0) translate(4 1099.4)">
<title>pipeline_dag_20220531_192836</title>
<polygon fill="#ffffff" stroke="transparent" points="-4,4 -4,-1099.4 3982.4743,-1099.4 3982.4743,4 -4,4"/>
<!-- p0 -->
<g id="node1" class="node">
<title>p0</title>
<ellipse fill="#000000" stroke="#000000" cx="800.6" cy="-799.4" rx="3.6" ry="3.6"/>
<text text-anchor="middle" x="742.5" y="-806.8" font-family="Times,serif" font-size="14.00" fill="#000000">Channel.empty</text>
</g>
<!-- p52 -->
<g id="node2" class="node">
<title>p52</title>
<ellipse fill="none" stroke="#000000" cx="800.6" cy="-741.2" rx="3.5" ry="3.5"/>
<text text-anchor="middle" x="772.6" y="-748.5" font-family="Times,serif" font-size="14.00" fill="#000000">collect</text>
</g>
<!-- p0&#45;&gt;p52 -->
<g id="edge1" class="edge">
<title>p0&#45;&gt;p52</title>
<path fill="none" stroke="#000000" d="M800.6,-795.5813C800.6,-787.5323 800.6,-768.4754 800.6,-755.207"/>
<polygon fill="#000000" stroke="#000000" points="804.1001,-754.8077 800.6,-744.8077 797.1001,-754.8077 804.1001,-754.8077"/>
<text text-anchor="middle" x="896.6" y="-766.6" font-family="Times,serif" font-size="14.00" fill="#000000">ch_multiqc_custom_config</text>
</g>
<!-- p53 -->
<g id="node58" class="node">
<title>p53</title>
<ellipse fill="none" stroke="#000000" cx="800.6" cy="-668.6" rx="3.5" ry="3.5"/>
<text text-anchor="middle" x="768.1" y="-675.9" font-family="Times,serif" font-size="14.00" fill="#000000">ifEmpty</text>
</g>
<!-- p52&#45;&gt;p53 -->
<g id="edge51" class="edge">
<title>p52&#45;&gt;p53</title>
<path fill="none" stroke="#000000" d="M800.6,-737.6984C800.6,-727.8521 800.6,-699.5232 800.6,-682.3484"/>
<polygon fill="#000000" stroke="#000000" points="804.1001,-682.2375 800.6,-672.2375 797.1001,-682.2376 804.1001,-682.2375"/>
</g>
<!-- p1 -->
<g id="node3" class="node">
<title>p1</title>
<ellipse fill="#000000" stroke="#000000" cx="112.6" cy="-1076.8" rx="3.6" ry="3.6"/>
<text text-anchor="middle" x="54.5" y="-1084.2" font-family="Times,serif" font-size="14.00" fill="#000000">Channel.empty</text>
</g>
<!-- p40 -->
<g id="node4" class="node">
<title>p40</title>
<ellipse fill="none" stroke="#000000" cx="112.6" cy="-1018.7" rx="3.5" ry="3.5"/>
<text text-anchor="middle" x="93.6" y="-1026" font-family="Times,serif" font-size="14.00" fill="#000000">map</text>
</g>
<!-- p1&#45;&gt;p40 -->
<g id="edge2" class="edge">
<title>p1&#45;&gt;p40</title>
<path fill="none" stroke="#000000" d="M112.6,-1072.9879C112.6,-1064.9527 112.6,-1045.9286 112.6,-1032.683"/>
<polygon fill="#000000" stroke="#000000" points="116.1001,-1032.3015 112.6,-1022.3015 109.1001,-1032.3015 116.1001,-1032.3015"/>
<text text-anchor="middle" x="190.1" y="-1044" font-family="Times,serif" font-size="14.00" fill="#000000">ch_software_versions</text>
</g>
<!-- p41 -->
<g id="node45" class="node">
<title>p41</title>
<ellipse fill="none" stroke="#000000" cx="112.6" cy="-974.7" rx="3.5" ry="3.5"/>
<text text-anchor="middle" x="67.6" y="-982" font-family="Times,serif" font-size="14.00" fill="#000000">groupTuple</text>
</g>
<!-- p40&#45;&gt;p41 -->
<g id="edge39" class="edge">
<title>p40&#45;&gt;p41</title>
<path fill="none" stroke="#000000" d="M112.6,-1014.9486C112.6,-1009.1686 112.6,-997.7915 112.6,-988.6038"/>
<polygon fill="#000000" stroke="#000000" points="116.1001,-988.4419 112.6,-978.4419 109.1001,-988.442 116.1001,-988.4419"/>
</g>
<!-- p2 -->
<g id="node5" class="node">
<title>p2</title>
<ellipse fill="#000000" stroke="#000000" cx="2836.6" cy="-930.6" rx="3.6" ry="3.6"/>
</g>
<!-- p3 -->
<g id="node6" class="node">
<title>p3</title>
<ellipse fill="none" stroke="#000000" cx="2836.6" cy="-858" rx="398.3293" ry="18"/>
<text text-anchor="middle" x="2836.6" y="-854.3" font-family="Times,serif" font-size="14.00" fill="#000000">NFCORE_QUANTS:SGE:INPUT_CHECK_FASTQ:SAMPLESHEET_CHECK_FASTQ</text>
</g>
<!-- p2&#45;&gt;p3 -->
<g id="edge3" class="edge">
<title>p2&#45;&gt;p3</title>
<path fill="none" stroke="#000000" d="M2836.6,-926.6967C2836.6,-919.0869 2836.6,-901.6632 2836.6,-886.2684"/>
<polygon fill="#000000" stroke="#000000" points="2840.1001,-886.0802 2836.6,-876.0802 2833.1001,-886.0802 2840.1001,-886.0802"/>
<text text-anchor="middle" x="2882.1" y="-897.8" font-family="Times,serif" font-size="14.00" fill="#000000">samplesheet</text>
</g>
<!-- p4 -->
<g id="node7" class="node">
<title>p4</title>
<ellipse fill="none" stroke="#000000" cx="2836.6" cy="-799.4" rx="3.5" ry="3.5"/>
<text text-anchor="middle" x="2803.6" y="-806.7" font-family="Times,serif" font-size="14.00" fill="#000000">splitCsv</text>
</g>
<!-- p3&#45;&gt;p4 -->
<g id="edge4" class="edge">
<title>p3&#45;&gt;p4</title>
<path fill="none" stroke="#000000" d="M2836.6,-839.7798C2836.6,-831.3131 2836.6,-821.3989 2836.6,-813.5131"/>
<polygon fill="#000000" stroke="#000000" points="2840.1001,-813.2903 2836.6,-803.2903 2833.1001,-813.2903 2840.1001,-813.2903"/>
</g>
<!-- p5 -->
<g id="node8" class="node">
<title>p5</title>
<ellipse fill="none" stroke="#000000" cx="2836.6" cy="-741.2" rx="3.5" ry="3.5"/>
<text text-anchor="middle" x="2817.6" y="-748.5" font-family="Times,serif" font-size="14.00" fill="#000000">map</text>
</g>
<!-- p4&#45;&gt;p5 -->
<g id="edge5" class="edge">
<title>p4&#45;&gt;p5</title>
<path fill="none" stroke="#000000" d="M2836.6,-795.5813C2836.6,-787.5323 2836.6,-768.4754 2836.6,-755.207"/>
<polygon fill="#000000" stroke="#000000" points="2840.1001,-754.8077 2836.6,-744.8077 2833.1001,-754.8077 2840.1001,-754.8077"/>
</g>
<!-- p6 -->
<g id="node9" class="node">
<title>p6</title>
<ellipse fill="none" stroke="#000000" cx="3056.6" cy="-668.6" rx="3.5" ry="3.5"/>
<text text-anchor="middle" x="3037.6" y="-675.9" font-family="Times,serif" font-size="14.00" fill="#000000">map</text>
</g>
<!-- p5&#45;&gt;p6 -->
<g id="edge6" class="edge">
<title>p5&#45;&gt;p6</title>
<path fill="none" stroke="#000000" d="M2840.0557,-740.0596C2863.5405,-732.3096 3000.0734,-687.2538 3043.4069,-672.9537"/>
<polygon fill="#000000" stroke="#000000" points="3044.5868,-676.2501 3052.9863,-669.7925 3042.3931,-669.6027 3044.5868,-676.2501"/>
<text text-anchor="middle" x="2966.6" y="-708.4" font-family="Times,serif" font-size="14.00" fill="#000000">reads</text>
</g>
<!-- p15 -->
<g id="node19" class="node">
<title>p15</title>
<ellipse fill="none" stroke="#000000" cx="2582.6" cy="-668.6" rx="260.7538" ry="18"/>
<text text-anchor="middle" x="2582.6" y="-664.9" font-family="Times,serif" font-size="14.00" fill="#000000">NFCORE_QUANTS:SGE:READ_MERGING:SEQPREP</text>
</g>
<!-- p5&#45;&gt;p15 -->
<g id="edge15" class="edge">
<title>p5&#45;&gt;p15</title>
<path fill="none" stroke="#000000" d="M2833.0094,-740.1737C2813.6991,-734.6543 2720.5764,-708.0374 2653.5339,-688.8748"/>
<polygon fill="#000000" stroke="#000000" points="2654.4203,-685.4881 2643.8434,-686.105 2652.4965,-692.2185 2654.4203,-685.4881"/>
<text text-anchor="middle" x="2773.6" y="-708.4" font-family="Times,serif" font-size="14.00" fill="#000000">reads</text>
</g>
<!-- p7 -->
<g id="node10" class="node">
<title>p7</title>
<ellipse fill="none" stroke="#000000" cx="3688.6" cy="-581.6" rx="289.7486" ry="18"/>
<text text-anchor="middle" x="3688.6" y="-577.9" font-family="Times,serif" font-size="14.00" fill="#000000">NFCORE_QUANTS:SGE:RAW_SEQUENCING_QC:FASTQC</text>
</g>
<!-- p6&#45;&gt;p7 -->
<g id="edge7" class="edge">
<title>p6&#45;&gt;p7</title>
<path fill="none" stroke="#000000" d="M3060.3115,-668.0891C3096.3336,-663.1303 3386.1514,-623.2345 3559.3198,-599.3965"/>
<polygon fill="#000000" stroke="#000000" points="3559.8409,-602.8578 3569.2702,-598.0267 3558.8862,-595.9232 3559.8409,-602.8578"/>
<text text-anchor="middle" x="3429.6" y="-621.4" font-family="Times,serif" font-size="14.00" fill="#000000">reads</text>
</g>
<!-- p10 -->
<g id="node14" class="node">
<title>p10</title>
<ellipse fill="none" stroke="#000000" cx="3056.6" cy="-581.6" rx="323.8427" ry="18"/>
<text text-anchor="middle" x="3056.6" y="-577.9" font-family="Times,serif" font-size="14.00" fill="#000000">NFCORE_QUANTS:SGE:RAW_SEQUENCING_QC:SEQKIT_STATS</text>
</g>
<!-- p6&#45;&gt;p10 -->
<g id="edge11" class="edge">
<title>p6&#45;&gt;p10</title>
<path fill="none" stroke="#000000" d="M3056.6,-664.8617C3056.6,-655.445 3056.6,-630.053 3056.6,-609.7647"/>
<polygon fill="#000000" stroke="#000000" points="3060.1001,-609.7321 3056.6,-599.7322 3053.1001,-609.7322 3060.1001,-609.7321"/>
<text text-anchor="middle" x="3076.6" y="-621.4" font-family="Times,serif" font-size="14.00" fill="#000000">reads</text>
</g>
<!-- p9 -->
<g id="node11" class="node">
<title>p9</title>
<ellipse fill="#000000" stroke="#000000" cx="3561.6" cy="-494.6" rx="1.8" ry="1.8"/>
</g>
<!-- p7&#45;&gt;p9 -->
<g id="edge8" class="edge">
<title>p7&#45;&gt;p9</title>
<path fill="none" stroke="#000000" d="M3611.207,-564.1517C3600.7543,-559.3819 3590.8187,-553.3149 3582.6,-545.6 3571.4407,-535.1246 3566.0298,-517.8477 3563.5394,-506.3468"/>
<polygon fill="#000000" stroke="#000000" points="3566.9857,-505.7356 3561.8179,-496.4866 3560.09,-506.9396 3566.9857,-505.7356"/>
</g>
<!-- p60 -->
<g id="node12" class="node">
<title>p60</title>
<ellipse fill="none" stroke="#000000" cx="3670.6" cy="-494.6" rx="3.5" ry="3.5"/>
<text text-anchor="middle" x="3642.6" y="-501.9" font-family="Times,serif" font-size="14.00" fill="#000000">collect</text>
</g>
<!-- p7&#45;&gt;p60 -->
<g id="edge9" class="edge">
<title>p7&#45;&gt;p60</title>
<path fill="none" stroke="#000000" d="M3697.9437,-563.364C3701.7442,-553.5023 3704.4397,-541.2053 3700.6,-530.6 3696.7918,-520.0816 3688.4199,-510.4767 3681.4852,-503.8385"/>
<polygon fill="#000000" stroke="#000000" points="3683.3087,-500.7822 3673.4834,-496.818 3678.6921,-506.0441 3683.3087,-500.7822"/>
<text text-anchor="middle" x="3738.1" y="-534.4" font-family="Times,serif" font-size="14.00" fill="#000000">fastqc_zip</text>
</g>
<!-- p8 -->
<g id="node13" class="node">
<title>p8</title>
<ellipse fill="#000000" stroke="#000000" cx="3594.6" cy="-494.6" rx="1.8" ry="1.8"/>
</g>
<!-- p7&#45;&gt;p8 -->
<g id="edge10" class="edge">
<title>p7&#45;&gt;p8</title>
<path fill="none" stroke="#000000" d="M3624.4467,-564.0057C3609.2787,-558.5128 3596.1641,-552.1622 3591.6,-545.6 3583.5049,-533.961 3586.6884,-516.9736 3590.222,-505.8543"/>
<polygon fill="#000000" stroke="#000000" points="3593.5365,-506.9837 3593.7777,-496.3916 3586.9838,-504.5214 3593.5365,-506.9837"/>
<text text-anchor="middle" x="3644.1" y="-534.4" font-family="Times,serif" font-size="14.00" fill="#000000">fastqc_version</text>
</g>
<!-- p61 -->
<g id="node64" class="node">
<title>p61</title>
<ellipse fill="none" stroke="#000000" cx="3025.6" cy="-407.6" rx="3.5" ry="3.5"/>
<text text-anchor="middle" x="2993.1" y="-414.9" font-family="Times,serif" font-size="14.00" fill="#000000">ifEmpty</text>
</g>
<!-- p60&#45;&gt;p61 -->
<g id="edge59" class="edge">
<title>p60&#45;&gt;p61</title>
<path fill="none" stroke="#000000" d="M3667.1219,-493.4348C3657.4717,-490.2461 3629.4974,-481.3021 3605.6,-476.6 3382.1987,-432.6429 3104.5056,-412.7142 3039.6105,-408.4789"/>
<polygon fill="#000000" stroke="#000000" points="3039.5173,-404.966 3029.3153,-407.8243 3039.073,-411.9519 3039.5173,-404.966"/>
</g>
<!-- p12 -->
<g id="node15" class="node">
<title>p12</title>
<ellipse fill="#000000" stroke="#000000" cx="3338.6" cy="-494.6" rx="1.8" ry="1.8"/>
</g>
<!-- p10&#45;&gt;p12 -->
<g id="edge12" class="edge">
<title>p10&#45;&gt;p12</title>
<path fill="none" stroke="#000000" d="M3248.9077,-567.1169C3278.2888,-561.9783 3303.0166,-555.0203 3315.6,-545.6 3328.1622,-536.1956 3334.029,-518.3486 3336.648,-506.4611"/>
<polygon fill="#000000" stroke="#000000" points="3340.1005,-507.0362 3338.3783,-496.5823 3333.2054,-505.8285 3340.1005,-507.0362"/>
<text text-anchor="middle" x="3371.6" y="-534.4" font-family="Times,serif" font-size="14.00" fill="#000000">seqkit_stats</text>
</g>
<!-- p11 -->
<g id="node16" class="node">
<title>p11</title>
<ellipse fill="#000000" stroke="#000000" cx="3263.6" cy="-494.6" rx="1.8" ry="1.8"/>
</g>
<!-- p10&#45;&gt;p11 -->
<g id="edge13" class="edge">
<title>p10&#45;&gt;p11</title>
<path fill="none" stroke="#000000" d="M3113.1291,-563.8395C3166.9319,-546.5931 3241.3305,-521.7201 3252.6,-512.6 3254.906,-510.7338 3256.8539,-508.2466 3258.4396,-505.7181"/>
<polygon fill="#000000" stroke="#000000" points="3261.6578,-507.1041 3262.9061,-496.5831 3255.3693,-504.0293 3261.6578,-507.1041"/>
<text text-anchor="middle" x="3259.1" y="-534.4" font-family="Times,serif" font-size="14.00" fill="#000000">seqkit_version</text>
</g>
<!-- p13 -->
<g id="node17" class="node">
<title>p13</title>
<ellipse fill="#000000" stroke="#000000" cx="290.6" cy="-1076.8" rx="3.6" ry="3.6"/>
<text text-anchor="middle" x="232.5" y="-1084.2" font-family="Times,serif" font-size="14.00" fill="#000000">Channel.empty</text>
</g>
<!-- p14 -->
<g id="node18" class="node">
<title>p14</title>
<ellipse fill="#000000" stroke="#000000" cx="290.6" cy="-1018.7" rx="1.8" ry="1.8"/>
</g>
<!-- p13&#45;&gt;p14 -->
<g id="edge14" class="edge">
<title>p13&#45;&gt;p14</title>
<path fill="none" stroke="#000000" d="M290.6,-1072.9879C290.6,-1064.5054 290.6,-1043.7763 290.6,-1030.5274"/>
<polygon fill="#000000" stroke="#000000" points="294.1001,-1030.5025 290.6,-1020.5025 287.1001,-1030.5026 294.1001,-1030.5025"/>
<text text-anchor="middle" x="354.1" y="-1044" font-family="Times,serif" font-size="14.00" fill="#000000">ch_merged_reads</text>
</g>
<!-- p18 -->
<g id="node20" class="node">
<title>p18</title>
<ellipse fill="none" stroke="#000000" cx="2550.6" cy="-581.6" rx="3.5" ry="3.5"/>
<text text-anchor="middle" x="2531.6" y="-588.9" font-family="Times,serif" font-size="14.00" fill="#000000">map</text>
</g>
<!-- p15&#45;&gt;p18 -->
<g id="edge16" class="edge">
<title>p15&#45;&gt;p18</title>
<path fill="none" stroke="#000000" d="M2563.4908,-650.323C2559.1248,-645.0477 2555.0519,-638.979 2552.6,-632.6 2547.9842,-620.5915 2547.9607,-605.8 2548.8052,-595.2447"/>
<polygon fill="#000000" stroke="#000000" points="2552.2923,-595.5578 2549.9722,-585.2202 2545.3393,-594.7484 2552.2923,-595.5578"/>
<text text-anchor="middle" x="2572.6" y="-621.4" font-family="Times,serif" font-size="14.00" fill="#000000">reads</text>
</g>
<!-- p17 -->
<g id="node21" class="node">
<title>p17</title>
<ellipse fill="#000000" stroke="#000000" cx="2610.6" cy="-581.6" rx="1.8" ry="1.8"/>
</g>
<!-- p15&#45;&gt;p17 -->
<g id="edge17" class="edge">
<title>p15&#45;&gt;p17</title>
<path fill="none" stroke="#000000" d="M2590.0902,-650.4182C2592.3098,-644.7543 2594.6628,-638.4575 2596.6,-632.6 2600.9786,-619.3605 2605.0893,-603.8801 2607.7089,-593.4774"/>
<polygon fill="#000000" stroke="#000000" points="2611.1567,-594.1128 2610.1375,-583.5671 2604.3579,-592.4467 2611.1567,-594.1128"/>
</g>
<!-- p16 -->
<g id="node22" class="node">
<title>p16</title>
<ellipse fill="#000000" stroke="#000000" cx="2522.6" cy="-581.6" rx="1.8" ry="1.8"/>
</g>
<!-- p15&#45;&gt;p16 -->
<g id="edge18" class="edge">
<title>p15&#45;&gt;p16</title>
<path fill="none" stroke="#000000" d="M2560.5057,-650.5341C2554.8333,-645.1715 2549.0761,-639.0066 2544.6,-632.6 2536.0259,-620.3281 2529.7602,-604.1841 2526.1564,-593.3777"/>
<polygon fill="#000000" stroke="#000000" points="2529.462,-592.2197 2523.1698,-583.6957 2522.773,-594.2831 2529.462,-592.2197"/>
</g>
<!-- p19 -->
<g id="node23" class="node">
<title>p19</title>
<ellipse fill="none" stroke="#000000" cx="2224.6" cy="-494.6" rx="311.1449" ry="18"/>
<text text-anchor="middle" x="2224.6" y="-490.9" font-family="Times,serif" font-size="14.00" fill="#000000">NFCORE_QUANTS:SGE:MERGED_SEQUENCING_QC:FASTQC</text>
</g>
<!-- p18&#45;&gt;p19 -->
<g id="edge19" class="edge">
<title>p18&#45;&gt;p19</title>
<path fill="none" stroke="#000000" d="M2548.584,-578.5204C2545.7459,-574.4442 2540.1771,-567.3382 2533.6,-563.6 2500.8525,-544.9877 2414.6042,-526.5276 2341.5261,-513.3914"/>
<polygon fill="#000000" stroke="#000000" points="2341.7673,-509.8794 2331.3088,-511.5737 2340.5412,-516.7712 2341.7673,-509.8794"/>
<text text-anchor="middle" x="2504.6" y="-534.4" font-family="Times,serif" font-size="14.00" fill="#000000">reads</text>
</g>
<!-- p22 -->
<g id="node27" class="node">
<title>p22</title>
<ellipse fill="none" stroke="#000000" cx="2898.6" cy="-494.6" rx="345.2388" ry="18"/>
<text text-anchor="middle" x="2898.6" y="-490.9" font-family="Times,serif" font-size="14.00" fill="#000000">NFCORE_QUANTS:SGE:MERGED_SEQUENCING_QC:SEQKIT_STATS</text>
</g>
<!-- p18&#45;&gt;p22 -->
<g id="edge23" class="edge">
<title>p18&#45;&gt;p22</title>
<path fill="none" stroke="#000000" d="M2554.1146,-580.1355C2562.0927,-576.8495 2582.2283,-568.773 2599.6,-563.6 2665.6038,-543.9452 2741.1906,-526.546 2799.8518,-514.1363"/>
<polygon fill="#000000" stroke="#000000" points="2800.7914,-517.5153 2809.8576,-512.0331 2799.3515,-510.665 2800.7914,-517.5153"/>
<text text-anchor="middle" x="2741.6" y="-534.4" font-family="Times,serif" font-size="14.00" fill="#000000">reads</text>
</g>
<!-- p29 -->
<g id="node33" class="node">
<title>p29</title>
<ellipse fill="none" stroke="#000000" cx="1610.6" cy="-494.6" rx="284.8496" ry="18"/>
<text text-anchor="middle" x="1610.6" y="-490.9" font-family="Times,serif" font-size="14.00" fill="#000000">NFCORE_QUANTS:SGE:QUANTIFICATION:PYCROQUET</text>
</g>
<!-- p18&#45;&gt;p29 -->
<g id="edge28" class="edge">
<title>p18&#45;&gt;p29</title>
<path fill="none" stroke="#000000" d="M2548.6583,-578.3778C2545.9044,-574.1401 2540.4307,-566.8516 2533.6,-563.6 2517.6077,-555.9872 2085.6146,-526.1174 1818.3726,-508.269"/>
<polygon fill="#000000" stroke="#000000" points="1818.3575,-504.7603 1808.1466,-507.5865 1817.8913,-511.7447 1818.3575,-504.7603"/>
<text text-anchor="middle" x="2366.6" y="-534.4" font-family="Times,serif" font-size="14.00" fill="#000000">reads</text>
</g>
<!-- p21 -->
<g id="node24" class="node">
<title>p21</title>
<ellipse fill="#000000" stroke="#000000" cx="2143.6" cy="-407.6" rx="1.8" ry="1.8"/>
</g>
<!-- p19&#45;&gt;p21 -->
<g id="edge20" class="edge">
<title>p19&#45;&gt;p21</title>
<path fill="none" stroke="#000000" d="M2186.2551,-476.6145C2178.3557,-471.6145 2170.6214,-465.5985 2164.6,-458.6 2154.7249,-447.1224 2149.037,-430.366 2146.1313,-419.2309"/>
<polygon fill="#000000" stroke="#000000" points="2149.5274,-418.3801 2143.914,-409.3946 2142.6987,-419.9195 2149.5274,-418.3801"/>
</g>
<!-- p63 -->
<g id="node25" class="node">
<title>p63</title>
<ellipse fill="none" stroke="#000000" cx="2171.6" cy="-407.6" rx="3.5" ry="3.5"/>
<text text-anchor="middle" x="2143.6" y="-414.9" font-family="Times,serif" font-size="14.00" fill="#000000">collect</text>
</g>
<!-- p19&#45;&gt;p63 -->
<g id="edge21" class="edge">
<title>p19&#45;&gt;p63</title>
<path fill="none" stroke="#000000" d="M2189.7258,-476.5707C2183.3051,-471.6283 2177.4285,-465.6472 2173.6,-458.6 2167.3303,-447.0595 2167.6503,-431.7863 2169.031,-420.9714"/>
<polygon fill="#000000" stroke="#000000" points="2172.484,-421.5431 2170.7459,-411.0918 2165.5871,-420.3459 2172.484,-421.5431"/>
<text text-anchor="middle" x="2210.1" y="-447.4" font-family="Times,serif" font-size="14.00" fill="#000000">fastqc_zip</text>
</g>
<!-- p20 -->
<g id="node26" class="node">
<title>p20</title>
<ellipse fill="#000000" stroke="#000000" cx="2272.6" cy="-407.6" rx="1.8" ry="1.8"/>
</g>
<!-- p19&#45;&gt;p20 -->
<g id="edge22" class="edge">
<title>p19&#45;&gt;p20</title>
<path fill="none" stroke="#000000" d="M2238.8977,-476.4312C2242.9437,-470.8747 2247.1742,-464.6339 2250.6,-458.6 2257.9913,-445.5814 2264.5089,-429.5964 2268.4941,-419.0308"/>
<polygon fill="#000000" stroke="#000000" points="2271.788,-420.2138 2271.9097,-409.6196 2265.208,-417.8256 2271.788,-420.2138"/>
<text text-anchor="middle" x="2310.1" y="-447.4" font-family="Times,serif" font-size="14.00" fill="#000000">fastqc_version</text>
</g>
<!-- p64 -->
<g id="node66" class="node">
<title>p64</title>
<ellipse fill="none" stroke="#000000" cx="1347.6" cy="-335.1" rx="3.5" ry="3.5"/>
<text text-anchor="middle" x="1315.1" y="-342.4" font-family="Times,serif" font-size="14.00" fill="#000000">ifEmpty</text>
</g>
<!-- p63&#45;&gt;p64 -->
<g id="edge62" class="edge">
<title>p63&#45;&gt;p64</title>
<path fill="none" stroke="#000000" d="M2169.6617,-404.3706C2166.9116,-400.1247 2161.4424,-392.8271 2154.6,-389.6 2079.9231,-354.38 1461.3223,-337.8743 1361.2493,-335.4236"/>
<polygon fill="#000000" stroke="#000000" points="1361.2491,-331.9227 1351.168,-335.182 1361.0813,-338.9207 1361.2491,-331.9227"/>
</g>
<!-- p24 -->
<g id="node28" class="node">
<title>p24</title>
<ellipse fill="#000000" stroke="#000000" cx="2962.6" cy="-407.6" rx="1.8" ry="1.8"/>
</g>
<!-- p22&#45;&gt;p24 -->
<g id="edge24" class="edge">
<title>p22&#45;&gt;p24</title>
<path fill="none" stroke="#000000" d="M2923.5238,-476.4815C2929.6504,-471.2049 2935.8166,-465.096 2940.6,-458.6 2949.4767,-446.5451 2955.678,-430.3549 2959.1842,-419.4786"/>
<polygon fill="#000000" stroke="#000000" points="2962.5911,-420.2994 2962.0611,-409.7178 2955.8767,-418.3204 2962.5911,-420.2994"/>
<text text-anchor="middle" x="2992.6" y="-447.4" font-family="Times,serif" font-size="14.00" fill="#000000">seqkit_stats</text>
</g>
<!-- p23 -->
<g id="node29" class="node">
<title>p23</title>
<ellipse fill="#000000" stroke="#000000" cx="2834.6" cy="-407.6" rx="1.8" ry="1.8"/>
</g>
<!-- p22&#45;&gt;p23 -->
<g id="edge25" class="edge">
<title>p22&#45;&gt;p23</title>
<path fill="none" stroke="#000000" d="M2849.7202,-476.6862C2842.4918,-471.9134 2836.0046,-465.9667 2831.6,-458.6 2824.4029,-446.5626 2827.2413,-429.938 2830.4637,-418.9854"/>
<polygon fill="#000000" stroke="#000000" points="2833.8368,-419.9432 2833.8447,-409.3484 2827.2315,-417.6259 2833.8368,-419.9432"/>
<text text-anchor="middle" x="2884.1" y="-447.4" font-family="Times,serif" font-size="14.00" fill="#000000">seqkit_version</text>
</g>
<!-- p25 -->
<g id="node30" class="node">
<title>p25</title>
<ellipse fill="#000000" stroke="#000000" cx="440.6" cy="-1076.8" rx="3.6" ry="3.6"/>
<text text-anchor="middle" x="382.5" y="-1084.2" font-family="Times,serif" font-size="14.00" fill="#000000">Channel.empty</text>
</g>
<!-- p26 -->
<g id="node31" class="node">
<title>p26</title>
<ellipse fill="#000000" stroke="#000000" cx="440.6" cy="-1018.7" rx="1.8" ry="1.8"/>
</g>
<!-- p25&#45;&gt;p26 -->
<g id="edge26" class="edge">
<title>p25&#45;&gt;p26</title>
<path fill="none" stroke="#000000" d="M440.6,-1072.9879C440.6,-1064.5054 440.6,-1043.7763 440.6,-1030.5274"/>
<polygon fill="#000000" stroke="#000000" points="444.1001,-1030.5025 440.6,-1020.5025 437.1001,-1030.5026 444.1001,-1030.5025"/>
<text text-anchor="middle" x="506.6" y="-1044" font-family="Times,serif" font-size="14.00" fill="#000000">ch_sample_counts</text>
</g>
<!-- p27 -->
<g id="node32" class="node">
<title>p27</title>
<ellipse fill="#000000" stroke="#000000" cx="1645.6" cy="-581.6" rx="3.6" ry="3.6"/>
</g>
<!-- p27&#45;&gt;p29 -->
<g id="edge27" class="edge">
<title>p27&#45;&gt;p29</title>
<path fill="none" stroke="#000000" d="M1644.0961,-577.8617C1640.273,-568.3586 1629.9046,-542.5857 1621.7065,-522.2076"/>
<polygon fill="#000000" stroke="#000000" points="1624.874,-520.7032 1617.8945,-512.7322 1618.3798,-523.3159 1624.874,-520.7032"/>
<text text-anchor="middle" x="1677.6" y="-534.4" font-family="Times,serif" font-size="14.00" fill="#000000">subcommand</text>
</g>
<!-- p33 -->
<g id="node35" class="node">
<title>p33</title>
<ellipse fill="#000000" stroke="#000000" cx="1668.6" cy="-407.6" rx="1.8" ry="1.8"/>
</g>
<!-- p29&#45;&gt;p33 -->
<g id="edge30" class="edge">
<title>p29&#45;&gt;p33</title>
<path fill="none" stroke="#000000" d="M1624.0601,-476.4486C1628.164,-470.7859 1632.6366,-464.4822 1636.6,-458.6 1645.9363,-444.7438 1656.0892,-428.3079 1662.3991,-417.9159"/>
<polygon fill="#000000" stroke="#000000" points="1665.4809,-419.5827 1667.6419,-409.2106 1659.4844,-415.9713 1665.4809,-419.5827"/>
<text text-anchor="middle" x="1697.6" y="-447.4" font-family="Times,serif" font-size="14.00" fill="#000000">library_counts</text>
</g>
<!-- p37 -->
<g id="node36" class="node">
<title>p37</title>
<ellipse fill="none" stroke="#000000" cx="941.6" cy="-407.6" rx="652.5842" ry="18"/>
<text text-anchor="middle" x="941.6" y="-403.9" font-family="Times,serif" font-size="14.00" fill="#000000">NFCORE_QUANTS:SGE:POST_PYCROQUET_QUANTIFICATION:QUANTIFY_PYCROQUET_LIBRARY_WITH_UNIQUE_READ_COUNTS</text>
</g>
<!-- p29&#45;&gt;p37 -->
<g id="edge31" class="edge">
<title>p29&#45;&gt;p37</title>
<path fill="none" stroke="#000000" d="M1485.9428,-478.389C1372.8769,-463.6853 1206.1535,-442.0038 1087.0456,-426.5145"/>
<polygon fill="#000000" stroke="#000000" points="1087.4834,-423.042 1077.1155,-425.2231 1086.5806,-429.9835 1087.4834,-423.042"/>
<text text-anchor="middle" x="1388.1" y="-447.4" font-family="Times,serif" font-size="14.00" fill="#000000">unique_read_counts</text>
</g>
<!-- p32 -->
<g id="node37" class="node">
<title>p32</title>
<ellipse fill="#000000" stroke="#000000" cx="1795.6" cy="-407.6" rx="1.8" ry="1.8"/>
</g>
<!-- p29&#45;&gt;p32 -->
<g id="edge32" class="edge">
<title>p29&#45;&gt;p32</title>
<path fill="none" stroke="#000000" d="M1712.0142,-477.6814C1726.6062,-472.8378 1740.9449,-466.6092 1753.6,-458.6 1769.5921,-448.4789 1782.4171,-430.2181 1789.5141,-418.5147"/>
<polygon fill="#000000" stroke="#000000" points="1792.7148,-419.9659 1794.6069,-409.5414 1786.6269,-416.5107 1792.7148,-419.9659"/>
<text text-anchor="middle" x="1787.6" y="-447.4" font-family="Times,serif" font-size="14.00" fill="#000000">stats</text>
</g>
<!-- p31 -->
<g id="node38" class="node">
<title>p31</title>
<ellipse fill="#000000" stroke="#000000" cx="1613.6" cy="-407.6" rx="1.8" ry="1.8"/>
</g>
<!-- p29&#45;&gt;p31 -->
<g id="edge33" class="edge">
<title>p29&#45;&gt;p31</title>
<path fill="none" stroke="#000000" d="M1611.2216,-476.5735C1611.8103,-459.502 1612.6776,-434.3487 1613.1861,-419.6035"/>
<polygon fill="#000000" stroke="#000000" points="1616.687,-419.6332 1613.5338,-409.5185 1609.6912,-419.3919 1616.687,-419.6332"/>
</g>
<!-- p30 -->
<g id="node39" class="node">
<title>p30</title>
<ellipse fill="#000000" stroke="#000000" cx="1635.6" cy="-407.6" rx="1.8" ry="1.8"/>
</g>
<!-- p29&#45;&gt;p30 -->
<g id="edge34" class="edge">
<title>p29&#45;&gt;p30</title>
<path fill="none" stroke="#000000" d="M1616.2976,-476.3161C1618.034,-470.6481 1619.9256,-464.3746 1621.6,-458.6 1625.4836,-445.207 1629.6866,-429.7551 1632.4632,-419.4011"/>
<polygon fill="#000000" stroke="#000000" points="1635.895,-420.115 1635.086,-409.5511 1629.1307,-418.3139 1635.895,-420.115"/>
</g>
<!-- p28 -->
<g id="node34" class="node">
<title>p28</title>
<ellipse fill="#000000" stroke="#000000" cx="1574.6" cy="-581.6" rx="3.6" ry="3.6"/>
</g>
<!-- p28&#45;&gt;p29 -->
<g id="edge29" class="edge">
<title>p28&#45;&gt;p29</title>
<path fill="none" stroke="#000000" d="M1573.5564,-577.9494C1571.2869,-569.306 1566.6412,-547.0799 1573.6,-530.6 1575.0817,-527.091 1577.0912,-523.7549 1579.4124,-520.6309"/>
<polygon fill="#000000" stroke="#000000" points="1582.2245,-522.7306 1586.1364,-512.8844 1576.9382,-518.142 1582.2245,-522.7306"/>
<text text-anchor="middle" x="1597.6" y="-534.4" font-family="Times,serif" font-size="14.00" fill="#000000">guides</text>
</g>
<!-- p39 -->
<g id="node43" class="node">
<title>p39</title>
<ellipse fill="#000000" stroke="#000000" cx="964.6" cy="-335.1" rx="1.8" ry="1.8"/>
</g>
<!-- p37&#45;&gt;p39 -->
<g id="edge37" class="edge">
<title>p37&#45;&gt;p39</title>
<path fill="none" stroke="#000000" d="M947.4039,-389.3052C951.6582,-375.8948 957.3039,-358.0985 960.9449,-346.6215"/>
<polygon fill="#000000" stroke="#000000" points="964.335,-347.5095 964.0228,-336.9193 957.6627,-345.3928 964.335,-347.5095"/>
<text text-anchor="middle" x="1008.6" y="-360.4" font-family="Times,serif" font-size="14.00" fill="#000000">library_counts</text>
</g>
<!-- p38 -->
<g id="node44" class="node">
<title>p38</title>
<ellipse fill="#000000" stroke="#000000" cx="918.6" cy="-335.1" rx="1.8" ry="1.8"/>
</g>
<!-- p37&#45;&gt;p38 -->
<g id="edge38" class="edge">
<title>p37&#45;&gt;p38</title>
<path fill="none" stroke="#000000" d="M935.7961,-389.3052C931.5418,-375.8948 925.8961,-358.0985 922.2551,-346.6215"/>
<polygon fill="#000000" stroke="#000000" points="925.5373,-345.3928 919.1772,-336.9193 918.865,-347.5095 925.5373,-345.3928"/>
</g>
<!-- p34 -->
<g id="node40" class="node">
<title>p34</title>
<ellipse fill="#000000" stroke="#000000" cx="595.6" cy="-1076.8" rx="3.6" ry="3.6"/>
<text text-anchor="middle" x="537.5" y="-1084.2" font-family="Times,serif" font-size="14.00" fill="#000000">Channel.empty</text>
</g>
<!-- p35 -->
<g id="node41" class="node">
<title>p35</title>
<ellipse fill="#000000" stroke="#000000" cx="595.6" cy="-1018.7" rx="1.8" ry="1.8"/>
</g>
<!-- p34&#45;&gt;p35 -->
<g id="edge35" class="edge">
<title>p34&#45;&gt;p35</title>
<path fill="none" stroke="#000000" d="M595.6,-1072.9879C595.6,-1064.5054 595.6,-1043.7763 595.6,-1030.5274"/>
<polygon fill="#000000" stroke="#000000" points="599.1001,-1030.5025 595.6,-1020.5025 592.1001,-1030.5026 599.1001,-1030.5025"/>
<text text-anchor="middle" x="661.6" y="-1044" font-family="Times,serif" font-size="14.00" fill="#000000">ch_sample_counts</text>
</g>
<!-- p36 -->
<g id="node42" class="node">
<title>p36</title>
<ellipse fill="#000000" stroke="#000000" cx="406.6" cy="-494.6" rx="3.6" ry="3.6"/>
</g>
<!-- p36&#45;&gt;p37 -->
<g id="edge36" class="edge">
<title>p36&#45;&gt;p37</title>
<path fill="none" stroke="#000000" d="M405.1744,-491.0482C401.734,-481.828 394.1431,-456.9233 406.6,-443.6 413.9441,-435.7451 485.6999,-428.8701 574.4078,-423.2911"/>
<polygon fill="#000000" stroke="#000000" points="574.6885,-426.7805 584.453,-422.6691 574.2558,-419.7939 574.6885,-426.7805"/>
<text text-anchor="middle" x="471.1" y="-447.4" font-family="Times,serif" font-size="14.00" fill="#000000">pycroquet_library</text>
</g>
<!-- p42 -->
<g id="node46" class="node">
<title>p42</title>
<ellipse fill="none" stroke="#000000" cx="112.6" cy="-930.6" rx="3.5" ry="3.5"/>
<text text-anchor="middle" x="93.6" y="-937.9" font-family="Times,serif" font-size="14.00" fill="#000000">map</text>
</g>
<!-- p41&#45;&gt;p42 -->
<g id="edge40" class="edge">
<title>p41&#45;&gt;p42</title>
<path fill="none" stroke="#000000" d="M112.6,-970.9401C112.6,-965.1469 112.6,-953.744 112.6,-944.5354"/>
<polygon fill="#000000" stroke="#000000" points="116.1001,-944.3504 112.6,-934.3504 109.1001,-944.3505 116.1001,-944.3504"/>
</g>
<!-- p43 -->
<g id="node47" class="node">
<title>p43</title>
<ellipse fill="none" stroke="#000000" cx="112.6" cy="-858" rx="3.5" ry="3.5"/>
<text text-anchor="middle" x="85.1" y="-865.3" font-family="Times,serif" font-size="14.00" fill="#000000">flatten</text>
</g>
<!-- p42&#45;&gt;p43 -->
<g id="edge41" class="edge">
<title>p42&#45;&gt;p43</title>
<path fill="none" stroke="#000000" d="M112.6,-927.0984C112.6,-917.2521 112.6,-888.9232 112.6,-871.7484"/>
<polygon fill="#000000" stroke="#000000" points="116.1001,-871.6375 112.6,-861.6375 109.1001,-871.6376 116.1001,-871.6375"/>
</g>
<!-- p44 -->
<g id="node48" class="node">
<title>p44</title>
<ellipse fill="none" stroke="#000000" cx="112.6" cy="-799.4" rx="3.5" ry="3.5"/>
<text text-anchor="middle" x="84.6" y="-806.7" font-family="Times,serif" font-size="14.00" fill="#000000">collect</text>
</g>
<!-- p43&#45;&gt;p44 -->
<g id="edge42" class="edge">
<title>p43&#45;&gt;p44</title>
<path fill="none" stroke="#000000" d="M112.6,-854.1551C112.6,-845.9672 112.6,-826.4661 112.6,-813.092"/>
<polygon fill="#000000" stroke="#000000" points="116.1001,-813.0325 112.6,-803.0325 109.1001,-813.0325 116.1001,-813.0325"/>
</g>
<!-- p45 -->
<g id="node49" class="node">
<title>p45</title>
<ellipse fill="none" stroke="#000000" cx="297.6" cy="-741.2" rx="3.5" ry="3.5"/>
<text text-anchor="middle" x="278.6" y="-748.5" font-family="Times,serif" font-size="14.00" fill="#000000">map</text>
</g>
<!-- p44&#45;&gt;p45 -->
<g id="edge43" class="edge">
<title>p44&#45;&gt;p45</title>
<path fill="none" stroke="#000000" d="M116.1304,-798.2893C137.1355,-791.6813 246.0383,-757.421 284.2949,-745.3857"/>
<polygon fill="#000000" stroke="#000000" points="285.5438,-748.662 294.0325,-742.3223 283.443,-741.9846 285.5438,-748.662"/>
<text text-anchor="middle" x="305.1" y="-766.6" font-family="Times,serif" font-size="14.00" fill="#000000">ch_software_versions</text>
</g>
<!-- p73 -->
<g id="node74" class="node">
<title>p73</title>
<ellipse fill="none" stroke="#000000" cx="391.6" cy="-58.1" rx="3.5" ry="3.5"/>
<text text-anchor="middle" x="374.6" y="-65.4" font-family="Times,serif" font-size="14.00" fill="#000000">mix</text>
</g>
<!-- p44&#45;&gt;p73 -->
<g id="edge72" class="edge">
<title>p44&#45;&gt;p73</title>
<path fill="none" stroke="#000000" d="M112.0649,-795.7324C110.775,-786.5622 107.6,-761.8884 107.6,-741.2 107.6,-741.2 107.6,-741.2 107.6,-102.1 107.6,-74.4428 320.65,-61.6872 377.6933,-58.7676"/>
<polygon fill="#000000" stroke="#000000" points="378.1926,-62.2474 388.0092,-58.2619 377.8498,-55.2558 378.1926,-62.2474"/>
<text text-anchor="middle" x="185.1" y="-360.4" font-family="Times,serif" font-size="14.00" fill="#000000">ch_software_versions</text>
</g>
<!-- p46 -->
<g id="node50" class="node">
<title>p46</title>
<ellipse fill="none" stroke="#000000" cx="324.6" cy="-668.6" rx="3.5" ry="3.5"/>
<text text-anchor="middle" x="296.6" y="-675.9" font-family="Times,serif" font-size="14.00" fill="#000000">collect</text>
</g>
<!-- p45&#45;&gt;p46 -->
<g id="edge44" class="edge">
<title>p45&#45;&gt;p46</title>
<path fill="none" stroke="#000000" d="M298.9023,-737.6984C302.6339,-727.6644 313.5037,-698.4367 319.8476,-681.3788"/>
<polygon fill="#000000" stroke="#000000" points="323.1677,-682.492 323.373,-671.8992 316.6067,-680.0519 323.1677,-682.492"/>
</g>
<!-- p47 -->
<g id="node51" class="node">
<title>p47</title>
<ellipse fill="none" stroke="#000000" cx="403.6" cy="-581.6" rx="268.3524" ry="18"/>
<text text-anchor="middle" x="403.6" y="-577.9" font-family="Times,serif" font-size="14.00" fill="#000000">NFCORE_QUANTS:SGE:GET_SOFTWARE_VERSIONS</text>
</g>
<!-- p46&#45;&gt;p47 -->
<g id="edge45" class="edge">
<title>p46&#45;&gt;p47</title>
<path fill="none" stroke="#000000" d="M327.2285,-665.7054C335.3833,-656.7247 360.8646,-628.663 380.1708,-607.4017"/>
<polygon fill="#000000" stroke="#000000" points="382.8294,-609.6804 386.9607,-599.9242 377.6471,-604.9746 382.8294,-609.6804"/>
</g>
<!-- p48 -->
<g id="node52" class="node">
<title>p48</title>
<ellipse fill="#000000" stroke="#000000" cx="429.6" cy="-494.6" rx="1.8" ry="1.8"/>
</g>
<!-- p47&#45;&gt;p48 -->
<g id="edge46" class="edge">
<title>p47&#45;&gt;p48</title>
<path fill="none" stroke="#000000" d="M408.9872,-563.5735C414.1411,-546.3278 421.7598,-520.8345 426.1467,-506.1554"/>
<polygon fill="#000000" stroke="#000000" points="429.5167,-507.102 429.0267,-496.5185 422.8098,-505.0976 429.5167,-507.102"/>
</g>
<!-- p58 -->
<g id="node53" class="node">
<title>p58</title>
<ellipse fill="none" stroke="#000000" cx="353.6" cy="-494.6" rx="3.5" ry="3.5"/>
<text text-anchor="middle" x="325.6" y="-501.9" font-family="Times,serif" font-size="14.00" fill="#000000">collect</text>
</g>
<!-- p47&#45;&gt;p58 -->
<g id="edge47" class="edge">
<title>p47&#45;&gt;p58</title>
<path fill="none" stroke="#000000" d="M393.24,-563.5735C383.4842,-546.5985 369.136,-521.6326 360.6427,-506.8544"/>
<polygon fill="#000000" stroke="#000000" points="363.4797,-504.7664 355.4622,-497.8403 357.4106,-508.2544 363.4797,-504.7664"/>
</g>
<!-- p59 -->
<g id="node62" class="node">
<title>p59</title>
<ellipse fill="none" stroke="#000000" cx="267.6" cy="-407.6" rx="3.5" ry="3.5"/>
<text text-anchor="middle" x="250.6" y="-414.9" font-family="Times,serif" font-size="14.00" fill="#000000">mix</text>
</g>
<!-- p58&#45;&gt;p59 -->
<g id="edge57" class="edge">
<title>p58&#45;&gt;p59</title>
<path fill="none" stroke="#000000" d="M350.8313,-492.4195C340.6216,-484.3002 304.3912,-454.7849 279.6,-425.6 277.9405,-423.6464 276.3129,-421.4551 274.8182,-419.2916"/>
<polygon fill="#000000" stroke="#000000" points="277.7483,-417.3768 269.431,-410.8139 271.8403,-421.1311 277.7483,-417.3768"/>
</g>
<!-- p49 -->
<g id="node54" class="node">
<title>p49</title>
<ellipse fill="#000000" stroke="#000000" cx="833.6" cy="-741.2" rx="3.6" ry="3.6"/>
<text text-anchor="middle" x="775.5" y="-726.4" font-family="Times,serif" font-size="14.00" fill="#000000">Channel.empty</text>
</g>
<!-- p51 -->
<g id="node55" class="node">
<title>p51</title>
<ellipse fill="none" stroke="#000000" cx="833.6" cy="-668.6" rx="3.5" ry="3.5"/>
<text text-anchor="middle" x="816.6" y="-675.9" font-family="Times,serif" font-size="14.00" fill="#000000">mix</text>
</g>
<!-- p49&#45;&gt;p51 -->
<g id="edge48" class="edge">
<title>p49&#45;&gt;p51</title>
<path fill="none" stroke="#000000" d="M833.6,-737.2967C833.6,-727.1576 833.6,-699.597 833.6,-682.6256"/>
<polygon fill="#000000" stroke="#000000" points="837.1001,-682.1754 833.6,-672.1755 830.1001,-682.1755 837.1001,-682.1754"/>
<text text-anchor="middle" x="892.6" y="-708.4" font-family="Times,serif" font-size="14.00" fill="#000000">ch_multiqc_files</text>
</g>
<!-- p54 -->
<g id="node57" class="node">
<title>p54</title>
<ellipse fill="none" stroke="#000000" cx="800.6" cy="-581.6" rx="3.5" ry="3.5"/>
<text text-anchor="middle" x="783.6" y="-588.9" font-family="Times,serif" font-size="14.00" fill="#000000">mix</text>
</g>
<!-- p51&#45;&gt;p54 -->
<g id="edge50" class="edge">
<title>p51&#45;&gt;p54</title>
<path fill="none" stroke="#000000" d="M832.3467,-665.2957C827.977,-653.7757 813.2597,-614.9755 805.4933,-594.5006"/>
<polygon fill="#000000" stroke="#000000" points="808.6737,-593.0162 801.8546,-584.9076 802.1287,-595.4989 808.6737,-593.0162"/>
<text text-anchor="middle" x="877.6" y="-621.4" font-family="Times,serif" font-size="14.00" fill="#000000">ch_multiqc_files</text>
</g>
<!-- p50 -->
<g id="node56" class="node">
<title>p50</title>
<ellipse fill="#000000" stroke="#000000" cx="966.6" cy="-741.2" rx="3.6" ry="3.6"/>
<text text-anchor="middle" x="914" y="-748.6" font-family="Times,serif" font-size="14.00" fill="#000000">Channel.from</text>
</g>
<!-- p50&#45;&gt;p51 -->
<g id="edge49" class="edge">
<title>p50&#45;&gt;p51</title>
<path fill="none" stroke="#000000" d="M966.2618,-737.6081C965.3816,-730.313 962.36,-713.6853 952.6,-704.6 937.0487,-690.1237 875.0414,-676.6226 847.2254,-671.1579"/>
<polygon fill="#000000" stroke="#000000" points="847.8625,-667.7164 837.3841,-669.2826 846.5522,-674.5926 847.8625,-667.7164"/>
</g>
<!-- p57 -->
<g id="node59" class="node">
<title>p57</title>
<ellipse fill="none" stroke="#000000" cx="693.6" cy="-494.6" rx="3.5" ry="3.5"/>
<text text-anchor="middle" x="676.6" y="-501.9" font-family="Times,serif" font-size="14.00" fill="#000000">mix</text>
</g>
<!-- p54&#45;&gt;p57 -->
<g id="edge53" class="edge">
<title>p54&#45;&gt;p57</title>
<path fill="none" stroke="#000000" d="M797.5131,-579.0901C783.8413,-567.9738 728.3715,-522.8721 704.5527,-503.5055"/>
<polygon fill="#000000" stroke="#000000" points="706.4636,-500.5483 696.4966,-496.9552 702.0475,-505.9795 706.4636,-500.5483"/>
<text text-anchor="middle" x="811.6" y="-534.4" font-family="Times,serif" font-size="14.00" fill="#000000">ch_multiqc_files</text>
</g>
<!-- p53&#45;&gt;p54 -->
<g id="edge52" class="edge">
<title>p53&#45;&gt;p54</title>
<path fill="none" stroke="#000000" d="M800.6,-664.8617C800.6,-653.0107 800.6,-615.8578 800.6,-595.4184"/>
<polygon fill="#000000" stroke="#000000" points="804.1001,-595.2275 800.6,-585.2275 797.1001,-595.2276 804.1001,-595.2275"/>
</g>
<!-- p57&#45;&gt;p59 -->
<g id="edge56" class="edge">
<title>p57&#45;&gt;p59</title>
<path fill="none" stroke="#000000" d="M690.324,-493.1697C674.2581,-486.23 602.0511,-455.8997 539.6,-443.6 482.7755,-432.4084 329.6884,-454.6762 279.6,-425.6 277.3303,-424.2825 275.4057,-422.3432 273.8068,-420.2196"/>
<polygon fill="#000000" stroke="#000000" points="276.6883,-418.1937 268.8236,-411.0946 270.5447,-421.5487 276.6883,-418.1937"/>
<text text-anchor="middle" x="655.6" y="-447.4" font-family="Times,serif" font-size="14.00" fill="#000000">ch_multiqc_files</text>
</g>
<!-- p55 -->
<g id="node60" class="node">
<title>p55</title>
<ellipse fill="#000000" stroke="#000000" cx="619.6" cy="-668.6" rx="3.6" ry="3.6"/>
</g>
<!-- p56 -->
<g id="node61" class="node">
<title>p56</title>
<ellipse fill="none" stroke="#000000" cx="693.6" cy="-581.6" rx="3.5" ry="3.5"/>
<text text-anchor="middle" x="728.1" y="-588.9" font-family="Times,serif" font-size="14.00" fill="#000000">collectFile</text>
</g>
<!-- p55&#45;&gt;p56 -->
<g id="edge54" class="edge">
<title>p55&#45;&gt;p56</title>
<path fill="none" stroke="#000000" d="M619.2711,-664.8634C618.6717,-655.6348 618.4322,-631.5059 630.6,-617.6 646.1529,-599.8255 661.7327,-613.8075 680.6,-599.6 682.8345,-597.9174 684.8467,-595.7425 686.5831,-593.4896"/>
<polygon fill="#000000" stroke="#000000" points="689.6554,-595.1792 692.0303,-584.8539 683.7349,-591.4446 689.6554,-595.1792"/>
<text text-anchor="middle" x="713.6" y="-621.4" font-family="Times,serif" font-size="14.00" fill="#000000">ch_workflow_summary</text>
</g>
<!-- p56&#45;&gt;p57 -->
<g id="edge55" class="edge">
<title>p56&#45;&gt;p57</title>
<path fill="none" stroke="#000000" d="M693.6,-577.8617C693.6,-566.0107 693.6,-528.8578 693.6,-508.4184"/>
<polygon fill="#000000" stroke="#000000" points="697.1001,-508.2275 693.6,-498.2275 690.1001,-508.2276 697.1001,-508.2275"/>
</g>
<!-- p62 -->
<g id="node63" class="node">
<title>p62</title>
<ellipse fill="none" stroke="#000000" cx="941.6" cy="-335.1" rx="3.5" ry="3.5"/>
<text text-anchor="middle" x="924.6" y="-342.4" font-family="Times,serif" font-size="14.00" fill="#000000">mix</text>
</g>
<!-- p59&#45;&gt;p62 -->
<g id="edge58" class="edge">
<title>p59&#45;&gt;p62</title>
<path fill="none" stroke="#000000" d="M268.8284,-404.1136C270.5264,-399.8706 274.0281,-392.8688 279.6,-389.6 401.8857,-317.8608 770.7627,-362.665 928.0276,-338.059"/>
<polygon fill="#000000" stroke="#000000" points="928.8109,-341.4758 938.0755,-336.3358 927.6277,-334.5765 928.8109,-341.4758"/>
<text text-anchor="middle" x="453.6" y="-360.4" font-family="Times,serif" font-size="14.00" fill="#000000">ch_multiqc_files</text>
</g>
<!-- p65 -->
<g id="node65" class="node">
<title>p65</title>
<ellipse fill="none" stroke="#000000" cx="941.6" cy="-277.1" rx="3.5" ry="3.5"/>
<text text-anchor="middle" x="924.6" y="-284.4" font-family="Times,serif" font-size="14.00" fill="#000000">mix</text>
</g>
<!-- p62&#45;&gt;p65 -->
<g id="edge61" class="edge">
<title>p62&#45;&gt;p65</title>
<path fill="none" stroke="#000000" d="M941.6,-331.2945C941.6,-323.2731 941.6,-304.2817 941.6,-291.0589"/>
<polygon fill="#000000" stroke="#000000" points="945.1001,-290.6953 941.6,-280.6953 938.1001,-290.6953 945.1001,-290.6953"/>
<text text-anchor="middle" x="1000.6" y="-302.4" font-family="Times,serif" font-size="14.00" fill="#000000">ch_multiqc_files</text>
</g>
<!-- p61&#45;&gt;p62 -->
<g id="edge60" class="edge">
<title>p61&#45;&gt;p62</title>
<path fill="none" stroke="#000000" d="M3022.4088,-406.1038C3014.411,-402.4417 2992.7766,-393.0746 2973.6,-389.6 2534.9982,-310.1307 1413.8633,-406.2794 955.1605,-337.9267"/>
<polygon fill="#000000" stroke="#000000" points="955.5309,-334.4427 945.1159,-336.3867 954.47,-341.3618 955.5309,-334.4427"/>
</g>
<!-- p66 -->
<g id="node67" class="node">
<title>p66</title>
<ellipse fill="none" stroke="#000000" cx="764.6" cy="-219.1" rx="3.5" ry="3.5"/>
<text text-anchor="middle" x="736.6" y="-226.4" font-family="Times,serif" font-size="14.00" fill="#000000">collect</text>
</g>
<!-- p65&#45;&gt;p66 -->
<g id="edge64" class="edge">
<title>p65&#45;&gt;p66</title>
<path fill="none" stroke="#000000" d="M938.2222,-275.9932C918.2125,-269.4363 814.8326,-235.5604 777.8089,-223.4283"/>
<polygon fill="#000000" stroke="#000000" points="778.6059,-220.0065 768.0132,-220.2185 776.4262,-226.6584 778.6059,-220.0065"/>
<text text-anchor="middle" x="932.6" y="-244.4" font-family="Times,serif" font-size="14.00" fill="#000000">ch_multiqc_files</text>
</g>
<!-- p64&#45;&gt;p65 -->
<g id="edge63" class="edge">
<title>p64&#45;&gt;p65</title>
<path fill="none" stroke="#000000" d="M1344.0901,-334.5986C1309.0679,-329.5954 1022.3543,-288.6363 955.4988,-279.0855"/>
<polygon fill="#000000" stroke="#000000" points="955.5933,-275.5636 945.1988,-277.6141 954.6033,-282.4932 955.5933,-275.5636"/>
</g>
<!-- p67 -->
<g id="node68" class="node">
<title>p67</title>
<ellipse fill="none" stroke="#000000" cx="550.6" cy="-160.6" rx="176.2688" ry="18"/>
<text text-anchor="middle" x="550.6" y="-156.9" font-family="Times,serif" font-size="14.00" fill="#000000">NFCORE_QUANTS:SGE:MULTIQC</text>
</g>
<!-- p66&#45;&gt;p67 -->
<g id="edge65" class="edge">
<title>p66&#45;&gt;p67</title>
<path fill="none" stroke="#000000" d="M760.8856,-218.0846C744.4531,-213.5925 676.7075,-195.0733 622.489,-180.2519"/>
<polygon fill="#000000" stroke="#000000" points="623.1071,-176.7925 612.5381,-177.5317 621.2612,-183.5448 623.1071,-176.7925"/>
</g>
<!-- p70 -->
<g id="node69" class="node">
<title>p70</title>
<ellipse fill="none" stroke="#000000" cx="550.6" cy="-102.1" rx="3.5" ry="3.5"/>
<text text-anchor="middle" x="525.6" y="-109.4" font-family="Times,serif" font-size="14.00" fill="#000000">toList</text>
</g>
<!-- p67&#45;&gt;p70 -->
<g id="edge66" class="edge">
<title>p67&#45;&gt;p70</title>
<path fill="none" stroke="#000000" d="M550.6,-142.4109C550.6,-133.9587 550.6,-124.0613 550.6,-116.189"/>
<polygon fill="#000000" stroke="#000000" points="554.1001,-115.9836 550.6,-105.9837 547.1001,-115.9837 554.1001,-115.9836"/>
</g>
<!-- p69 -->
<g id="node70" class="node">
<title>p69</title>
<ellipse fill="#000000" stroke="#000000" cx="575.6" cy="-102.1" rx="1.8" ry="1.8"/>
</g>
<!-- p67&#45;&gt;p69 -->
<g id="edge67" class="edge">
<title>p67&#45;&gt;p69</title>
<path fill="none" stroke="#000000" d="M558.3731,-142.4109C562.4564,-132.856 567.3289,-121.4544 570.8483,-113.2191"/>
<polygon fill="#000000" stroke="#000000" points="574.0755,-114.5737 574.7868,-104.0028 567.6386,-111.8229 574.0755,-114.5737"/>
</g>
<!-- p68 -->
<g id="node71" class="node">
<title>p68</title>
<ellipse fill="#000000" stroke="#000000" cx="500.6" cy="-102.1" rx="1.8" ry="1.8"/>
</g>
<!-- p67&#45;&gt;p68 -->
<g id="edge68" class="edge">
<title>p67&#45;&gt;p68</title>
<path fill="none" stroke="#000000" d="M535.0538,-142.4109C526.2493,-132.1097 515.6104,-119.6621 508.5058,-111.3498"/>
<polygon fill="#000000" stroke="#000000" points="511.1114,-109.0114 501.9536,-103.6837 505.7902,-113.5595 511.1114,-109.0114"/>
</g>
<!-- p72 -->
<g id="node72" class="node">
<title>p72</title>
<ellipse fill="none" stroke="#000000" cx="524.6" cy="-102.1" rx="3.5" ry="3.5"/>
<text text-anchor="middle" x="492.1" y="-87.4" font-family="Times,serif" font-size="14.00" fill="#000000">ifEmpty</text>
</g>
<!-- p67&#45;&gt;p72 -->
<g id="edge69" class="edge">
<title>p67&#45;&gt;p72</title>
<path fill="none" stroke="#000000" d="M542.516,-142.4109C538.5442,-133.4744 533.8545,-122.9225 530.2696,-114.8565"/>
<polygon fill="#000000" stroke="#000000" points="533.3879,-113.255 526.1282,-105.5383 526.9913,-116.098 533.3879,-113.255"/>
</g>
<!-- p71 -->
<g id="node73" class="node">
<title>p71</title>
<ellipse fill="#000000" stroke="#000000" cx="550.6" cy="-58.1" rx="1.8" ry="1.8"/>
</g>
<!-- p70&#45;&gt;p71 -->
<g id="edge70" class="edge">
<title>p70&#45;&gt;p71</title>
<path fill="none" stroke="#000000" d="M550.6,-98.3486C550.6,-92.1763 550.6,-79.6216 550.6,-70.1659"/>
<polygon fill="#000000" stroke="#000000" points="554.1001,-70.0832 550.6,-60.0833 547.1001,-70.0833 554.1001,-70.0832"/>
</g>
<!-- p72&#45;&gt;p73 -->
<g id="edge71" class="edge">
<title>p72&#45;&gt;p73</title>
<path fill="none" stroke="#000000" d="M521.0426,-100.9231C504.4863,-95.4458 434.5353,-72.3042 404.9265,-62.5088"/>
<polygon fill="#000000" stroke="#000000" points="405.824,-59.1192 395.2307,-59.3011 403.6254,-65.765 405.824,-59.1192"/>
</g>
<!-- p74 -->
<g id="node75" class="node">
<title>p74</title>
<ellipse fill="#000000" stroke="#000000" cx="391.6" cy="-1.8" rx="1.8" ry="1.8"/>
</g>
<!-- p73&#45;&gt;p74 -->
<g id="edge73" class="edge">
<title>p73&#45;&gt;p74</title>
<path fill="none" stroke="#000000" d="M391.6,-54.406C391.6,-46.4172 391.6,-27.2185 391.6,-14.3595"/>
<polygon fill="#000000" stroke="#000000" points="395.1001,-13.9897 391.6,-3.9897 388.1001,-13.9898 395.1001,-13.9897"/>
<text text-anchor="middle" x="469.1" y="-25.4" font-family="Times,serif" font-size="14.00" fill="#000000">ch_software_versions</text>
</g>
</g>
</svg>
